<?xml version="1.0" standalone="no"?><!DOCTYPE svg PUBLIC "-//W3C//DTD SVG 1.1//EN" "http://www.w3.org/Graphics/SVG/1.1/DTD/svg11.dtd"><svg t="1562211772333" class="icon" viewBox="0 0 1024 1024" version="1.1" xmlns="http://www.w3.org/2000/svg" p-id="1448" xmlns:xlink="http://www.w3.org/1999/xlink" width="200" height="200"><defs><style type="text/css"></style></defs><path d="M511.706311 64.020082c-247.272733 0-447.725114 200.453405-447.725114 447.725114s200.452381 447.725114 447.725114 447.725114 447.725114-200.453405 447.725114-447.725114S758.979044 64.020082 511.706311 64.020082zM747.966223 710.694341c0 13.734816-11.134595 24.871457-24.867364 24.871457L648.483464 735.565798c-13.732769 0-24.864294-11.136641-24.864294-24.871457l0-49.738821c0-13.730723 11.131525-24.864294 24.864294-24.864294l49.743938 0 0-149.21851L524.140505 486.872716l0 149.21851 24.870434 0c13.735839 0 24.867364 11.134595 24.867364 24.864294l0 49.738821c0 13.734816-11.131525 24.871457-24.867364 24.871457l-74.608232 0c-13.735839 0-24.867364-11.136641-24.867364-24.871457l0-49.738821c0-13.730723 11.131525-24.864294 24.867364-24.864294l24.873504 0 0-149.21851L325.190337 486.872716l0 149.21851 49.737798 0c13.733792 0 24.867364 11.134595 24.867364 24.864294l0 49.738821c0 13.734816-11.134595 24.871457-24.867364 24.871457l-74.608232 0c-13.735839 0-24.873504-11.136641-24.873504-24.871457l0-49.738821c0-13.730723 11.137665-24.864294 24.873504-24.864294l0-149.21851 0-24.869411 24.870434 0 174.08485 0 0-99.472526-24.873504 0c-13.735839 0-24.867364-11.136641-24.867364-24.869411l0-49.738821 124.343983 0 0 49.738821c0 13.732769-11.131525 24.869411-24.867364 24.869411l-24.870434 0 0 99.472526 174.08792 0 24.870434 0 0 24.869411 0 149.21851c13.733792 0 24.867364 11.134595 24.867364 24.864294L747.966223 710.694341z" p-id="1449"></path></svg>