<?xml version="1.0" standalone="no"?><!DOCTYPE svg PUBLIC "-//W3C//DTD SVG 1.1//EN" "http://www.w3.org/Graphics/SVG/1.1/DTD/svg11.dtd"><svg class="icon" width="200px" height="200.00px" viewBox="0 0 1024 1024" version="1.1" xmlns="http://www.w3.org/2000/svg"><path fill="#333333" d="M752.981333 609.792a298.837333 298.837333 0 0 0 57.386667-131.157333 23.168 23.168 0 0 0-18.986667-26.624 22.869333 22.869333 0 0 0-26.666666 18.944 253.44 253.44 0 0 1-52.138667 116.053333l-198.656 222.933333-193.792-217.514666a253.696 253.696 0 0 1-60.586667-163.84 254.634667 254.634667 0 0 1 254.378667-254.378667 255.146667 255.146667 0 0 1 239.274667 167.808 23.04 23.04 0 1 0 43.392-15.786667A301.269333 301.269333 0 0 0 513.92 127.957333C348.16 127.957333 213.333333 262.869333 213.333333 428.544c0 64.256 21.418667 125.525333 58.965334 176.810667a23.637333 23.637333 0 0 0 4.693333 8.192l8.917333 9.984c1.664 1.962667 2.858667 4.266667 4.608 6.229333 0.725333 0.768 1.706667 1.109333 2.517334 1.792l203.605333 228.565333c0.298667 0.341333 0.725333 0.469333 1.024 0.768 0.298667 0.341333 0.426667 0.768 0.810667 1.109334 1.237333 1.109333 2.730667 1.706667 4.096 2.474666 0.853333 0.512 1.706667 1.194667 2.56 1.578667a24.106667 24.106667 0 0 0 8.746666 1.834667 23.893333 23.893333 0 0 0 8.704-1.834667c0.853333-0.384 1.706667-1.066667 2.56-1.578667 1.408-0.810667 2.901333-1.365333 4.138667-2.474666 0.384-0.341333 0.512-0.768 0.810667-1.109334 0.341333-0.298667 0.768-0.426667 1.066666-0.768l212.010667-238.037333c0.597333-0.597333 1.408-0.810667 1.962667-1.493333 1.024-1.194667 1.792-2.56 2.773333-3.84l2.858667-3.2c1.024-1.109333 1.450667-2.517333 2.133333-3.754667M583.253333 430.506667c0 38.272-31.104 69.418667-69.333333 69.418666s-69.376-31.146667-69.376-69.376c0-38.229333 31.146667-69.376 69.376-69.376 38.229333 0 69.333333 31.146667 69.333333 69.376m-184.96 0a115.712 115.712 0 0 0 115.626667 115.584 115.712 115.712 0 0 0 115.626667-115.626666 115.712 115.712 0 0 0-115.626667-115.626667 115.712 115.712 0 0 0-115.626667 115.626667" /></svg>