<?xml version="1.0" standalone="no"?><!DOCTYPE svg PUBLIC "-//W3C//DTD SVG 1.1//EN" "http://www.w3.org/Graphics/SVG/1.1/DTD/svg11.dtd"><svg class="icon" width="200px" height="200.00px" viewBox="0 0 1024 1024" version="1.1" xmlns="http://www.w3.org/2000/svg"><path fill="#333333" d="M760.746667 853.333333H263.210667A92.629333 92.629333 0 0 1 170.666667 760.789333V263.168C170.666667 212.181333 212.181333 170.666667 263.168 170.666667H760.746667C811.818667 170.666667 853.333333 212.181333 853.333333 263.168V448.426667a21.333333 21.333333 0 1 1-42.666666 0V263.168A49.92 49.92 0 0 0 760.746667 213.333333H263.210667A49.92 49.92 0 0 0 213.333333 263.168v497.621333A49.92 49.92 0 0 0 263.168 810.666667H760.746667A49.92 49.92 0 0 0 810.666667 760.789333V576.426667a21.333333 21.333333 0 0 1 42.666666 0v184.362666A92.629333 92.629333 0 0 1 760.746667 853.333333M378.282667 385.962667c-10.709333 0-16.981333-5.333333-18.901334-16-1.024-10.666667 3.370667-16.512 13.056-17.493334h20.394667c114.432-1.92 196.906667-4.352 247.381333-7.253333 11.605333 0 18.346667 4.864 20.352 14.506667 0.981333 10.666667-3.925333 17.493333-14.592 20.394666-34.901333 0-73.216 0.981333-114.901333 2.944v29.098667h136.746667c9.728 0.981333 15.061333 6.784 16 17.450667-0.938667 10.666667-6.272 16.512-16 17.450666h-112.042667c31.061333 19.413333 71.253333 33.962667 120.746667 43.648 10.666667 3.84 14.08 11.648 10.197333 23.296-5.802667 11.605333-15.018667 15.530667-27.605333 11.605334-57.258667-16.469333-99.925333-37.290667-128.042667-62.549334v29.098667c-0.981333 10.666667-8.234667 16.512-21.845333 17.450667-11.648-0.938667-17.962667-6.741333-18.901334-17.493334v-27.605333c-29.141333 25.258667-71.808 47.061333-128.042666 65.493333-13.653333 2.901333-23.296-0.469333-29.141334-10.24-3.84-13.525333-0.469333-22.272 10.24-26.154666 52.352-11.648 92.586667-27.136 120.746667-46.549334h-113.493333c-9.728-0.938667-15.061333-6.826667-16-17.493333 0.938667-10.666667 6.272-16.426667 16-17.408h139.690666v-29.098667c-12.629333 0-31.573333 0.426667-56.746666 1.450667-25.258667 0-43.690667 0.512-55.296 1.450667z m-30.592 226.986666c-10.666667-0.981333-16.512-6.826667-17.493334-17.493333 0.981333-10.666667 6.826667-16.469333 17.493334-17.493333h149.888a40.021333 40.021333 0 0 1 10.197333-11.562667l29.098667-14.549333c1.962667-1.962667 1.962667-3.413333 0-4.394667H410.282667c-9.728-0.938667-15.061333-6.272-16-16 0.938667-9.685333 6.272-15.018667 16-16h183.338666c9.685333 0.981333 15.018667 6.314667 16 16a24.32 24.32 0 0 1-14.549333 23.296l-40.746667 20.352c-0.938667 1.962667-2.432 2.901333-4.352 2.901333h123.690667c10.666667 0.981333 16.469333 6.826667 17.450667 17.493334-0.981333 10.666667-6.826667 16.469333-17.493334 17.450666h-133.845333v23.253334c0.981333 29.098667-13.568 44.629333-43.648 46.592h-29.098667c-14.549333 0.938667-24.746667 1.450667-30.549333 1.450666-11.648 0-18.901333-5.333333-21.802667-16 0-11.648 5.333333-18.432 16-20.394666h11.605334c14.592 0.981333 24.746667 0.981333 30.592 0 16.469333 0.981333 24.192-5.802667 23.253333-20.352v-14.549334h-148.48z" /></svg>