<?xml version="1.0" standalone="no"?><!DOCTYPE svg PUBLIC "-//W3C//DTD SVG 1.1//EN" "http://www.w3.org/Graphics/SVG/1.1/DTD/svg11.dtd"><svg t="1562211940662" class="icon" viewBox="0 0 1024 1024" version="1.1" xmlns="http://www.w3.org/2000/svg" p-id="3375" xmlns:xlink="http://www.w3.org/1999/xlink" width="200" height="200"><defs><style type="text/css"></style></defs><path d="M 668 64 H 288 c -74.1 0 -134.4 60.3 -134.4 134.4 v 627.2 c 0 74.1 60.3 134.4 134.4 134.4 h 448 c 74.1 0 134.4 -60.3 134.4 -134.4 V 319 L 668 64 Z m 112.8 761.6 c 0 24.7 -20.1 44.8 -44.8 44.8 H 288 c -24.7 0 -44.8 -20.1 -44.8 -44.8 V 198.4 c 0 -24.7 20.1 -44.8 44.8 -44.8 h 336.8 l 156 196.6 v 475.4 Z" fill="" p-id="3376"></path><path d="M 377.6 361.1 H 575 c 24.6 0 44.8 -20.2 44.8 -44.8 c 0 -24.6 -20.2 -44.8 -44.8 -44.8 H 377.6 c -24.6 0 -44.8 20.2 -44.8 44.8 c 0 24.6 20.2 44.8 44.8 44.8 Z M 332.8 511 c 0 24.6 20.2 44.8 44.8 44.8 h 268.8 c 24.6 0 44.8 -20.2 44.8 -44.8 c 0 -24.6 -20.2 -44.8 -44.8 -44.8 H 377.6 c -24.6 0 -44.8 20.2 -44.8 44.8 Z M 646.4 661 H 377.6 c -24.6 0 -44.8 20.2 -44.8 44.8 c 0 24.6 20.2 44.8 44.8 44.8 h 268.8 c 24.6 0 44.8 -20.2 44.8 -44.8 c 0 -24.7 -20.2 -44.8 -44.8 -44.8 Z" fill="" p-id="3377"></path></svg>