<?xml version="1.0" standalone="no"?><!DOCTYPE svg PUBLIC "-//W3C//DTD SVG 1.1//EN" "http://www.w3.org/Graphics/SVG/1.1/DTD/svg11.dtd"><svg t="1561098732519" class="icon" viewBox="0 0 1024 1024" version="1.1" xmlns="http://www.w3.org/2000/svg" p-id="1388" xmlns:xlink="http://www.w3.org/1999/xlink" width="200" height="200"><defs><style type="text/css"></style></defs><path d="M455.47 225.228l-17.467 3.444-55.326-66.446a14 14 0 0 0-17.759-3.166l-85.627 49.437a14 14 0 0 0-6.138 16.962l29.963 81.36-11.641 13.394c-24.696 28.414-43.594 61.359-55.769 96.947l-5.758 16.831-85.719 14.78a14 14 0 0 0-11.621 13.796v98.874a14 14 0 0 0 11.621 13.796l85.747 14.784 5.786 16.761c6.069 17.577 13.849 34.641 23.306 51.022 9.459 16.383 20.349 31.655 32.539 45.7l11.622 13.392-30.07 81.649a14 14 0 0 0 6.138 16.962l85.628 49.437a14 14 0 0 0 17.758-3.166l55.66-66.847 17.455 3.428c36.906 7.25 74.883 7.354 111.835 0.175l17.42-3.384 55.479 66.628a14 14 0 0 0 17.759 3.166l85.627-49.437a14 14 0 0 0 6.137-16.962l-29.88-81.138 11.715-13.404c24.89-28.478 43.939-61.542 56.205-97.283l5.768-16.806 85.123-14.677a14 14 0 0 0 11.622-13.796v-98.874a14 14 0 0 0-11.622-13.797l-84.914-14.64-5.768-16.806c-6.093-17.752-13.93-34.984-23.477-51.52-9.546-16.534-20.549-31.935-32.874-46.086l-11.67-13.399 29.78-80.86a14 14 0 0 0-6.138-16.962l-85.628-49.437a14 14 0 0 0-17.758 3.166l-55.27 66.379-17.44-3.409c-37.088-7.249-75.25-7.285-112.36 0.032z m106.095-61.924l32.865-39.47c23.047-27.68 62.675-34.745 93.867-16.736l85.628 49.437c31.192 18.01 44.888 55.86 32.44 89.66l-17.68 48.01a354.743 354.743 0 0 1 28.103 41.599 354.742 354.742 0 0 1 21.978 45.147l50.415 8.692c35.494 6.12 61.427 36.906 61.427 72.924v98.874c0 36.018-25.933 66.804-61.427 72.924l-50.619 8.727a351.63 351.63 0 0 1-49.963 86.493l17.76 48.224c12.447 33.799-1.249 71.65-32.441 89.66l-85.627 49.437c-31.193 18.009-70.821 10.943-93.868-16.736l-33.106-39.76a351.655 351.655 0 0 1-99.293-0.15l-33.232 39.91c-23.047 27.68-62.675 34.745-93.867 16.736l-85.628-49.437c-31.192-18.01-44.888-55.861-32.44-89.66l17.995-48.863a354.783 354.783 0 0 1-27.746-41.142 354.783 354.783 0 0 1-21.753-44.591l-51.318-8.848c-35.495-6.12-61.427-36.906-61.427-72.924v-98.874c0-36.018 25.932-66.804 61.427-72.924l51.176-8.824a351.655 351.655 0 0 1 49.519-86.074l-17.88-48.55c-12.447-33.8 1.248-71.65 32.44-89.66l85.628-49.437c31.192-18.009 70.82-10.943 93.868 16.736l32.883 39.493a351.63 351.63 0 0 1 99.896-0.023z" p-id="1389"></path><path d="M609.947 681.545c-93.745 54.124-213.617 22.004-267.74-71.741-54.124-93.746-22.005-213.617 71.74-267.741 93.746-54.124 213.618-22.005 267.741 71.74 54.124 93.746 22.005 213.618-71.74 267.742z m-30-51.962c65.048-37.555 87.335-120.731 49.78-185.78-37.555-65.047-120.732-87.334-185.78-49.779-65.047 37.556-87.334 120.732-49.779 185.78s120.732 87.335 185.78 49.78z" p-id="1390"></path></svg>