<?xml version="1.0" standalone="no"?><!DOCTYPE svg PUBLIC "-//W3C//DTD SVG 1.1//EN" "http://www.w3.org/Graphics/SVG/1.1/DTD/svg11.dtd"><svg t="1562211905535" class="icon" viewBox="0 0 1024 1024" version="1.1" xmlns="http://www.w3.org/2000/svg" p-id="2609" xmlns:xlink="http://www.w3.org/1999/xlink" width="200" height="200"><defs><style type="text/css"></style></defs><path d="M419.328 896h-1.536c-17.92 0-32.768-14.848-32.768-32.768V160.768c0-17.92 14.848-32.768 32.768-32.768h1.536c17.92 0 32.768 14.848 32.768 32.768v702.976c0 17.408-14.848 32.256-32.768 32.256z" p-id="2610"></path><path d="M226.816 391.168l-1.024-1.024c-13.824-11.776-15.36-32.256-4.096-46.08l172.032-204.8c11.776-13.824 32.256-15.36 46.08-4.096l1.024 1.024c13.824 11.776 15.36 32.256 4.096 46.08l-172.032 204.8c-11.776 13.824-32.768 15.872-46.08 4.096zM226.816 632.832l-1.024 1.024c-13.824 11.776-15.36 32.256-4.096 46.08l172.032 204.8c11.776 13.824 32.256 15.36 46.08 4.096l1.024-1.024c13.824-11.776 15.36-32.256 4.096-46.08l-172.032-204.8c-11.776-13.824-32.768-15.872-46.08-4.096zM587.776 658.432l-44.544-41.984c26.624-28.16 41.472-65.536 41.472-104.448 0-38.912-14.848-75.776-41.472-104.448l44.544-41.984c37.376 39.936 57.856 91.648 57.856 146.432 0.512 54.784-20.48 106.496-57.856 146.432z" p-id="2611"></path><path d="M566.272 387.072m-30.72 0a30.72 30.72 0 1 0 61.44 0 30.72 30.72 0 1 0-61.44 0Z" p-id="2612"></path><path d="M683.008 308.224m-30.72 0a30.72 30.72 0 1 0 61.44 0 30.72 30.72 0 1 0-61.44 0Z" p-id="2613"></path><path d="M797.184 217.6m-30.72 0a30.72 30.72 0 1 0 61.44 0 30.72 30.72 0 1 0-61.44 0Z" p-id="2614"></path><path d="M797.184 806.4m-30.72 0a30.72 30.72 0 1 0 61.44 0 30.72 30.72 0 1 0-61.44 0Z" p-id="2615"></path><path d="M683.008 715.776m-30.72 0a30.72 30.72 0 1 0 61.44 0 30.72 30.72 0 1 0-61.44 0Z" p-id="2616"></path><path d="M566.272 636.928m-30.72 0a30.72 30.72 0 1 0 61.44 0 30.72 30.72 0 1 0-61.44 0Z" p-id="2617"></path><path d="M707.072 734.72l-46.08-40.448c44.032-50.176 68.608-115.2 68.608-182.272 0-67.072-24.064-131.584-68.608-182.272l46.08-40.448c53.76 61.44 83.456 140.8 83.456 222.72 0.512 81.92-29.184 161.28-83.456 222.72zM244.224 699.392l-18.944-11.776H148.48c-36.864 0-67.072-30.208-67.072-67.072l0.512-215.552c0-36.864 30.208-66.56 67.072-66.56h75.776l17.408-12.288 35.328 50.176-33.28 23.04H148.48c-3.072 0-5.632 2.56-5.632 5.632l-0.512 215.552c0 3.072 2.56 5.12 5.632 5.12h94.72l33.792 20.992-32.256 52.736z" p-id="2618"></path><path d="M821.76 825.856l-45.568-41.472c68.096-74.752 105.472-171.008 105.472-272.384 0-100.864-37.376-197.632-105.472-272.384l45.568-41.472c78.336 86.016 121.344 197.632 121.344 313.856 0 116.224-43.52 227.84-121.344 313.856z" p-id="2619"></path></svg>