<?xml version="1.0" standalone="no"?><!DOCTYPE svg PUBLIC "-//W3C//DTD SVG 1.1//EN" "http://www.w3.org/Graphics/SVG/1.1/DTD/svg11.dtd"><svg t="1569220949062" class="icon" viewBox="0 0 1024 1024" version="1.1" xmlns="http://www.w3.org/2000/svg" p-id="1208" xmlns:xlink="http://www.w3.org/1999/xlink" width="200" height="200"><defs><style type="text/css"></style></defs><path d="M895.89 160l0.11 0.11v575.78l-0.11 0.11H128.11l-0.11-0.11V160.11l0.11-0.11h767.78m0.11-64H128a64.19 64.19 0 0 0-64 64v576a64.19 64.19 0 0 0 64 64h768a64.19 64.19 0 0 0 64-64V160a64.19 64.19 0 0 0-64-64zM832 864H192v64h640v-64z" p-id="1209"></path><path d="M576 736H448v128h128V736zM128 672h768v64H128z" p-id="1210"></path></svg>