<?xml version="1.0" standalone="no"?><!DOCTYPE svg PUBLIC "-//W3C//DTD SVG 1.1//EN" "http://www.w3.org/Graphics/SVG/1.1/DTD/svg11.dtd"><svg class="icon" width="200px" height="200.00px" viewBox="0 0 1024 1024" version="1.1" xmlns="http://www.w3.org/2000/svg"><path fill="#333333" d="M676.44928 688.042667L542.17728 553.813333 675.510613 420.437333a21.290667 21.290667 0 0 0 0-30.165333 21.290667 21.290667 0 0 0-30.165333 0L512.011947 523.605333 378.635947 390.272a21.333333 21.333333 0 1 0-30.208 30.165333L481.846613 553.813333 347.574613 688.042667a21.333333 21.333333 0 0 0 30.208 30.165333L512.011947 583.978667l134.229333 134.229333a21.248 21.248 0 0 0 30.208 0 21.333333 21.333333 0 0 0 0-30.165333" /></svg>