<?xml version="1.0" standalone="no"?><!DOCTYPE svg PUBLIC "-//W3C//DTD SVG 1.1//EN" "http://www.w3.org/Graphics/SVG/1.1/DTD/svg11.dtd"><svg class="icon" width="200px" height="200.00px" viewBox="0 0 1024 1024" version="1.1" xmlns="http://www.w3.org/2000/svg"><path fill="#333333" d="M596.317867 482.133333c8.362667 8.362667 12.970667 19.498667 12.970666 31.274667 0 11.776-4.608 22.912-12.970666 31.274667l-105.216 105.258666-104.789334-105.258666a43.989333 43.989333 0 0 1-12.970666-31.274667c0-11.776 4.608-22.912 12.970666-31.274667 8.362667-8.362667 19.498667-12.970667 31.317334-12.970666 11.776 0 22.912 4.608 31.274666 12.970666l27.306667 27.349334a21.162667 21.162667 0 0 0 30.208 0l27.306667-27.306667a45.226667 45.226667 0 0 1 62.592 0m-92.714667-30.208l-12.288 12.288-12.245333-12.288c-32.853333-32.853333-90.069333-32.853333-122.922667 0a86.314667 86.314667 0 0 0-25.472 61.44c0 23.168 9.045333 45.013333 25.472 61.44l119.765333 120.32c3.968 4.010667 9.386667 6.272 15.061334 6.314667a21.461333 21.461333 0 0 0 15.104-6.229334l120.405333-120.405333c16.426667-16.426667 25.472-38.272 25.472-61.44 0-23.210667-9.045333-45.013333-25.472-61.44-32.853333-32.938667-90.069333-32.853333-122.88 0M846.600533 452.181333L507.1872 133.589333A21.205333 21.205333 0 0 0 490.6752 128.085333a21.162667 21.162667 0 0 0-16.512 5.504L134.749867 452.181333a21.290667 21.290667 0 1 0 29.184 31.104l9.6-8.96v279.765334A100.138667 100.138667 0 0 0 273.757867 853.973333h433.834666c55.296 0 100.266667-44.8 100.266667-99.882666v-71.552a21.333333 21.333333 0 0 0-42.666667 0v71.552c0 31.530667-25.856 57.216-57.6 57.216H273.757867a57.472 57.472 0 0 1-57.6-57.216V434.261333L490.6752 176.597333l274.517333 257.664v120.277334a21.333333 21.333333 0 1 0 42.666667 0v-80.213334l9.557333 8.96a21.12 21.12 0 0 0 30.122667-0.938666 21.290667 21.290667 0 0 0-0.938667-30.165334" /></svg>