<?xml version="1.0" standalone="no"?><!DOCTYPE svg PUBLIC "-//W3C//DTD SVG 1.1//EN" "http://www.w3.org/Graphics/SVG/1.1/DTD/svg11.dtd"><svg class="icon" width="200px" height="200.00px" viewBox="0 0 1024 1024" version="1.1" xmlns="http://www.w3.org/2000/svg"><path fill="#333333" d="M760.32 566.144a21.12 21.12 0 0 0-29.738667-4.821333 194.346667 194.346667 0 0 1-192 18.602666 21.290667 21.290667 0 0 0-28.245333 10.496c-0.341333 0.768-0.256 1.493333-0.512 2.133334l-203.989333 203.989333a54.229333 54.229333 0 0 1-76.672-76.629333l209.237333-209.322667a21.034667 21.034667 0 0 0 5.76-25.002667 191.872 191.872 0 0 1-17.536-80.298666c0-105.813333 86.101333-192 192-192 16.981333 0 33.365333 2.986667 49.450667 7.296l-97.706667 97.706666a96.938667 96.938667 0 0 0 68.48 165.461334c25.898667 0 50.218667-10.069333 68.522667-28.416l96.768-96.768c3.84 15.232 6.485333 30.762667 6.485333 46.72 0 11.776-1.109333 23.637333-3.242667 35.370666a21.333333 21.333333 0 1 0 41.984 7.637334c2.56-14.208 3.925333-28.672 3.925334-43.008 0-31.061333-6.016-61.354667-17.92-89.856a19.968 19.968 0 0 0-6.186667-8.021334c-0.597333-0.810667-0.896-1.706667-1.621333-2.432a21.333333 21.333333 0 0 0-30.165334 0l-120.192 120.192c-20.522667 20.48-56.192 20.48-76.672 0a54.314667 54.314667 0 0 1 0-76.714666L720.64 228.352a21.290667 21.290667 0 0 0 0-30.165333c-1.194667-1.237333-2.730667-1.877333-4.138667-2.773334a20.565333 20.565333 0 0 0-8.661333-7.04 231.936 231.936 0 0 0-89.258667-17.706666 234.922667 234.922667 0 0 0-230.016 281.557333c2.56 12.586667 6.485333 24.789333 11.093334 36.778667L198.997333 689.706667a97.024 97.024 0 0 0 0 136.96A96.426667 96.426667 0 0 0 267.477333 855.125333c24.746667 0 49.621333-9.429333 68.522667-28.373333l201.386667-201.386667a233.770667 233.770667 0 0 0 218.112-29.44 21.248 21.248 0 0 0 4.821333-29.738666M830.122667 640H609.706667a21.333333 21.333333 0 0 0 0 42.666667h220.458666a21.333333 21.333333 0 0 0 0-42.666667M830.122667 725.333333h-218.666667a21.333333 21.333333 0 0 0 0 42.666667h218.666667a21.333333 21.333333 0 0 0 0-42.666667M830.122667 812.458667h-218.666667a21.333333 21.333333 0 0 0 0 42.666666h218.666667a21.333333 21.333333 0 0 0 0-42.666666" /></svg>