<?xml version="1.0" standalone="no"?><!DOCTYPE svg PUBLIC "-//W3C//DTD SVG 1.1//EN" "http://www.w3.org/Graphics/SVG/1.1/DTD/svg11.dtd"><svg class="icon" width="200px" height="200.00px" viewBox="0 0 1024 1024" version="1.1" xmlns="http://www.w3.org/2000/svg"><path fill="#333333" d="M639.682873 659.636681a21.330249 21.330249 0 0 0 21.330249 21.330249h218.635056a21.330249 21.330249 0 0 0 0-42.660498H661.013122a21.330249 21.330249 0 0 0-21.330249 21.330249M879.648178 723.627429H661.013122a21.330249 21.330249 0 0 0 0 42.660499h218.635056a21.330249 21.330249 0 0 0 0-42.660499M879.648178 810.697507H661.013122a21.330249 21.330249 0 0 0 0 42.660498h218.635056a21.330249 21.330249 0 0 0 0-42.660498M579.275606 810.697507h-392.903192L518.86834 234.652793l203.61856 350.370676a21.202268 21.202268 0 1 0 39.162338-6.057791l37.62656-117.273711a21.244928 21.244928 0 0 0-13.779341-26.790793 21.202268 21.202268 0 0 0-26.790793 13.822001l-23.463274 73.205416L537.297676 181.412491a21.330249 21.330249 0 0 0-36.943992 0.04266l-369.439919 639.90748A21.330249 21.330249 0 0 0 149.385761 853.358005h429.847185a21.330249 21.330249 0 0 0 0-42.660498M612.806758 622.73535a21.330249 21.330249 0 0 0 0-42.660499h-70.773767v-3.754124l62.881575-59.383414a21.37291 21.37291 0 0 0-29.307762-31.014183l-56.39718 53.282963-56.4825-53.325623a21.244928 21.244928 0 1 0-29.222442 31.056843l65.86781 62.156346v0.981192H424.631299a21.330249 21.330249 0 0 0 0 42.660499h74.741193v22.055477H424.631299a21.330249 21.330249 0 1 0 0 42.660499h74.741193v51.192598a21.330249 21.330249 0 1 0 42.660499 0v-51.192598h70.816428a21.330249 21.330249 0 0 0 0-42.660499h-70.816428v-22.055477h70.816428z" /></svg>