<?xml version="1.0" standalone="no"?><!DOCTYPE svg PUBLIC "-//W3C//DTD SVG 1.1//EN" "http://www.w3.org/Graphics/SVG/1.1/DTD/svg11.dtd"><svg class="icon" width="200px" height="200.00px" viewBox="0 0 1024 1024" version="1.1" xmlns="http://www.w3.org/2000/svg"><path fill="#333333" d="M514.07104 231.210667l135.082667 210.261333-135.082667 95.573333-135.082667-95.573333 135.082667-210.261333z m291.114667 152.106666l-16.810667 101.802667a21.248 21.248 0 0 0 21.077333 24.746667 21.333333 21.333333 0 0 0 20.992-17.834667l24.661334-149.333333a21.333333 21.333333 0 0 0-17.578667-24.490667c-1.152-0.213333-2.218667 0.128-3.328 0.085333a21.546667 21.546667 0 0 0-16.042667 3.541334l-134.144 94.933333L532.033707 180.181333 531.820373 179.968c-0.853333-1.28-2.048-2.176-3.114666-3.242667C527.724373 175.786667 526.913707 174.634667 525.84704 173.952 525.71904 173.909333 525.71904 173.781333 525.633707 173.738667 524.737707 173.184 523.756373 173.098667 522.860373 172.672 521.23904 171.946667 519.788373 171.136 518.081707 170.794667 516.929707 170.624 515.820373 170.794667 514.625707 170.752 513.04704 170.709333 511.425707 170.538667 509.889707 170.88c-1.408 0.256-2.645333 0.981333-3.925334 1.536-1.152 0.426667-2.346667 0.64-3.456 1.28l-0.213333 0.298667C501.185707 174.72 500.332373 175.829333 499.393707 176.768c-1.066667 1.024-2.261333 1.92-3.072 3.157333L496.065707 180.181333 344.08704 416.810667 209.94304 321.834667a21.546667 21.546667 0 0 0-16.128-3.498667c-1.706667-0.085333-3.285333-0.426667-4.992-0.128a21.333333 21.333333 0 0 0-17.578667 24.490667l60.458667 366.250666c0.128 0.981333 0.64 1.706667 0.938667 2.645334 0.341333 1.152 0.64 2.218667 1.152 3.285333 0.682667 1.408 1.621333 2.56 2.56 3.797333 0.682667 0.810667 1.237333 1.664 2.005333 2.389334a19.968 19.968 0 0 0 4.181333 2.816c0.810667 0.426667 1.493333 1.024 2.346667 1.365333a21.077333 21.077333 0 0 0 7.808 1.578667h240.042667a21.333333 21.333333 0 1 0 0-42.666667H270.785707L220.865707 381.909333l280.832 198.741334c0.384 0.298667 0.853333 0.170667 1.28 0.426666 3.413333 2.090667 7.125333 3.498667 11.050666 3.498667a21.248 21.248 0 0 0 11.050667-3.498667c0.384-0.256 0.853333-0.128 1.28-0.426666l278.784-197.333334zM494.48704 810.368H236.737707a21.333333 21.333333 0 0 0 0 42.666667h257.706666a21.333333 21.333333 0 0 0 0-42.666667M706.07104 639.701333a64 64 0 1 0 0 128.042667 64 64 0 0 0 0-128M706.07104 810.368a106.752 106.752 0 0 1-106.666667-106.666667c0-58.837333 47.786667-106.666667 106.666667-106.666666 58.837333 0 106.666667 47.829333 106.666667 106.666666 0 58.88-47.829333 106.666667-106.666667 106.666667m0-256c-82.346667 0-149.333333 66.986667-149.333333 149.333333s66.986667 149.333333 149.333333 149.333334 149.333333-66.986667 149.333333-149.333334-66.986667-149.333333-149.333333-149.333333" /></svg>