<?xml version="1.0" standalone="no"?><!DOCTYPE svg PUBLIC "-//W3C//DTD SVG 1.1//EN" "http://www.w3.org/Graphics/SVG/1.1/DTD/svg11.dtd"><svg class="icon" width="200px" height="200.00px" viewBox="0 0 1024 1024" version="1.1" xmlns="http://www.w3.org/2000/svg"><path fill="#333333" d="M760.789333 170.666667C811.818667 170.666667 853.333333 212.181333 853.333333 263.168v228.821333a21.333333 21.333333 0 1 1-42.666666 0V263.168A49.92 49.92 0 0 0 760.789333 213.333333h-78.592v63.530667c0 11.818667-9.514667 21.333333-21.333333 21.333333h-298.666667a21.333333 21.333333 0 0 1-21.333333-21.333333V213.333333H263.168A49.92 49.92 0 0 0 213.333333 263.168v497.621333A49.92 49.92 0 0 0 263.168 810.666667h227.029333a21.333333 21.333333 0 1 1 0 42.666666H263.168A92.629333 92.629333 0 0 1 170.666667 760.789333V263.168C170.666667 212.181333 212.181333 170.666667 263.168 170.666667h497.621333zM383.530667 255.530667h256V213.333333h-256v42.197334zM470.613333 425.344a21.333333 21.333333 0 0 0-30.165333 0L352.426667 513.365333a21.205333 21.205333 0 0 0-4.608 23.168 20.992 20.992 0 0 0 20.565333 17.706667h295.125333a21.333333 21.333333 0 1 0 0-42.666667H414.592l56.021333-56.064a21.333333 21.333333 0 0 0 0-30.165333M703.573333 639.573333a64 64 0 1 0 0 128 64 64 0 0 0 0-128M703.573333 810.24a106.752 106.752 0 0 1-106.666666-106.666667c0-58.88 47.786667-106.666667 106.666666-106.666666 58.794667 0 106.666667 47.786667 106.666667 106.666666 0 58.794667-47.872 106.666667-106.666667 106.666667m0-256c-40.533333 0-77.226667 16.298667-104.234666 42.666667H363.989333a21.333333 21.333333 0 0 0 0 42.666666h205.226667a147.797333 147.797333 0 0 0-15.018667 64c0 82.346667 66.986667 149.333333 149.333334 149.333334s149.333333-66.986667 149.333333-149.333334-66.986667-149.333333-149.333333-149.333333" /></svg>