<?xml version="1.0" standalone="no"?><!DOCTYPE svg PUBLIC "-//W3C//DTD SVG 1.1//EN" "http://www.w3.org/Graphics/SVG/1.1/DTD/svg11.dtd"><svg class="icon" width="200px" height="200.00px" viewBox="0 0 1024 1024" version="1.1" xmlns="http://www.w3.org/2000/svg"><path fill="#333333" d="M491.989333 854.229333H296.362667c-22.186667 0-40.362667-19.285333-40.362667-43.008V305.450667l134.826667-134.826667h336.853333c22.229333 0 40.32 19.328 40.32 43.050667v324.565333a21.333333 21.333333 0 1 0 42.666667 0V213.674667C810.666667 166.442667 773.418667 128 727.637333 128H382.293333a21.248 21.248 0 0 0-15.232 6.357333c-0.298667 0.256-0.682667 0.341333-0.938666 0.64L219.562667 281.557333a21.12 21.12 0 0 0-6.058667 16.085334c0 0.341333-0.170667 0.64-0.170667 1.024v512.554666c0 47.232 37.248 85.674667 83.029334 85.674667h195.626666a21.333333 21.333333 0 0 0 0-42.666667M532.906667 512H413.312L469.333333 455.978667a21.333333 21.333333 0 0 0-30.165333-30.165334L351.146667 513.792a21.333333 21.333333 0 0 0-4.608 23.210667 20.992 20.992 0 0 0 20.565333 17.664h165.802667a21.333333 21.333333 0 0 0 0-42.666667M616.448 512a21.333333 21.333333 0 0 0 0 42.666667h44.458667a21.333333 21.333333 0 0 0 0-42.666667h-44.458667zM703.573333 683.989333a64 64 0 1 0 0.042667 128.042667 64 64 0 0 0-0.042667-128M703.573333 854.656a106.794667 106.794667 0 0 1-106.666666-106.666667c0-58.794667 47.829333-106.666667 106.666666-106.666666 58.88 0 106.666667 47.872 106.666667 106.666666S762.453333 854.656 703.573333 854.656m0-256C621.226667 598.656 554.24 665.642667 554.24 747.989333S621.226667 897.322667 703.573333 897.322667s149.333333-66.986667 149.333334-149.333334S785.92 598.656 703.573333 598.656" /></svg>