<?xml version="1.0" standalone="no"?><!DOCTYPE svg PUBLIC "-//W3C//DTD SVG 1.1//EN" "http://www.w3.org/Graphics/SVG/1.1/DTD/svg11.dtd"><svg class="icon" width="200px" height="200.00px" viewBox="0 0 1024 1024" version="1.1" xmlns="http://www.w3.org/2000/svg"><path fill="#333333" d="M789.333333 512a21.333333 21.333333 0 0 0 21.333334-21.333333V299.008C810.666667 251.776 773.418667 213.333333 727.637333 213.333333H630.613333a128.298667 128.298667 0 0 0-120.405333-85.333333A128.512 128.512 0 0 0 389.973333 213.333333H296.362667C250.581333 213.333333 213.333333 251.776 213.333333 299.008v511.317333C213.333333 857.557333 250.581333 896 296.362667 896h431.274666C773.418667 896 810.666667 857.557333 810.666667 810.325333V618.666667a21.333333 21.333333 0 0 0-42.666667 0v191.658666c0 23.722667-18.133333 43.008-40.362667 43.008H296.362667C274.133333 853.333333 256 834.048 256 810.325333V299.008C256 275.285333 274.133333 256 296.362667 256h107.178666c4.778667 0 8.96-1.877333 12.544-4.522667a21.12 21.12 0 0 0 10.837334-13.994666A85.76 85.76 0 0 1 510.208 170.666667c40.448 0 75.605333 28.714667 83.626667 68.266666a21.333333 21.333333 0 0 0 20.864 17.066667c0.896 0 1.792-0.170667 2.688-0.256 0.426667 0.042667 0.810667 0.256 1.28 0.256h108.970666c22.229333 0 40.362667 19.285333 40.362667 43.008V490.666667a21.333333 21.333333 0 0 0 21.333333 21.333333M360.96 530.944a21.333333 21.333333 0 0 0 26.709333-14.037333 132.266667 132.266667 0 0 1 127.018667-93.354667c58.453333 0 109.482667 37.461333 126.890667 93.184a21.12 21.12 0 0 0 5.845333 8.874667l0.298667 0.256c1.706667 1.621333 3.669333 2.986667 5.845333 3.925333 1.024 0.426667 2.133333 0.682667 3.285333 0.981333 1.28 0.341333 2.56 0.725333 3.968 0.810667 0.597333 0 1.109333 0.341333 1.706667 0.341333 2.048 0 3.925333-0.64 5.802667-1.152a21.077333 21.077333 0 0 0 15.530666-20.181333V398.506667a21.333333 21.333333 0 1 0-42.666666 0v36.181333a174.677333 174.677333 0 0 0-126.506667-53.802667 174.805333 174.805333 0 0 0-167.722667 123.306667 21.333333 21.333333 0 0 0 14.037334 26.752M343.637333 710.826667a21.333333 21.333333 0 0 0 42.666667 0v-34.901334a176.085333 176.085333 0 0 0 128.384 56.234667c79.146667 0 148.906667-53.333333 169.514667-129.706667a21.333333 21.333333 0 1 0-41.130667-11.093333 133.205333 133.205333 0 0 1-128.426667 98.133333 133.546667 133.546667 0 0 1-127.872-96.469333 21.034667 21.034667 0 0 0-13.482666-13.909333h-0.042667a19.797333 19.797333 0 0 0-6.314667-1.28c-0.682667-0.085333-1.28-0.426667-1.962666-0.426667a21.333333 21.333333 0 0 0-21.333334 21.333333v112.085334z" /></svg>