<?xml version="1.0" standalone="no"?><!DOCTYPE svg PUBLIC "-//W3C//DTD SVG 1.1//EN" "http://www.w3.org/Graphics/SVG/1.1/DTD/svg11.dtd"><svg class="icon" width="200px" height="200.00px" viewBox="0 0 1024 1024" version="1.1" xmlns="http://www.w3.org/2000/svg"><path fill="#333333" d="M232.106667 302.506667L128 748.8h56.448l21.333333-105.344h103.424l21.333334 105.386667h57.002666L284.117333 302.421333h-52.053333z m25.685333 87.082666l41.344 205.653334H215.808l41.984-205.653334zM595.2 302.506667l0.597333 305.237333-114.730666-305.28H430.933333v446.378667h53.888v-305.322667l115.370667 305.322667h48.938667V302.506667zM898.730667 726.229333c-16.896 16.341333-43.221333 26.965333-79.018667 26.965334-34.474667 0-60.8-9.386667-78.336-26.965334C720.768 705.578667 713.898667 679.850667 713.898667 632.192h53.845333c0 29.44 3.114667 45.781333 15.061333 58.325333 7.509333 8.149333 20.053333 13.781333 36.949334 13.781334 18.218667 0 30.122667-5.632 38.272-14.421334 11.946667-13.141333 14.421333-30.122667 14.421333-59.562666 0-51.413333-7.509333-67.072-43.904-82.133334l-50.773333-20.693333C731.946667 508.714667 716.928 483.584 716.928 415.914667c0-38.912 11.264-70.826667 33.834667-91.562667 17.621333-16.298667 41.386667-25.685333 70.869333-25.685333 32.597333 0 57.045333 9.386667 74.026667 25.685333 22.570667 21.973333 29.44 50.773333 29.44 91.562667H871.125333c0-23.850667-2.517333-40.106667-13.824-53.930667-7.509333-9.386667-19.413333-15.061333-36.352-15.061333-15.616 0-26.922667 5.632-34.474666 13.824-10.666667 11.946667-15.701333 30.08-15.701334 53.333333 0 43.818667 6.954667 57.002667 42.666667 72.021333l50.176 20.693334c50.773333 20.693333 62.634667 52.053333 62.634667 122.282666 0 46.421333-6.229333 75.861333-27.562667 97.152" /></svg>