<?xml version="1.0" standalone="no"?><!DOCTYPE svg PUBLIC "-//W3C//DTD SVG 1.1//EN" "http://www.w3.org/Graphics/SVG/1.1/DTD/svg11.dtd"><svg class="icon" width="200px" height="200.00px" viewBox="0 0 1024 1024" version="1.1" xmlns="http://www.w3.org/2000/svg"><path fill="#333333" d="M760.832 170.666667H263.168A92.629333 92.629333 0 0 0 170.666667 263.125333v497.621334c0 50.986667 41.514667 92.501333 92.586666 92.501333h268.8a21.333333 21.333333 0 1 0 0-42.666667h-268.8a49.92 49.92 0 0 1-49.92-49.834666V263.168A49.92 49.92 0 0 1 263.253333 213.333333H760.746667A49.92 49.92 0 0 1 810.666667 263.253333v311.466667a21.333333 21.333333 0 0 0 42.666666 0v-311.466667a92.586667 92.586667 0 0 0-92.501333-92.586666M383.573333 299.093333a21.333333 21.333333 0 0 0-21.333333 21.333334v87.466666c0 81.706667 66.986667 148.138667 149.333333 148.138667s149.333333-66.432 149.333334-148.096V320.426667a21.333333 21.333333 0 0 0-42.666667 0v87.466666c0 58.112-47.872 105.386667-106.666667 105.386667s-106.666667-47.274667-106.666666-105.386667V320.426667a21.333333 21.333333 0 0 0-21.333334-21.333334M830.677333 638.677333h-218.666666a21.333333 21.333333 0 0 0 0 42.666667h218.666666a21.333333 21.333333 0 0 0 0-42.666667M830.677333 724.010667h-218.666666a21.333333 21.333333 0 0 0 0 42.666666h218.666666a21.333333 21.333333 0 0 0 0-42.666666M830.677333 811.093333h-218.666666a21.333333 21.333333 0 0 0 0 42.666667h218.666666a21.333333 21.333333 0 0 0 0-42.666667" /></svg>