<?xml version="1.0" standalone="no"?><!DOCTYPE svg PUBLIC "-//W3C//DTD SVG 1.1//EN" "http://www.w3.org/Graphics/SVG/1.1/DTD/svg11.dtd"><svg class="icon" width="200px" height="200.00px" viewBox="0 0 1024 1024" version="1.1" xmlns="http://www.w3.org/2000/svg"><path fill="#333333" d="M789.333333 512a21.333333 21.333333 0 0 0 21.333334-21.333333V299.008C810.666667 251.776 773.418667 213.333333 727.637333 213.333333H630.613333a128.298667 128.298667 0 0 0-120.405333-85.333333 128.64 128.64 0 0 0-120.277333 85.333333H296.362667C250.581333 213.333333 213.333333 251.776 213.333333 299.008v511.317333C213.333333 857.557333 250.581333 896 296.362667 896h431.274666C773.418667 896 810.666667 857.557333 810.666667 810.325333V618.666667a21.333333 21.333333 0 0 0-42.666667 0v191.658666c0 23.722667-18.090667 43.008-40.362667 43.008H296.362667C274.090667 853.333333 256 834.048 256 810.325333V299.008C256 275.285333 274.090667 256 296.362667 256h107.178666a20.821333 20.821333 0 0 0 12.842667-4.736 20.906667 20.906667 0 0 0 10.496-13.781333A85.845333 85.845333 0 0 1 510.208 170.666667c40.448 0 75.605333 28.714667 83.626667 68.266666 2.048 10.069333 10.965333 17.066667 20.906666 17.066667 0.853333 0 1.749333-0.170667 2.645334-0.256 0.426667 0.042667 0.810667 0.256 1.28 0.256h108.970666c22.272 0 40.362667 19.285333 40.362667 43.008V490.666667a21.333333 21.333333 0 0 0 21.333333 21.333333M341.333333 554.666667a21.333333 21.333333 0 0 0 21.333334 21.333333h295.125333a21.333333 21.333333 0 0 0 21.333333-21.333333 21.205333 21.205333 0 0 0-7.338666-15.829334c-0.298667-0.298667-0.384-0.725333-0.682667-1.024l-88.021333-88.021333a21.333333 21.333333 0 0 0-30.165334 30.208l53.333334 53.333333H362.666667a21.333333 21.333333 0 0 0-21.333334 21.333334" /></svg>