<?xml version="1.0" standalone="no"?><!DOCTYPE svg PUBLIC "-//W3C//DTD SVG 1.1//EN" "http://www.w3.org/Graphics/SVG/1.1/DTD/svg11.dtd"><svg class="icon" width="200px" height="200.00px" viewBox="0 0 1024 1024" version="1.1" xmlns="http://www.w3.org/2000/svg"><path fill="#333333" d="M789.333333 512.896a21.333333 21.333333 0 0 0 21.333334-21.333333V213.674667C810.666667 166.442667 773.418667 128 727.637333 128H382.208a21.162667 21.162667 0 0 0-15.146667 6.4c-0.298667 0.256-0.682667 0.341333-0.938666 0.597333L219.562667 281.557333a21.077333 21.077333 0 0 0-6.016 16.085334C213.504 297.984 213.333333 298.282667 213.333333 298.666667v512.554666c0 47.232 37.248 85.674667 83.029334 85.674667h431.274666c45.781333 0 83.029333-38.442667 83.029334-85.674667v-191.658666a21.333333 21.333333 0 0 0-42.666667 0v191.658666c0 23.722667-18.090667 43.008-40.362667 43.008H296.362667c-22.272 0-40.362667-19.285333-40.362667-43.008V305.450667L390.784 170.666667h336.853333c22.272 0 40.362667 19.285333 40.362667 43.008v277.888a21.333333 21.333333 0 0 0 21.333333 21.333333M469.333333 425.813333a21.333333 21.333333 0 0 0-30.165333 0L351.146667 513.834667a21.333333 21.333333 0 0 0-4.650667 23.210666 21.077333 21.077333 0 0 0 20.650667 17.621334h295.082666a21.333333 21.333333 0 1 0 0-42.666667H413.312L469.333333 455.978667a21.333333 21.333333 0 0 0 0-30.165334" /></svg>