<?xml version="1.0" standalone="no"?><!DOCTYPE svg PUBLIC "-//W3C//DTD SVG 1.1//EN" "http://www.w3.org/Graphics/SVG/1.1/DTD/svg11.dtd"><svg class="icon" width="200px" height="200.00px" viewBox="0 0 1024 1024" version="1.1" xmlns="http://www.w3.org/2000/svg"><path fill="#333333" d="M675.669333 490.666667H448A106.794667 106.794667 0 0 1 341.333333 384c0-58.794667 47.786667-106.666667 106.666667-106.666667h227.669333c58.837333 0 106.666667 47.872 106.666667 106.666667a21.333333 21.333333 0 0 0 42.666667 0c0-82.346667-66.986667-149.333333-149.333334-149.333333h-92.586666c0.256-1.194667 0.768-2.304 0.768-3.541334V192a21.333333 21.333333 0 0 0-42.666667 0v39.125333c0 1.237333 0.512 2.346667 0.725333 3.541334H448C365.653333 234.666667 298.666667 301.653333 298.666667 384s66.986667 149.333333 149.333333 149.333333h227.669333c58.837333 0 106.666667 47.872 106.666667 106.666667s-47.829333 106.666667-106.666667 106.666667H448A106.794667 106.794667 0 0 1 341.333333 640a21.333333 21.333333 0 0 0-42.666666 0c0 82.346667 66.986667 149.333333 149.333333 149.333333h93.866667c-0.170667 1.194667-0.682667 2.304-0.682667 3.541334v39.125333a21.333333 21.333333 0 1 0 42.666667 0v-39.125333c0-1.237333-0.512-2.346667-0.725334-3.541334h92.544c82.346667 0 149.333333-66.986667 149.333334-149.333333s-66.986667-149.333333-149.333334-149.333333" /></svg>