<?xml version="1.0" standalone="no"?><!DOCTYPE svg PUBLIC "-//W3C//DTD SVG 1.1//EN" "http://www.w3.org/Graphics/SVG/1.1/DTD/svg11.dtd"><svg class="icon" width="200px" height="200.00px" viewBox="0 0 1024 1024" version="1.1" xmlns="http://www.w3.org/2000/svg"><path fill="#333333" d="M832 170.666667a21.333333 21.333333 0 0 0-21.333333 21.333333V744.874667a21.333333 21.333333 0 0 0 42.666666 0V192a21.333333 21.333333 0 0 0-21.333333-21.333333M619.818667 766.208a21.333333 21.333333 0 0 0 21.333333-21.333333V320a21.333333 21.333333 0 0 0-42.666667 0v424.874667a21.333333 21.333333 0 0 0 21.333334 21.333333M405.632 764.416a21.333333 21.333333 0 0 0 21.333333-21.333333v-298.666667a21.333333 21.333333 0 0 0-42.666666 0v298.666667a21.333333 21.333333 0 0 0 21.333333 21.333333M192 766.250667a21.333333 21.333333 0 0 0 21.333333-21.333334v-170.709333a21.333333 21.333333 0 0 0-42.666666 0v170.709333a21.333333 21.333333 0 0 0 21.333333 21.333334M832 808.874667h-640a21.333333 21.333333 0 0 0 0 42.666666h640a21.333333 21.333333 0 0 0 0-42.666666" /></svg>