<?xml version="1.0" standalone="no"?><!DOCTYPE svg PUBLIC "-//W3C//DTD SVG 1.1//EN" "http://www.w3.org/Graphics/SVG/1.1/DTD/svg11.dtd"><svg class="icon" width="200px" height="200.00px" viewBox="0 0 1024 1024" version="1.1" xmlns="http://www.w3.org/2000/svg"><path fill="#333333" d="M533.333333 811.264H308.608C279.637333 811.264 256 787.797333 256 758.912V459.648l256-240.256 256 240.256v116.181333a21.333333 21.333333 0 1 0 42.666667 0V499.669333l6.741333 6.357334a21.077333 21.077333 0 0 0 14.592 5.76 20.949333 20.949333 0 0 0 15.530667-6.741334 21.248 21.248 0 0 0-0.938667-30.122666l-318.208-298.666667a20.821333 20.821333 0 0 0-16.341333-5.504 20.906667 20.906667 0 0 0-16.384 5.504l-318.250667 298.666667a21.248 21.248 0 0 0-0.938667 30.122666 20.949333 20.949333 0 0 0 15.530667 6.741334 21.077333 21.077333 0 0 0 14.592-5.76L213.333333 499.669333v259.242667A95.274667 95.274667 0 0 0 308.608 853.930667H533.333333a21.333333 21.333333 0 0 0 0-42.666667M471.125333 405.162667a21.333333 21.333333 0 0 0 0 42.666666h87.125334a21.333333 21.333333 0 0 0 0-42.666666h-87.125334zM599.125333 661.162667c0 11.733333-9.6 21.333333-21.333333 21.333333H448a21.376 21.376 0 0 1-21.333333-21.333333v-149.333334h172.458666v149.333334z m231.125334-23.082667h-188.458667v-126.293333h19.541333a21.333333 21.333333 0 0 0 0-42.666667H364.458667a21.333333 21.333333 0 0 0 0 42.666667H384v149.333333c0 35.328 28.714667 64 64 64h129.792c28.416 0 52.266667-18.688 60.629333-44.373333h191.829334a21.333333 21.333333 0 0 0 0-42.666667zM830.293333 723.413333h-212.48a21.333333 21.333333 0 1 0 0 42.666667h212.48a21.333333 21.333333 0 0 0 0-42.666667M830.293333 810.496h-218.709333a21.333333 21.333333 0 0 0 0 42.666667h218.666667a21.333333 21.333333 0 0 0 0-42.666667" /></svg>