<?xml version="1.0" standalone="no"?><!DOCTYPE svg PUBLIC "-//W3C//DTD SVG 1.1//EN" "http://www.w3.org/Graphics/SVG/1.1/DTD/svg11.dtd"><svg class="icon" width="200px" height="200.00px" viewBox="0 0 1024 1024" version="1.1" xmlns="http://www.w3.org/2000/svg"><path fill="#333333" d="M830.08 573.866667a18.944 18.944 0 0 0-22.058667 15.445333 322.901333 322.901333 0 0 1-318.464 266.368c-178.389333 0-323.498667-145.066667-323.498666-323.498667a323.413333 323.413333 0 0 1 591.701333-180.906666 319.829333 319.829333 0 0 1 50.261333 123.818666 19.072 19.072 0 0 0 37.461334-6.656A356.949333 356.949333 0 0 0 789.333333 329.984 361.301333 361.301333 0 0 0 489.557333 170.666667 361.429333 361.429333 0 0 0 128 532.181333c0 199.381333 162.218667 361.557333 361.557333 361.557334a360.874667 360.874667 0 0 0 355.925334-297.770667 19.029333 19.029333 0 0 0-15.36-22.058667M509.696 572.16c69.12-9.941333 122.581333-68.906667 122.581333-140.672 0-78.72-64-142.72-142.72-142.72a142.848 142.848 0 0 0-142.72 142.72 20.138667 20.138667 0 0 0 40.277334 0c0-56.490667 45.994667-102.4 102.4-102.4 56.490667 0 102.485333 45.909333 102.485333 102.4 0 56.448-45.994667 102.4-102.442667 102.4-11.093333 0-20.138667 8.96-20.138666 20.181333 0 0.853333 0.384 1.621333 0.512 2.474667-0.128 0.853333-0.512 1.621333-0.512 2.56v100.693333a20.138667 20.138667 0 0 0 40.277333 0V572.16zM489.557333 701.781333a20.138667 20.138667 0 0 0-20.138666 20.181334v31.914666a20.138667 20.138667 0 0 0 40.277333 0v-31.914666a20.138667 20.138667 0 0 0-20.138667-20.181334" /></svg>