<?xml version="1.0" standalone="no"?><!DOCTYPE svg PUBLIC "-//W3C//DTD SVG 1.1//EN" "http://www.w3.org/Graphics/SVG/1.1/DTD/svg11.dtd"><svg class="icon" width="200px" height="200.00px" viewBox="0 0 1024 1024" version="1.1" xmlns="http://www.w3.org/2000/svg"><path fill="#333333" d="M744.671147 375.594667a21.333333 21.333333 0 0 0-30.165334 0L515.89248 574.250667 318.13248 375.594667a94.592 94.592 0 0 1-27.861333-67.242667A95.232 95.232 0 0 1 452.703147 241.109333l48.554666 48.554667a21.333333 21.333333 0 0 0 30.165334 0l48.64-48.554667a95.146667 95.146667 0 0 1 152.32 24.576 21.333333 21.333333 0 1 0 38.144-19.157333A137.984 137.984 0 0 0 549.81248 210.944l-33.536 33.493333-33.493333-33.493333a137.984 137.984 0 0 0-194.858667 0 136.874667 136.874667 0 0 0-40.362667 97.408c0 36.778667 14.336 71.381333 40.362667 97.408l212.736 213.76c3.968 4.010667 9.386667 6.272 15.061333 6.272h0.042667c5.674667 0 11.093333-2.218667 15.061333-6.186667l213.802667-213.845333a21.333333 21.333333 0 0 0 0-30.165333M840.62848 435.072a21.674667 21.674667 0 0 0-26.112 15.104A311.210667 311.210667 0 0 1 615.47648 663.68c-0.298667 0.128-0.426667 0.341333-0.768 0.469333a21.034667 21.034667 0 0 0-15.36 20.138667V830.08a21.333333 21.333333 0 1 0 42.666667 0V698.794667A353.450667 353.450667 0 0 0 855.775147 461.226667a21.418667 21.418667 0 0 0-15.146667-26.154667M421.257813 670.165333a20.906667 20.906667 0 0 0-8.746666-6.186666A311.04 311.04 0 0 1 212.66048 450.048 21.674667 21.674667 0 0 0 186.463147 434.986667a21.333333 21.333333 0 0 0-15.061334 26.154666A353.194667 353.194667 0 0 0 386.015147 699.093333V830.08a21.333333 21.333333 0 0 0 42.666666 0V686.08a21.034667 21.034667 0 0 0-7.424-15.914667" /></svg>