<?xml version="1.0" standalone="no"?><!DOCTYPE svg PUBLIC "-//W3C//DTD SVG 1.1//EN" "http://www.w3.org/Graphics/SVG/1.1/DTD/svg11.dtd"><svg class="icon" width="200px" height="200.00px" viewBox="0 0 1024 1024" version="1.1" xmlns="http://www.w3.org/2000/svg"><path fill="#333333" d="M738.816 508.842667a21.333333 21.333333 0 1 0-39.509333 16.085333A208.213333 208.213333 0 0 1 506.666667 811.52 208.213333 208.213333 0 0 1 298.666667 603.52c0-38.997333 11.221333-76.245333 31.573333-109.056l176.426667-264.277333 110.165333 165.034666a21.418667 21.418667 0 0 0 29.610667 5.973334 21.418667 21.418667 0 0 0 5.888-29.653334L527.872 185.173333c-0.682667-1.066667-1.706667-1.706667-2.56-2.56a20.437333 20.437333 0 0 0-6.954667-8.362666 21.333333 21.333333 0 0 0-29.610666 5.973333l-183.424 274.773333c-0.554667 0.597333-1.28 0.938667-1.792 1.621334-2.816 3.882667-4.864 8.149333-7.424 12.16l-2.517334 3.712c-0.213333 0.341333-0.213333 0.725333-0.426666 1.066666a248.362667 248.362667 0 0 0-37.12 130.005334A250.965333 250.965333 0 0 0 506.624 854.186667a250.965333 250.965333 0 0 0 232.149333-345.344M626.944 632.192a123.605333 123.605333 0 0 1-82.133333 85.333333 21.333333 21.333333 0 1 0 12.629333 40.789334 166.485333 166.485333 0 0 0 110.72-115.114667 21.333333 21.333333 0 0 0-15.104-26.112 21.589333 21.589333 0 0 0-26.112 15.104" /></svg>