<?xml version="1.0" standalone="no"?><!DOCTYPE svg PUBLIC "-//W3C//DTD SVG 1.1//EN" "http://www.w3.org/Graphics/SVG/1.1/DTD/svg11.dtd"><svg class="icon" width="200px" height="200.00px" viewBox="0 0 1024 1024" version="1.1" xmlns="http://www.w3.org/2000/svg"><path fill="#333333" d="M721.749333 658.346667a64 64 0 1 0 0 128.085333 64 64 0 0 0 0-128.042667M721.749333 829.013333a106.794667 106.794667 0 0 1-106.666666-106.666666c0-58.752 47.829333-106.666667 106.666666-106.666667s106.666667 47.914667 106.666667 106.666667c0 58.837333-47.829333 106.666667-106.666667 106.666666m0-256c-32.810667 0-62.890667 11.008-87.552 29.013334h-80.554666v-60.032h124.842666a21.290667 21.290667 0 1 0 0-42.666667h-124.842666v-23.936l103.68-97.877333a21.333333 21.333333 0 0 0-29.226667-31.018667l-98.133333 92.586667-98.176-92.586667a21.333333 21.333333 0 1 0-29.226667 31.018667l108.416 102.314666v19.498667H379.818667a21.333333 21.333333 0 0 0 0 42.666667h131.157333v60.032H379.818667a21.333333 21.333333 0 1 0 0 42.666666h131.157333v93.738667a21.290667 21.290667 0 1 0 42.666667 0V644.693333h41.216a147.498667 147.498667 0 0 0-22.442667 77.653334c0 82.346667 66.986667 149.333333 149.333333 149.333333s149.333333-66.986667 149.333334-149.333333-66.986667-149.333333-149.333334-149.333334M510.378667 852.608C342.485333 841.386667 210.986667 700.629333 210.986667 532.138667c0-177.109333 144.085333-321.194667 321.194666-321.194667a319.104 319.104 0 0 1 288.853334 180.693333c0.341333 0.64 0.853333 1.024 1.237333 1.621334a19.925333 19.925333 0 0 0 39.637333-3.413334V271.018667a20.138667 20.138667 0 0 0-40.32 0v45.525333A358.229333 358.229333 0 0 0 532.181333 170.624C332.8 170.666667 170.666667 332.885333 170.666667 532.181333c0 189.610667 148.053333 348.032 337.066666 360.661334h1.28a20.096 20.096 0 1 0 1.322667-40.234667" /></svg>