<?xml version="1.0" standalone="no"?><!DOCTYPE svg PUBLIC "-//W3C//DTD SVG 1.1//EN" "http://www.w3.org/Graphics/SVG/1.1/DTD/svg11.dtd"><svg class="icon" width="200px" height="200.00px" viewBox="0 0 1024 1024" version="1.1" xmlns="http://www.w3.org/2000/svg"><path fill="#333333" d="M213.333333 696.021333V255.061333c0-23.04 18.688-41.728 41.770667-41.728h440.917333c19.797333 0 35.626667 14.08 39.893334 32.554667H327.936a84.48 84.48 0 0 0-84.437333 84.394667v405.162666A41.258667 41.258667 0 0 1 213.333333 696.021333m322.474667 116.992H327.936a41.813333 41.813333 0 0 1-41.770667-41.770666V330.282667a41.813333 41.813333 0 0 1 41.770667-41.728h440.96a41.813333 41.813333 0 0 1 41.770667 41.728v203.733333a21.333333 21.333333 0 0 0 42.666666 0V330.282667a84.309333 84.309333 0 0 0-73.685333-83.328 84.224 84.224 0 0 0-83.626667-76.288H255.104A84.48 84.48 0 0 0 170.666667 255.061333V696.021333c0 42.88 32.213333 77.994667 73.642666 83.328a84.309333 84.309333 0 0 0 83.626667 76.330667h207.872a21.333333 21.333333 0 0 0 0-42.666667M434.602667 359.68a21.333333 21.333333 0 0 0-21.333334 21.333333v77.568c0 73.685333 60.458667 133.632 134.741334 133.632 74.325333 0 134.784-59.946667 134.784-133.632V381.013333a21.333333 21.333333 0 1 0-42.666667 0v77.525334c0 50.176-41.301333 90.965333-92.16 90.965333-50.773333 0-92.032-40.789333-92.032-90.965333V381.013333a21.333333 21.333333 0 0 0-21.333333-21.333333M704.682667 642.688a64 64 0 1 0 0.042666 128.042667 64 64 0 0 0-0.042666-128M704.682667 813.397333a106.794667 106.794667 0 0 1-106.666667-106.666666c0-58.837333 47.786667-106.666667 106.666667-106.666667 58.837333 0 106.666667 47.829333 106.666666 106.666667 0 58.752-47.829333 106.666667-106.666666 106.666666m0-256c-82.346667 0-149.333333 66.986667-149.333334 149.333334s66.986667 149.333333 149.333334 149.333333 149.333333-66.986667 149.333333-149.333333-66.986667-149.333333-149.333333-149.333334" /></svg>