<?xml version="1.0" standalone="no"?><!DOCTYPE svg PUBLIC "-//W3C//DTD SVG 1.1//EN" "http://www.w3.org/Graphics/SVG/1.1/DTD/svg11.dtd"><svg class="icon" width="200px" height="200.00px" viewBox="0 0 1024 1024" version="1.1" xmlns="http://www.w3.org/2000/svg"><path fill="#333333" d="M533.33632 811.221333H308.610987C279.64032 811.221333 256.002987 787.754667 256.002987 758.869333V459.648l256-240.298667 256 240.298667v116.138667a21.333333 21.333333 0 1 0 42.666666 0V499.669333l6.741334 6.357334a21.077333 21.077333 0 0 0 14.592 5.76 20.949333 20.949333 0 0 0 15.530666-6.741334 21.248 21.248 0 0 0-0.938666-30.122666l-318.208-298.666667A20.906667 20.906667 0 0 0 512.002987 170.752a20.906667 20.906667 0 0 0-16.384 5.504l-318.208 298.666667a21.248 21.248 0 0 0-0.938667 30.122666 20.949333 20.949333 0 0 0 15.530667 6.741334 21.077333 21.077333 0 0 0 14.592-5.76L213.33632 499.669333v259.2A95.274667 95.274667 0 0 0 308.610987 853.888H533.33632a21.333333 21.333333 0 0 0 0-42.666667M832.002987 680.661333a21.333333 21.333333 0 0 0 0-42.666666H678.018987a106.752 106.752 0 0 0-98.474667-147.541334H415.917653l52.522667-52.48a21.418667 21.418667 0 0 0-30.208-30.208L350.29632 495.786667c-0.170667 0.170667-0.213333 0.426667-0.384 0.554666a21.333333 21.333333 0 0 0 14.592 36.778667h215.082667c35.285333 0 64 28.714667 64 64s-28.714667 64-64 64h-172.373334a21.333333 21.333333 0 0 0 0 42.666667h172.373334c24.832 0 47.402667-8.874667 65.536-23.125334H832.002987zM832.002987 723.328H613.33632a21.333333 21.333333 0 0 0 0 42.666667H832.002987a21.333333 21.333333 0 0 0 0-42.666667M832.002987 810.453333H613.33632a21.333333 21.333333 0 0 0 0 42.666667H832.002987a21.333333 21.333333 0 0 0 0-42.666667" /></svg>