<?xml version="1.0" standalone="no"?><!DOCTYPE svg PUBLIC "-//W3C//DTD SVG 1.1//EN" "http://www.w3.org/Graphics/SVG/1.1/DTD/svg11.dtd"><svg class="icon" width="200px" height="200.00px" viewBox="0 0 1024 1024" version="1.1" xmlns="http://www.w3.org/2000/svg"><path fill="#333333" d="M213.333333 341.333333v-19.541333c0-35.285333 28.714667-64 64-64h62.208v23.082667a21.333333 21.333333 0 0 0 42.666667 0v-23.082667h259.541333v23.082667a21.333333 21.333333 0 0 0 42.666667 0v-23.082667h65.792c35.285333 0 64 28.714667 64 64V341.333333H213.333333z m536.874667-126.208h-65.792V192a21.333333 21.333333 0 0 0-42.666667 0v23.125333H382.208V192a21.333333 21.333333 0 0 0-42.666667 0v23.125333H277.333333a106.752 106.752 0 0 0-106.666666 106.666667V746.666667C170.666667 805.504 218.496 853.333333 277.333333 853.333333h213.333334a21.333333 21.333333 0 0 0 0-42.666666h-213.333334c-35.285333 0-64-28.714667-64-64V384h600.874667v104.874667a21.333333 21.333333 0 0 0 42.666667 0V321.792c0-58.837333-47.829333-106.666667-106.666667-106.666667zM320 512h170.666667a21.333333 21.333333 0 0 0 0-42.666667h-170.666667a21.333333 21.333333 0 0 0 0 42.666667M705.749333 640a64 64 0 1 0 0.042667 128.042667 64 64 0 0 0 0-128.042667M705.749333 810.666667a106.752 106.752 0 0 1-106.666666-106.666667c0-58.837333 47.829333-106.666667 106.666666-106.666667s106.666667 47.829333 106.666667 106.666667-47.829333 106.666667-106.666667 106.666667m0-256c-27.733333 0-53.418667 8.106667-75.690666 21.333333H320a21.333333 21.333333 0 0 0 0 42.666667h263.509333a147.712 147.712 0 0 0-24.917333 64H320a21.333333 21.333333 0 0 0 0 42.666666h238.592c10.453333 72.192 72.106667 128 147.157333 128 82.346667 0 149.333333-66.986667 149.333334-149.333333s-66.986667-149.333333-149.333334-149.333333" /></svg>