<?xml version="1.0" standalone="no"?><!DOCTYPE svg PUBLIC "-//W3C//DTD SVG 1.1//EN" "http://www.w3.org/Graphics/SVG/1.1/DTD/svg11.dtd"><svg class="icon" width="200px" height="200.00px" viewBox="0 0 1024 1024" version="1.1" xmlns="http://www.w3.org/2000/svg"><path fill="#333333" d="M373.333333 789.333333a32 32 0 1 0 0 64 32 32 0 0 0 0-64M641.792 362.666667H423.125333a21.333333 21.333333 0 0 0 0 42.666666h218.666667a21.333333 21.333333 0 0 0 0-42.666666M641.792 448H423.125333a21.333333 21.333333 0 0 0 0 42.666667h218.666667a21.333333 21.333333 0 0 0 0-42.666667M704 640a64 64 0 1 0 0.042667 128.042667A64 64 0 0 0 704 640M704 810.666667a106.794667 106.794667 0 0 1-106.666667-106.666667c0-58.794667 47.829333-106.666667 106.666667-106.666667s106.666667 47.872 106.666667 106.666667-47.829333 106.666667-106.666667 106.666667m0-256a147.626667 147.626667 0 0 0-41.856 6.698666c0.384-1.621333 0.981333-3.157333 0.981333-4.906666a21.333333 21.333333 0 0 0-21.333333-21.333334H423.125333a21.333333 21.333333 0 1 0 0 42.666667h201.941334A148.906667 148.906667 0 0 0 554.666667 704c0 82.346667 66.986667 149.333333 149.333333 149.333333s149.333333-66.986667 149.333333-149.333333-66.986667-149.333333-149.333333-149.333333M491.52 684.416a21.333333 21.333333 0 0 0 0-42.666667H290.688L264.234667 298.666667h374.912A171.733333 171.733333 0 0 1 806.4 508.16a21.333333 21.333333 0 1 0 41.6 9.557333A209.962667 209.962667 0 0 0 853.333333 470.186667 214.442667 214.442667 0 0 0 639.146667 256H260.906667L255.957333 190.378667C255.829333 189.44 255.317333 188.672 255.146667 187.818667A21.376 21.376 0 0 0 253.610667 182.613333C253.312 181.973333 252.885333 181.546667 252.544 180.992A21.333333 21.333333 0 0 0 248.32 176.042667C247.936 175.573333 247.338667 175.232 246.826667 174.933333a22.101333 22.101333 0 0 0-4.992-2.858666C240.426667 171.52 238.933333 171.477333 237.44 171.264 236.544 171.136 235.690667 170.666667 234.666667 170.666667h-42.666667a21.333333 21.333333 0 0 0 0 42.666666h22.954667l41.130666 534.997334c0.128 1.28 0.682667 2.389333 0.981334 3.584 0.341333 1.237333 0.426667 2.474667 0.938666 3.626666 0.682667 1.450667 1.706667 2.645333 2.688 3.882667 0.682667 0.853333 1.109333 1.834667 1.92 2.56 1.28 1.28 2.858667 2.133333 4.437334 2.986667 0.768 0.426667 1.365333 1.024 2.218666 1.365333a21.077333 21.077333 0 0 0 8.021334 1.621333h213.333333a21.290667 21.290667 0 1 0 0-42.666666H297.088l-3.157333-40.874667h197.674666z" /></svg>