<?xml version="1.0" standalone="no"?><!DOCTYPE svg PUBLIC "-//W3C//DTD SVG 1.1//EN" "http://www.w3.org/Graphics/SVG/1.1/DTD/svg11.dtd"><svg class="icon" width="200px" height="200.00px" viewBox="0 0 1024 1024" version="1.1" xmlns="http://www.w3.org/2000/svg"><path fill="#333333" d="M886.826667 134.698667a21.333333 21.333333 0 0 0-30.122667-0.896l-151.210667 142.72a338.901333 338.901333 0 0 0-125.44-57.045334 339.669333 339.669333 0 0 0-269.354666 54.058667L163.925333 135.082667A21.376 21.376 0 0 0 134.741333 166.144l142.378667 134.314667c-1.621333 1.536-3.456 2.730667-5.12 4.266666A338.56 338.56 0 0 0 174.08 477.738667c-40.704 183.168 75.093333 365.226667 258.261333 406.016a342.186667 342.186667 0 0 0 69.248 8.106666h0.298667a20.181333 20.181333 0 0 0 0.256-40.234666 301.653333 301.653333 0 0 1-61.056-7.253334C279.594667 808.533333 177.450667 647.978667 213.333333 486.528a299.946667 299.946667 0 0 1 357.888-227.669333 299.861333 299.861333 0 0 1 232.106667 251.733333 20.352 20.352 0 0 0 22.698667 17.152 20.053333 20.053333 0 0 0 17.194666-22.698667 338.218667 338.218667 0 0 0-20.394666-77.909333 339.541333 339.541333 0 0 0-84.266667-123.178667l147.328-139.093333a21.333333 21.333333 0 0 0 0.853333-30.122667M701.568 636.629333a64 64 0 1 0 0 128.042667 64 64 0 0 0 0-128M701.568 807.296a106.794667 106.794667 0 0 1-106.666667-106.666667c0-58.794667 47.829333-106.666667 106.666667-106.666666 58.88 0 106.666667 47.872 106.666667 106.666666s-47.786667 106.666667-106.666667 106.666667m0-256c-40.533333 0-77.226667 16.384-104.234667 42.709333h-60.757333v-39.850666h96.170667a21.333333 21.333333 0 1 0 0-42.666667h-96.170667v-13.226667L618.666667 420.821333a21.333333 21.333333 0 1 0-29.269334-31.018666l-75.946666 71.722666-76.032-71.68a21.333333 21.333333 0 0 0-29.269334 30.976l85.802667 80.981334v9.685333h-101.12a21.333333 21.333333 0 1 0 0 42.666667h101.12v39.850666h-101.12a21.333333 21.333333 0 1 0 0 42.666667h101.12v71.168a21.333333 21.333333 0 1 0 42.666667 0v-71.168h30.634666a147.2 147.2 0 0 0-14.933333 64c0 82.346667 66.986667 149.333333 149.333333 149.333333s149.333333-66.986667 149.333334-149.333333-66.986667-149.333333-149.333334-149.333333" /></svg>