<?xml version="1.0" standalone="no"?><!DOCTYPE svg PUBLIC "-//W3C//DTD SVG 1.1//EN" "http://www.w3.org/Graphics/SVG/1.1/DTD/svg11.dtd"><svg class="icon" width="200px" height="200.00px" viewBox="0 0 1024 1024" version="1.1" xmlns="http://www.w3.org/2000/svg"><path fill="#333333" d="M850.218667 614.869333a21.333333 21.333333 0 1 0-41.984 7.594667 192.256 192.256 0 0 1-53.589334 169.728c-74.496 74.538667-194.986667 75.434667-268.458666 1.962667L213.333333 521.344V256.085333h275.541334l248.149333 248.149334a21.12 21.12 0 0 0 30.165333 0 21.333333 21.333333 0 0 0 0-30.165334L514.944 221.696a21.76 21.76 0 0 0-8.789333-5.034667A21.034667 21.034667 0 0 0 495.36 213.333333H192a21.333333 21.333333 0 0 0-21.333333 21.333334v292.266666c0 1.152 0.512 2.176 0.682666 3.370667a21.290667 21.290667 0 0 0 6.144 15.573333l278.528 278.442667a228.992 228.992 0 0 0 162.56 66.986667c60.032 0 120.277333-23.04 166.229334-68.992a234.965333 234.965333 0 0 0 65.408-207.402667M405.333333 408.874667a42.666667 42.666667 0 1 1-85.333333 0 42.666667 42.666667 0 0 1 85.333333 0m-128 0c0 47.061333 38.272 85.333333 85.333334 85.333333s85.333333-38.272 85.333333-85.333333-38.272-85.333333-85.333333-85.333334-85.333333 38.272-85.333334 85.333334" /></svg>