<?xml version="1.0" standalone="no"?><!DOCTYPE svg PUBLIC "-//W3C//DTD SVG 1.1//EN" "http://www.w3.org/Graphics/SVG/1.1/DTD/svg11.dtd"><svg class="icon" width="200px" height="200.00px" viewBox="0 0 1024 1024" version="1.1" xmlns="http://www.w3.org/2000/svg"><path fill="#333333" d="M490.666667 213.333333c80.128 0 153.984 29.653333 210.645333 79.146667L250.112 743.68A318.464 318.464 0 0 1 170.666667 533.333333C170.666667 356.864 314.197333 213.333333 490.666667 213.333333m338.56 368.469334a21.461333 21.461333 0 0 0-25.173334 16.554666C773.589333 746.112 641.792 853.333333 490.666667 853.333333a318.378667 318.378667 0 0 1-210.389334-79.488L731.52 322.602667a318.464 318.464 0 0 1 74.154667 154.026666 21.333333 21.333333 0 0 0 41.984-7.466666 360.96 360.96 0 0 0-98.816-190.677334c-0.512-0.64-0.768-1.408-1.322667-2.005333-0.469333-0.469333-1.109333-0.64-1.578667-1.066667A362.410667 362.410667 0 0 0 490.666667 170.666667C290.688 170.666667 128 333.354667 128 533.333333c0 199.978667 162.688 362.666667 362.666667 362.666667 171.306667 0 320.64-121.557333 355.114666-288.981333a21.290667 21.290667 0 0 0-16.554666-25.216" /></svg>