<?xml version="1.0" standalone="no"?><!DOCTYPE svg PUBLIC "-//W3C//DTD SVG 1.1//EN" "http://www.w3.org/Graphics/SVG/1.1/DTD/svg11.dtd"><svg class="icon" width="200px" height="200.00px" viewBox="0 0 1024 1024" version="1.1" xmlns="http://www.w3.org/2000/svg"><path fill="#333333" d="M373.333333 832a32 32 0 1 0 0 64 32 32 0 0 0 0-64M558.250667 576h62.208a21.333333 21.333333 0 0 0 0-42.666667h-62.208v-16h62.208a21.333333 21.333333 0 0 0 0-42.666666h-62.549334l-0.042666-0.213334 56.789333-53.589333a21.333333 21.333333 0 0 0-29.269333-31.061333l-49.834667 47.018666-49.792-47.018666a21.333333 21.333333 0 0 0-29.269333 31.061333l57.045333 53.802667h-63.744a21.333333 21.333333 0 0 0 0 42.666666h65.792v16h-65.792a21.333333 21.333333 0 0 0 0 42.666667h65.792v44.458667a21.333333 21.333333 0 0 0 42.666667 0V576zM705.792 682.666667a64 64 0 1 0 0.042667 128.042666A64 64 0 0 0 705.792 682.666667M705.792 853.333333a106.794667 106.794667 0 0 1-106.666667-106.666666c0-58.794667 47.829333-106.666667 106.666667-106.666667s106.666667 47.872 106.666667 106.666667-47.829333 106.666667-106.666667 106.666666m0-256c-82.346667 0-149.333333 66.986667-149.333333 149.333334s66.986667 149.333333 149.333333 149.333333 149.333333-66.986667 149.333333-149.333333-66.986667-149.333333-149.333333-149.333334M492.458667 726.229333a21.333333 21.333333 0 0 0 0-42.666666H290.56l-26.368-343.125334H640a171.733333 171.733333 0 0 1 167.338667 209.536 21.333333 21.333333 0 1 0 41.642666 9.344A213.077333 213.077333 0 0 0 854.229333 512 214.442667 214.442667 0 0 0 640 297.770667H260.906667l-4.992-64.768c-0.085333-0.896-0.554667-1.621333-0.768-2.517334a21.077333 21.077333 0 0 0-1.578667-5.205333c-0.256-0.597333-0.682667-1.024-1.024-1.578667a21.077333 21.077333 0 0 0-4.224-5.077333c-0.426667-0.384-0.896-0.597333-1.322667-0.896a22.826667 22.826667 0 0 0-5.248-2.986667c-1.408-0.512-2.816-0.64-4.266666-0.853333C236.544 213.76 235.690667 213.333333 234.666667 213.333333h-42.666667a21.333333 21.333333 0 0 0 0 42.666667h22.912l41.173333 534.997333c0.085333 1.28 0.64 2.346667 0.981334 3.584 0.298667 1.194667 0.469333 2.474667 0.981333 3.584 0.64 1.493333 1.664 2.688 2.645333 3.968 0.64 0.810667 1.109333 1.792 1.877334 2.517334 1.322667 1.237333 2.901333 2.090667 4.437333 2.986666 0.768 0.426667 1.408 1.066667 2.218667 1.408a21.248 21.248 0 0 0 8.064 1.621334h215.168a21.333333 21.333333 0 0 0 0-42.666667H297.088l-3.242667-41.770667h198.613334z" /></svg>