<?xml version="1.0" standalone="no"?><!DOCTYPE svg PUBLIC "-//W3C//DTD SVG 1.1//EN" "http://www.w3.org/Graphics/SVG/1.1/DTD/svg11.dtd"><svg class="icon" width="200px" height="200.00px" viewBox="0 0 1024 1024" version="1.1" xmlns="http://www.w3.org/2000/svg"><path fill="#333333" d="M373.333333 789.333333a32 32 0 1 0 0 64 32 32 0 0 0 0-64M650.666667 789.333333a32 32 0 1 0 0 64 32 32 0 0 0 0-64M828.245333 513.237333a21.333333 21.333333 0 0 0-27.178666 13.056A169.258667 169.258667 0 0 1 641.92 640H290.474667l-26.282667-341.333333h377.642667a169.216 169.216 0 0 1 159.146666 113.664 21.418667 21.418667 0 0 0 27.178667 13.056 21.333333 21.333333 0 0 0 13.098667-27.178667A212.010667 212.010667 0 0 0 641.877333 256H260.949333L255.914667 190.378667C255.829333 189.44 255.317333 188.672 255.146667 187.733333 254.762667 185.984 254.421333 184.277333 253.610667 182.613333 253.269333 182.016 252.8 181.504 252.373333 180.821333a20.693333 20.693333 0 0 0-3.84-4.693333c-0.64-0.554667-1.28-0.853333-1.962666-1.322667a21.12 21.12 0 0 0-4.693334-2.645333C240.426667 171.52 238.933333 171.434667 237.44 171.221333 236.501333 171.093333 235.648 170.666667 234.666667 170.666667h-42.666667a21.333333 21.333333 0 0 0 0 42.666666h22.912l41.173333 534.997334c0.085333 1.28 0.64 2.346667 0.981334 3.584 0.298667 1.194667 0.426667 2.474667 0.938666 3.584 0.682667 1.493333 1.706667 2.688 2.688 3.968 0.64 0.853333 1.109333 1.792 1.877334 2.517333 1.322667 1.237333 2.858667 2.133333 4.437333 2.986667 0.768 0.426667 1.408 1.066667 2.218667 1.408A21.248 21.248 0 0 0 277.333333 768h469.333334a21.333333 21.333333 0 1 0 0-42.666667H297.045333l-3.242666-42.666666h348.074666a212.053333 212.053333 0 0 0 199.466667-142.250667 21.333333 21.333333 0 0 0-13.098667-27.178667M483.413333 391.808h91.050667a29.866667 29.866667 0 0 1 29.866667 29.866667 21.333333 21.333333 0 1 0 42.666666 0c0-39.978667-32.554667-72.533333-72.533333-72.533334h-23.893333v-4.266666a21.333333 21.333333 0 1 0-42.666667 0v4.266666h-24.533333a72.533333 72.533333 0 0 0 0 145.066667h91.093333a29.866667 29.866667 0 0 1 0 59.733333H483.413333a29.866667 29.866667 0 0 1-29.824-29.866666 21.333333 21.333333 0 0 0-42.666666 0 72.533333 72.533333 0 0 0 72.533333 72.533333h24.448v4.266667a21.333333 21.333333 0 1 0 42.666667 0v-4.266667h23.936c39.978667 0 72.533333-32.512 72.533333-72.533333 0-39.978667-32.554667-72.533333-72.533333-72.533334H483.413333a29.866667 29.866667 0 0 1 0-59.733333" /></svg>