<?xml version="1.0" standalone="no"?><!DOCTYPE svg PUBLIC "-//W3C//DTD SVG 1.1//EN" "http://www.w3.org/Graphics/SVG/1.1/DTD/svg11.dtd"><svg class="icon" width="200px" height="192.12px" viewBox="0 0 1066 1024" version="1.1" xmlns="http://www.w3.org/2000/svg"><path fill="#333333" d="M394.666667 789.333333a32 32 0 1 0 0.042666 64 32 32 0 0 0 0-64M672 789.333333a32 32 0 1 0 0.042667 64 32 32 0 0 0 0-64M849.578667 513.237333a21.248 21.248 0 0 0-27.178667 13.098667A169.258667 169.258667 0 0 1 663.210667 640H311.893333l-26.282666-341.333333h377.6a169.173333 169.173333 0 0 1 159.232 113.877333 21.333333 21.333333 0 1 0 40.32-14.08A211.968 211.968 0 0 0 663.210667 256H282.325333L277.290667 190.421333c-0.085333-1.28-0.682667-2.261333-0.938667-3.413333C276.010667 185.685333 275.797333 184.32 275.2 183.04 274.602667 181.717333 273.706667 180.650667 272.853333 179.498667 272.085333 178.474667 271.36 177.365333 270.464 176.469333 269.44 175.530667 268.202667 174.890667 267.008 174.165333 265.813333 173.44 264.832 172.672 263.552 172.202667 262.229333 171.690667 260.821333 171.605333 259.413333 171.349333 258.261333 171.178667 257.237333 170.666667 256 170.666667h-42.666667a21.333333 21.333333 0 0 0 0 42.666666h22.912l41.173334 534.997334c0.085333 1.365333 0.682667 2.517333 1.024 3.754666 0.298667 1.152 0.426667 2.346667 0.938666 3.413334a20.437333 20.437333 0 0 0 2.645334 3.925333c0.64 0.853333 1.152 1.834667 1.92 2.56 1.237333 1.194667 2.773333 2.005333 4.266666 2.901333 0.810667 0.426667 1.493333 1.109333 2.389334 1.493334A21.248 21.248 0 0 0 298.666667 768h469.333333a21.290667 21.290667 0 1 0 0-42.666667H318.421333l-3.285333-42.666666h348.074667a211.968 211.968 0 0 0 199.466666-142.250667 21.333333 21.333333 0 0 0-13.098666-27.178667" /></svg>