<?xml version="1.0" standalone="no"?><!DOCTYPE svg PUBLIC "-//W3C//DTD SVG 1.1//EN" "http://www.w3.org/Graphics/SVG/1.1/DTD/svg11.dtd"><svg class="icon" width="200px" height="200.00px" viewBox="0 0 1024 1024" version="1.1" xmlns="http://www.w3.org/2000/svg"><path fill="#333333" d="M832 469.76a21.333333 21.333333 0 0 1-21.333333-21.333333V263.168A49.92 49.92 0 0 0 760.789333 213.333333h-78.592v63.530667c0 11.818667-9.514667 21.333333-21.333333 21.333333h-298.666667a21.333333 21.333333 0 0 1-21.333333-21.333333V213.333333H263.168A49.92 49.92 0 0 0 213.333333 263.168v497.621333A49.92 49.92 0 0 0 263.168 810.666667h497.621333A49.92 49.92 0 0 0 810.666667 760.789333V576.426667a21.333333 21.333333 0 1 1 42.666666 0v184.362666A92.629333 92.629333 0 0 1 760.789333 853.333333H263.168A92.629333 92.629333 0 0 1 170.666667 760.789333V263.168C170.666667 212.181333 212.181333 170.666667 263.168 170.666667h497.621333C811.818667 170.666667 853.333333 212.181333 853.333333 263.168v185.258667a21.333333 21.333333 0 0 1-21.333333 21.333333zM383.530667 255.530667h256V213.333333h-256v42.197334zM358.229333 533.717333a21.333333 21.333333 0 0 0 26.709334-14.037333 132.266667 132.266667 0 0 1 126.976-93.354667c58.453333 0 109.525333 37.461333 126.976 93.226667a20.864 20.864 0 0 0 5.674666 8.746667l0.810667 0.597333a19.968 19.968 0 0 0 5.248 3.584c1.28 0.597333 2.688 0.853333 4.053333 1.194667 1.109333 0.256 2.133333 0.597333 3.2 0.682666 0.682667 0 1.28 0.341333 1.877334 0.341334 2.090667 0 3.968-0.597333 5.802666-1.152h0.085334a21.034667 21.034667 0 0 0 15.445333-20.181334V401.322667a21.333333 21.333333 0 1 0-42.666667 0v36.181333A174.805333 174.805333 0 0 0 512 383.658667a174.805333 174.805333 0 0 0-167.765333 123.306666 21.333333 21.333333 0 0 0 14.08 26.752M340.906667 713.6a21.333333 21.333333 0 0 0 42.666666 0v-34.858667a176.042667 176.042667 0 0 0 128.341334 56.192 175.786667 175.786667 0 0 0 169.514666-129.621333 21.248 21.248 0 1 0-41.130666-11.178667 133.162667 133.162667 0 0 1-128.384 98.133334A133.546667 133.546667 0 0 1 384 595.84a21.077333 21.077333 0 0 0-13.482667-13.952 21.034667 21.034667 0 0 0-6.357333-1.28c-0.682667-0.042667-1.28-0.426667-1.962667-0.426667a21.333333 21.333333 0 0 0-21.333333 21.333334v112.085333z" /></svg>