<?xml version="1.0" standalone="no"?><!DOCTYPE svg PUBLIC "-//W3C//DTD SVG 1.1//EN" "http://www.w3.org/Graphics/SVG/1.1/DTD/svg11.dtd"><svg class="icon" width="200px" height="200.00px" viewBox="0 0 1024 1024" version="1.1" xmlns="http://www.w3.org/2000/svg"><path fill="#333333" d="M789.333333 512a21.333333 21.333333 0 0 0 21.333334-21.333333V299.008C810.666667 251.776 773.418667 213.333333 727.637333 213.333333H630.613333a128.298667 128.298667 0 0 0-120.405333-85.333333A128.512 128.512 0 0 0 389.973333 213.333333H296.362667C250.581333 213.333333 213.333333 251.776 213.333333 299.008v511.317333C213.333333 857.557333 250.581333 896 296.362667 896h431.274666C773.418667 896 810.666667 857.557333 810.666667 810.325333V618.666667a21.333333 21.333333 0 0 0-42.666667 0v191.658666c0 23.722667-18.133333 43.008-40.362667 43.008H296.362667C274.133333 853.333333 256 834.048 256 810.325333V299.008C256 275.285333 274.133333 256 296.362667 256h107.178666a20.736 20.736 0 0 0 12.458667-4.48 20.992 20.992 0 0 0 10.922667-14.037333A85.76 85.76 0 0 1 510.208 170.666667c40.448 0 75.605333 28.714667 83.626667 68.266666a21.333333 21.333333 0 0 0 20.864 17.066667c0.896 0 1.792-0.170667 2.688-0.256 0.426667 0.042667 0.810667 0.256 1.28 0.256h108.970666c22.229333 0 40.362667 19.285333 40.362667 43.008V490.666667a21.333333 21.333333 0 0 0 21.333333 21.333333M515.541333 704a148.053333 148.053333 0 0 1-89.002666-30.122667l208.213333-208.213333A148.053333 148.053333 0 0 1 664.874667 554.666667c0 82.346667-66.986667 149.333333-149.333334 149.333333m0-298.666667c33.493333 0 64.085333 11.477333 89.045334 30.165334l-208.213334 208.213333A147.968 147.968 0 0 1 366.208 554.666667c0-82.346667 66.986667-149.333333 149.333333-149.333334m132.778667 11.221334A191.146667 191.146667 0 0 0 515.541333 362.666667a192.213333 192.213333 0 0 0-192 192c0 105.856 86.144 192 192 192s192-86.144 192-192a190.976 190.976 0 0 0-53.845333-132.736c-0.725333-1.066667-1.194667-2.261333-2.133333-3.242667-0.981333-0.938667-2.176-1.408-3.242667-2.133333" /></svg>