<?xml version="1.0" standalone="no"?><!DOCTYPE svg PUBLIC "-//W3C//DTD SVG 1.1//EN" "http://www.w3.org/Graphics/SVG/1.1/DTD/svg11.dtd"><svg class="icon" width="200px" height="200.00px" viewBox="0 0 1024 1024" version="1.1" xmlns="http://www.w3.org/2000/svg"><path fill="#333333" d="M760.832 170.666667C811.818667 170.666667 853.333333 212.181333 853.333333 263.168v312.362667a21.333333 21.333333 0 1 1-42.666666 0V263.168A49.92 49.92 0 0 0 760.832 213.333333H682.24v63.530667c0 11.818667-9.514667 21.333333-21.333333 21.333333h-298.666667a21.333333 21.333333 0 0 1-21.333333-21.333333V213.333333H263.210667A49.92 49.92 0 0 0 213.333333 263.168v497.621333A49.92 49.92 0 0 0 263.210667 810.666667H404.906667a21.333333 21.333333 0 1 1 0 42.666666H263.210667A92.629333 92.629333 0 0 1 170.666667 760.789333V263.168C170.666667 212.181333 212.181333 170.666667 263.210667 170.666667h497.621333zM383.573333 255.530667h256V213.333333h-256v42.197334zM470.656 425.344a21.333333 21.333333 0 0 0-30.165333 0l-88.021334 88.021333a21.205333 21.205333 0 0 0-4.608 23.168 20.992 20.992 0 0 0 20.565334 17.706667h295.125333a21.333333 21.333333 0 1 0 0-42.666667H414.634667l56.021333-56.064a21.333333 21.333333 0 0 0 0-30.165333M363.989333 639.573333h298.666667a21.333333 21.333333 0 0 0 0-42.666666h-298.666667a21.333333 21.333333 0 0 0 0 42.666666M844.458667 656c-1.536-1.322667-3.370667-2.048-5.12-2.816a20.608 20.608 0 0 0-10.581334-3.242667h-65.109333a21.333333 21.333333 0 0 0 0 42.666667h21.632l-70.656 83.072-100.821333-80.469333a21.333333 21.333333 0 0 0-29.013334 2.218666l-108.501333 117.845334a21.418667 21.418667 0 0 0 15.701333 35.797333c5.76 0 11.52-2.304 15.701334-6.869333l95.061333-103.253334 101.418667 80.981334a21.248 21.248 0 0 0 29.525333-2.858667l76.544-89.941333v10.069333a21.333333 21.333333 0 1 0 42.666667 0V674.133333a20.565333 20.565333 0 0 0-2.816-10.026666 20.992 20.992 0 0 0-5.632-8.106667" /></svg>