<?xml version="1.0" standalone="no"?><!DOCTYPE svg PUBLIC "-//W3C//DTD SVG 1.1//EN" "http://www.w3.org/Graphics/SVG/1.1/DTD/svg11.dtd"><svg class="icon" width="200px" height="200.00px" viewBox="0 0 1024 1024" version="1.1" xmlns="http://www.w3.org/2000/svg"><path fill="#333333" d="M347.392 343.594667c0-26.026667 7.978667-51.029333 22.954667-72.533334a137.770667 137.770667 0 0 1 191.658666-32.554666c-2.602667-0.085333-5.162667-0.469333-7.765333-0.469334a180.138667 180.138667 0 0 0-147.925333 75.946667 167.978667 167.978667 0 0 0-30.72 96.981333c0 4.693333 1.066667 9.216 1.450666 13.866667a126.72 126.72 0 0 1-29.653333-81.237333m372.394667 132.48a21.333333 21.333333 0 0 0-39.338667-16.512c-20.906667 49.578667-70.442667 81.664-126.208 81.664-74.965333 0-135.978667-58.453333-135.978667-130.261334 0-26.026667 7.978667-51.029333 22.954667-72.533333A137.685333 137.685333 0 0 1 554.24 280.746667c45.354667 0 87.594667 21.589333 112.938667 57.728 5.205333 7.424 9.685333 15.488 13.226666 23.893333a21.333333 21.333333 0 1 0 39.253334-16.64 173.184 173.184 0 0 0-17.578667-31.744 176.597333 176.597333 0 0 0-67.413333-57.173333 20.522667 20.522667 0 0 0-3.456-10.24A180.266667 180.266667 0 0 0 483.370667 170.666667c-59.306667 0-114.645333 28.416-147.925334 75.946666a167.978667 167.978667 0 0 0-30.72 96.981334c0 64.341333 36.437333 122.666667 95.146667 152.746666 10.069333 17.066667 22.912 32.128 38.144 44.885334h-145.92C225.109333 541.226667 170.666667 596.053333 170.666667 663.594667a122.666667 122.666667 0 0 0 80.597333 115.2A121.6 121.6 0 0 0 362.965333 853.333333h155.221334a21.333333 21.333333 0 1 0 0-42.666666H362.965333c-43.392 0-78.72-35.754667-78.72-79.701334 0-43.946667 35.328-79.786667 78.72-79.786666h155.221334a21.333333 21.333333 0 1 0 0-42.666667H362.965333c-64.853333 0-117.504 51.712-120.789333 116.224A79.957333 79.957333 0 0 1 213.333333 663.594667a79.36 79.36 0 0 1 78.762667-79.701334h256.426667c0.64 0 1.194667-0.341333 1.877333-0.426666 1.28 0.085333 2.517333 0.426667 3.84 0.426666 72.96 0 137.984-42.325333 165.546667-107.818666M711.936 666.368a59.946667 59.946667 0 1 0 0 119.893333 59.946667 59.946667 0 0 0 0-119.893333M711.893333 832.981333a106.794667 106.794667 0 0 1-106.666666-106.666666c0-58.794667 47.829333-106.666667 106.666666-106.666667 58.88 0 106.666667 47.872 106.666667 106.666667s-47.786667 106.666667-106.666667 106.666666m0-256c-82.346667 0-149.333333 66.986667-149.333333 149.333334s66.986667 149.333333 149.333333 149.333333 149.333333-66.986667 149.333334-149.333333-66.986667-149.333333-149.333334-149.333334" /></svg>