<?xml version="1.0" standalone="no"?><!DOCTYPE svg PUBLIC "-//W3C//DTD SVG 1.1//EN" "http://www.w3.org/Graphics/SVG/1.1/DTD/svg11.dtd"><svg class="icon" width="200px" height="200.00px" viewBox="0 0 1024 1024" version="1.1" xmlns="http://www.w3.org/2000/svg"><path fill="#333333" d="M405.333333 213.888h128a21.333333 21.333333 0 0 0 0-42.666667h-128a21.333333 21.333333 0 0 0 0 42.666667M277.333333 171.221333h-85.333333a21.333333 21.333333 0 0 0 0 42.666667h85.333333a21.333333 21.333333 0 0 0 0-42.666667M405.333333 533.888h426.666667a21.333333 21.333333 0 0 0 0-42.666667h-426.666667a21.333333 21.333333 0 0 0 0 42.666667M277.333333 491.221333h-85.333333a21.333333 21.333333 0 0 0 0 42.666667h85.333333a21.333333 21.333333 0 0 0 0-42.666667M490.666667 811.221333h-85.333334a21.333333 21.333333 0 0 0 0 42.666667h85.333334a21.333333 21.333333 0 0 0 0-42.666667M277.333333 811.221333h-85.333333a21.333333 21.333333 0 0 0 0 42.666667h85.333333a21.333333 21.333333 0 0 0 0-42.666667M725.034667 411.733333C689.792 405.632 640 376.917333 640 319.616V232.192L724.181333 213.333333l85.845334 18.901334v96.341333l0.085333 0.341333c-0.213333 0.853333-0.725333 1.578667-0.810667 2.432-5.973333 46.762667-47.274667 74.026667-84.266666 80.384m-3.2 42.88a24.746667 24.746667 0 0 0 3.072 0.213334l0.128-0.042667 0.085333 0.042667a25.344 25.344 0 0 0 3.072-0.213334c53.162667-7.637333 114.474667-47.744 123.434667-117.845333 0.085333-0.725333-0.170667-1.365333-0.170667-2.090667 0.597333-1.962667 1.28-3.925333 1.28-6.101333V215.296a21.077333 21.077333 0 0 0-15.658667-20.181333c-0.981333-0.384-1.792-1.024-2.858666-1.28l-104.661334-23.04c-0.768-0.128-1.493333 0.085333-2.261333 0-0.853333-0.170667-1.706667 0-2.645333-0.042667-1.28 0-2.56-0.213333-3.84 0.042667-0.768 0.085333-1.450667-0.128-2.218667 0l-102.826667 23.04c-1.109333 0.256-1.92 0.938667-2.944 1.322666a21.034667 21.034667 0 0 0-15.488 20.138667v108.16c0 1.365333 0.554667 2.602667 0.768 3.925333 4.266667 72.277333 64.042667 118.656 123.733334 127.232M704 641.450667a64 64 0 1 0 0 128 64 64 0 0 0 0-128M704 812.117333a106.752 106.752 0 0 1-106.666667-106.666666c0-58.88 47.829333-106.666667 106.666667-106.666667s106.666667 47.786667 106.666667 106.666667c0 58.837333-47.829333 106.666667-106.666667 106.666666m0-256c-82.346667 0-149.333333 66.986667-149.333333 149.333334s66.986667 149.333333 149.333333 149.333333 149.333333-66.986667 149.333333-149.333333-66.986667-149.333333-149.333333-149.333334" /></svg>