<?xml version="1.0" standalone="no"?><!DOCTYPE svg PUBLIC "-//W3C//DTD SVG 1.1//EN" "http://www.w3.org/Graphics/SVG/1.1/DTD/svg11.dtd"><svg class="icon" width="200px" height="200.00px" viewBox="0 0 1024 1024" version="1.1" xmlns="http://www.w3.org/2000/svg"><path fill="#333333" d="M704.012373 641.621333a64 64 0 1 0 0.042667 128.042667 64 64 0 0 0 0-128.042667M704.012373 812.288A106.794667 106.794667 0 0 1 597.345707 705.621333C597.345707 646.826667 645.17504 598.954667 704.012373 598.954667 762.892373 598.954667 810.67904 646.826667 810.67904 705.621333S762.892373 812.288 704.012373 812.288M397.068373 570.837333V477.312l90.325334-20.266667 92.16 20.309334v103.808c-0.213333 0.810667-0.682667 1.450667-0.810667 2.304-6.357333 50.218667-50.730667 79.445333-90.410667 86.186666-45.824-7.68-91.264-43.477333-91.264-98.816M704.012373 556.288c-30.208 0-58.24 9.173333-81.792 24.661333V460.416a21.077333 21.077333 0 0 0-15.786666-20.224c-1.024-0.341333-1.792-0.981333-2.858667-1.237333L492.897707 414.592C492.129707 414.421333 491.44704 414.634667 490.67904 414.549333 489.39904 414.293333 487.948373 414.506667 486.540373 414.506667c-0.768 0.042667-1.621333-0.128-2.389333 0.042666-0.810667 0.085333-1.578667-0.128-2.389333 0.042667l-108.8 24.405333c-1.066667 0.213333-1.834667 0.853333-2.773334 1.237334a20.992 20.992 0 0 0-15.786666 20.181333v114.474667c0 1.493333 0.554667 2.773333 0.853333 4.181333C359.60704 654.933333 422.412373 703.573333 485.132373 712.533333a18.389333 18.389333 0 0 0 3.029334 0.213334l0.128-0.042667 0.128 0.042667a19.456 19.456 0 0 0 3.114666-0.213334 165.632 165.632 0 0 0 64.938667-24.618666C555.745707 693.76 554.67904 699.562667 554.67904 705.621333 554.67904 787.968 621.665707 854.954667 704.012373 854.954667S853.345707 787.968 853.345707 705.621333 786.35904 556.288 704.012373 556.288M490.67904 811.306667H273.761707c-31.744 0-57.6-25.685333-57.6-57.173334V434.261333L490.67904 176.597333l326.741333 306.773334a21.290667 21.290667 0 0 0 30.122667-1.024 21.290667 21.290667 0 0 0-0.938667-30.165334L507.19104 133.589333A20.906667 20.906667 0 0 0 490.67904 128.128a20.821333 20.821333 0 0 0-16.512 5.461333L134.753707 452.181333a21.290667 21.290667 0 0 0 14.592 36.906667 21.290667 21.290667 0 0 0 14.592-5.76l9.557333-8.96v279.722667a100.181333 100.181333 0 0 0 100.266667 99.882666H490.67904a21.333333 21.333333 0 0 0 0-42.666666" /></svg>