<?xml version="1.0" standalone="no"?><!DOCTYPE svg PUBLIC "-//W3C//DTD SVG 1.1//EN" "http://www.w3.org/Graphics/SVG/1.1/DTD/svg11.dtd"><svg class="icon" width="200px" height="200.00px" viewBox="0 0 1024 1024" version="1.1" xmlns="http://www.w3.org/2000/svg"><path fill="#333333" d="M681.514667 615.68a64 64 0 1 0 0 128.085333 64 64 0 0 0 0-128.042666M681.514667 786.346667a106.794667 106.794667 0 0 1-106.666667-106.666667c0-58.752 47.786667-106.666667 106.666667-106.666667 58.837333 0 106.666667 47.914667 106.666666 106.666667 0 58.837333-47.829333 106.666667-106.666666 106.666667m0-256c-32.853333 0-62.890667 11.008-87.552 29.013333h-80.554667v-60.032h124.842667a21.290667 21.290667 0 1 0 0-42.666667h-124.842667v-23.893333l103.68-97.92a21.333333 21.333333 0 0 0-29.184-31.018667l-98.176 92.586667-98.176-92.586667a21.333333 21.333333 0 1 0-29.226667 31.018667l108.373334 102.314667v19.498666H339.626667a21.333333 21.333333 0 0 0 0 42.666667h131.157333v60.032H339.584a21.333333 21.333333 0 1 0 0 42.666667h131.157333v93.738666a21.290667 21.290667 0 1 0 42.666667 0V602.026667h41.216a147.498667 147.498667 0 0 0-22.442667 77.653333c0 82.346667 66.986667 149.333333 149.333334 149.333333s149.333333-66.986667 149.333333-149.333333-66.986667-149.333333-149.333333-149.333333M489.514667 128C290.133333 128 128 290.133333 128 489.472c0 189.610667 148.053333 348.032 337.066667 360.661333h1.28a20.138667 20.138667 0 0 0 1.365333-40.192C299.861333 798.72 168.362667 657.962667 168.362667 489.472c0-177.109333 144.085333-321.194667 321.152-321.194667 169.344 0 310.186667 132.266667 320.554666 301.098667 0.682667 11.093333 10.666667 20.352 21.333334 18.901333a20.181333 20.181333 0 0 0 18.901333-21.333333C838.613333 276.864 680.064 128 489.514667 128" /></svg>