<?xml version="1.0" standalone="no"?><!DOCTYPE svg PUBLIC "-//W3C//DTD SVG 1.1//EN" "http://www.w3.org/Graphics/SVG/1.1/DTD/svg11.dtd"><svg class="icon" width="200px" height="200.00px" viewBox="0 0 1024 1024" version="1.1" xmlns="http://www.w3.org/2000/svg"><path fill="#333333" d="M213.333333 341.333333v-19.541333c0-35.285333 28.714667-64 64-64h62.208v23.082667a21.333333 21.333333 0 0 0 42.666667 0v-23.082667h259.584v23.082667a21.333333 21.333333 0 0 0 42.666667 0v-23.082667h65.749333c35.285333 0 64 28.714667 64 64V341.333333H213.333333z m622.208 128a21.333333 21.333333 0 0 0 21.333334-21.333333V321.792c0-58.837333-47.829333-106.666667-106.666667-106.666667h-65.749333V192a21.333333 21.333333 0 0 0-42.666667 0v23.125333H382.208V192a21.333333 21.333333 0 0 0-42.666667 0v23.125333H277.333333a106.752 106.752 0 0 0-106.666666 106.666667V746.666667C170.666667 805.504 218.496 853.333333 277.333333 853.333333h472.874667c58.837333 0 106.666667-47.829333 106.666667-106.666666v-170.666667a21.333333 21.333333 0 0 0-42.666667 0v170.666667c0 35.285333-28.714667 64-64 64H277.333333c-35.285333 0-64-28.714667-64-64V384h600.874667v64a21.333333 21.333333 0 0 0 21.333333 21.333333zM320 512h170.666667a21.333333 21.333333 0 0 0 0-42.666667h-170.666667a21.333333 21.333333 0 0 0 0 42.666667M704 576h-384a21.333333 21.333333 0 0 0 0 42.666667h384a21.333333 21.333333 0 0 0 0-42.666667M704 682.666667h-384a21.333333 21.333333 0 0 0 0 42.666666h384a21.333333 21.333333 0 0 0 0-42.666666" /></svg>