<?xml version="1.0" standalone="no"?><!DOCTYPE svg PUBLIC "-//W3C//DTD SVG 1.1//EN" "http://www.w3.org/Graphics/SVG/1.1/DTD/svg11.dtd"><svg class="icon" width="200px" height="200.00px" viewBox="0 0 1024 1024" version="1.1" xmlns="http://www.w3.org/2000/svg"><path fill="#333333" d="M444.63232 810.624a206.848 206.848 0 0 1-188.586667-207.104c0-39.082667 11.264-76.416 31.701334-109.312l176.256-264.021333L625.069653 471.509333c0.256 0.384 0.298667 0.810667 0.597334 1.152 0.853333 1.024 1.493333 2.176 2.346666 3.242667l13.525334 20.266667c0.170667 0.298667 0.512 0.384 0.725333 0.682666 11.264 18.773333 19.754667 39.168 24.576 60.458667a21.333333 21.333333 0 0 0 41.642667-9.429333 251.477333 251.477333 0 0 0-44.202667-94.506667L485.20832 185.173333c-0.682667-1.066667-1.706667-1.706667-2.56-2.602666a20.565333 20.565333 0 0 0-6.954667-8.32 21.333333 21.333333 0 0 0-29.610666 5.930666l-183.424 274.773334c-0.554667 0.64-1.28 0.981333-1.792 1.664-2.816 3.882667-4.864 8.149333-7.424 12.16l-2.517334 3.712c-0.213333 0.341333-0.213333 0.725333-0.426666 1.066666a248.32 248.32 0 0 0-37.12 129.962667 249.386667 249.386667 0 0 0 227.328 249.6l2.005333 0.085333a21.333333 21.333333 0 0 0 1.92-42.581333M314.07232 530.773333v133.418667a20.138667 20.138667 0 1 0 40.277333 0V530.773333a20.138667 20.138667 0 1 0-40.277333 0M421.890987 488.746667v175.402666a20.138667 20.138667 0 1 0 40.277333 0v-175.36a20.138667 20.138667 0 1 0-40.277333 0M573.65632 554.154667v-111.061334a20.138667 20.138667 0 0 0-40.277333 0v111.061334a20.138667 20.138667 0 1 0 40.277333 0M783.789653 698.88h-37.845333v-5.034667a21.333333 21.333333 0 1 0-42.666667 0v5.034667H527.789653a21.333333 21.333333 0 0 0 0 42.666667h175.488v3.626666a21.333333 21.333333 0 1 0 42.666667 0v-3.626666h37.845333a21.333333 21.333333 0 0 0 0-42.666667M609.026987 609.706667a21.333333 21.333333 0 0 0-42.666667 0v4.352h-38.570667a21.333333 21.333333 0 1 0 0 42.666666h38.570667v4.309334a21.333333 21.333333 0 0 0 42.666667 0v-4.266667h174.762666a21.333333 21.333333 0 1 0 0-42.666667h-174.762666v-4.437333zM783.789653 784.469333H609.026987v-4.352a21.333333 21.333333 0 0 0-42.666667 0v4.352H527.789653a21.333333 21.333333 0 0 0 0 42.666667h38.570667v4.352a21.333333 21.333333 0 1 0 42.666667 0v-4.352H783.789653a21.333333 21.333333 0 0 0 0-42.666667" /></svg>