<?xml version="1.0" standalone="no"?><!DOCTYPE svg PUBLIC "-//W3C//DTD SVG 1.1//EN" "http://www.w3.org/Graphics/SVG/1.1/DTD/svg11.dtd"><svg class="icon" width="200px" height="200.00px" viewBox="0 0 1024 1024" version="1.1" xmlns="http://www.w3.org/2000/svg"><path fill="#333333" d="M809.429333 629.888h-258.304v-152.149333h258.304a22.528 22.528 0 1 0 0-45.056h-258.304V360.405333l205.056-193.450666a22.570667 22.570667 0 0 0-30.933333-32.853334l-201.088 189.866667-201.130667-189.866667a22.570667 22.570667 0 0 0-30.933333 32.853334l212.053333 200.106666c0.597333 0.554667 1.322667 0.768 1.92 1.237334v64.384H235.861333a22.528 22.528 0 1 0 0 45.056h270.208v152.149333H235.861333a22.528 22.528 0 1 0 0 45.056h270.208v198.528a22.528 22.528 0 1 0 45.056 0v-198.528h258.304a22.570667 22.570667 0 0 0 0-45.056" /></svg>