<?xml version="1.0" standalone="no"?><!DOCTYPE svg PUBLIC "-//W3C//DTD SVG 1.1//EN" "http://www.w3.org/Graphics/SVG/1.1/DTD/svg11.dtd"><svg class="icon" width="200px" height="200.00px" viewBox="0 0 1024 1024" version="1.1" xmlns="http://www.w3.org/2000/svg"><path fill="#333333" d="M213.333333 341.333333v-19.541333c0-35.328 28.714667-64 64-64h62.250667v23.082667a21.333333 21.333333 0 1 0 42.666667 0v-23.082667h259.541333v23.082667a21.333333 21.333333 0 1 0 42.666667 0v-23.082667h65.792c35.285333 0 64 28.672 64 64V341.333333H213.333333z m536.917334-126.208h-65.792V192a21.333333 21.333333 0 0 0-42.666667 0v23.125333H382.250667V192a21.333333 21.333333 0 0 0-42.666667 0v23.125333H277.333333a106.752 106.752 0 0 0-106.666666 106.666667V746.666667C170.666667 805.461333 218.496 853.333333 277.333333 853.333333h215.125334a21.333333 21.333333 0 0 0 0-42.666666H277.333333c-35.285333 0-64-28.714667-64-64V384h600.917334v108.458667a21.333333 21.333333 0 0 0 42.666666 0v-170.666667c0-58.837333-47.829333-106.666667-106.666666-106.666667zM707.584 640a64 64 0 1 0 0 128.042667 64 64 0 0 0 0-128.042667M707.584 810.666667a106.794667 106.794667 0 0 1-106.666667-106.666667c0-58.794667 47.829333-106.666667 106.666667-106.666667s106.666667 47.872 106.666667 106.666667-47.829333 106.666667-106.666667 106.666667z m-172.032-181.76v-30.677334h66.730667a150.528 150.528 0 0 0-22.997334 30.677334h-43.733333zM707.584 554.666667c-24.832 0-47.914667 6.656-68.565333 17.450666a21.034667 21.034667 0 0 0-20.352-16.554666h-83.114667v-8.362667l72.149333-68.096a21.333333 21.333333 0 0 0-29.226666-31.061333l-65.92 62.208-65.92-62.208a21.333333 21.333333 0 0 0-29.269334 31.061333l75.52 71.253333v5.205334H405.333333a21.333333 21.333333 0 0 0 0 42.666666h87.552v30.677334H405.333333a21.333333 21.333333 0 1 0 0 42.666666h87.552v60.885334a21.333333 21.333333 0 1 0 42.666667 0V671.573333h26.496a147.541333 147.541333 0 0 0-3.797333 32.426667c0 82.346667 66.986667 149.333333 149.333333 149.333333s149.333333-66.986667 149.333333-149.333333-66.986667-149.333333-149.333333-149.333333z" /></svg>