<?xml version="1.0" standalone="no"?><!DOCTYPE svg PUBLIC "-//W3C//DTD SVG 1.1//EN" "http://www.w3.org/Graphics/SVG/1.1/DTD/svg11.dtd"><svg class="icon" width="200px" height="200.00px" viewBox="0 0 1024 1024" version="1.1" xmlns="http://www.w3.org/2000/svg"><path fill="#333333" d="M516.864 810.666667H263.253333A49.92 49.92 0 0 1 213.333333 760.789333V263.168A49.92 49.92 0 0 1 263.253333 213.333333H760.746667a49.92 49.92 0 0 1 49.92 49.834667v228.821333a21.290667 21.290667 0 1 0 42.666666 0V263.168A92.629333 92.629333 0 0 0 760.746667 170.666667H263.253333A92.586667 92.586667 0 0 0 170.666667 263.168v497.621333A92.586667 92.586667 0 0 0 263.253333 853.333333h253.610667a21.333333 21.333333 0 0 0 0-42.666666M383.573333 299.093333a21.333333 21.333333 0 0 0-21.333333 21.333334v87.466666c0 81.664 66.986667 148.053333 149.333333 148.053334s149.333333-66.389333 149.333334-148.053334V320.426667a21.333333 21.333333 0 0 0-42.666667 0v87.466666c0 58.154667-47.872 105.386667-106.666667 105.386667-58.88 0-106.666667-47.232-106.666666-105.386667V320.426667a21.333333 21.333333 0 0 0-21.333334-21.333334M811.989333 744.661333a12.629333 12.629333 0 0 1-12.629333 12.586667H611.285333a12.629333 12.629333 0 0 1-12.629333-12.586667v-136.96c0-6.997333 5.674667-12.629333 12.629333-12.629333h188.074667c6.954667 0 12.629333 5.632 12.629333 12.586667v137.002666zM799.36 552.405333H611.285333C580.778667 552.405333 555.989333 577.194667 555.989333 607.658667v137.002666c0 30.464 24.789333 55.253333 55.296 55.253334h188.074667c30.506667 0 55.296-24.746667 55.296-55.253334v-136.96c0-30.506667-24.746667-55.296-55.296-55.296zM817.706667 808.405333h-224a21.333333 21.333333 0 0 0 0 42.666667h224a21.333333 21.333333 0 0 0 0-42.666667" /></svg>