<?xml version="1.0" standalone="no"?><!DOCTYPE svg PUBLIC "-//W3C//DTD SVG 1.1//EN" "http://www.w3.org/Graphics/SVG/1.1/DTD/svg11.dtd"><svg class="icon" width="200px" height="200.00px" viewBox="0 0 1024 1024" version="1.1" xmlns="http://www.w3.org/2000/svg"><path fill="#333333" d="M530.816 851.797333c-6.272 1.28-12.544 2.346667-18.773333 3.285334-148.864-22.314667-298.666667-139.264-298.666667-321.066667V236.714667l295.978667-66.346667L810.666667 236.757333v244.778667a21.290667 21.290667 0 1 0 42.666666 0V220.202667a21.034667 21.034667 0 0 0-17.365333-20.522667c-1.536-0.768-2.986667-1.706667-4.693333-2.090667l-314.709334-69.333333c-2.048-0.426667-3.968-0.213333-5.973333-0.085333-0.554667-0.085333-1.194667 0.085333-1.792 0h-0.768c-2.005333-0.128-3.968-0.341333-6.058667 0.085333l-309.333333 69.333333c-1.706667 0.384-3.157333 1.322667-4.693333 2.090667A21.034667 21.034667 0 0 0 170.666667 220.202667v325.333333c0 1.408 0.512 2.645333 0.768 3.968 8.362667 198.101333 173.44 324.906667 337.109333 348.288a23.552 23.552 0 0 0 3.029333 0.213333l0.426667-0.085333 0.426667 0.085333a25.472 25.472 0 0 0 3.072-0.213333c7.893333-1.152 15.829333-2.517333 23.808-4.181333a21.333333 21.333333 0 1 0-8.490667-41.813334M523.093333 428.074667l60.330667-60.245334a45.397333 45.397333 0 0 1 64.554667 0c8.618667 8.618667 13.354667 20.096 13.354666 32.256 0 12.202667-4.736 23.637333-13.354666 32.298667l-60.288 60.288a46.848 46.848 0 0 1-64.554667 0 45.781333 45.781333 0 0 1 0-64.597333m32.298667 120.618666c23.594667 0 45.738667-9.216 62.421333-25.856l60.288-60.288c16.64-16.64 25.856-38.912 25.856-62.464 0-23.594667-9.216-45.781333-25.856-62.421333-33.322667-33.365333-91.605333-33.28-124.885333 0l-60.288 60.245333a87.765333 87.765333 0 0 0-13.056 107.733334l-150.101334 150.186666a21.290667 21.290667 0 0 0 15.061334 36.352 21.248 21.248 0 0 0 15.104-6.229333l28.074666-28.074667 26.154667 26.154667a21.333333 21.333333 0 1 0 30.165333-30.165333l-26.154666-26.154667 91.861333-91.861333c13.610667 8.192 29.013333 12.842667 45.354667 12.842666M705.792 630.869333a64 64 0 1 0 0 128.042667 64 64 0 0 0 0-128M705.792 801.536a106.752 106.752 0 0 1-106.666667-106.666667c0-58.837333 47.829333-106.666667 106.666667-106.666666s106.666667 47.829333 106.666667 106.666666c0 58.88-47.829333 106.666667-106.666667 106.666667m0-256c-82.346667 0-149.333333 66.986667-149.333333 149.333333s66.986667 149.333333 149.333333 149.333334 149.333333-66.986667 149.333333-149.333334-66.986667-149.333333-149.333333-149.333333" /></svg>