<?xml version="1.0" standalone="no"?><!DOCTYPE svg PUBLIC "-//W3C//DTD SVG 1.1//EN" "http://www.w3.org/Graphics/SVG/1.1/DTD/svg11.dtd"><svg class="icon" width="200px" height="200.00px" viewBox="0 0 1024 1024" version="1.1" xmlns="http://www.w3.org/2000/svg"><path fill="#333333" d="M596.317867 544.682667l-105.216 105.258666-104.789334-105.258666a43.989333 43.989333 0 0 1-12.970666-31.274667c0-11.776 4.608-22.912 12.970666-31.274667 8.362667-8.362667 19.498667-12.970667 31.317334-12.970666 11.776 0 22.912 4.608 31.274666 12.970666l27.306667 27.349334a21.162667 21.162667 0 0 0 30.208 0l27.306667-27.306667a45.226667 45.226667 0 0 1 62.592 0 43.989333 43.989333 0 0 1 0 62.549333m55.637333-31.317333c0-23.168-9.045333-45.013333-25.472-61.44-32.853333-32.853333-90.026667-32.810667-122.88 0l-12.288 12.288-12.245333-12.288c-32.853333-32.853333-90.069333-32.853333-122.922667 0a86.357333 86.357333 0 0 0-25.472 61.44c0 23.210667 9.045333 45.013333 25.472 61.44l119.765333 120.32a21.290667 21.290667 0 0 0 30.165334 0.085333l120.405333-120.405333c16.426667-16.426667 25.472-38.229333 25.472-61.44M846.600533 452.138667L507.1872 133.632A21.205333 21.205333 0 0 0 490.6752 128.042667a21.162667 21.162667 0 0 0-16.512 5.546666L134.749867 452.138667a21.290667 21.290667 0 1 0 29.184 31.104l9.6-8.96v279.765333a100.138667 100.138667 0 0 0 100.224 99.84h193.792a21.333333 21.333333 0 1 0 0-42.666667H273.757867a57.472 57.472 0 0 1-57.6-57.173333V434.218667L490.6752 176.512l274.517333 257.706667v141.568a21.290667 21.290667 0 1 0 42.666667 0v-101.546667l9.557333 8.96a21.12 21.12 0 0 0 30.122667-0.896 21.290667 21.290667 0 0 0-0.938667-30.165333M807.560533 651.52a21.248 21.248 0 0 0-26.538666-14.336l-67.328 20.053333a21.333333 21.333333 0 0 0 12.16 40.832l17.322666-5.12L687.7952 783.701333l-48.768-96.426666c-0.426667-0.810667-1.066667-1.28-1.536-1.962667a19.456 19.456 0 0 0-6.101333-6.101333c-0.64-0.426667-1.066667-1.024-1.792-1.408-0.469333-0.213333-0.981333-0.213333-1.450667-0.384a22.016 22.016 0 0 0-4.352-1.237334c-1.28-0.213333-2.56-0.426667-3.84-0.426666s-2.56 0.213333-3.925333 0.469333a18.346667 18.346667 0 0 0-4.266667 1.194667c-0.426667 0.170667-0.938667 0.170667-1.408 0.426666-0.725333 0.341333-1.152 0.938667-1.792 1.365334a20.010667 20.010667 0 0 0-6.144 6.101333c-0.426667 0.682667-1.109333 1.152-1.493333 1.92L532.061867 823.509333a21.333333 21.333333 0 0 0 38.101333 19.242667l49.792-98.56 46.933333 93.013333c0.256 0.341333 0.64 0.469333 0.853334 0.853334a20.48 20.48 0 0 0 7.125333 7.68v0.042666a21.461333 21.461333 0 0 0 20.736 0.853334c0.128-0.128 0.213333-0.256 0.341333-0.298667 0.512-0.298667 0.853333-0.768 1.365334-1.109333a20.650667 20.650667 0 0 0 5.973333-5.717334c0.213333-0.341333 0.682667-0.426667 0.853333-0.853333L781.2352 712.533333l5.504 18.517334a21.290667 21.290667 0 0 0 26.538667 14.336 21.333333 21.333333 0 0 0 14.378666-26.453334l-20.053333-67.413333z" /></svg>