<?xml version="1.0" standalone="no"?><!DOCTYPE svg PUBLIC "-//W3C//DTD SVG 1.1//EN" "http://www.w3.org/Graphics/SVG/1.1/DTD/svg11.dtd"><svg class="icon" width="200px" height="200.00px" viewBox="0 0 1024 1024" version="1.1" xmlns="http://www.w3.org/2000/svg"><path fill="#333333" d="M833.792 407.082667a21.333333 21.333333 0 0 0 21.333333-21.333334V321.792c0-58.837333-47.872-106.666667-106.666666-106.666667H533.333333V192a21.333333 21.333333 0 0 0-42.666666 0v23.125333h-213.333334a106.794667 106.794667 0 0 0-106.666666 106.666667v256c0 58.837333 47.872 106.666667 106.666666 106.666667h213.333334v49.792l-138.581334 79.189333a21.376 21.376 0 0 0 21.162667 37.12L512 771.242667l138.752 79.317333a21.333333 21.333333 0 0 0 21.162667-37.12L533.333333 734.250667v-49.792h215.125334c58.794667 0 106.666667-47.829333 106.666666-106.666667v-64a21.333333 21.333333 0 0 0-42.666666 0v64c0 35.285333-28.714667 64-64 64H277.333333c-35.285333 0-64-28.714667-64-64v-256c0-35.285333 28.714667-64 64-64h471.125334c35.285333 0 64 28.714667 64 64v63.957333a21.333333 21.333333 0 0 0 21.333333 21.333334M517.333333 410.666667a42.709333 42.709333 0 0 1 0 85.333333 42.709333 42.709333 0 0 1 0-85.333333m0 128a85.333333 85.333333 0 0 0 82.816-65.706667h18.090667a32.256 32.256 0 0 0 24.618667 11.733333 32.682667 32.682667 0 0 0 0-65.408 32.298667 32.298667 0 0 0-24.106667 11.008h-19.626667a85.248 85.248 0 0 0-81.792-62.293333c-15.488 0-29.781333 4.437333-42.325333 11.690667l-32.213333-32.213334c0.512-2.432 1.450667-4.650667 1.450666-7.168a37.248 37.248 0 1 0-37.248 37.205334c1.664 0 3.029333-0.725333 4.608-0.896l32.896 32.896c-7.765333 12.842667-12.501333 27.733333-12.501333 43.818666 0 16.384 4.864 31.616 12.928 44.629334l-30.08 30.08c-2.602667-0.554667-5.077333-1.578667-7.850667-1.578667a37.205333 37.205333 0 1 0 37.248 37.248c0-1.408-0.64-2.602667-0.768-3.925333l32.341334-32.384c12.330667 6.954667 26.368 11.264 41.514666 11.264" /></svg>