<?xml version="1.0" standalone="no"?><!DOCTYPE svg PUBLIC "-//W3C//DTD SVG 1.1//EN" "http://www.w3.org/Graphics/SVG/1.1/DTD/svg11.dtd"><svg class="icon" width="200px" height="200.00px" viewBox="0 0 1024 1024" version="1.1" xmlns="http://www.w3.org/2000/svg"><path fill="#333333" d="M832 469.76a21.333333 21.333333 0 0 1-21.333333-21.333333V263.168A49.92 49.92 0 0 0 760.789333 213.333333h-78.592v63.530667c0 11.818667-9.514667 21.333333-21.333333 21.333333h-298.666667a21.333333 21.333333 0 0 1-21.333333-21.333333V213.333333H263.168A49.92 49.92 0 0 0 213.333333 263.168v497.621333A49.92 49.92 0 0 0 263.168 810.666667h497.621333A49.92 49.92 0 0 0 810.666667 760.789333V576.426667a21.333333 21.333333 0 1 1 42.666666 0v184.362666A92.629333 92.629333 0 0 1 760.789333 853.333333H263.168A92.629333 92.629333 0 0 1 170.666667 760.789333V263.168C170.666667 212.181333 212.181333 170.666667 263.168 170.666667h497.621333C811.818667 170.666667 853.333333 212.181333 853.333333 263.168v185.258667a21.333333 21.333333 0 0 1-21.333333 21.333333zM383.530667 255.530667h256V213.333333h-256v42.197334zM663.552 511.573333H414.592l56.064-56.064a21.418667 21.418667 0 0 0-30.208-30.208L352.426667 513.322667a21.333333 21.333333 0 0 0-4.693334 23.168 21.077333 21.077333 0 0 0 20.650667 17.706666h295.125333a21.333333 21.333333 0 0 0 0-42.666666M662.656 596.906667h-298.666667a21.333333 21.333333 0 0 0 0 42.666666h298.666667a21.333333 21.333333 0 0 0 0-42.666666" /></svg>