<?xml version="1.0" standalone="no"?><!DOCTYPE svg PUBLIC "-//W3C//DTD SVG 1.1//EN" "http://www.w3.org/Graphics/SVG/1.1/DTD/svg11.dtd"><svg class="icon" width="200px" height="200.00px" viewBox="0 0 1024 1024" version="1.1" xmlns="http://www.w3.org/2000/svg"><path fill="#333333" d="M448 854.229333H253.653333c-22.229333 0-40.32-19.285333-40.32-43.008V305.450667L348.117333 170.666667h336.853334c22.229333 0 40.362667 19.285333 40.362666 43.008V533.333333a21.333333 21.333333 0 0 0 42.666667 0V213.674667C768 166.442667 730.752 128 684.970667 128H339.541333a21.205333 21.205333 0 0 0-15.189333 6.4c-0.298667 0.256-0.64 0.341333-0.896 0.597333L176.896 281.557333a21.077333 21.077333 0 0 0-6.016 16.085334C170.837333 297.984 170.666667 298.282667 170.666667 298.666667v512.554666c0 47.232 37.248 85.674667 82.986666 85.674667H448a21.333333 21.333333 0 0 0 0-42.666667M576 362.666667h-213.333333a21.333333 21.333333 0 0 0 0 42.666666h213.333333a21.333333 21.333333 0 0 0 0-42.666666M576 490.666667h-213.333333a21.333333 21.333333 0 0 0 0 42.666666h213.333333a21.333333 21.333333 0 0 0 0-42.666666M661.333333 682.666667a64 64 0 1 0 0 128.042666 64 64 0 0 0 0-128.042666M661.333333 853.333333a106.794667 106.794667 0 0 1-106.666666-106.666666c0-58.794667 47.829333-106.666667 106.666666-106.666667s106.666667 47.872 106.666667 106.666667-47.829333 106.666667-106.666667 106.666666m0-256c-28.586667 0-55.082667 8.490667-77.824 22.485334-1.877333-0.512-3.712-1.152-5.76-1.152h-213.333333a21.333333 21.333333 0 0 0 0 42.666666h174.677333a148.48 148.48 0 0 0-27.093333 85.333334c0 82.346667 66.986667 149.333333 149.333333 149.333333s149.333333-66.986667 149.333334-149.333333-66.986667-149.333333-149.333334-149.333334" /></svg>