<?xml version="1.0" standalone="no"?><!DOCTYPE svg PUBLIC "-//W3C//DTD SVG 1.1//EN" "http://www.w3.org/Graphics/SVG/1.1/DTD/svg11.dtd"><svg class="icon" width="200px" height="200.00px" viewBox="0 0 1024 1024" version="1.1" xmlns="http://www.w3.org/2000/svg"><path fill="#333333" d="M832 469.76a21.333333 21.333333 0 0 1-21.333333-21.333333V263.168A49.92 49.92 0 0 0 760.789333 213.333333h-78.592v63.530667c0 11.818667-9.514667 21.333333-21.333333 21.333333h-298.666667a21.333333 21.333333 0 0 1-21.333333-21.333333V213.333333H263.168A49.92 49.92 0 0 0 213.333333 263.168v497.621333A49.92 49.92 0 0 0 263.168 810.666667h497.621333A49.92 49.92 0 0 0 810.666667 760.789333V576.426667a21.333333 21.333333 0 1 1 42.666666 0v184.362666A92.629333 92.629333 0 0 1 760.789333 853.333333H263.168A92.629333 92.629333 0 0 1 170.666667 760.789333V263.168C170.666667 212.181333 212.181333 170.666667 263.168 170.666667h497.621333C811.818667 170.666667 853.333333 212.181333 853.333333 263.168v185.258667a21.333333 21.333333 0 0 1-21.333333 21.333333zM383.530667 255.530667h256V213.333333h-256v42.197334zM621.354667 669.482667a13.141333 13.141333 0 0 1-13.184 13.013333H418.474667a13.098667 13.098667 0 0 1-13.226667-13.013333v-134.698667l108.074667-101.461333 108.117333 101.418666V669.482667z m-202.965334 55.68h189.824c30.762667 0 55.808-24.96 55.808-55.68V565.333333a20.949333 20.949333 0 0 0 14.165334-6.485333 21.248 21.248 0 0 0-0.938667-30.122667l-148.522667-139.349333a21.077333 21.077333 0 0 0-15.402666-5.76 21.077333 21.077333 0 0 0-15.488 5.76L349.44 528.682667a21.248 21.248 0 0 0-0.938667 30.122666 20.864 20.864 0 0 0 14.08 6.485334v104.192c0 30.72 25.045333 55.68 55.808 55.68z" /></svg>