<?xml version="1.0" standalone="no"?><!DOCTYPE svg PUBLIC "-//W3C//DTD SVG 1.1//EN" "http://www.w3.org/Graphics/SVG/1.1/DTD/svg11.dtd"><svg class="icon" width="200px" height="200.00px" viewBox="0 0 1024 1024" version="1.1" xmlns="http://www.w3.org/2000/svg"><path fill="#333333" d="M832 508.416a21.333333 21.333333 0 0 0 21.333333-21.333333v-128a106.24 106.24 0 0 0-106.197333-106.069334H276.821333A106.24 106.24 0 0 0 170.666667 359.082667v386.389333a106.24 106.24 0 0 0 106.154666 106.069333h470.314667A106.24 106.24 0 0 0 853.333333 745.472v-128.597333a21.333333 21.333333 0 0 0-42.666666 0v128.597333a63.573333 63.573333 0 0 1-63.530667 63.402667H276.821333A63.573333 63.573333 0 0 1 213.333333 745.472V359.082667A63.573333 63.573333 0 0 1 276.821333 295.68h470.314667A63.573333 63.573333 0 0 1 810.666667 359.082667v128a21.333333 21.333333 0 0 0 21.333333 21.333333M318.208 213.333333h389.333333a21.333333 21.333333 0 0 0 0-42.666666H318.208a21.333333 21.333333 0 0 0 0 42.666666M510.208 382.208a21.333333 21.333333 0 0 0-21.333333 21.333333v173.482667l-161.706667 92.416a21.418667 21.418667 0 0 0-7.978667 29.141333 21.461333 21.461333 0 0 0 29.141334 7.978667l161.834666-92.544 160.042667 92.458667a21.333333 21.333333 0 0 0 21.333333-36.949334l-160-92.416V403.541333a21.333333 21.333333 0 0 0-21.333333-21.333333" /></svg>