<?xml version="1.0" standalone="no"?><!DOCTYPE svg PUBLIC "-//W3C//DTD SVG 1.1//EN" "http://www.w3.org/Graphics/SVG/1.1/DTD/svg11.dtd"><svg class="icon" width="200px" height="200.00px" viewBox="0 0 1024 1024" version="1.1" xmlns="http://www.w3.org/2000/svg"><path fill="#333333" d="M771.754667 298.666667H149.333333a21.333333 21.333333 0 0 0 0 42.666666h622.421334c45.44 0 82.432 36.949333 82.432 82.346667a21.290667 21.290667 0 1 0 42.666666 0 125.226667 125.226667 0 0 0-125.098666-125.013333M599.466667 506.154667H253.824a125.226667 125.226667 0 0 0-125.056 125.098666 125.226667 125.226667 0 0 0 125.013333 125.013334h269.354667a21.333333 21.333333 0 0 0 0-42.666667H253.781333a82.474667 82.474667 0 0 1-82.389333-82.346667c0-45.44 36.949333-82.432 82.346667-82.432h345.770666a21.333333 21.333333 0 0 0 0-42.666666M859.477333 615.850667a21.333333 21.333333 0 0 0 0-42.666667h-78.08v-6.570667l68.394667-64.554666a21.333333 21.333333 0 1 0-29.269333-31.018667L758.485333 529.664 696.405333 471.04a21.333333 21.333333 0 1 0-29.269333 31.018667l71.594667 67.541333v3.541333h-82.346667a21.333333 21.333333 0 0 0 0 42.666667h82.346667v27.136h-82.346667a21.333333 21.333333 0 0 0 0 42.666667h82.346667V742.570667a21.333333 21.333333 0 0 0 42.666666 0V685.610667h78.08a21.333333 21.333333 0 1 0 0-42.666667h-78.08V615.850667h78.08z" /></svg>