<?xml version="1.0" standalone="no"?><!DOCTYPE svg PUBLIC "-//W3C//DTD SVG 1.1//EN" "http://www.w3.org/Graphics/SVG/1.1/DTD/svg11.dtd"><svg class="icon" width="200px" height="200.00px" viewBox="0 0 1024 1024" version="1.1" xmlns="http://www.w3.org/2000/svg"><path fill="#333333" d="M876.714667 488.661333h-145.066667a21.333333 21.333333 0 1 0 0 42.666667h24.021333a244.906667 244.906667 0 0 1-220.288 224.128v-74.197333a21.333333 21.333333 0 1 0-42.666666 0v74.368A244.693333 244.693333 0 0 1 268.373333 531.328h28.032a21.333333 21.333333 0 1 0 0-42.666667h-27.861333A244.906667 244.906667 0 0 1 492.714667 268.373333v74.410667a21.333333 21.333333 0 0 0 42.666666 0V268.842667a243.626667 243.626667 0 0 1 181.717334 109.738666 21.333333 21.333333 0 0 0 35.754666-23.253333 285.952 285.952 0 0 0-217.472-129.152v-76.8a21.333333 21.333333 0 0 0-42.666666 0v76.288a287.402667 287.402667 0 0 0-266.837334 262.997333H149.333333a21.333333 21.333333 0 0 0 0 42.666667h76.373334a287.189333 287.189333 0 0 0 267.008 266.965333v76.373334a21.333333 21.333333 0 0 0 42.666666 0v-76.544a287.402667 287.402667 0 0 0 262.954667-266.794667h78.378667a21.333333 21.333333 0 0 0 0-42.666667M386.730667 439.850667c16.725333 0 20.053333 15.146667 20.053333 27.306666h21.76c-0.256-14.634667-4.266667-27.050667-12.672-35.669333a39.808 39.808 0 0 0-29.141333-11.136c-14.421333 0-24.021333 5.290667-30.933334 12.928-12.373333 13.653333-13.141333 34.133333-13.141333 79.232s0.768 65.578667 13.141333 79.317333c6.912 7.552 16.512 12.885333 30.933334 12.885334 23.552 0 41.813333-15.445333 41.813333-45.312v-53.461334h-41.813333v18.261334h20.053333v35.925333c0 14.677333-7.381333 25.088-20.053333 25.088a17.152 17.152 0 0 1-14.72-6.869333c-6.229333-8.576-7.509333-23.04-7.509334-65.834667s1.28-57.216 7.552-65.834667a17.237333 17.237333 0 0 1 14.677334-6.826666M570.496 602.666667V422.314667h-20.48l-36.224 100.309333-36.48-100.309333h-20.48v180.352h21.76v-126.378667l28.16 82.304h13.354667l28.629333-84.352v128.426667zM638.037333 567.466667l-26.112-145.109334h-24.064l38.997334 180.309334h22.314666l38.997334-180.309334h-23.808z" /></svg>