<?xml version="1.0" standalone="no"?><!DOCTYPE svg PUBLIC "-//W3C//DTD SVG 1.1//EN" "http://www.w3.org/Graphics/SVG/1.1/DTD/svg11.dtd"><svg class="icon" width="200px" height="200.00px" viewBox="0 0 1024 1024" version="1.1" xmlns="http://www.w3.org/2000/svg"><path fill="#333333" d="M515.84 668.501333h-0.085333a21.333333 21.333333 0 0 1-15.061334-6.272l-212.736-213.76a137.941333 137.941333 0 0 1 0-194.858666 137.941333 137.941333 0 0 1 194.858667 0l33.493333 33.536 33.493334-33.536a138.069333 138.069333 0 0 1 220.586666 35.584 21.333333 21.333333 0 0 1-38.101333 19.2 95.189333 95.189333 0 0 0-152.32-24.618667l-48.597333 48.64a21.333333 21.333333 0 0 1-30.165334 0L452.693333 283.733333a95.274667 95.274667 0 0 0-134.528 0 95.274667 95.274667 0 0 0 0 134.528l197.76 198.656 198.570667-198.656a21.290667 21.290667 0 0 1 30.165333 0 21.290667 21.290667 0 0 1 0 30.165334l-213.717333 213.802666a21.504 21.504 0 0 1-15.104 6.229334M405.504 748.245333a21.76 21.76 0 0 1-6.912-1.152 353.621333 353.621333 0 0 1-227.2-243.2 21.333333 21.333333 0 0 1 15.061333-26.154666 21.589333 21.589333 0 0 1 26.154667 15.104 310.997333 310.997333 0 0 0 199.808 213.888 21.333333 21.333333 0 0 1-6.912 41.514666M622.506667 747.946667c-8.874667 0-17.066667-5.546667-20.224-14.336a21.418667 21.418667 0 0 1 13.226666-27.178667 311.296 311.296 0 0 0 198.997334-213.546667 21.333333 21.333333 0 0 1 41.173333 11.093334 353.877333 353.877333 0 0 1-226.218667 242.773333 22.272 22.272 0 0 1-6.997333 1.194667M407.338667 894.122667a21.333333 21.333333 0 0 1-21.333334-21.333334v-144a21.333333 21.333333 0 0 1 42.666667 0v144a21.333333 21.333333 0 0 1-21.333333 21.333334M620.672 894.122667a21.333333 21.333333 0 0 1-21.333333-21.333334V727.04a21.333333 21.333333 0 0 1 42.666666 0v145.792a21.333333 21.333333 0 0 1-21.333333 21.333333M512.298667 490.581333a21.418667 21.418667 0 0 1-15.104-6.186666L406.485333 393.557333a21.290667 21.290667 0 0 1 0-30.122666 21.290667 21.290667 0 0 1 30.165334 0l90.752 90.666666a21.418667 21.418667 0 0 1-15.104 36.437334M512.298667 490.581333a21.418667 21.418667 0 0 1-15.104-36.437333L588.672 362.666667a21.333333 21.333333 0 0 1 30.165333 30.165333l-91.434666 91.52a21.418667 21.418667 0 0 1-15.104 6.229333" /></svg>