<?xml version="1.0" standalone="no"?><!DOCTYPE svg PUBLIC "-//W3C//DTD SVG 1.1//EN" "http://www.w3.org/Graphics/SVG/1.1/DTD/svg11.dtd"><svg class="icon" width="200px" height="192.12px" viewBox="0 0 1066 1024" version="1.1" xmlns="http://www.w3.org/2000/svg"><path fill="#333333" d="M853.333333 508.416a21.333333 21.333333 0 0 0 21.333334-21.333333v-128a106.24 106.24 0 0 0-106.154667-106.069334H298.24A106.24 106.24 0 0 0 192 359.082667v386.389333a106.24 106.24 0 0 0 106.24 106.069333h470.272a106.24 106.24 0 0 0 106.197333-106.069333v-128.597333a21.333333 21.333333 0 0 0-42.666666 0v128.597333a63.573333 63.573333 0 0 1-63.573334 63.402667H298.24a63.573333 63.573333 0 0 1-63.573333-63.402667V359.082667A63.573333 63.573333 0 0 1 298.24 295.68h470.272A63.573333 63.573333 0 0 1 832 359.082667v128a21.333333 21.333333 0 0 0 21.333333 21.333333M339.541333 213.333333h389.376a21.333333 21.333333 0 0 0 0-42.666666H339.584a21.333333 21.333333 0 0 0 0 42.666666" /></svg>