<?xml version="1.0" standalone="no"?><!DOCTYPE svg PUBLIC "-//W3C//DTD SVG 1.1//EN" "http://www.w3.org/Graphics/SVG/1.1/DTD/svg11.dtd"><svg class="icon" width="200px" height="200.00px" viewBox="0 0 1024 1024" version="1.1" xmlns="http://www.w3.org/2000/svg"><path fill="#333333" d="M789.333333 512.853333a21.333333 21.333333 0 0 0 21.333334-21.333333V213.717333C810.666667 166.4 773.418667 128 727.637333 128H382.250667a21.333333 21.333333 0 0 0-15.189334 6.4c-0.256 0.256-0.64 0.341333-0.938666 0.64L219.562667 281.514667a21.162667 21.162667 0 0 0-6.016 16.128C213.504 297.984 213.333333 298.325333 213.333333 298.666667v512.512c0 47.232 37.248 85.674667 83.029334 85.674666h431.274666c45.781333 0 83.029333-38.4 83.029334-85.674666V619.52a21.333333 21.333333 0 0 0-42.666667 0v191.658667c0 23.722667-18.133333 43.008-40.362667 43.008H296.362667c-22.229333 0-40.362667-19.242667-40.362667-43.008V305.493333L390.784 170.666667h336.853333c22.229333 0 40.362667 19.328 40.362667 43.008v277.888a21.333333 21.333333 0 0 0 21.333333 21.333333M659.584 542.208a21.333333 21.333333 0 0 0 0-42.666667h-124.928v-23.893333l103.765333-97.92a21.333333 21.333333 0 0 0-29.269333-31.061333l-98.133333 92.629333-98.133334-92.629333a21.376 21.376 0 0 0-29.269333 31.061333l108.373333 102.314667v19.498666H360.917333a21.333333 21.333333 0 0 0 0 42.666667h131.072v59.989333H360.917333a21.333333 21.333333 0 0 0 0 42.666667h131.072v93.781333a21.333333 21.333333 0 1 0 42.666667 0v-93.781333h124.928a21.333333 21.333333 0 1 0 0-42.666667h-124.928v-59.989333h124.928z" /></svg>