<?xml version="1.0" standalone="no"?><!DOCTYPE svg PUBLIC "-//W3C//DTD SVG 1.1//EN" "http://www.w3.org/Graphics/SVG/1.1/DTD/svg11.dtd"><svg class="icon" width="200px" height="200.00px" viewBox="0 0 1024 1024" version="1.1" xmlns="http://www.w3.org/2000/svg"><path fill="#333333" d="M638.378667 543.786667a21.333333 21.333333 0 0 0 0-42.666667h-124.885334v-23.893333l103.765334-97.92a21.333333 21.333333 0 1 0-29.312-31.061334l-98.090667 92.586667-98.133333-92.586667a21.333333 21.333333 0 0 0-29.269334 31.061334l108.373334 102.314666v19.498667H339.712a21.333333 21.333333 0 0 0 0 42.666667h131.114667v59.989333H339.712a21.333333 21.333333 0 0 0 0 42.666667h131.114667v93.781333a21.333333 21.333333 0 0 0 42.666666 0V646.4h124.885334a21.333333 21.333333 0 1 0 0-42.666667h-124.885334v-59.989333h124.885334zM829.056 572.544a20.053333 20.053333 0 0 0-23.381333 16.298667 320.597333 320.597333 0 0 1-316.16 264.490666c-177.152 0-321.237333-144.085333-321.237334-321.194666a321.109333 321.109333 0 0 1 587.52-179.584c10.410667 15.36 19.626667 31.872 27.178667 48.938666 4.522667 10.154667 16.384 14.762667 26.581333 10.154667a19.797333 19.797333 0 0 0 10.069334-10.24 19.84 19.84 0 0 0 2.901333-9.813333V272.810667a20.181333 20.181333 0 0 0-40.32 0v48.170666a360.789333 360.789333 0 0 0-592.554667 9.173334A359.68 359.68 0 0 0 128 532.138667C128 731.477333 290.176 893.610667 489.472 893.610667a360.874667 360.874667 0 0 0 355.882667-297.685334 20.181333 20.181333 0 0 0-16.298667-23.381333" /></svg>