<?xml version="1.0" standalone="no"?><!DOCTYPE svg PUBLIC "-//W3C//DTD SVG 1.1//EN" "http://www.w3.org/Graphics/SVG/1.1/DTD/svg11.dtd"><svg class="icon" width="200px" height="200.00px" viewBox="0 0 1024 1024" version="1.1" xmlns="http://www.w3.org/2000/svg"><path fill="#333333" d="M881.499733 134.698667a21.376 21.376 0 0 0-30.122666-0.896l-147.413334 139.093333A340.437333 340.437333 0 0 0 581.553067 218.24a339.413333 339.413333 0 0 0-270.250667 54.698667L163.9744 133.76a21.376 21.376 0 0 0-29.269333 31.061333L277.7664 299.946667c-1.365333 1.237333-2.901333 2.261333-4.266667 3.584a338.474667 338.474667 0 0 0-98.005333 172.970666c-40.704 183.125333 75.093333 365.226667 258.304 406.016a342.186667 342.186667 0 0 0 69.248 8.106667h0.298667a20.138667 20.138667 0 0 0 0.298666-40.234667 302.08 302.08 0 0 1-61.098666-7.253333c-161.450667-35.84-263.68-196.437333-227.712-357.888a299.861333 299.861333 0 0 1 357.973333-227.669333 299.733333 299.733333 0 0 1 214.016 183.04c8.704 22.058667 14.805333 45.184 18.048 68.693333a20.181333 20.181333 0 0 0 39.936-5.546667 338.858667 338.858667 0 0 0-20.48-77.909333 339.797333 339.797333 0 0 0-86.954667-125.866667L880.603733 164.906667a21.333333 21.333333 0 0 0 0.853334-30.165334M368.0064 530.261333v146.346667a20.138667 20.138667 0 0 0 40.32 0v-146.346667a20.138667 20.138667 0 0 0-40.32 0M506.459733 464a20.138667 20.138667 0 0 0-20.181333 20.138667v192.469333a20.181333 20.181333 0 0 0 40.362667 0v-192.469333a20.138667 20.138667 0 0 0-20.181334-20.138667M698.8864 636.288a64 64 0 1 0 0.042667 128.042667 64 64 0 0 0 0-128M698.8864 806.954667a106.794667 106.794667 0 0 1-106.666667-106.666667c0-58.794667 47.872-106.666667 106.666667-106.666667 58.88 0 106.666667 47.872 106.666667 106.666667s-47.786667 106.666667-106.666667 106.666667m0-256c-17.578667 0-34.261333 3.626667-49.962667 9.258666v-126.208a20.181333 20.181333 0 0 0-40.32 0v148.181334a148.608 148.608 0 0 0-59.008 118.101333c0 82.346667 66.986667 149.333333 149.333334 149.333333s149.333333-66.986667 149.333333-149.333333-66.986667-149.333333-149.333333-149.333333" /></svg>