<?xml version="1.0" standalone="no"?><!DOCTYPE svg PUBLIC "-//W3C//DTD SVG 1.1//EN" "http://www.w3.org/Graphics/SVG/1.1/DTD/svg11.dtd"><svg class="icon" width="200px" height="192.12px" viewBox="0 0 1066 1024" version="1.1" xmlns="http://www.w3.org/2000/svg"><path fill="#333333" d="M399.018667 265.258667C399.018667 236.629333 422.314667 213.333333 450.986667 213.333333h166.4c28.586667 0 51.925333 23.296 51.925333 51.925334v29.696H399.018667v-29.696z m114.261333 321.706666v24.32a21.290667 21.290667 0 1 0 42.666667 0v-24.32H874.666667v190.592c0 31.36-25.472 56.917333-56.874667 56.917334H248.917333A57.002667 57.002667 0 0 1 192 777.557333V587.008h321.28z m382.72-125.952a21.333333 21.333333 0 0 0 21.333333-21.333333v-45.226667a99.669333 99.669333 0 0 0-99.541333-99.498666h-105.813333v-29.696A94.677333 94.677333 0 0 0 617.386667 170.666667h-166.4a94.72 94.72 0 0 0-94.634667 94.592v29.696H248.917333A99.669333 99.669333 0 0 0 149.333333 394.496v383.061333a99.712 99.712 0 0 0 99.584 99.584h568.874667A99.669333 99.669333 0 0 0 917.333333 777.557333v-210.346666a21.290667 21.290667 0 0 0-13.44-19.712 20.778667 20.778667 0 0 0-10.538666-3.157334H555.946667v-38.997333a21.333333 21.333333 0 0 0-42.666667 0v38.997333H192V394.496c0-31.36 25.557333-56.874667 56.917333-56.874667h568.874667c31.402667 0 56.874667 25.514667 56.874667 56.874667v45.184a21.333333 21.333333 0 0 0 21.333333 21.333333z" /></svg>