<?xml version="1.0" standalone="no"?><!DOCTYPE svg PUBLIC "-//W3C//DTD SVG 1.1//EN" "http://www.w3.org/Graphics/SVG/1.1/DTD/svg11.dtd"><svg class="icon" width="200px" height="200.00px" viewBox="0 0 1024 1024" version="1.1" xmlns="http://www.w3.org/2000/svg"><path fill="#333333" d="M405.376 810.666667H261.034667A47.786667 47.786667 0 0 1 213.333333 762.965333v-275.797333A47.786667 47.786667 0 0 1 261.034667 439.466667h501.973333c26.282667 0 47.658667 21.418667 47.658667 47.701333v82.858667a21.333333 21.333333 0 1 0 42.666666 0v-82.858667A90.453333 90.453333 0 0 0 763.008 396.8H261.034667A90.453333 90.453333 0 0 0 170.666667 487.168v275.797333A90.453333 90.453333 0 0 0 261.034667 853.333333h144.341333a21.333333 21.333333 0 0 0 0-42.666666M267.349333 363.946667h489.386667a21.333333 21.333333 0 0 0 0-42.666667H267.392a21.333333 21.333333 0 0 0 0 42.666667M342.613333 288.64h340.394667a21.333333 21.333333 0 0 0 0-42.666667H342.613333a21.333333 21.333333 0 0 0 0 42.666667M417.92 213.333333h188.16a21.333333 21.333333 0 0 0 0-42.666666h-188.16a21.333333 21.333333 0 0 0 0 42.666666M508.245333 699.008a21.333333 21.333333 0 0 0 0-42.666667h-70.784v-22.058666h70.826667a21.333333 21.333333 0 1 0 0-42.666667h-70.826667v-3.754667l62.890667-59.392a21.333333 21.333333 0 0 0-29.312-31.018666l-56.405333 53.290666-56.490667-53.333333a21.248 21.248 0 1 0-29.226667 31.061333l65.877334 62.165334v0.981333H320.042667a21.333333 21.333333 0 0 0 0 42.666667h74.752v22.058666H320.042667a21.333333 21.333333 0 0 0 0 42.666667h74.752v51.2a21.290667 21.290667 0 1 0 42.666666 0v-51.2h70.826667zM852.352 668.458667a20.736 20.736 0 0 0-5.674667-8.234667c-1.578667-1.408-3.498667-2.218667-5.418666-2.986667a20.650667 20.650667 0 0 0-10.325334-2.986666H765.952a21.290667 21.290667 0 1 0 0 42.666666h21.589333L716.842667 779.861333 615.978667 699.434667a21.333333 21.333333 0 0 0-29.013334 2.218666L478.549333 819.541333a21.333333 21.333333 0 0 0 31.488 28.928l94.976-103.253333 101.418667 80.938667a21.333333 21.333333 0 0 0 29.525333-2.816l76.501334-89.941334v10.069334a21.333333 21.333333 0 0 0 42.666666 0V678.357333A20.608 20.608 0 0 0 852.352 668.458667" /></svg>