<?xml version="1.0" standalone="no"?><!DOCTYPE svg PUBLIC "-//W3C//DTD SVG 1.1//EN" "http://www.w3.org/Graphics/SVG/1.1/DTD/svg11.dtd"><svg class="icon" width="200px" height="200.00px" viewBox="0 0 1024 1024" version="1.1" xmlns="http://www.w3.org/2000/svg"><path fill="#333333" d="M373.333333 832a32 32 0 1 0 0 64 32 32 0 0 0 0-64M650.666667 832a32 32 0 1 0 0 64 32 32 0 0 0 0-64M827.776 557.696a21.205333 21.205333 0 0 0-27.306667 12.8 169.514667 169.514667 0 0 1-158.634666 112.213333H290.56l-26.282667-341.333333h377.6a169.258667 169.258667 0 0 1 159.274667 113.834667 21.333333 21.333333 0 0 0 40.277333-14.037334A211.968 211.968 0 0 0 641.834667 298.666667H260.992L255.914667 233.002667c-0.085333-1.28-0.682667-2.346667-0.981334-3.541334-0.298667-1.237333-0.512-2.56-1.024-3.712a20.906667 20.906667 0 0 0-2.773333-4.096C250.496 220.842667 250.026667 219.946667 249.258667 219.306667a19.2 19.2 0 0 0-4.096-2.773334C244.224 215.936 243.370667 215.253333 242.346667 214.869333c-1.365333-0.512-2.858667-0.64-4.352-0.853333C236.842667 213.76 235.861333 213.333333 234.666667 213.333333h-42.666667a21.290667 21.290667 0 1 0 0 42.666667h22.912l41.130667 534.954667c0.128 1.365333 0.682667 2.56 1.024 3.84 0.298667 1.109333 0.469333 2.304 0.938666 3.328 0.682667 1.493333 1.706667 2.688 2.645334 3.968 0.682667 0.853333 1.152 1.792 1.92 2.56 1.28 1.194667 2.773333 2.005333 4.266666 2.858666 0.853333 0.469333 1.493333 1.152 2.389334 1.536A21.248 21.248 0 0 0 277.333333 810.666667h469.333334a21.333333 21.333333 0 0 0 0-42.666667H297.088l-3.285333-42.666667h348.032a212.266667 212.266667 0 0 0 198.741333-140.330666 21.333333 21.333333 0 0 0-12.8-27.306667M620.416 517.333333a21.333333 21.333333 0 0 0 0-42.666666h-62.549333l-0.085334-0.170667 56.832-53.632a21.333333 21.333333 0 0 0-29.226666-31.061333l-49.834667 47.018666-49.792-47.018666a21.333333 21.333333 0 0 0-29.269333 31.061333l56.96 53.802667h-63.701334a21.333333 21.333333 0 0 0 0 42.666666h65.792v16h-65.792a21.333333 21.333333 0 0 0 0 42.666667h65.792v44.458667a21.333333 21.333333 0 1 0 42.666667 0V576h62.208a21.333333 21.333333 0 0 0 0-42.666667h-62.165333v-16h62.165333z" /></svg>