<?xml version="1.0" standalone="no"?><!DOCTYPE svg PUBLIC "-//W3C//DTD SVG 1.1//EN" "http://www.w3.org/Graphics/SVG/1.1/DTD/svg11.dtd"><svg class="icon" width="200px" height="200.00px" viewBox="0 0 1024 1024" version="1.1" xmlns="http://www.w3.org/2000/svg"><path fill="#333333" d="M192 493.184a21.333333 21.333333 0 0 0 21.333333-21.333333v-85.333334a21.333333 21.333333 0 0 0-42.666666 0v85.333334a21.333333 21.333333 0 0 0 21.333333 21.333333M192 322.517333a21.333333 21.333333 0 0 0 21.333333-21.333333v-37.973333c0-11.264 3.669333-21.888 10.624-30.762667a21.333333 21.333333 0 0 0-33.578666-26.368A91.904 91.904 0 0 0 170.666667 263.210667v37.973333a21.333333 21.333333 0 0 0 21.333333 21.333333M213.333333 760.789333v-32.938666a21.333333 21.333333 0 1 0-42.666666 0v32.981333c0.042667 23.04 8.533333 45.013333 23.936 61.994667a21.248 21.248 0 0 0 30.122666 1.536 21.333333 21.333333 0 0 0 1.536-30.122667A50.048 50.048 0 0 1 213.333333 760.789333M192 663.850667a21.333333 21.333333 0 0 0 21.333333-21.333334v-85.333333a21.333333 21.333333 0 0 0-42.666666 0v85.333333a21.333333 21.333333 0 0 0 21.333333 21.333334M625.322667 213.333333h85.333333a21.333333 21.333333 0 0 0 0-42.666666h-85.333333a21.333333 21.333333 0 0 0 0 42.666666M454.656 213.333333h85.333333a21.333333 21.333333 0 0 0 0-42.666666h-85.333333a21.333333 21.333333 0 0 0 0 42.666666M283.989333 213.333333h85.333334a21.333333 21.333333 0 0 0 0-42.666666h-85.333334a21.333333 21.333333 0 0 0 0 42.666666M832 555.093333a21.333333 21.333333 0 0 0-21.333333 21.333334v85.333333a21.333333 21.333333 0 0 0 42.666666 0v-85.333333a21.333333 21.333333 0 0 0-21.333333-21.333334M832 725.76a21.333333 21.333333 0 0 0-21.333333 21.333333v13.653334c0 17.194667-8.661333 32.981333-23.210667 42.24a21.290667 21.290667 0 1 0 22.912 35.968A92.288 92.288 0 0 0 853.333333 760.746667v-13.653334a21.333333 21.333333 0 0 0-21.333333-21.333333M832 335.829333a21.333333 21.333333 0 0 0-21.333333 21.333334v85.333333a21.333333 21.333333 0 0 0 42.666666 0v-85.333333a21.333333 21.333333 0 0 0-21.333333-21.333334M374.357333 810.666667h-85.333333a21.333333 21.333333 0 0 0 0 42.666666h85.333333a21.333333 21.333333 0 0 0 0-42.666666M804.693333 181.76a21.333333 21.333333 0 1 0-20.309333 37.504c16.213333 8.746667 26.24 25.6 26.282667 43.946667v8.618666a21.290667 21.290667 0 1 0 42.666666 0v-8.661333A92.586667 92.586667 0 0 0 804.693333 181.76M545.024 810.666667h-85.333333a21.333333 21.333333 0 0 0 0 42.666666h85.333333a21.333333 21.333333 0 0 0 0-42.666666M715.690667 810.666667h-85.333334a21.333333 21.333333 0 0 0 0 42.666666h85.333334a21.333333 21.333333 0 0 0 0-42.666666M383.146667 347.946667l108.373333 102.272v19.541333H360.448a21.333333 21.333333 0 1 0 0 42.666667h131.072v60.032H360.448a21.290667 21.290667 0 1 0 0 42.666666h131.072v93.738667a21.333333 21.333333 0 0 0 42.666667 0v-93.738667h124.928a21.333333 21.333333 0 0 0 0-42.666666H534.186667V512.426667h124.928a21.333333 21.333333 0 1 0 0-42.666667H534.186667v-23.893333l103.808-97.92a21.248 21.248 0 0 0 0.853333-30.122667 21.248 21.248 0 0 0-30.165333-0.853333l-98.133334 92.586666-98.133333-92.586666a21.333333 21.333333 0 1 0-29.312 30.976" /></svg>