<?xml version="1.0" standalone="no"?><!DOCTYPE svg PUBLIC "-//W3C//DTD SVG 1.1//EN" "http://www.w3.org/Graphics/SVG/1.1/DTD/svg11.dtd"><svg class="icon" width="200px" height="200.00px" viewBox="0 0 1024 1024" version="1.1" xmlns="http://www.w3.org/2000/svg"><path fill="#333333" d="M746.67904 641.621333a64 64 0 1 0 0.042667 128.042667 64 64 0 0 0 0-128.042667M746.67904 812.288A106.794667 106.794667 0 0 1 640.012373 705.621333C640.012373 646.826667 687.841707 598.954667 746.67904 598.954667 805.55904 598.954667 853.345707 646.826667 853.345707 705.621333S805.55904 812.288 746.67904 812.288m0-256c-12.8 0-25.130667 2.133333-37.034667 5.205333C699.148373 512.384 648.63104 470.954667 599.137707 470.954667H435.51104l52.48-52.437334a21.418667 21.418667 0 0 0-30.208-30.208L369.804373 476.330667c-0.128 0.128-0.170667 0.341333-0.341333 0.512A21.077333 21.077333 0 0 0 362.67904 492.288 21.333333 21.333333 0 0 0 384.012373 513.621333h215.125334c29.696 0 62.549333 27.136 68.821333 56.874667a20.864 20.864 0 0 0 2.986667 7.125333A149.632 149.632 0 0 0 612.321707 641.621333h-185.6a21.333333 21.333333 0 0 0 0 42.666667h172.8c-1.024 7.04-2.133333 14.037333-2.133334 21.333333C597.345707 787.968 664.332373 854.954667 746.67904 854.954667S896.012373 787.968 896.012373 705.621333 829.025707 556.288 746.67904 556.288M535.137707 811.306667H316.428373c-31.744 0-57.6-25.685333-57.6-57.173334V434.261333L533.345707 176.597333l326.741333 306.773334a21.290667 21.290667 0 0 0 30.122667-1.024 21.290667 21.290667 0 0 0-0.938667-30.165334L549.857707 133.589333A21.205333 21.205333 0 0 0 533.345707 128.085333a21.205333 21.205333 0 0 0-16.512 5.546667L177.420373 452.181333a21.290667 21.290667 0 0 0 14.592 36.906667 21.290667 21.290667 0 0 0 14.592-5.76l9.557334-8.96v279.722667a100.181333 100.181333 0 0 0 100.266666 99.882666h218.709334a21.333333 21.333333 0 0 0 0-42.666666" /></svg>