<?xml version="1.0" standalone="no"?><!DOCTYPE svg PUBLIC "-//W3C//DTD SVG 1.1//EN" "http://www.w3.org/Graphics/SVG/1.1/DTD/svg11.dtd"><svg class="icon" width="200px" height="200.00px" viewBox="0 0 1024 1024" version="1.1" xmlns="http://www.w3.org/2000/svg"><path fill="#333333" d="M705.804373 641.621333a64 64 0 1 0 0.042667 128.042667 64 64 0 0 0 0-128.042667M705.804373 812.288a106.794667 106.794667 0 0 1-106.666666-106.666667c0-58.794667 47.829333-106.666667 106.666666-106.666666 58.88 0 106.666667 47.872 106.666667 106.666666s-47.786667 106.666667-106.666667 106.666667z m-212.906666-162.304L388.108373 544.725333a43.904 43.904 0 0 1-12.970666-31.274666c0-11.818667 4.565333-22.912 12.970666-31.274667a44.032 44.032 0 0 1 62.592 0l27.306667 27.349333a21.333333 21.333333 0 0 0 30.165333 0l27.392-27.349333a45.226667 45.226667 0 0 1 62.549334 0c8.362667 8.362667 12.928 19.456 12.928 31.274667 0 11.776-4.565333 22.869333-12.928 31.274666L492.897707 649.984zM705.804373 556.288c-33.706667 0-64.512 11.648-89.557333 30.592l12.032-11.989333c16.384-16.426667 25.429333-38.272 25.429333-61.44 0-23.210667-9.045333-45.056-25.429333-61.44-32.853333-32.938667-90.112-32.853333-122.88 0l-12.288 12.245333-12.245333-12.245333c-32.853333-32.896-90.112-32.896-122.88 0a86.229333 86.229333 0 0 0-25.514667 61.44c0 23.168 9.045333 45.013333 25.472 61.44l119.722667 120.32a21.333333 21.333333 0 0 0 15.104 6.272h0.042666a21.12 21.12 0 0 0 15.018667-6.229334L587.105707 616.021333a147.968 147.968 0 0 0-30.634667 89.6c0 82.346667 66.986667 149.333333 149.333333 149.333334s149.333333-66.986667 149.333334-149.333334-66.986667-149.333333-149.333334-149.333333zM492.47104 811.306667H273.761707a57.472 57.472 0 0 1-57.557334-57.173334V434.176L490.67904 176.64l326.741333 306.688a21.290667 21.290667 0 0 0 30.122667-0.981333 21.290667 21.290667 0 0 0-0.938667-30.165334L507.19104 133.589333A21.205333 21.205333 0 0 0 490.67904 128.085333a21.162667 21.162667 0 0 0-16.469333 5.546667L134.753707 452.181333a21.290667 21.290667 0 0 0 14.592 36.906667 21.290667 21.290667 0 0 0 14.592-5.76l9.6-9.045333v279.808a100.181333 100.181333 0 0 0 100.266666 99.882666h218.666667a21.333333 21.333333 0 0 0 0-42.666666" /></svg>