<?xml version="1.0" standalone="no"?><!DOCTYPE svg PUBLIC "-//W3C//DTD SVG 1.1//EN" "http://www.w3.org/Graphics/SVG/1.1/DTD/svg11.dtd"><svg class="icon" width="200px" height="200.00px" viewBox="0 0 1024 1024" version="1.1" xmlns="http://www.w3.org/2000/svg"><path fill="#333333" d="M490.666667 854.229333H296.32c-22.229333 0-40.32-19.285333-40.32-43.008V305.450667L390.784 170.666667h336.853333c22.229333 0 40.362667 19.285333 40.362667 43.008v321.450666a21.333333 21.333333 0 0 0 42.666667 0V213.674667C810.666667 166.442667 773.418667 128 727.637333 128H382.208a21.205333 21.205333 0 0 0-15.189333 6.4c-0.298667 0.256-0.64 0.341333-0.896 0.597333L219.562667 281.557333a21.077333 21.077333 0 0 0-6.016 16.085334C213.504 297.984 213.333333 298.282667 213.333333 298.666667v512.554666c0 47.232 37.248 85.674667 82.986667 85.674667H490.666667a21.333333 21.333333 0 0 0 0-42.666667M469.290667 425.813333a21.333333 21.333333 0 0 0-30.165334 0l-88.021333 88.021334a21.333333 21.333333 0 0 0-4.608 23.168 21.034667 21.034667 0 0 0 20.565333 17.664h295.125334a21.333333 21.333333 0 1 0 0-42.666667H413.269333l56.021334-56.021333a21.333333 21.333333 0 0 0 0-30.165334M704 682.666667a64 64 0 1 0 0 128.042666 64 64 0 0 0 0-128.042666M704 853.333333a106.794667 106.794667 0 0 1-106.666667-106.666666c0-58.794667 47.829333-106.666667 106.666667-106.666667s106.666667 47.872 106.666667 106.666667-47.829333 106.666667-106.666667 106.666666m0-256c-82.346667 0-149.333333 66.986667-149.333333 149.333334s66.986667 149.333333 149.333333 149.333333 149.333333-66.986667 149.333333-149.333333-66.986667-149.333333-149.333333-149.333334" /></svg>