<?xml version="1.0" standalone="no"?><!DOCTYPE svg PUBLIC "-//W3C//DTD SVG 1.1//EN" "http://www.w3.org/Graphics/SVG/1.1/DTD/svg11.dtd"><svg class="icon" width="200px" height="200.00px" viewBox="0 0 1024 1024" version="1.1" xmlns="http://www.w3.org/2000/svg"><path fill="#333333" d="M640.938667 417.962667v-14.421334a21.333333 21.333333 0 0 0-42.666667 0v14.421334c0 47.061333-38.272 85.333333-85.333333 85.333333s-85.333333-38.272-85.333334-85.333333v-7.296c0-1.621333-0.554667-3.029333-0.853333-4.522667v-2.602667a21.333333 21.333333 0 0 0-42.666667 0v14.421334c0 47.061333-38.357333 85.333333-85.333333 85.333333-47.061333 0-85.333333-38.272-85.333333-85.333333V256h598.186666V417.962667c0 47.061333-38.272 85.333333-85.333333 85.333333s-85.333333-38.272-85.333333-85.333333m192-204.629334c-0.298667 0-0.597333 0.170667-0.853334 0.170667-0.341333 0-0.597333-0.170667-0.896-0.170667H192.896a21.248 21.248 0 0 0-19.797333 13.653334 20.821333 20.821333 0 0 0-2.432 9.472V417.962667c0 35.626667 14.677333 67.84 38.229333 91.050666v280.32c0 58.837333 47.829333 106.666667 106.666667 106.666667h90.666666a21.333333 21.333333 0 0 0 0-42.666667H315.648c-35.285333 0-64-28.714667-64-64v-252.586666c14.592 5.802667 30.421333 9.216 47.104 9.216a127.829333 127.829333 0 0 0 107.093333-58.325334A127.829333 127.829333 0 0 0 512.896 545.962667a127.872 127.872 0 0 0 106.666667-57.514667 127.872 127.872 0 0 0 106.666666 57.514667c16.341333 0 31.829333-3.370667 46.208-8.96v101.205333a21.333333 21.333333 0 0 0 42.666667 0v-128l-0.085333-0.384a127.402667 127.402667 0 0 0 39.253333-91.861333V234.666667a21.333333 21.333333 0 0 0-21.333333-21.333334M845.824 701.141333C844.16 699.733333 842.282667 698.965333 840.405333 698.154667a20.821333 20.821333 0 0 0-10.24-3.029334H764.970667a21.333333 21.333333 0 0 0 0 42.666667h21.589333L715.989333 820.821333 615.168 740.352a21.333333 21.333333 0 0 0-29.013333 2.218667L477.653333 860.416A21.418667 21.418667 0 0 0 493.354667 896.256c5.76 0 11.52-2.304 15.701333-6.869333l95.061333-103.296 101.418667 80.981333c9.002667 7.168 22.058667 5.973333 29.525333-2.858667L811.605333 774.229333v10.112a21.333333 21.333333 0 1 0 42.666667 0V719.317333a20.949333 20.949333 0 0 0-2.773333-9.984 21.034667 21.034667 0 0 0-5.674667-8.192" /></svg>