<?xml version="1.0" standalone="no"?><!DOCTYPE svg PUBLIC "-//W3C//DTD SVG 1.1//EN" "http://www.w3.org/Graphics/SVG/1.1/DTD/svg11.dtd"><svg class="icon" width="200px" height="200.00px" viewBox="0 0 1024 1024" version="1.1" xmlns="http://www.w3.org/2000/svg"><path fill="#333333" d="M837.973333 596.522667a21.333333 21.333333 0 0 0-26.112 15.018666 310.016 310.016 0 0 1-298.837333 228.266667C375.381333 839.850667 252.970667 747.605333 215.296 615.509333A20.906667 20.906667 0 0 0 194.730667 600.277333C193.834667 600.149333 192.981333 599.722667 192 599.722667a21.333333 21.333333 0 0 0-21.333333 21.333333V861.184a21.333333 21.333333 0 0 0 42.666666 0V714.837333C276.394667 816.768 389.205333 882.517333 513.024 882.517333A352.725333 352.725333 0 0 0 853.034667 622.677333a21.333333 21.333333 0 0 0-15.018667-26.154666M190.72 452.437333a21.333333 21.333333 0 0 0 26.709333-14.037333 308.010667 308.010667 0 0 1 295.594667-217.173333 308.224 308.224 0 0 1 295.509333 216.874666c2.005333 6.4 6.826667 10.922667 12.586667 13.226667 1.024 0.426667 2.133333 0.64 3.242667 0.938667 1.109333 0.256 2.133333 0.597333 3.285333 0.682666 0.853333 0.085333 1.578667 0.426667 2.432 0.426667 11.818667 0 21.333333-9.472 21.333333-21.333333V192.085333a21.290667 21.290667 0 1 0-42.666666 0v148.565334a349.866667 349.866667 0 0 0-295.722667-162.048 350.506667 350.506667 0 0 0-336.298667 247.210666 21.333333 21.333333 0 0 0 14.037334 26.709334M441.002667 694.613333a21.248 21.248 0 0 0 30.165333 0l148.053333-148.053333c0.426667-0.512 0.64-1.152 1.066667-1.664 0.512-0.426667 1.152-0.597333 1.621333-1.066667a21.290667 21.290667 0 0 0 0-30.165333l-150.741333-150.741333a21.333333 21.333333 0 0 0-30.165333 30.165333l135.68 135.68-135.68 135.68a21.333333 21.333333 0 0 0 0 30.122667" /></svg>