<?xml version="1.0" standalone="no"?><!DOCTYPE svg PUBLIC "-//W3C//DTD SVG 1.1//EN" "http://www.w3.org/Graphics/SVG/1.1/DTD/svg11.dtd"><svg class="icon" width="200px" height="200.00px" viewBox="0 0 1024 1024" version="1.1" xmlns="http://www.w3.org/2000/svg"><path fill="#333333" d="M835.029333 233.770667c-1.450667-0.64-2.730667-1.450667-4.352-1.792L516.010667 170.965333a19.072 19.072 0 0 0-6.229334 0.085334 19.712 19.712 0 0 0-7.253333-0.042667L193.194667 231.978667c-1.578667 0.341333-2.858667 1.152-4.266667 1.792A21.034667 21.034667 0 0 0 170.666667 254.506667v286.165333c0 1.450667 0.554667 2.730667 0.853333 4.096 8.618667 175.573333 173.738667 287.744 337.365333 308.309333a19.541333 19.541333 0 0 0 2.730667 0.170667l0.426667-0.042667h0.341333a19.541333 19.541333 0 0 0 2.730667-0.128c9.728-1.194667 19.626667-2.773333 29.44-4.693333a21.333333 21.333333 0 1 0-8.192-41.856c-8.106667 1.536-16.213333 2.816-24.32 3.84-148.864-19.498667-298.666667-121.514667-298.666667-279.893333v-258.986667l295.978667-58.325333L810.666667 271.530667v262.4a21.333333 21.333333 0 1 0 42.666666 0v-279.466667a21.077333 21.077333 0 0 0-18.304-20.693333M382.250667 299.221333a21.333333 21.333333 0 0 0-21.333334 21.333334v87.466666c0 81.664 66.986667 148.096 149.333334 148.096s149.333333-66.432 149.333333-148.053333v-87.466667a21.333333 21.333333 0 0 0-42.666667 0v87.466667c0 58.112-47.829333 105.386667-106.666666 105.386667s-106.666667-47.274667-106.666667-105.386667v-87.466667a21.333333 21.333333 0 0 0-21.333333-21.333333M704 640.768a64 64 0 1 0 0.042667 128.085333 64 64 0 0 0 0-128.085333M704 811.477333a106.794667 106.794667 0 0 1-106.666667-106.666666c0-58.794667 47.829333-106.666667 106.666667-106.666667s106.666667 47.872 106.666667 106.666667-47.829333 106.666667-106.666667 106.666666m0-256c-82.346667 0-149.333333 66.986667-149.333333 149.333334s66.986667 149.333333 149.333333 149.333333 149.333333-66.986667 149.333333-149.333333-66.986667-149.333333-149.333333-149.333334" /></svg>