<?xml version="1.0" standalone="no"?><!DOCTYPE svg PUBLIC "-//W3C//DTD SVG 1.1//EN" "http://www.w3.org/Graphics/SVG/1.1/DTD/svg11.dtd"><svg class="icon" width="200px" height="200.00px" viewBox="0 0 1024 1024" version="1.1" xmlns="http://www.w3.org/2000/svg"><path fill="#333333" d="M846.600533 452.181333L507.1872 133.589333A20.906667 20.906667 0 0 0 490.6752 128.128a21.034667 21.034667 0 0 0-16.512 5.461333L134.749867 452.181333a21.290667 21.290667 0 1 0 29.184 31.104l9.642666-9.002666v279.808A100.138667 100.138667 0 0 0 273.757867 853.973333h433.877333a100.181333 100.181333 0 0 0 100.224-99.882666v-71.594667a21.333333 21.333333 0 0 0-42.666667 0v71.594667c0 31.530667-25.856 57.216-57.6 57.216H273.800533a57.429333 57.429333 0 0 1-57.514666-57.216V434.218667L490.6752 176.64l274.474667 257.621333v120.234667a21.290667 21.290667 0 1 0 42.666666 0V474.325333l9.557334 8.96a21.12 21.12 0 0 0 30.122666-0.938666 21.290667 21.290667 0 0 0-0.938666-30.165334M386.0992 575.829333h213.034667c35.285333 0 64-28.714667 64-64s-28.714667-64-64-64h-256a21.333333 21.333333 0 0 0 0 42.666667h256a21.333333 21.333333 0 0 1 0 42.666667H386.0992c-35.285333 0-64 28.714667-64 64s28.714667 64 64 64h252.16a21.333333 21.333333 0 1 0 0-42.666667h-252.16a21.333333 21.333333 0 0 1 0-42.666667" /></svg>