<?xml version="1.0" standalone="no"?><!DOCTYPE svg PUBLIC "-//W3C//DTD SVG 1.1//EN" "http://www.w3.org/Graphics/SVG/1.1/DTD/svg11.dtd"><svg class="icon" width="200px" height="200.00px" viewBox="0 0 1024 1024" version="1.1" xmlns="http://www.w3.org/2000/svg"><path fill="#333333" d="M512 181.461333L650.666667 339.328H373.376L512 181.461333z m321.792 349.866667a21.333333 21.333333 0 0 0 21.333333-21.333333V445.994667c0-58.794667-47.829333-106.666667-106.666666-106.666667h-40.96L528.042667 135.04C527.701333 134.613333 527.232 134.528 526.890667 134.186667 526.592 133.845333 526.421333 133.418667 526.08 133.077333 525.312 132.394667 524.373333 132.181333 523.52 131.626667a19.925333 19.925333 0 0 0-3.584-2.048 19.2 19.2 0 0 0-4.010667-1.066667C514.602667 128.256 513.322667 128 512 128c-1.365333 0-2.645333 0.256-4.010667 0.512a21.290667 21.290667 0 0 0-3.925333 1.024 21.418667 21.418667 0 0 0-3.712 2.133333c-0.810667 0.554667-1.706667 0.768-2.432 1.408-0.341333 0.341333-0.469333 0.768-0.810667 1.066667-0.341333 0.341333-0.810667 0.512-1.152 0.853333L316.544 339.328H277.333333A106.794667 106.794667 0 0 0 170.666667 445.994667v256C170.666667 760.832 218.496 808.661333 277.333333 808.661333h471.125334c58.837333 0 106.666667-47.829333 106.666666-106.666666V637.994667a21.333333 21.333333 0 0 0-42.666666 0v64c0 35.285333-28.714667 64-64 64H277.333333c-35.285333 0-64-28.714667-64-64v-256C213.333333 410.709333 242.048 381.994667 277.333333 381.994667h471.125334c35.285333 0 64 28.714667 64 64V509.994667a21.333333 21.333333 0 0 0 21.333333 21.333333zM704 467.328h-384a21.333333 21.333333 0 0 0 0 42.666667h384a21.333333 21.333333 0 0 0 0-42.666667M725.333333 573.994667a21.333333 21.333333 0 0 0-21.333333-21.333334h-384a21.333333 21.333333 0 0 0 0 42.666667h384a21.333333 21.333333 0 0 0 21.333333-21.333333M320 637.994667a21.333333 21.333333 0 0 0 0 42.666666h170.666667a21.333333 21.333333 0 0 0 0-42.666666h-170.666667z" /></svg>