<?xml version="1.0" standalone="no"?><!DOCTYPE svg PUBLIC "-//W3C//DTD SVG 1.1//EN" "http://www.w3.org/Graphics/SVG/1.1/DTD/svg11.dtd"><svg class="icon" width="200px" height="200.00px" viewBox="0 0 1024 1024" version="1.1" xmlns="http://www.w3.org/2000/svg"><path fill="#333333" d="M876.672 488.661333h-193.408a21.333333 21.333333 0 1 0 0 42.666667h72.362667a244.906667 244.906667 0 0 1-220.288 224.128v-74.197333a21.333333 21.333333 0 1 0-42.666667 0v74.368A244.693333 244.693333 0 0 1 268.373333 531.328h74.410667a21.333333 21.333333 0 1 0 0-42.666667H268.544A244.864 244.864 0 0 1 492.672 268.373333v74.410667a21.333333 21.333333 0 0 0 42.666667 0V268.842667a243.712 243.712 0 0 1 181.76 109.781333 21.376 21.376 0 0 0 35.754666-23.338667 286.208 286.208 0 0 0-217.514666-129.109333v-76.8a21.333333 21.333333 0 0 0-42.666667 0v76.288a287.402667 287.402667 0 0 0-266.794667 262.997333H149.333333a21.333333 21.333333 0 1 0 0 42.666667h76.373334a287.274667 287.274667 0 0 0 266.965333 266.965333v76.373334a21.333333 21.333333 0 0 0 42.666667 0v-76.544a287.402667 287.402667 0 0 0 262.954666-266.794667h78.378667a21.333333 21.333333 0 0 0 0-42.666667M553.002667 512a39.168 39.168 0 1 1-78.293334-0.042667 39.168 39.168 0 0 1 78.293334 0.042667m-120.874667 0c0 45.098667 36.693333 81.792 81.749333 81.792A81.92 81.92 0 0 0 595.669333 512a81.92 81.92 0 0 0-81.792-81.792c-45.098667 0-81.749333 36.693333-81.749333 81.792" /></svg>