<?xml version="1.0" standalone="no"?><!DOCTYPE svg PUBLIC "-//W3C//DTD SVG 1.1//EN" "http://www.w3.org/Graphics/SVG/1.1/DTD/svg11.dtd"><svg class="icon" width="200px" height="200.00px" viewBox="0 0 1024 1024" version="1.1" xmlns="http://www.w3.org/2000/svg"><path fill="#333333" d="M488.874667 853.333333H296.362667C274.133333 853.333333 256 834.048 256 810.325333V299.008C256 275.285333 274.133333 256 296.362667 256h107.178666a20.650667 20.650667 0 0 0 12.458667-4.48 21.077333 21.077333 0 0 0 10.922667-14.037333A85.76 85.76 0 0 1 510.208 170.666667c40.448 0 75.605333 28.714667 83.626667 68.266666a21.333333 21.333333 0 0 0 20.864 17.066667c0.896 0 1.792-0.170667 2.688-0.256 0.426667 0.042667 0.810667 0.256 1.28 0.256h108.970666c22.229333 0 40.362667 19.285333 40.362667 43.008v228.992a21.333333 21.333333 0 0 0 42.666667 0V299.008C810.666667 251.776 773.418667 213.333333 727.637333 213.333333H630.613333a128.298667 128.298667 0 0 0-120.405333-85.333333A128.512 128.512 0 0 0 389.973333 213.333333H296.362667C250.581333 213.333333 213.333333 251.776 213.333333 299.008v511.317333C213.333333 857.557333 250.581333 896 296.362667 896h192.512a21.333333 21.333333 0 0 0 0-42.666667M704 682.666667a64 64 0 1 0 0.042667 128 64 64 0 0 0-0.042667-128M704 853.333333a106.794667 106.794667 0 0 1-106.666667-106.666666c0-58.794667 47.829333-106.666667 106.666667-106.666667s106.666667 47.872 106.666667 106.666667-47.829333 106.666667-106.666667 106.666666m0-256c-15.616 0-30.378667 3.072-44.544 7.552h-124.8v-59.989333h124.885333a21.333333 21.333333 0 0 0 0-42.666667h-124.885333v-23.936l103.765333-97.877333a21.333333 21.333333 0 0 0-29.269333-31.061333l-98.133333 92.629333-98.176-92.629333a21.376 21.376 0 0 0-29.269334 31.061333l108.416 102.272v19.541333H360.874667a21.333333 21.333333 0 1 0 0 42.666667h131.114666v59.989333H360.874667a21.333333 21.333333 0 1 0 0 42.666667h131.114666v93.781333a21.333333 21.333333 0 0 0 42.666667 0v-93.781333h58.496A148.181333 148.181333 0 0 0 554.666667 746.666667c0 82.346667 66.986667 149.333333 149.333333 149.333333s149.333333-66.986667 149.333333-149.333333-66.986667-149.333333-149.333333-149.333334" /></svg>