<?xml version="1.0" standalone="no"?><!DOCTYPE svg PUBLIC "-//W3C//DTD SVG 1.1//EN" "http://www.w3.org/Graphics/SVG/1.1/DTD/svg11.dtd"><svg class="icon" width="200px" height="200.00px" viewBox="0 0 1024 1024" version="1.1" xmlns="http://www.w3.org/2000/svg"><path fill="#333333" d="M832 853.333333h-640a21.333333 21.333333 0 0 1 0-42.666666h640a21.333333 21.333333 0 0 1 0 42.666666M649.130667 640H192a21.333333 21.333333 0 0 1 0-42.666667h457.130667a21.333333 21.333333 0 0 1 0 42.666667M470.101333 426.666667H192a21.333333 21.333333 0 0 1 0-42.666667h278.101333a21.333333 21.333333 0 0 1 0 42.666667M279.637333 213.333333H192a21.333333 21.333333 0 0 1 0-42.666666h87.637333a21.333333 21.333333 0 0 1 0 42.666666" /></svg>