<?xml version="1.0" standalone="no"?><!DOCTYPE svg PUBLIC "-//W3C//DTD SVG 1.1//EN" "http://www.w3.org/Graphics/SVG/1.1/DTD/svg11.dtd"><svg class="icon" width="200px" height="200.00px" viewBox="0 0 1024 1024" version="1.1" xmlns="http://www.w3.org/2000/svg"><path fill="#333333" d="M513.792 231.168l135.082667 210.346667-135.082667 95.573333-135.082667-95.573333 135.082667-210.346667z m323.413333 87.04c-1.066667-0.170667-2.133333 0.128-3.157333 0.085333a21.205333 21.205333 0 0 0-16.128 3.541334L683.733333 416.853333l-151.978666-236.629333-0.170667-0.213333c-0.896-1.28-2.218667-2.304-3.413333-3.413334-0.853333-0.853333-1.578667-1.92-2.602667-2.56l-0.213333-0.256c-0.981333-0.64-2.133333-0.768-3.072-1.194666-1.450667-0.64-2.858667-1.408-4.437334-1.706667-1.28-0.256-2.56-0.085333-3.882666-0.128-1.450667 0-2.858667-0.170667-4.309334 0.128-1.493333 0.298667-2.858667 1.066667-4.266666 1.706667-1.066667 0.426667-2.176 0.554667-3.157334 1.194666l-0.213333 0.213334c-1.066667 0.682667-1.834667 1.792-2.773333 2.688-1.109333 1.109333-2.389333 2.048-3.242667 3.328l-0.170667 0.213333L343.850667 416.853333 209.664 321.834667a21.162667 21.162667 0 0 0-16.213333-3.413334c-1.706667-0.170667-3.242667-0.512-4.906667-0.213333a21.333333 21.333333 0 0 0-17.578667 24.533333l60.458667 366.208c0.128 0.938667 0.64 1.749333 0.938667 2.645334 0.341333 1.109333 0.64 2.176 1.152 3.242666a20.992 20.992 0 0 0 2.56 3.84c0.682667 0.853333 1.237333 1.706667 2.005333 2.346667a19.968 19.968 0 0 0 4.181333 2.816c0.810667 0.469333 1.493333 1.024 2.346667 1.365333a21.077333 21.077333 0 0 0 7.808 1.578667h520.917333a21.077333 21.077333 0 0 0 7.850667-1.578667c0.853333-0.341333 1.536-0.853333 2.346667-1.365333a19.968 19.968 0 0 0 4.181333-2.816c0.768-0.682667 1.28-1.536 1.962667-2.346667a20.992 20.992 0 0 0 2.56-3.84c0.554667-1.066667 0.853333-2.133333 1.194666-3.242666 0.298667-0.853333 0.810667-1.706667 0.938667-2.645334l14.677333-88.874666a21.333333 21.333333 0 0 0-42.069333-6.954667l-11.733333 70.997333H270.506667L220.586667 381.909333l280.832 198.741334c0.384 0.298667 0.853333 0.170667 1.28 0.426666 3.413333 2.133333 7.125333 3.498667 11.050666 3.498667a21.248 21.248 0 0 0 11.050667-3.498667c0.384-0.256 0.853333-0.128 1.28-0.426666l278.784-197.333334-16.768 101.76a21.333333 21.333333 0 1 0 42.069333 6.954667l24.618667-149.290667a21.333333 21.333333 0 0 0-17.578667-24.533333zM791.125333 810.368h-554.666666a21.333333 21.333333 0 0 0 0 42.666667h554.666666a21.333333 21.333333 0 0 0 0-42.666667" /></svg>