<?xml version="1.0" standalone="no"?><!DOCTYPE svg PUBLIC "-//W3C//DTD SVG 1.1//EN" "http://www.w3.org/Graphics/SVG/1.1/DTD/svg11.dtd"><svg class="icon" width="200px" height="200.00px" viewBox="0 0 1024 1024" version="1.1" xmlns="http://www.w3.org/2000/svg"><path fill="#333333" d="M410.03008 183.381333a20.053333 20.053333 0 0 0 13.354667-25.173333 19.925333 19.925333 0 0 0-25.173334-13.312A380.8 380.8 0 0 0 128.003413 510.848a381.610667 381.610667 0 0 0 266.453334 364.8 20.224 20.224 0 0 0 12.245333-38.442667 341.333333 341.333333 0 0 1-238.421333-326.4A340.821333 340.821333 0 0 1 410.03008 183.424M850.435413 469.333333H530.947413V169.301333c164.394667 9.728 299.648 136.533333 319.488 300.032m42.325334 15.232C879.192747 284.672 711.427413 128 510.808747 128A20.138667 20.138667 0 0 0 490.67008 148.181333C490.67008 148.48 490.840747 148.736 490.840747 149.034667 490.840747 149.418667 490.67008 149.674667 490.67008 150.016V487.68c0 0.298667 0.170667 0.554667 0.170667 0.853333 0 0.341333-0.170667 0.597333-0.170667 0.938667 0 11.093333 9.002667 20.138667 20.138667 20.138667H869.976747a19.84 19.84 0 0 0 16.682666-9.514667 19.882667 19.882667 0 0 0 6.144-15.573333M843.69408 682.965333c-1.536-1.322667-3.328-2.005333-5.077333-2.816a20.864 20.864 0 0 0-10.624-3.242666H762.883413a21.333333 21.333333 0 0 0 0 42.666666h21.632l-70.698666 83.072-100.778667-80.469333a21.290667 21.290667 0 0 0-29.013333 2.218667l-108.458667 117.888a21.333333 21.333333 0 0 0 31.402667 28.928l94.976-103.296 101.418666 80.981333a21.333333 21.333333 0 0 0 29.568-2.858667l76.544-89.941333v10.069333a21.290667 21.290667 0 1 0 42.666667 0v-65.066666a20.650667 20.650667 0 0 0-2.773333-9.941334 20.736 20.736 0 0 0-5.674667-8.192" /></svg>