<?xml version="1.0" standalone="no"?><!DOCTYPE svg PUBLIC "-//W3C//DTD SVG 1.1//EN" "http://www.w3.org/Graphics/SVG/1.1/DTD/svg11.dtd"><svg class="icon" width="200px" height="200.00px" viewBox="0 0 1024 1024" version="1.1" xmlns="http://www.w3.org/2000/svg"><path fill="#333333" d="M832 513.450667a21.333333 21.333333 0 0 1-21.333333-21.333334V327.850667a41.813333 41.813333 0 0 0-41.813334-41.728H327.936a41.813333 41.813333 0 0 0-41.770667 41.770666v299.434667l114.602667-111.914667c0.298667-0.256 0.64-0.341333 0.938667-0.597333 0.256-0.213333 0.426667-0.597333 0.64-0.768 0.853333-0.682667 1.877333-0.896 2.773333-1.450667 1.28-0.768 2.474667-1.536 3.882667-1.962666 1.322667-0.426667 2.602667-0.554667 3.968-0.768 1.365333-0.170667 2.645333-0.341333 4.010666-0.298667 1.408 0.042667 2.688 0.469333 4.053334 0.853333 1.28 0.341333 2.56 0.554667 3.754666 1.152 1.28 0.597333 2.346667 1.536 3.456 2.389334 0.896 0.597333 1.92 0.981333 2.730667 1.749333 0.256 0.341333 0.341333 0.725333 0.597333 0.981333 0.213333 0.213333 0.554667 0.341333 0.768 0.597334l98.389334 122.837333 101.205333-84.778667v-0.085333a21.248 21.248 0 0 1 30.122667 2.688L810.666667 734.72v-129.152a21.333333 21.333333 0 1 1 42.666666 0v163.370667A84.48 84.48 0 0 1 768.853333 853.333333H327.936a84.224 84.224 0 0 1-83.370667-73.898666A84.266667 84.266667 0 0 1 170.666667 696.021333V255.061333C170.666667 208.554667 208.512 170.666667 255.146667 170.666667h440.917333c42.922667 0 78.08 32.426667 83.370667 73.898666A84.224 84.224 0 0 1 853.333333 327.893333v164.181334a21.333333 21.333333 0 0 1-21.333333 21.333333zM243.456 327.850667c0-46.506667 37.888-84.394667 84.48-84.394667h407.466667A41.301333 41.301333 0 0 0 696.021333 213.333333H255.061333A41.813333 41.813333 0 0 0 213.333333 255.104v440.917333c0 18.944 12.928 34.304 30.208 39.466667V327.850667z m50.048 351.957333a21.162667 21.162667 0 0 1-7.381333 4.650667v84.437333c0 23.04 18.773333 41.728 41.813333 41.728H768.853333a40.96 40.96 0 0 0 34.005334-18.901333l-159.829334-190.08-85.589333 71.722666 27.733333 34.56a21.248 21.248 0 0 1-16.64 34.688 21.376 21.376 0 0 1-16.64-8.021333l-138.112-172.245333-120.234666 117.418666zM718.933333 395.946667a17.322667 17.322667 0 0 1-17.237333-17.28 17.322667 17.322667 0 0 1 34.56 0 17.322667 17.322667 0 0 1-17.28 17.237333m0-77.184c-33.024 0-59.946667 26.88-59.946667 59.946667 0 33.024 26.88 59.904 59.946667 59.904 33.024 0 59.946667-26.88 59.946667-59.904 0-33.066667-26.922667-59.946667-59.946667-59.946667" /></svg>