<?xml version="1.0" standalone="no"?><!DOCTYPE svg PUBLIC "-//W3C//DTD SVG 1.1//EN" "http://www.w3.org/Graphics/SVG/1.1/DTD/svg11.dtd"><svg class="icon" width="200px" height="200.00px" viewBox="0 0 1024 1024" version="1.1" xmlns="http://www.w3.org/2000/svg"><path fill="#333333" d="M192 320h128v42.666667a21.333333 21.333333 0 0 0 42.666667 0v-42.666667h467.541333a21.333333 21.333333 0 1 0 0-42.666667H362.666667v-42.666666a21.333333 21.333333 0 0 0-42.666667 0v42.666666h-128a21.333333 21.333333 0 0 0 0 42.666667M192 531.541333h638.208a21.333333 21.333333 0 1 0 0-42.666666H704v-44.458667a21.333333 21.333333 0 0 0-42.666667 0v44.458667h-469.333333a21.333333 21.333333 0 0 0 0 42.666666M492.458667 702.208H362.666667v-42.666667a21.333333 21.333333 0 1 0-42.666667 0v42.666667h-128a21.333333 21.333333 0 0 0 0 42.666667h128v42.666666a21.333333 21.333333 0 0 0 42.666667 0v-42.666666h129.792a21.333333 21.333333 0 0 0 0-42.666667M704 638.208a64 64 0 1 0 0.042667 128.042667 64 64 0 0 0-0.042667-128.042667M704 808.874667a106.794667 106.794667 0 0 1-106.666667-106.666667c0-58.837333 47.872-106.666667 106.666667-106.666667s106.666667 47.829333 106.666667 106.666667-47.872 106.666667-106.666667 106.666667m0-256c-82.346667 0-149.333333 66.986667-149.333333 149.333333s66.986667 149.333333 149.333333 149.333333 149.333333-66.986667 149.333333-149.333333-66.986667-149.333333-149.333333-149.333333" /></svg>