<?xml version="1.0" standalone="no"?><!DOCTYPE svg PUBLIC "-//W3C//DTD SVG 1.1//EN" "http://www.w3.org/Graphics/SVG/1.1/DTD/svg11.dtd"><svg class="icon" width="200px" height="200.00px" viewBox="0 0 1024 1024" version="1.1" xmlns="http://www.w3.org/2000/svg"><path fill="#333333" d="M150.016 499.072c0.426667 0.085333 0.853333 0.298667 1.365333 0.298667H823.893333a21.333333 21.333333 0 1 0 0-42.666667H200.704l164.266667-164.266667A21.333333 21.333333 0 0 0 334.805333 262.272l-200.533333 200.533333a21.290667 21.290667 0 0 0 15.061333 36.437334c0.256 0 0.426667-0.128 0.682667-0.128M847.104 634.154667a21.333333 21.333333 0 0 0-15.488-6.186667c-0.597333-0.042667-1.109333-0.298667-1.621333-0.298667H157.44a21.333333 21.333333 0 1 0 0 42.666667h623.274667l-164.309334 164.394667a21.290667 21.290667 0 0 0 15.061334 36.394666 21.418667 21.418667 0 0 0 15.061333-6.229333l200.533333-200.576a21.333333 21.333333 0 0 0 0-30.165333" /></svg>