<?xml version="1.0" standalone="no"?><!DOCTYPE svg PUBLIC "-//W3C//DTD SVG 1.1//EN" "http://www.w3.org/Graphics/SVG/1.1/DTD/svg11.dtd"><svg class="icon" width="200px" height="200.00px" viewBox="0 0 1024 1024" version="1.1" xmlns="http://www.w3.org/2000/svg"><path fill="#333333" d="M738.858667 453.461333a21.290667 21.290667 0 1 0-12.288 40.832c89.173333 26.88 144.512 68.394667 144.512 108.373334 0 42.282667-60.074667 85.162667-156.8 111.872a21.333333 21.333333 0 0 0 11.349333 41.173333c119.552-33.024 188.16-88.832 188.16-153.045333 0-61.354667-63.786667-115.754667-174.933333-149.205334M655.914667 332.330667l-39.594667 121.813333c-0.213333 0.682667-0.085333 1.322667-0.213333 2.005333a20.821333 20.821333 0 0 0-0.213334 8.32 20.138667 20.138667 0 0 0 3.072 7.68c0.341333 0.554667 0.426667 1.28 0.853334 1.792l90.752 115.285334H338.218667l-52.181334-256.853334h369.834667z m-48.810667 408.149333l-58.666667-58.666667a21.333333 21.333333 0 0 0-30.165333 30.165334l27.605333 27.648c-15.317333 0.768-30.549333 1.706667-46.293333 1.706666-47.658667 0-91.904-3.626667-132.394667-9.728l-20.224-99.712h407.552a20.906667 20.906667 0 0 0 11.946667-4.181333c0.426667-0.256 0.853333-0.170667 1.194667-0.426667 0.298667-0.256 0.426667-0.64 0.768-0.853333a20.138667 20.138667 0 0 0 2.901333-3.413333c0.853333-1.109333 1.621333-2.090667 2.218667-3.242667 0.512-1.152 0.768-2.432 1.152-3.712a18.432 18.432 0 0 0 0.853333-4.266667c0-0.426667 0.256-0.810667 0.256-1.237333 0-0.938667-0.426667-1.706667-0.512-2.645333a20.992 20.992 0 0 0-0.853333-4.266667 18.432 18.432 0 0 0-1.962667-3.84c-0.512-0.853333-0.64-1.706667-1.237333-2.474667l-110.805334-140.8 45.141334-138.965333c0.298667-1.109333 0.170667-2.133333 0.341333-3.285333 0.213333-1.109333 0.64-2.133333 0.64-3.285334 0-0.298667-0.170667-0.597333-0.170667-0.853333-0.042667-1.578667-0.469333-2.986667-0.853333-4.48-0.341333-1.237333-0.512-2.474667-1.066667-3.626667-0.554667-1.237333-1.450667-2.261333-2.261333-3.370666-0.853333-1.109333-1.536-2.261333-2.517333-3.2-0.896-0.853333-2.005333-1.408-3.114667-2.090667-1.28-0.853333-2.517333-1.664-3.968-2.218667-0.298667-0.128-0.469333-0.341333-0.810667-0.426666-1.024-0.384-2.133333-0.213333-3.285333-0.426667-1.109333-0.170667-2.133333-0.64-3.285333-0.64H277.418667L274.048 273.066667a21.333333 21.333333 0 0 0-41.813333 8.533333L321.962667 723.498667C202.581333 697.813333 128 648.448 128 602.666667c0-33.066667 37.248-67.157333 102.229333-93.568a21.333333 21.333333 0 0 0 11.776-27.818667 21.248 21.248 0 0 0-27.776-11.690667C131.114667 503.338667 85.333333 550.570667 85.333333 602.752c0 101.632 181.888 181.333333 414.165334 181.333333 13.226667 0 25.898667-0.938667 38.826666-1.450666l-20.138666 20.096a21.333333 21.333333 0 0 0 30.165333 30.165333l58.709333-58.666667a20.992 20.992 0 0 0 5.888-16.853333 21.077333 21.077333 0 0 0-5.930666-16.853333z" /></svg>