<?xml version="1.0" standalone="no"?><!DOCTYPE svg PUBLIC "-//W3C//DTD SVG 1.1//EN" "http://www.w3.org/Graphics/SVG/1.1/DTD/svg11.dtd"><svg class="icon" width="200px" height="200.00px" viewBox="0 0 1024 1024" version="1.1" xmlns="http://www.w3.org/2000/svg"><path fill="#333333" d="M747.093333 253.013333H276.906667a106.24 106.24 0 0 0-106.24 106.069334v386.389333a106.24 106.24 0 0 0 106.24 106.069333h213.76a21.290667 21.290667 0 1 0 0-42.666666H276.906667a63.573333 63.573333 0 0 1-63.573334-63.402667V359.082667a63.573333 63.573333 0 0 1 63.573334-63.402667H747.093333A63.573333 63.573333 0 0 1 810.666667 359.082667v128a21.333333 21.333333 0 1 0 42.666666 0v-128A106.24 106.24 0 0 0 747.093333 253.013333M318.208 213.333333h389.333333a21.333333 21.333333 0 0 0 0-42.666666H318.208a21.333333 21.333333 0 0 0 0 42.666666M705.749333 574.208a21.333333 21.333333 0 0 0 0-42.666667H533.333333v-128a21.333333 21.333333 0 0 0-42.666666 0v149.333334a21.333333 21.333333 0 0 0 21.333333 21.333333c0.298667 0 0.554667-0.170667 0.853333-0.170667 0.341333 0 0.597333 0.170667 0.896 0.170667h192zM832 586.453333a21.333333 21.333333 0 0 0-21.333333 21.333334v147.2a21.333333 21.333333 0 1 0 42.666666 0v-147.2a21.333333 21.333333 0 0 0-21.333333-21.333334M747.093333 776.32a21.333333 21.333333 0 0 0 21.333334-21.333333v-113.066667a21.333333 21.333333 0 1 0-42.666667 0v113.066667a21.333333 21.333333 0 0 0 21.333333 21.333333M640.085333 675.029333v79.488a21.333333 21.333333 0 1 0 42.666667 0v-79.488a21.333333 21.333333 0 0 0-42.666667 0M554.666667 709.546667v45.482666a21.333333 21.333333 0 1 0 42.666666 0V709.546667a21.333333 21.333333 0 0 0-42.666666 0M832 809.770667h-256a21.333333 21.333333 0 0 0 0 42.666666h256a21.333333 21.333333 0 0 0 0-42.666666" /></svg>