<?xml version="1.0" standalone="no"?><!DOCTYPE svg PUBLIC "-//W3C//DTD SVG 1.1//EN" "http://www.w3.org/Graphics/SVG/1.1/DTD/svg11.dtd"><svg class="icon" width="200px" height="200.00px" viewBox="0 0 1024 1024" version="1.1" xmlns="http://www.w3.org/2000/svg"><path fill="#333333" d="M517.632 552.149333c80.64 0 152.277333-46.677333 182.613333-118.954666a21.333333 21.333333 0 0 0-39.338666-16.512c-23.594667 56.362667-79.914667 92.8-143.274667 92.8-85.162667 0-154.453333-66.432-154.453333-148.053334 0-29.568 9.045333-58.026667 26.026666-82.474666 28.842667-41.088 76.8-65.621333 128.426667-65.621334 51.541333 0 99.498667 24.490667 128.298667 65.578667 5.930667 8.405333 10.965333 17.536 14.933333 27.136a21.333333 21.333333 0 1 0 39.338667-16.597333 188.416 188.416 0 0 0-19.370667-35.072C644.096 201.941333 583.04 170.666667 517.632 170.666667c-65.493333 0-126.549333 31.317333-163.285333 83.84a185.429333 185.429333 0 0 0-33.834667 106.88c0 105.216 88.405333 190.762667 197.12 190.762666M720.170667 810.666667H303.872C253.952 810.666667 213.333333 769.578667 213.333333 719.061333c0-50.517333 40.618667-91.605333 90.538667-91.605333h416.298667c49.92 0 90.453333 41.088 90.453333 91.605333C810.666667 769.578667 770.133333 810.666667 720.213333 810.666667m0-225.877334H303.872C230.4 584.789333 170.666667 645.034667 170.666667 719.061333 170.666667 793.088 230.4 853.333333 303.872 853.333333h416.298667c73.386667 0 133.12-60.245333 133.12-134.272C853.333333 645.034667 793.6 584.789333 720.213333 584.789333M475.136 739.413333l38.826667 36.138667 38.016-37.674667-37.973334-75.264z" /></svg>