<?xml version="1.0" standalone="no"?><!DOCTYPE svg PUBLIC "-//W3C//DTD SVG 1.1//EN" "http://www.w3.org/Graphics/SVG/1.1/DTD/svg11.dtd"><svg class="icon" width="200px" height="200.00px" viewBox="0 0 1024 1024" version="1.1" xmlns="http://www.w3.org/2000/svg"><path fill="#333333" d="M886.912 134.656a21.418667 21.418667 0 0 0-30.165333-0.853333l-149.888 141.482666a339.413333 339.413333 0 0 0-396.032-1.706666L164.010667 135.082667a21.333333 21.333333 0 1 0-29.312 31.018666l142.72 134.698667a344.490667 344.490667 0 0 0-51.84 59.946667 338.688 338.688 0 0 0-58.026667 190.122666C167.552 738.474667 320.170667 891.136 507.818667 891.136a339.754667 339.754667 0 0 0 329.813333-256.341333 20.138667 20.138667 0 1 0-39.04-9.984 299.562667 299.562667 0 0 1-290.773333 226.005333c-165.418667 0-299.989333-134.528-299.989334-299.946667a298.24 298.24 0 0 1 51.2-167.594666A299.733333 299.733333 0 0 1 507.733333 250.965333a299.818667 299.818667 0 0 1 293.717334 238.634667 20.138667 20.138667 0 1 0 39.466666-8.192 336.853333 336.853333 0 0 0-51.072-120.746667 340.778667 340.778667 0 0 0-49.92-57.984l146.048-137.813333a21.333333 21.333333 0 0 0 0.853334-30.165333M368.042667 531.541333v146.346667a20.138667 20.138667 0 1 0 40.277333 0v-146.346667a20.138667 20.138667 0 1 0-40.277333 0M486.357333 485.418667v192.426666a20.138667 20.138667 0 1 0 40.277334 0v-192.426666a20.138667 20.138667 0 1 0-40.277334 0M608.64 435.285333v242.602667a20.138667 20.138667 0 1 0 40.277333 0v-242.602667a20.138667 20.138667 0 1 0-40.277333 0" /></svg>