<?xml version="1.0" standalone="no"?><!DOCTYPE svg PUBLIC "-//W3C//DTD SVG 1.1//EN" "http://www.w3.org/Graphics/SVG/1.1/DTD/svg11.dtd"><svg class="icon" width="200px" height="200.00px" viewBox="0 0 1024 1024" version="1.1" xmlns="http://www.w3.org/2000/svg"><path fill="#333333" d="M735.658667 170.666667H288.298667A117.76 117.76 0 0 0 170.666667 288.298667v447.402666a117.76 117.76 0 0 0 117.632 117.632H405.333333a21.333333 21.333333 0 0 0 0-42.666666H288.298667A75.050667 75.050667 0 0 1 213.333333 735.701333V288.298667c0-41.344 33.621333-74.965333 74.965334-74.965334h447.36c41.386667 0 75.008 33.621333 75.008 74.965334v289.493333a21.333333 21.333333 0 1 0 42.666666 0V288.298667A117.76 117.76 0 0 0 735.658667 170.666667M516.266667 271.616l-133.461334 128.853333L332.8 348.629333a21.333333 21.333333 0 0 0-30.72 29.653334L366.933333 445.44a21.205333 21.205333 0 0 0 30.165334 0.512l148.821333-143.616a21.333333 21.333333 0 1 0-29.653333-30.677333M704 385.792a21.333333 21.333333 0 0 0 0-42.666667h-126.250667a21.333333 21.333333 0 0 0 0 42.666667H704zM321.749333 723.541333h170.666667a21.333333 21.333333 0 0 0 0-42.666666h-170.666667a21.333333 21.333333 0 0 0 0 42.666666M300.416 535.125333a21.333333 21.333333 0 0 0 21.333333 21.333334H704a21.333333 21.333333 0 0 0 0-42.666667H321.749333a21.333333 21.333333 0 0 0-21.333333 21.333333M844.885333 658.474667c-1.706667-1.408-3.541333-2.176-5.418666-2.986667a20.821333 20.821333 0 0 0-10.282667-3.029333h-65.109333a21.333333 21.333333 0 0 0 0 42.666666h21.589333l-70.613333 83.029334-100.821334-80.469334a21.333333 21.333333 0 0 0-29.013333 2.218667l-108.501333 117.888a21.418667 21.418667 0 0 0 15.701333 35.797333c5.76 0 11.52-2.304 15.701333-6.869333l95.061334-103.296 101.418666 80.981333c9.045333 7.168 22.101333 5.973333 29.525334-2.858666L810.666667 731.605333v10.112a21.333333 21.333333 0 1 0 42.666666 0v-65.066666a20.949333 20.949333 0 0 0-2.773333-9.984 21.034667 21.034667 0 0 0-5.674667-8.192" /></svg>