<?xml version="1.0" standalone="no"?><!DOCTYPE svg PUBLIC "-//W3C//DTD SVG 1.1//EN" "http://www.w3.org/Graphics/SVG/1.1/DTD/svg11.dtd"><svg class="icon" width="200px" height="200.00px" viewBox="0 0 1024 1024" version="1.1" xmlns="http://www.w3.org/2000/svg"><path fill="#333333" d="M886.869333 134.698667a21.376 21.376 0 0 0-30.165333-0.938667l-149.888 141.525333a339.328 339.328 0 0 0-396.032-1.706666L164.010667 135.04a21.333333 21.333333 0 1 0-29.312 31.061333l142.72 134.698667a338.261333 338.261333 0 0 0-109.866667 250.069333C167.552 738.389333 320.170667 891.093333 507.733333 891.093333a339.797333 339.797333 0 0 0 329.813334-256.341333 20.138667 20.138667 0 1 0-39.04-9.941333A299.605333 299.605333 0 0 1 507.733333 850.773333a300.288 300.288 0 0 1-299.946666-299.946666c0-60.032 17.706667-118.016 51.2-167.552a299.904 299.904 0 0 1 542.421333 106.197333 20.266667 20.266667 0 0 0 23.850667 15.658667 20.224 20.224 0 0 0 15.616-23.850667 337.536 337.536 0 0 0-51.029334-120.746667 340.693333 340.693333 0 0 0-49.92-57.898666l146.005334-137.813334a21.333333 21.333333 0 0 0 0.853333-30.122666M632.746667 554.154667a21.333333 21.333333 0 0 0 0-42.666667h-96.128v-13.226667L618.666667 420.821333a21.333333 21.333333 0 0 0-29.269334-31.061333l-75.989333 71.722667-75.989333-71.68a21.376 21.376 0 0 0-29.312 31.018666l85.845333 80.981334v9.685333H392.789333a21.333333 21.333333 0 1 0 0 42.666667h101.12v39.850666h-101.12a21.290667 21.290667 0 1 0 0 42.666667h101.12v71.168a21.333333 21.333333 0 1 0 42.666667 0v-71.168h96.213333a21.333333 21.333333 0 0 0 0-42.666667h-96.170666v-39.850666h96.170666z" /></svg>