<?xml version="1.0" standalone="no"?><!DOCTYPE svg PUBLIC "-//W3C//DTD SVG 1.1//EN" "http://www.w3.org/Graphics/SVG/1.1/DTD/svg11.dtd"><svg class="icon" width="200px" height="200.00px" viewBox="0 0 1024 1024" version="1.1" xmlns="http://www.w3.org/2000/svg"><path fill="#333333" d="M836.010667 199.68c-1.578667-0.768-2.986667-1.706667-4.736-2.090667L516.565333 128.298667C514.56 127.872 512.597333 128.042667 510.634667 128.170667c-0.512-0.085333-1.152 0.042667-1.749334 0h-0.853333C506.112 128.042667 504.106667 127.872 502.058667 128.298667L192.682667 197.589333c-1.792 0.426667-3.242667 1.322667-4.693334 2.133334a21.034667 21.034667 0 0 0-17.365333 20.48v325.333333c0 1.408 0.597333 2.645333 0.853333 3.968 8.362667 198.101333 173.397333 324.906667 337.066667 348.288A24.746667 24.746667 0 0 0 511.573333 898.005333L512 897.92l0.341333 0.085333a25.472 25.472 0 0 0 3.157334-0.213333c7.850667-1.152 15.872-2.56 23.893333-4.181333a21.376 21.376 0 0 0 16.64-25.173334 21.504 21.504 0 0 0-25.173333-16.64c-6.229333 1.28-12.544 2.346667-18.816 3.285334C363.093333 832.768 213.333333 715.818667 213.333333 534.058667V236.714667l296.064-66.346667 301.226667 66.346667V481.578667a21.333333 21.333333 0 1 0 42.666667 0V220.202667a20.992 20.992 0 0 0-17.28-20.48M533.333333 312.661333a21.333333 21.333333 0 0 0-42.666666 0v254.208a21.333333 21.333333 0 0 0 42.666666 0V312.661333zM512 630.869333a21.333333 21.333333 0 0 0-21.333333 21.333334v42.666666a21.333333 21.333333 0 0 0 42.666666 0v-42.666666a21.333333 21.333333 0 0 0-21.333333-21.333334M704 630.869333a64 64 0 1 0 0 128.042667 64 64 0 0 0 0-128M704 801.536a106.752 106.752 0 0 1-106.666667-106.666667c0-58.837333 47.829333-106.666667 106.666667-106.666666s106.666667 47.829333 106.666667 106.666666c0 58.88-47.829333 106.666667-106.666667 106.666667m0-256c-82.346667 0-149.333333 66.986667-149.333333 149.333333s66.986667 149.333333 149.333333 149.333334 149.333333-66.986667 149.333333-149.333334-66.986667-149.333333-149.333333-149.333333" /></svg>