<?xml version="1.0" standalone="no"?><!DOCTYPE svg PUBLIC "-//W3C//DTD SVG 1.1//EN" "http://www.w3.org/Graphics/SVG/1.1/DTD/svg11.dtd"><svg class="icon" width="200px" height="200.00px" viewBox="0 0 1024 1024" version="1.1" xmlns="http://www.w3.org/2000/svg"><path fill="#333333" d="M760.789333 170.666667C811.818667 170.666667 853.333333 212.181333 853.333333 263.168v227.029333a21.333333 21.333333 0 1 1-42.666666 0V263.168A49.92 49.92 0 0 0 760.789333 213.333333h-78.592v63.530667c0 11.818667-9.514667 21.333333-21.333333 21.333333h-298.666667a21.333333 21.333333 0 0 1-21.333333-21.333333V213.333333H263.168A49.92 49.92 0 0 0 213.333333 263.168v497.621333A49.92 49.92 0 0 0 263.168 810.666667h228.821333a21.333333 21.333333 0 1 1 0 42.666666H263.168A92.629333 92.629333 0 0 1 170.666667 760.789333V263.168C170.666667 212.181333 212.181333 170.666667 263.168 170.666667h497.621333zM383.530667 255.530667h256V213.333333h-256v42.197334zM363.989333 525.738667h129.749334a21.333333 21.333333 0 0 0 0-42.666667h-129.706667a21.333333 21.333333 0 0 0 0 42.666667M363.989333 426.24h40.874667a21.333333 21.333333 0 0 0 0-42.666667h-40.874667a21.333333 21.333333 0 0 0 0 42.666667M703.573333 639.573333a64 64 0 1 0 0 128 64 64 0 0 0 0-128M703.573333 810.24a106.752 106.752 0 0 1-106.666666-106.666667c0-58.88 47.786667-106.666667 106.666666-106.666666 58.794667 0 106.666667 47.786667 106.666667 106.666666 0 58.794667-47.872 106.666667-106.666667 106.666667m0-256c-41.472 0-78.933333 16.938667-106.026666 44.288a21.034667 21.034667 0 0 0-20.224-15.872h-213.333334a21.333333 21.333333 0 0 0 0 42.666667h212.906667a147.754667 147.754667 0 0 0-20.48 56.874666H363.946667a21.333333 21.333333 0 0 0 0 42.666667h192.426666c10.410667 72.192 72.106667 128 147.114667 128 82.346667 0 149.333333-66.986667 149.333333-149.333333s-66.986667-149.333333-149.333333-149.333334" /></svg>