<?xml version="1.0" standalone="no"?><!DOCTYPE svg PUBLIC "-//W3C//DTD SVG 1.1//EN" "http://www.w3.org/Graphics/SVG/1.1/DTD/svg11.dtd"><svg class="icon" width="200px" height="200.00px" viewBox="0 0 1024 1024" version="1.1" xmlns="http://www.w3.org/2000/svg"><path fill="#333333" d="M832 469.802667a21.333333 21.333333 0 0 1-21.333333-21.333334V263.210667A49.92 49.92 0 0 0 760.832 213.333333H682.24v63.530667a21.333333 21.333333 0 0 1-21.333333 21.333333h-298.666667a21.290667 21.290667 0 0 1-21.333333-21.333333V213.333333H263.210667A49.92 49.92 0 0 0 213.333333 263.210667V640h597.333334v-63.530667a21.333333 21.333333 0 1 1 42.666666 0v184.32A92.629333 92.629333 0 0 1 760.832 853.333333H263.210667A92.629333 92.629333 0 0 1 170.666667 760.789333V263.210667C170.666667 212.181333 212.181333 170.666667 263.210667 170.666667h497.621333C811.818667 170.666667 853.333333 212.181333 853.333333 263.210667v185.258666a21.333333 21.333333 0 0 1-21.333333 21.333334zM383.573333 255.530667h256V213.333333h-256v42.197334zM213.333333 725.333333h597.333334v-42.666666H213.333333v42.666666z m547.498667 85.333334c24.917333 0 44.757333-18.730667 48.384-42.666667H214.784c3.626667 23.936 23.466667 42.666667 48.426667 42.666667h497.621333z" /></svg>