<?xml version="1.0" standalone="no"?><!DOCTYPE svg PUBLIC "-//W3C//DTD SVG 1.1//EN" "http://www.w3.org/Graphics/SVG/1.1/DTD/svg11.dtd"><svg class="icon" width="200px" height="200.00px" viewBox="0 0 1024 1024" version="1.1" xmlns="http://www.w3.org/2000/svg"><path fill="#333333" d="M832 471.125333a21.333333 21.333333 0 0 0 21.333333-21.333333V220.373333a21.034667 21.034667 0 0 0-17.322666-20.48c-1.578667-0.810667-2.986667-1.706667-4.778667-2.133333L516.565333 128.512a20.48 20.48 0 0 0-8.661333-0.085333C505.984 128.256 504.021333 128.085333 502.016 128.512L192.682667 197.802667c-1.792 0.426667-3.2 1.322667-4.736 2.133333a21.034667 21.034667 0 0 0-17.28 20.48v325.333333c0 1.408 0.554667 2.645333 0.810666 3.968 8.32 198.101333 173.44 324.906667 337.066667 348.288A24.106667 24.106667 0 0 0 511.573333 898.218667l0.426667-0.085334 0.426667 0.085334a24.106667 24.106667 0 0 0 3.029333-0.213334c144.512-20.693333 310.912-128.853333 334.976-317.568a21.333333 21.333333 0 0 0-42.368-5.376c-21.034667 165.461333-167.68 260.906667-296.021333 280.234667C363.178667 832.981333 213.333333 716.032 213.333333 534.186667V236.928l296.064-66.389333L810.666667 236.928V449.792a21.333333 21.333333 0 0 0 21.333333 21.333333M533.333333 312.917333a21.333333 21.333333 0 0 0-42.666666 0v254.208a21.333333 21.333333 0 0 0 42.666666 0V312.917333zM512 631.125333a21.333333 21.333333 0 0 0-21.333333 21.333334v42.666666a21.333333 21.333333 0 0 0 42.666666 0v-42.666666a21.333333 21.333333 0 0 0-21.333333-21.333334" /></svg>