<?xml version="1.0" standalone="no"?><!DOCTYPE svg PUBLIC "-//W3C//DTD SVG 1.1//EN" "http://www.w3.org/Graphics/SVG/1.1/DTD/svg11.dtd"><svg class="icon" width="200px" height="200.00px" viewBox="0 0 1024 1024" version="1.1" xmlns="http://www.w3.org/2000/svg"><path fill="#333333" d="M789.333333 512a21.333333 21.333333 0 0 0 21.333334-21.333333V299.008C810.666667 251.776 773.418667 213.333333 727.637333 213.333333H630.613333a128.298667 128.298667 0 0 0-120.405333-85.333333 128.682667 128.682667 0 0 0-120.277333 85.333333H296.32C250.581333 213.333333 213.333333 251.776 213.333333 299.008v511.317333C213.333333 857.557333 250.581333 896 296.32 896h431.317333C773.418667 896 810.666667 857.557333 810.666667 810.325333V618.666667a21.333333 21.333333 0 0 0-42.666667 0v191.658666c0 23.722667-18.133333 43.008-40.362667 43.008H296.32C274.090667 853.333333 256 834.048 256 810.325333V299.008C256 275.285333 274.090667 256 296.32 256h107.178667a20.736 20.736 0 0 0 12.373333-4.437333 20.949333 20.949333 0 0 0 11.008-14.08A85.845333 85.845333 0 0 1 510.208 170.666667c40.448 0 75.605333 28.714667 83.626667 68.266666a21.333333 21.333333 0 0 0 20.864 17.066667c0.896 0 1.792-0.170667 2.688-0.256 0.426667 0.042667 0.810667 0.256 1.28 0.256h108.970666c22.229333 0 40.362667 19.285333 40.362667 43.008V490.666667a21.333333 21.333333 0 0 0 21.333333 21.333333M577.749333 624H405.333333a21.333333 21.333333 0 0 0 0 42.666667h172.416c58.837333 0 106.666667-47.872 106.666667-106.666667s-47.829333-106.666667-106.666667-106.666667H414.165333l52.48-52.48a21.333333 21.333333 0 0 0-30.208-30.165333L348.458667 458.666667c-0.170667 0.170667-0.213333 0.384-0.341334 0.554666a21.12 21.12 0 0 0-6.784 15.445334 21.333333 21.333333 0 0 0 21.333334 21.333333h215.082666c35.285333 0 64 28.714667 64 64s-28.714667 64-64 64" /></svg>