<?xml version="1.0" standalone="no"?><!DOCTYPE svg PUBLIC "-//W3C//DTD SVG 1.1//EN" "http://www.w3.org/Graphics/SVG/1.1/DTD/svg11.dtd"><svg class="icon" width="200px" height="200.00px" viewBox="0 0 1024 1024" version="1.1" xmlns="http://www.w3.org/2000/svg"><path fill="#333333" d="M577.749333 643.541333H405.333333a21.333333 21.333333 0 0 0 0 42.666667h172.416c58.837333 0 106.666667-47.872 106.666667-106.666667s-47.829333-106.666667-106.666667-106.666666H414.165333l52.48-52.48a21.333333 21.333333 0 0 0-30.208-30.165334l-87.978666 87.978667c-0.170667 0.170667-0.213333 0.426667-0.341334 0.554667a21.12 21.12 0 0 0-6.784 15.445333 21.333333 21.333333 0 0 0 21.333334 21.333333h215.082666c35.285333 0 64 28.714667 64 64s-28.714667 64-64 64M492.416 853.333333H296.32C274.090667 853.333333 256 834.048 256 810.325333V299.008C256 275.285333 274.090667 256 296.32 256h107.178667c4.693333 0 8.832-1.834667 12.330666-4.394667a20.992 20.992 0 0 0 11.050667-14.122666A85.845333 85.845333 0 0 1 510.208 170.666667c40.448 0 75.605333 28.714667 83.626667 68.266666a21.333333 21.333333 0 0 0 20.864 17.066667c0.896 0 1.792-0.170667 2.688-0.256 0.426667 0.042667 0.810667 0.256 1.28 0.256h108.970666c22.229333 0 40.362667 19.285333 40.362667 43.008v278.784a21.333333 21.333333 0 0 0 42.666667 0V299.008C810.666667 251.776 773.418667 213.333333 727.637333 213.333333H630.613333a128.298667 128.298667 0 0 0-120.405333-85.333333 128.682667 128.682667 0 0 0-120.277333 85.333333H296.32C250.581333 213.333333 213.333333 251.776 213.333333 299.008v511.317333C213.333333 857.557333 250.581333 896 296.32 896h196.096a21.333333 21.333333 0 0 0 0-42.666667M704 682.666667a64 64 0 1 0 0.042667 128.042666A64 64 0 0 0 704 682.666667M704 853.333333a106.794667 106.794667 0 0 1-106.666667-106.666666c0-58.794667 47.829333-106.666667 106.666667-106.666667s106.666667 47.872 106.666667 106.666667-47.829333 106.666667-106.666667 106.666666m0-256c-82.346667 0-149.333333 66.986667-149.333333 149.333334s66.986667 149.333333 149.333333 149.333333 149.333333-66.986667 149.333333-149.333333-66.986667-149.333333-149.333333-149.333334" /></svg>