<?xml version="1.0" standalone="no"?><!DOCTYPE svg PUBLIC "-//W3C//DTD SVG 1.1//EN" "http://www.w3.org/Graphics/SVG/1.1/DTD/svg11.dtd"><svg class="icon" width="200px" height="200.00px" viewBox="0 0 1024 1024" version="1.1" xmlns="http://www.w3.org/2000/svg"><path fill="#333333" d="M490.78528 597.034667H295.798613L226.84928 256.469333H715.638613l-53.162666 163.669334c-0.213333 0.682667-0.085333 1.365333-0.213334 2.048a21.290667 21.290667 0 0 0 0.938667 12.16 20.053333 20.053333 0 0 0 1.962667 3.84c0.426667 0.554667 0.512 1.28 0.938666 1.834666l49.749334 62.208a21.461333 21.461333 0 0 0 30.037333 3.328 21.376 21.376 0 0 0 3.328-29.994666l-42.581333-53.205334 58.666666-180.650666c0.341333-1.109333 0.170667-2.133333 0.341334-3.285334 0.213333-1.109333 0.682667-2.133333 0.682666-3.285333 0-0.341333-0.170667-0.597333-0.170666-0.938667-0.085333-1.493333-0.512-2.901333-0.853334-4.352-0.341333-1.237333-0.554667-2.56-1.109333-3.712-0.554667-1.194667-1.408-2.218667-2.218667-3.285333-0.810667-1.152-1.536-2.304-2.517333-3.242667-0.938667-0.853333-2.048-1.408-3.114667-2.090666-1.28-0.853333-2.517333-1.706667-3.968-2.261334-0.298667-0.085333-0.512-0.341333-0.810666-0.426666-1.066667-0.341333-2.133333-0.213333-3.285334-0.384-1.109333-0.170667-2.133333-0.64-3.285333-0.64H218.27328L213.02528 187.861333a21.290667 21.290667 0 1 0-41.813333 8.405334l129.749333 641.792a21.333333 21.333333 0 1 0 41.813333-8.405334l-38.4-189.866666h186.453334a21.333333 21.333333 0 0 0 0-42.666667M704.118613 640a64 64 0 1 0 0.042667 128.085333A64 64 0 0 0 704.118613 640M704.118613 810.709333a106.752 106.752 0 0 1-106.666666-106.666666c0-58.837333 47.829333-106.666667 106.666666-106.666667 58.88 0 106.666667 47.829333 106.666667 106.666667s-47.786667 106.666667-106.666667 106.666666m0-256c-82.346667 0-149.333333 66.986667-149.333333 149.333334s66.986667 149.333333 149.333333 149.333333S853.451947 786.389333 853.451947 704.042667 786.46528 554.709333 704.118613 554.709333" /></svg>