<?xml version="1.0" standalone="no"?><!DOCTYPE svg PUBLIC "-//W3C//DTD SVG 1.1//EN" "http://www.w3.org/Graphics/SVG/1.1/DTD/svg11.dtd"><svg class="icon" width="200px" height="200.00px" viewBox="0 0 1024 1024" version="1.1" xmlns="http://www.w3.org/2000/svg"><path fill="#333333" d="M760.832 170.666667C811.818667 170.666667 853.333333 212.181333 853.333333 263.210667v230.570666a21.333333 21.333333 0 1 1-42.666666 0V263.210667A49.92 49.92 0 0 0 760.832 213.333333H682.24v63.530667c0 11.818667-9.514667 21.333333-21.333333 21.333333h-298.666667a21.333333 21.333333 0 0 1-21.333333-21.333333V213.333333H263.210667A49.92 49.92 0 0 0 213.333333 263.210667v497.578666A49.92 49.92 0 0 0 263.210667 810.666667h248.362666a21.333333 21.333333 0 1 1 0 42.666666H263.210667A92.629333 92.629333 0 0 1 170.666667 760.789333V263.210667C170.666667 212.181333 212.181333 170.666667 263.210667 170.666667h497.621333zM383.573333 255.530667h256V213.333333h-256v42.197334zM363.989333 525.781333h129.792a21.333333 21.333333 0 0 0 0-42.666666H363.989333a21.333333 21.333333 0 0 0 0 42.666666M363.989333 426.24h40.96a21.333333 21.333333 0 0 0 0-42.666667h-40.96a21.333333 21.333333 0 0 0 0 42.666667M810.24 746.453333a12.629333 12.629333 0 0 1-12.629333 12.586667h-188.117334a12.586667 12.586667 0 0 1-12.586666-12.586667v-136.96c0-6.997333 5.632-12.629333 12.586666-12.629333h188.16c6.912 0 12.586667 5.632 12.586667 12.586667v137.002666z m-12.629333-192.256h-188.117334c-20.565333 0-37.802667 11.776-47.317333 28.458667H363.989333a21.333333 21.333333 0 0 0 0 42.666667h190.293334v56.874666H363.946667a21.333333 21.333333 0 0 0 0 42.666667h190.293333v21.589333c0 30.464 24.746667 55.253333 55.210667 55.253334h188.16c30.464 0 55.253333-24.746667 55.253333-55.253334v-136.96c0-30.506667-24.746667-55.296-55.296-55.296zM815.914667 810.24h-224a21.333333 21.333333 0 0 0 0 42.666667h224a21.333333 21.333333 0 0 0 0-42.666667" /></svg>