<?xml version="1.0" standalone="no"?><!DOCTYPE svg PUBLIC "-//W3C//DTD SVG 1.1//EN" "http://www.w3.org/Graphics/SVG/1.1/DTD/svg11.dtd"><svg class="icon" width="200px" height="200.00px" viewBox="0 0 1024 1024" version="1.1" xmlns="http://www.w3.org/2000/svg"><path fill="#333333" d="M373.333333 789.333333a32 32 0 1 0 0 64 32 32 0 0 0 0-64M650.666667 789.333333a32 32 0 1 0 0 64 32 32 0 0 0 0-64M828.202667 513.194667a21.333333 21.333333 0 0 0-27.178667 13.098666A169.130667 169.130667 0 0 1 641.877333 640H290.56l-26.282667-341.333333h377.642667a169.130667 169.130667 0 0 1 159.232 113.92 21.333333 21.333333 0 0 0 40.277333-14.08A211.882667 211.882667 0 0 0 641.877333 256H260.949333L255.914667 190.336C255.829333 189.482667 255.36 188.672 255.146667 187.818667 254.762667 186.026667 254.421333 184.234667 253.610667 182.613333 253.269333 182.016 252.842667 181.546667 252.501333 180.992a20.565333 20.565333 0 0 0-4.138666-5.034667C247.936 175.573333 247.381333 175.36 246.912 174.976a21.717333 21.717333 0 0 0-5.12-2.901333C240.384 171.52 238.933333 171.434667 237.525333 171.221333 236.458667 171.093333 235.605333 170.666667 234.666667 170.666667h-42.666667a21.290667 21.290667 0 1 0 0 42.666666h22.912l41.173333 534.954667c0.085333 1.28 0.64 2.389333 0.981334 3.584 0.298667 1.28 0.426667 2.474667 0.938666 3.626667 0.682667 1.450667 1.706667 2.688 2.688 3.925333 0.64 0.853333 1.109333 1.792 1.877334 2.56 1.322667 1.28 2.858667 2.133333 4.437333 2.986667 0.768 0.426667 1.408 1.024 2.218667 1.365333a20.48 20.48 0 0 0 8.106666 1.706667h469.333334a21.333333 21.333333 0 0 0 0-42.666667H297.045333l-3.285333-42.666667h348.16a211.925333 211.925333 0 0 0 199.381333-142.336 21.333333 21.333333 0 0 0-13.098666-27.178666M704 384h-213.333333a21.333333 21.333333 0 0 0 0 42.666667h213.333333a21.333333 21.333333 0 0 0 0-42.666667M405.333333 384h-42.666666a21.333333 21.333333 0 0 0 0 42.666667h42.666666a21.333333 21.333333 0 0 0 0-42.666667M704 512h-213.333333a21.333333 21.333333 0 0 0 0 42.666667h213.333333a21.333333 21.333333 0 0 0 0-42.666667M405.333333 512h-42.666666a21.333333 21.333333 0 0 0 0 42.666667h42.666666a21.333333 21.333333 0 0 0 0-42.666667" /></svg>