<?xml version="1.0" standalone="no"?><!DOCTYPE svg PUBLIC "-//W3C//DTD SVG 1.1//EN" "http://www.w3.org/Graphics/SVG/1.1/DTD/svg11.dtd"><svg class="icon" width="200px" height="200.00px" viewBox="0 0 1024 1024" version="1.1" xmlns="http://www.w3.org/2000/svg"><path fill="#333333" d="M405.333333 213.888h128a21.333333 21.333333 0 0 0 0-42.666667h-128a21.333333 21.333333 0 0 0 0 42.666667M277.333333 171.221333h-85.333333a21.333333 21.333333 0 0 0 0 42.666667h85.333333a21.333333 21.333333 0 0 0 0-42.666667M405.333333 533.888h426.666667a21.333333 21.333333 0 0 0 0-42.666667h-426.666667a21.333333 21.333333 0 0 0 0 42.666667M277.333333 491.221333h-85.333333a21.333333 21.333333 0 0 0 0 42.666667h85.333333a21.333333 21.333333 0 0 0 0-42.666667M832 811.221333h-426.666667a21.333333 21.333333 0 0 0 0 42.666667h426.666667a21.333333 21.333333 0 0 0 0-42.666667M277.333333 811.221333h-85.333333a21.333333 21.333333 0 0 0 0 42.666667h85.333333a21.333333 21.333333 0 0 0 0-42.666667M725.034667 411.733333C689.792 405.546667 640 376.832 640 319.573333V232.149333l84.224-18.901333 85.802667 18.944V328.533333l0.085333 0.426667c-0.170667 0.853333-0.682667 1.493333-0.768 2.346667-5.973333 46.805333-47.317333 74.026667-84.309333 80.384m-3.2 42.922666a24.746667 24.746667 0 0 0 3.072 0.213334l0.128-0.085334 0.085333 0.085334a25.344 25.344 0 0 0 3.072-0.213334c53.162667-7.68 114.517333-47.786667 123.477333-117.845333 0.085333-0.768-0.170667-1.493333-0.170666-2.218667 0.554667-1.962667 1.194667-3.882667 1.194666-5.973333V215.296a21.077333 21.077333 0 0 0-15.616-20.181333c-0.981333-0.426667-1.792-1.024-2.858666-1.28l-104.618667-23.04c-0.768-0.128-1.493333 0.085333-2.261333 0-1.152-0.213333-2.389333 0-3.584-0.042667-0.938667 0-1.877333-0.128-2.773334 0-0.810667 0.128-1.578667-0.128-2.389333 0l-102.826667 23.04c-1.066667 0.298667-1.877333 0.981333-2.858666 1.365333a20.992 20.992 0 0 0-15.573334 20.138667V323.413333c0 1.408 0.554667 2.645333 0.768 3.968 4.266667 72.277333 64.042667 118.613333 123.733334 127.232" /></svg>