<?xml version="1.0" standalone="no"?><!DOCTYPE svg PUBLIC "-//W3C//DTD SVG 1.1//EN" "http://www.w3.org/Graphics/SVG/1.1/DTD/svg11.dtd"><svg class="icon" width="200px" height="200.00px" viewBox="0 0 1024 1024" version="1.1" xmlns="http://www.w3.org/2000/svg"><path fill="#333333" d="M330.666667 832a32 32 0 1 0 0 64 32 32 0 0 0 0-64M448 469.333333h213.333333a21.333333 21.333333 0 0 0 0-42.666666h-213.333333a21.333333 21.333333 0 0 0 0 42.666666M362.666667 426.666667h-42.666667a21.333333 21.333333 0 0 0 0 42.666666h42.666667a21.333333 21.333333 0 0 0 0-42.666666M682.666667 576a21.333333 21.333333 0 0 0-21.333334-21.333333h-213.333333a21.333333 21.333333 0 0 0 0 42.666666h213.333333a21.333333 21.333333 0 0 0 21.333334-21.333333M362.666667 554.666667h-42.666667a21.333333 21.333333 0 0 0 0 42.666666h42.666667a21.333333 21.333333 0 0 0 0-42.666666M659.541333 682.666667a64 64 0 1 0 0.042667 128.042666 64 64 0 0 0 0-128.042666M659.541333 853.333333a106.794667 106.794667 0 0 1-106.666666-106.666666c0-58.794667 47.829333-106.666667 106.666666-106.666667s106.666667 47.872 106.666667 106.666667-47.829333 106.666667-106.666667 106.666666m0-256c-82.346667 0-149.333333 66.986667-149.333333 149.333334s66.986667 149.333333 149.333333 149.333333 149.333333-66.986667 149.333334-149.333333-66.986667-149.333333-149.333334-149.333334M597.333333 297.770667H218.24l-4.992-64.768c-0.085333-0.896-0.554667-1.621333-0.768-2.474667a19.968 19.968 0 0 0-1.578667-5.290667c-0.256-0.554667-0.682667-0.981333-1.024-1.536a21.76 21.76 0 0 0-4.181333-5.077333c-0.469333-0.384-0.981333-0.597333-1.450667-0.981333a20.138667 20.138667 0 0 0-5.12-2.858667c-1.408-0.554667-2.858667-0.682667-4.309333-0.896C193.834667 213.76 192.981333 213.333333 192 213.333333h-42.666667a21.333333 21.333333 0 0 0 0 42.666667h22.912l41.173334 534.997333c0.085333 1.28 0.64 2.346667 0.981333 3.584 0.298667 1.194667 0.469333 2.474667 0.981333 3.584 0.64 1.493333 1.664 2.688 2.645334 3.968 0.64 0.810667 1.109333 1.792 1.877333 2.517334 1.322667 1.237333 2.901333 2.090667 4.437333 2.986666 0.768 0.426667 1.408 1.066667 2.218667 1.408a21.248 21.248 0 0 0 8.064 1.621334h215.168a21.333333 21.333333 0 0 0 0-42.666667H254.421333l-3.242666-41.770667h198.613333a21.333333 21.333333 0 0 0 0-42.666666H247.893333l-26.368-343.125334H597.333333a171.776 171.776 0 0 1 167.338667 209.536 21.333333 21.333333 0 1 0 41.642667 9.344A213.077333 213.077333 0 0 0 811.562667 512 214.442667 214.442667 0 0 0 597.333333 297.770667" /></svg>