<?xml version="1.0" standalone="no"?><!DOCTYPE svg PUBLIC "-//W3C//DTD SVG 1.1//EN" "http://www.w3.org/Graphics/SVG/1.1/DTD/svg11.dtd"><svg class="icon" width="200px" height="200.00px" viewBox="0 0 1024 1024" version="1.1" xmlns="http://www.w3.org/2000/svg"><path fill="#333333" d="M518.357333 554.666667c90.24 0 170.453333-52.266667 204.373334-133.077334a21.504 21.504 0 0 0 1.578666-7.552A21.290667 21.290667 0 0 0 704.853333 384h-213.333333a21.333333 21.333333 0 0 0 0 42.666667h180.778667c-31.445333 52.48-89.472 85.333333-154.026667 85.333333-98.048 0-177.92-76.544-177.92-170.666667 0-34.048 10.453333-66.901333 30.208-95.061333C403.754667 198.912 459.008 170.666667 518.357333 170.666667c59.306667 0 114.56 28.245333 147.712 75.562666 6.954667 9.856 12.757333 20.352 17.322667 31.232a21.333333 21.333333 0 0 0 39.338667-16.512 209.152 209.152 0 0 0-21.76-39.253333C659.882667 163.029333 591.616 128 518.4 128c-73.258667 0-141.568 35.072-182.741333 93.781333A207.658667 207.658667 0 0 0 297.770667 341.333333c0 117.632 98.944 213.333333 220.586666 213.333334M662.229333 853.333333h-386.133333C217.941333 853.333333 170.666667 805.504 170.666667 746.666667S217.941333 640 276.096 640h341.674667a21.333333 21.333333 0 0 0 0-42.666667H276.096C194.432 597.333333 128 664.32 128 746.666667S194.432 896 276.096 896h386.133333a21.333333 21.333333 0 0 0 0-42.666667M870.229333 767.573333h-83.114666v-30.72h83.114666a21.333333 21.333333 0 1 0 0-42.666666h-83.114666v-8.362667l72.192-68.138667a21.333333 21.333333 0 1 0-29.269334-30.976l-65.92 62.208-65.92-62.208a21.333333 21.333333 0 1 0-29.269333 30.976l75.52 71.296v5.205334h-87.552a21.333333 21.333333 0 0 0 0 42.666666h87.552v30.72h-87.552a21.333333 21.333333 0 0 0 0 42.666667h87.552v60.885333a21.333333 21.333333 0 1 0 42.666667 0V810.24h83.114666a21.333333 21.333333 0 0 0 0-42.666667" /></svg>