<?xml version="1.0" standalone="no"?><!DOCTYPE svg PUBLIC "-//W3C//DTD SVG 1.1//EN" "http://www.w3.org/Graphics/SVG/1.1/DTD/svg11.dtd"><svg class="icon" width="200px" height="200.00px" viewBox="0 0 1024 1024" version="1.1" xmlns="http://www.w3.org/2000/svg"><path fill="#333333" d="M772.522667 432a21.333333 21.333333 0 0 1-21.333334-21.333333V213.845333c0-16.981333-5.418667-30.592-14.890666-37.376-9.429333-6.698667-20.522667-5.034667-28.288-2.474666L640 197.034667V279.04c0 0.256-0.128 0.426667-0.128 0.725333-0.085333 1.621333-0.554667 3.114667-0.981333 4.693334-0.298667 1.152-0.426667 2.346667-0.896 3.413333-0.597333 1.28-1.536 2.389333-2.389334 3.541333-0.768 1.024-1.408 2.133333-2.304 2.986667-0.981333 0.938667-2.176 1.536-3.285333 2.261333-1.237333 0.810667-2.389333 1.664-3.797333 2.218667-0.256 0.085333-0.426667 0.298667-0.682667 0.384l-167.125333 56.917333a20.437333 20.437333 0 0 1-17.877334-2.389333 20.778667 20.778667 0 0 1-8.832-10.453333c-0.085333-0.213333-0.298667-0.298667-0.384-0.512-0.384-1.194667-0.256-2.389333-0.469333-3.584-0.170667-1.109333-0.64-2.133333-0.64-3.285334V267.946667l-28.458667 9.642666c-30.848 10.410667-56.874667 50.773333-56.874666 88.106667v452.522667c0 16.938667 5.418667 30.592 14.890666 37.376 9.386667 6.741333 20.608 5.077333 28.330667 2.432l306.218667-103.594667c30.848-10.410667 56.874667-50.773333 56.874666-88.106667v-129.493333a21.333333 21.333333 0 0 1 42.666667 0v129.493333c0 55.765333-37.674667 112.213333-85.845333 128.512l-306.261334 103.637334a84.053333 84.053333 0 0 1-26.666666 4.565333c-14.634667 0-28.373333-4.309333-40.149334-12.8-20.821333-14.933333-32.725333-41.130667-32.725333-72.021333v-20.053334A106.581333 106.581333 0 0 1 213.333333 693.333333V234.666667C213.333333 175.786667 261.162667 128 320 128h400c2.816 0 5.418667 0.64 7.893333 1.578667 11.989333 1.152 23.338667 5.12 33.28 12.202666 20.778667 14.933333 32.682667 41.173333 32.682667 72.064v196.821334c0 11.818667-9.514667 21.333333-21.333333 21.333333zM388.096 237.226667L584.746667 170.666667H320C284.714667 170.666667 256 199.381333 256 234.666667v458.666666c0 29.098667 19.584 53.418667 46.208 61.184V365.738667c0-55.765333 37.717333-112.213333 85.888-128.512zM597.333333 263.808V211.456l-124.458666 42.112v52.608L597.333333 263.808zM405.333333 559.104c0 16.213333 10.325333 29.312 23.125334 29.312 12.757333 0 23.04-13.098667 23.04-29.312 0-16.213333-10.282667-29.312-23.04-29.312-12.8 0-23.125333 13.098667-23.125334 29.312" /></svg>