<?xml version="1.0" standalone="no"?><!DOCTYPE svg PUBLIC "-//W3C//DTD SVG 1.1//EN" "http://www.w3.org/Graphics/SVG/1.1/DTD/svg11.dtd"><svg class="icon" width="200px" height="200.00px" viewBox="0 0 1024 1024" version="1.1" xmlns="http://www.w3.org/2000/svg"><path fill="#333333" d="M748.416 257.792H533.333333v-23.125333a21.333333 21.333333 0 0 0-42.666666 0v23.125333h-213.333334a106.752 106.752 0 0 0-106.666666 106.666667v256c0 58.837333 47.829333 106.666667 106.666666 106.666666h213.333334v49.792l-138.581334 79.189334a21.418667 21.418667 0 0 0-7.978666 29.141333 21.461333 21.461333 0 0 0 29.141333 7.978667l149.333333-85.333334c0.810667-0.512 1.322667-1.28 2.048-1.834666a23.296 23.296 0 0 0 3.285334-2.816 22.528 22.528 0 0 0 2.261333-3.413334 18.218667 18.218667 0 0 0 1.749333-3.541333 19.498667 19.498667 0 0 0 0.896-4.437333c0.128-0.853333 0.512-1.621333 0.512-2.56v-62.165334h42.666667a21.333333 21.333333 0 0 0 0-42.666666h-298.666667c-35.285333 0-64-28.714667-64-64v-256c0-35.285333 28.714667-64 64-64h471.082667c35.285333 0 64 28.714667 64 64v170.666666a21.333333 21.333333 0 0 0 42.666667 0v-170.666666c0-58.88-47.829333-106.666667-106.666667-106.666667M672.426667 365.781333a21.333333 21.333333 0 0 0-29.269334 7.082667l-108.074666 177.066667-66.261334-131.114667c-0.426667-0.725333-1.066667-1.194667-1.493333-1.834667a19.456 19.456 0 0 0-5.973333-5.973333c-0.682667-0.512-1.194667-1.194667-1.962667-1.621333-0.512-0.256-1.066667-0.213333-1.621333-0.426667-1.322667-0.554667-2.645333-0.810667-4.053334-1.109333-1.322667-0.256-2.602667-0.512-3.968-0.512s-2.645333 0.256-3.968 0.512a22.314667 22.314667 0 0 0-4.096 1.109333c-0.512 0.213333-1.066667 0.213333-1.536 0.426667-0.768 0.426667-1.28 1.066667-1.92 1.493333a22.741333 22.741333 0 0 0-3.413333 2.688 24.490667 24.490667 0 0 0-2.602667 3.328c-0.426667 0.682667-1.109333 1.152-1.493333 1.92l-87.082667 172.458667a21.333333 21.333333 0 0 0 38.101334 19.242666l68.053333-134.741333 64.512 127.616c0.170667 0.426667 0.597333 0.554667 0.810667 0.896a20.906667 20.906667 0 0 0 7.125333 7.722667 21.504 21.504 0 0 0 20.736 0.853333l0.298667-0.298667c0.554667-0.298667 0.938667-0.810667 1.450666-1.152a20.48 20.48 0 0 0 5.888-5.546666c0.256-0.426667 0.682667-0.554667 0.938667-0.981334l128-209.792a21.333333 21.333333 0 0 0-7.082667-29.312M806.912 657.408l-72.021333 72.021333-22.144-22.144 71.978666-72.021333c5.461333-5.461333 14.506667-5.546667 22.186667 2.048 5.546667 5.546667 5.546667 14.592 0 20.096m-52.352-52.309333l-71.978667 72.021333-12.8-12.8a21.333333 21.333333 0 0 0-30.208 30.122667l39.466667 39.466666-90.24 90.197334a20.650667 20.650667 0 0 0-12.330667 1.365333l-0.085333 0.042667a20.693333 20.693333 0 0 0-6.272 4.181333c-0.213333 0.213333-0.512 0.298667-0.725333 0.512-0.426667 0.426667-0.64 1.066667-1.024 1.536-0.725333 0.896-1.621333 1.536-2.218667 2.56l-17.621333 31.018667c-0.426667 0.853333-0.426667 1.706667-0.853334 2.56a20.309333 20.309333 0 0 0-1.28 4.138666c-0.298667 1.365333-0.298667 2.688-0.298666 4.053334a20.48 20.48 0 0 0 0.298666 3.968 19.2 19.2 0 0 0 1.536 4.309333c0.341333 0.853333 0.426667 1.621333 0.853334 2.389333 0.128 0.298667 0.469333 0.426667 0.64 0.64a20.864 20.864 0 0 0 7.125333 7.04h0.085333a21.376 21.376 0 0 0 21.205334-0.170666h0.128l30.592-18.176a21.333333 21.333333 0 0 0 10.154666-21.504l90.496-90.453334 37.802667 37.76a21.248 21.248 0 0 0 30.165333 0 21.333333 21.333333 0 0 0 0-30.165333l-12.117333-12.117333 72.106667-72.064c22.058667-22.144 22.058667-58.154667-2.218667-82.432a56.917333 56.917333 0 0 0-80.384 0" /></svg>