<?xml version="1.0" standalone="no"?><!DOCTYPE svg PUBLIC "-//W3C//DTD SVG 1.1//EN" "http://www.w3.org/Graphics/SVG/1.1/DTD/svg11.dtd"><svg class="icon" width="200px" height="200.00px" viewBox="0 0 1024 1024" version="1.1" xmlns="http://www.w3.org/2000/svg"><path fill="#333333" d="M832 469.888a21.333333 21.333333 0 0 0 21.333333-21.333333V254.464a21.077333 21.077333 0 0 0-18.304-20.736c-1.408-0.64-2.730667-1.450667-4.309333-1.792l-314.666667-60.970667a19.328 19.328 0 0 0-6.272 0.042667 19.712 19.712 0 0 0-7.253333 0l-309.333333 60.928c-1.578667 0.341333-2.858667 1.194667-4.266667 1.792A21.034667 21.034667 0 0 0 170.666667 254.464v286.165333c0 1.450667 0.554667 2.730667 0.810666 4.096 8.661333 175.573333 173.781333 287.744 337.408 308.309334a18.944 18.944 0 0 0 2.688 0.170666h0.853334a18.944 18.944 0 0 0 2.688-0.170666c140.757333-17.664 305.322667-110.592 333.866666-272.810667a21.333333 21.333333 0 1 0-41.984-7.381333c-24.704 140.074667-169.770667 221.056-294.954666 237.525333C363.221333 790.869333 213.333333 688.853333 213.333333 530.474667v-258.986667l296.064-58.368L810.666667 271.488v177.066667a21.333333 21.333333 0 0 0 21.333333 21.333333M382.208 299.221333a21.333333 21.333333 0 0 0-21.333333 21.333334v87.466666c0 81.664 66.986667 148.096 149.333333 148.096s149.333333-66.432 149.333333-148.053333v-87.466667a21.333333 21.333333 0 0 0-42.666666 0v87.466667c0 58.112-47.829333 105.386667-106.666667 105.386667s-106.666667-47.274667-106.666667-105.386667v-87.466667a21.333333 21.333333 0 0 0-21.333333-21.333333" /></svg>