<?xml version="1.0" standalone="no"?><!DOCTYPE svg PUBLIC "-//W3C//DTD SVG 1.1//EN" "http://www.w3.org/Graphics/SVG/1.1/DTD/svg11.dtd"><svg class="icon" width="200px" height="200.00px" viewBox="0 0 1024 1024" version="1.1" xmlns="http://www.w3.org/2000/svg"><path fill="#333333" d="M579.114667 810.666667a21.333333 21.333333 0 1 1 0 42.666666H263.210667A92.629333 92.629333 0 0 1 170.666667 760.832V263.210667C170.666667 212.181333 212.181333 170.666667 263.210667 170.666667h497.578666C811.818667 170.666667 853.333333 212.181333 853.333333 263.210667v269.696a21.333333 21.333333 0 1 1-42.666666 0V263.210667A49.92 49.92 0 0 0 760.789333 213.333333h-78.592v63.573334c0 11.818667-9.514667 21.333333-21.333333 21.333333h-298.666667a21.333333 21.333333 0 0 1-21.333333-21.333333V213.333333h-77.653333A49.92 49.92 0 0 0 213.333333 263.210667v497.621333A49.92 49.92 0 0 0 263.210667 810.666667h315.904zM383.530667 255.573333h256V213.333333h-256v42.24zM659.797333 379.989333a21.333333 21.333333 0 0 0-21.333333 21.333334v36.138666a174.933333 174.933333 0 0 0-126.549333-53.76 174.762667 174.762667 0 0 0-167.68 123.349334 21.333333 21.333333 0 1 0 40.746666 12.629333 132.266667 132.266667 0 0 1 126.933334-93.312c58.453333 0 109.525333 37.461333 126.933333 93.184a21.034667 21.034667 0 0 0 5.802667 8.874667l0.341333 0.256c1.706667 1.621333 3.669333 2.986667 5.845333 3.925333 0.981333 0.469333 2.090667 0.64 3.157334 0.938667 1.365333 0.426667 2.688 0.768 4.096 0.853333 0.597333 0.042667 1.109333 0.341333 1.706666 0.341333 2.048 0 3.925333-0.64 5.802667-1.152a21.077333 21.077333 0 0 0 15.530667-20.181333V401.322667a21.333333 21.333333 0 0 0-21.333334-21.333334M792.448 810.24h-119.466667a21.333333 21.333333 0 0 0 0 42.666667h119.466667a21.333333 21.333333 0 0 0 0-42.666667M730.922667 626.773333a34.133333 34.133333 0 1 0 0 68.266667 34.133333 34.133333 0 0 0 0-68.266667M730.88 759.04a81.152 81.152 0 0 1-80.981333-81.066667c0-44.672 36.352-81.066667 81.024-81.066666a80.981333 80.981333 0 0 1 81.066666 81.066666c0 44.672-36.352 81.066667-81.066666 81.066667m119.850666-112.042667a123.733333 123.733333 0 0 0-119.893333-92.757333c-58.026667 0-106.496 40.32-119.765333 94.336-0.597333 0.512-1.322667 0.768-1.877334 1.322667a131.456 131.456 0 0 1-97.322666 42.410666A133.546667 133.546667 0 0 1 384 595.84a21.034667 21.034667 0 0 0-20.053333-15.232c-0.554667-0.042667-1.109333-0.341333-1.749334-0.341333a21.333333 21.333333 0 0 0-21.333333 21.333333v112.042667a21.333333 21.333333 0 0 0 42.666667 0v-34.944a175.957333 175.957333 0 0 0 128.384 56.277333c35.242667 0 69.461333-11.050667 98.304-30.506667a123.861333 123.861333 0 0 0 120.704 97.237334 123.861333 123.861333 0 0 0 119.850666-154.709334" /></svg>