<?xml version="1.0" standalone="no"?><!DOCTYPE svg PUBLIC "-//W3C//DTD SVG 1.1//EN" "http://www.w3.org/Graphics/SVG/1.1/DTD/svg11.dtd"><svg class="icon" width="200px" height="200.00px" viewBox="0 0 1024 1024" version="1.1" xmlns="http://www.w3.org/2000/svg"><path fill="#333333" d="M517.632 552.149333c80.64 0 152.277333-46.677333 182.613333-118.954666a21.333333 21.333333 0 0 0-39.338666-16.512c-23.594667 56.362667-79.914667 92.8-143.274667 92.8-77.568 0-141.354667-55.253333-152.234667-126.72h183.466667a21.290667 21.290667 0 1 0 0-42.666667H364.757333c3.285333-21.845333 11.52-42.666667 24.490667-61.141333C418.048 237.866667 466.048 213.333333 517.632 213.333333c51.541333 0 99.498667 24.490667 128.256 65.536 5.973333 8.576 11.050667 17.706667 15.018667 27.178667a21.333333 21.333333 0 0 0 39.338666-16.597333 189.44 189.44 0 0 0-19.413333-35.072C644.096 201.941333 583.04 170.666667 517.632 170.666667c-65.493333 0-126.549333 31.317333-163.285333 83.84A185.258667 185.258667 0 0 0 320.426667 361.386667c0 105.216 88.448 190.762667 197.12 190.762666M537.770667 810.666667H303.872C253.952 810.666667 213.333333 769.578667 213.333333 719.061333c0-50.517333 40.618667-91.605333 90.538667-91.605333h233.898667a21.333333 21.333333 0 0 0 0-42.666667H303.872C230.4 584.789333 170.666667 645.034667 170.666667 719.061333 170.666667 793.088 230.4 853.333333 303.786667 853.333333h233.984a21.333333 21.333333 0 0 0 0-42.666666M708.437333 657.792a64 64 0 1 0 0.042667 128 64 64 0 0 0 0-128M708.437333 828.416a106.794667 106.794667 0 0 1-106.666666-106.666667c0-58.794667 47.829333-106.666667 106.666666-106.666666 58.88 0 106.666667 47.872 106.666667 106.666666S767.317333 828.416 708.437333 828.416m0-256c-82.346667 0-149.333333 66.986667-149.333333 149.333333S626.090667 871.082667 708.437333 871.082667s149.333333-66.986667 149.333334-149.333334S790.784 572.416 708.437333 572.416" /></svg>