<?xml version="1.0" standalone="no"?><!DOCTYPE svg PUBLIC "-//W3C//DTD SVG 1.1//EN" "http://www.w3.org/Graphics/SVG/1.1/DTD/svg11.dtd"><svg class="icon" width="200px" height="200.00px" viewBox="0 0 1024 1024" version="1.1" xmlns="http://www.w3.org/2000/svg"><path fill="#333333" d="M373.333333 832a32 32 0 1 0 0 64 32 32 0 0 0 0-64M704 682.666667a64 64 0 1 0 0.042667 128.042666A64 64 0 0 0 704 682.666667M704 853.333333a106.794667 106.794667 0 0 1-106.666667-106.666666c0-58.794667 47.829333-106.666667 106.666667-106.666667s106.666667 47.872 106.666667 106.666667-47.829333 106.666667-106.666667 106.666666m0-256c-82.346667 0-149.333333 66.986667-149.333333 149.333334s66.986667 149.333333 149.333333 149.333333 149.333333-66.986667 149.333333-149.333333-66.986667-149.333333-149.333333-149.333334M490.666667 726.229333a21.333333 21.333333 0 0 0 0-42.666666H290.56l-26.368-343.125334h374.016a171.733333 171.733333 0 0 1 167.338667 209.536 21.333333 21.333333 0 1 0 41.642666 9.344A213.077333 213.077333 0 0 0 852.437333 512a214.442667 214.442667 0 0 0-214.229333-214.229333H260.906667l-4.992-64.768c-0.085333-0.896-0.554667-1.621333-0.768-2.474667a20.48 20.48 0 0 0-1.578667-5.290667c-0.256-0.554667-0.682667-0.981333-1.024-1.536a21.76 21.76 0 0 0-4.181333-5.077333c-0.469333-0.384-0.981333-0.597333-1.450667-0.981333a21.546667 21.546667 0 0 0-5.12-2.858667c-1.408-0.554667-2.858667-0.682667-4.309333-0.896C236.501333 213.76 235.648 213.333333 234.666667 213.333333h-42.666667a21.333333 21.333333 0 0 0 0 42.666667h22.912l41.173333 534.997333c0.085333 1.28 0.64 2.346667 0.981334 3.584 0.298667 1.194667 0.469333 2.474667 0.981333 3.584 0.64 1.493333 1.664 2.688 2.645333 3.968 0.64 0.810667 1.109333 1.792 1.877334 2.517334 1.322667 1.237333 2.901333 2.090667 4.437333 2.986666 0.768 0.426667 1.408 1.066667 2.218667 1.408a21.248 21.248 0 0 0 8.064 1.621334H490.666667a21.333333 21.333333 0 0 0 0-42.666667H297.088l-3.242667-41.770667H490.666667z" /></svg>