<?xml version="1.0" standalone="no"?><!DOCTYPE svg PUBLIC "-//W3C//DTD SVG 1.1//EN" "http://www.w3.org/Graphics/SVG/1.1/DTD/svg11.dtd"><svg class="icon" width="200px" height="200.00px" viewBox="0 0 1024 1024" version="1.1" xmlns="http://www.w3.org/2000/svg"><path fill="#333333" d="M538.443947 597.034667H295.798613L226.891947 256.469333H715.638613l-53.162666 163.669334c-0.213333 0.64-0.085333 1.28-0.213334 1.962666a21.205333 21.205333 0 0 0 2.858667 16.042667c0.426667 0.554667 0.469333 1.28 0.896 1.749333l85.333333 108.458667a21.333333 21.333333 0 1 0 33.493334-26.410667l-78.250667-99.498666 58.666667-180.736c0.426667-1.109333 0.213333-2.133333 0.426666-3.285334 0.128-1.109333 0.64-2.133333 0.64-3.285333 0-0.341333-0.170667-0.597333-0.213333-0.938667 0-1.493333-0.426667-2.901333-0.853333-4.352-0.341333-1.237333-0.512-2.56-1.066667-3.712-0.554667-1.194667-1.450667-2.218667-2.218667-3.285333-0.810667-1.152-1.536-2.304-2.56-3.242667-0.853333-0.853333-2.048-1.408-3.114666-2.133333-1.28-0.810667-2.474667-1.664-3.925334-2.218667-0.298667-0.085333-0.512-0.341333-0.810666-0.426666-1.109333-0.384-2.261333-0.213333-3.370667-0.384-1.109333-0.170667-2.090667-0.64-3.2-0.64H218.27328L213.02528 187.861333a21.333333 21.333333 0 1 0-41.813333 8.405334l129.749333 641.792a21.290667 21.290667 0 1 0 41.813333-8.405334l-38.4-189.866666h234.069334a21.333333 21.333333 0 0 0 0-42.666667M789.451947 810.666667h-119.466667a21.333333 21.333333 0 0 0 0 42.666666h119.466667a21.333333 21.333333 0 0 0 0-42.666666M727.926613 627.2a34.133333 34.133333 0 1 0 0 68.266667 34.133333 34.133333 0 0 0 0-68.266667M727.926613 759.466667a81.152 81.152 0 0 1-81.066666-80.981334c0-44.714667 36.394667-81.109333 81.066666-81.109333a80.981333 80.981333 0 0 1 81.066667 81.066667 81.152 81.152 0 0 1-81.066667 81.066666m119.850667-112.042666a123.733333 123.733333 0 1 0-239.573333 61.909333 123.733333 123.733333 0 0 0 239.573333-61.909333" /></svg>