<?xml version="1.0" standalone="no"?><!DOCTYPE svg PUBLIC "-//W3C//DTD SVG 1.1//EN" "http://www.w3.org/Graphics/SVG/1.1/DTD/svg11.dtd"><svg class="icon" width="200px" height="200.00px" viewBox="0 0 1024 1024" version="1.1" xmlns="http://www.w3.org/2000/svg"><path fill="#333333" d="M796.458667 453.333333c-24.533333 0-45.482667 15.061333-54.272 36.437334h-79.061334a21.333333 21.333333 0 0 0-21.333333 21.333333l0.085333 0.469333-0.085333 0.426667c0 70.570667-57.429333 128-128 128s-128-57.429333-128-128 57.429333-128 128-128c29.397333 0 58.026667 10.197333 80.810667 28.757333a21.418667 21.418667 0 0 0 30.037333-3.029333 21.418667 21.418667 0 0 0-3.072-30.08A171.136 171.136 0 0 0 513.792 341.333333c-40.704 0-77.653333 14.933333-107.008 38.826667L328.021333 301.397333C336.341333 288.213333 341.333333 272.725333 341.333333 256a85.333333 85.333333 0 1 0-85.333333 85.333333c14.890667 0 28.586667-4.138667 40.789333-10.837333l80.341334 80.341333A168.96 168.96 0 0 0 343.125333 512c0 40.277333 14.592 76.842667 37.973334 106.026667l-78.549334 78.592A84.906667 84.906667 0 0 0 256 682.666667a85.333333 85.333333 0 1 0 85.333333 85.333333c0-14.378667-3.882667-27.733333-10.24-39.637333l80.554667-80.512A168.96 168.96 0 0 0 513.792 682.666667c87.125333 0 158.293333-65.792 168.618667-150.229334h59.264A58.538667 58.538667 0 0 0 855.125333 512c0-32.384-26.282667-58.666667-58.666666-58.666667" /></svg>