<?xml version="1.0" standalone="no"?><!DOCTYPE svg PUBLIC "-//W3C//DTD SVG 1.1//EN" "http://www.w3.org/Graphics/SVG/1.1/DTD/svg11.dtd"><svg class="icon" width="200px" height="200.00px" viewBox="0 0 1024 1024" version="1.1" xmlns="http://www.w3.org/2000/svg"><path fill="#333333" d="M494.208 853.333333H319.445333C284.458667 853.333333 256 824.917333 256 789.973333V234.026667C256 199.082667 284.458667 170.666667 319.445333 170.666667h385.109334C739.541333 170.666667 768 199.082667 768 234.026667v257.536a21.333333 21.333333 0 1 0 42.666667 0V234.026667A106.24 106.24 0 0 0 704.554667 128H319.445333A106.24 106.24 0 0 0 213.333333 234.026667v555.946666A106.24 106.24 0 0 0 319.445333 896h174.762667a21.333333 21.333333 0 0 0 0-42.666667M585.813333 312.021333a34.645333 34.645333 0 1 0 69.248 0 34.645333 34.645333 0 0 0-69.290666 0M705.792 681.813333a64 64 0 1 0 0 128 64 64 0 0 0 0-128M705.792 852.48a106.752 106.752 0 0 1-106.666667-106.666667c0-58.88 47.829333-106.666667 106.666667-106.666666s106.666667 47.786667 106.666667 106.666666c0 58.837333-47.829333 106.666667-106.666667 106.666667z m-254.421333-305.066667c33.28-86.442667 50.432-130.730667 51.541333-132.992l9.984-29.866666h1.664c0 2.218667 2.730667 9.984 8.32 23.253333 1.066667 3.285333 1.664 5.546667 1.664 6.613333 1.066667 2.261333 18.261333 46.549333 51.498667 132.992h-124.672z m254.421333 49.066667c-19.242667 0-37.461333 3.925333-54.357333 10.581333L544.469333 339.626667H482.986667l-136.32 340.778666H403.2l34.901333-91.392h151.253334l17.493333 45.824a148.394667 148.394667 0 0 0-50.389333 110.933334c0 82.346667 66.986667 149.333333 149.333333 149.333333s149.333333-66.986667 149.333333-149.333333-66.986667-149.333333-149.333333-149.333334z" /></svg>