<?xml version="1.0" standalone="no"?><!DOCTYPE svg PUBLIC "-//W3C//DTD SVG 1.1//EN" "http://www.w3.org/Graphics/SVG/1.1/DTD/svg11.dtd"><svg class="icon" width="200px" height="200.00px" viewBox="0 0 1024 1024" version="1.1" xmlns="http://www.w3.org/2000/svg"><path fill="#333333" d="M267.477333 664.661333c-12.8 12.288-32.64 20.309333-59.562666 20.309334-26.026667 0-45.866667-7.082667-59.093334-20.309334C133.248 649.045333 128 629.674667 128 593.706667h40.704c0 22.186667 2.346667 34.474667 11.306667 43.946666 5.674667 6.144 15.146667 10.410667 27.904 10.410667 13.653333 0 22.698667-4.266667 28.8-10.88 8.96-9.941333 10.88-22.698667 10.88-44.885333 0-38.826667-5.674667-50.602667-33.066667-61.909334L176.213333 514.773333C141.738667 500.608 130.389333 481.749333 130.389333 430.677333c0-29.312 8.490667-53.376 25.557334-69.034666 13.184-12.288 31.146667-19.370667 53.333333-19.370667 24.618667 0 43.093333 7.082667 55.808 19.370667 17.024 16.554667 22.186667 38.314667 22.186667 69.034666h-40.576c0-17.962667-1.92-30.293333-10.410667-40.661333-5.674667-7.082667-14.677333-11.306667-27.434667-11.306667-11.776 0-20.352 4.224-26.026666 10.368-8.021333 8.96-11.776 22.698667-11.776 40.106667 0 33.152 5.12 43.093333 32.128 54.442667l37.802666 15.573333c38.272 15.616 47.274667 39.253333 47.274667 92.16 0 34.986667-4.736 57.173333-20.778667 73.301333M406.442667 376.32c-20.352 0-29.781333 17.493333-29.781334 35.925333 0 16.512 7.552 31.658667 28.373334 60.501334 19.84-20.352 31.189333-35.413333 31.189333-62.890667 0-19.84-12.288-33.536-29.781333-33.536z m-7.594667 152.192c-25.045333 25.045333-36.352 46.293333-36.352 69.973333 0 29.312 16.512 51.968 43.52 51.968 19.797333 0 35.413333-13.226667 50.517333-33.536l-57.685333-88.405333z m99.754667 153.173333l-22.698667-34.517333c-19.84 23.168-39.210667 38.272-73.258667 38.272-43.434667 0-77.056-31.146667-77.056-83.626667 0-39.68 17.962667-69.546667 54.4-104.021333-26.965333-37.333333-38.784-56.704-38.784-84.608 0-43.050667 25.514667-71.381333 64.768-71.381333 43.989333 0 65.706667 28.842667 65.706667 67.157333 0 39.68-15.616 63.786667-47.274667 94.464l51.498667 78.08c9.472-18.005333 16.085333-46.378667 18.005333-70.954667h34.005334c-2.346667 38.272-14.165333 77.525333-30.72 104.533334l42.538666 66.56h-41.130666zM673.066667 390.485333c-5.674667-7.552-14.208-12.8-27.434667-12.8s-21.717333 5.248-27.392 12.8c-11.818667 16.085333-14.208 43.050667-14.208 122.88 0 79.914667 2.389333 106.837333 14.208 122.88 5.674667 7.552 14.165333 12.8 27.392 12.8s21.76-5.248 27.434667-12.8c11.776-16.042667 14.165333-42.965333 14.165333-122.88 0-79.829333-2.389333-106.794667-14.165333-122.88m30.72 270.848C691.029333 675.541333 672.554667 685.44 645.632 685.44c-26.88 0-44.885333-9.898667-57.6-24.106667C564.778667 635.818667 563.370667 597.546667 563.370667 513.408c0-84.181333 1.408-122.453333 24.576-147.968 12.8-14.165333 30.72-24.106667 57.642666-24.106667s45.397333 9.941333 58.154667 24.106667c23.168 25.557333 24.106667 63.786667 24.106667 147.968 0 84.138667-0.938667 122.410667-24.106667 147.925333M856.96 381.525333h-35.925333v123.818667h35.925333c31.189333 0 38.272-25.045333 38.272-61.866667 0-36.906667-7.082667-61.952-38.272-61.952m-0.896 160.213334h-35.029333v139.946666h-40.618667V345.045333h75.648c51.029333 0 79.872 23.168 79.872 97.834667 0 69.546667-24.149333 98.816-79.872 98.816" /></svg>