<?xml version="1.0" standalone="no"?><!DOCTYPE svg PUBLIC "-//W3C//DTD SVG 1.1//EN" "http://www.w3.org/Graphics/SVG/1.1/DTD/svg11.dtd"><svg class="icon" width="200px" height="200.00px" viewBox="0 0 1024 1024" version="1.1" xmlns="http://www.w3.org/2000/svg"><path fill="#333333" d="M760.789333 170.666667C811.818667 170.666667 853.333333 212.181333 853.333333 263.168v230.570667a21.333333 21.333333 0 1 1-42.666666 0V263.168A49.92 49.92 0 0 0 760.789333 213.333333h-78.592v63.530667c0 11.818667-9.514667 21.333333-21.333333 21.333333h-298.666667a21.333333 21.333333 0 0 1-21.333333-21.333333V213.333333H263.168A49.92 49.92 0 0 0 213.333333 263.168v497.621333A49.92 49.92 0 0 0 263.168 810.666667h227.029333a21.333333 21.333333 0 1 1 0 42.666666H263.168A92.629333 92.629333 0 0 1 170.666667 760.789333V263.168C170.666667 212.181333 212.181333 170.666667 263.168 170.666667h497.621333zM383.530667 255.530667h256V213.333333h-256v42.197334zM628.608 477.397333a115.584 115.584 0 0 0-115.413333-115.413333 115.584 115.584 0 0 0-115.456 115.413333 21.333333 21.333333 0 0 0 42.666666 0c0-40.106667 32.64-72.746667 72.789334-72.746666 40.106667 0 72.746667 32.64 72.746666 72.746666 0 40.106667-32.64 72.789333-72.746666 72.789334a21.333333 21.333333 0 0 0-21.333334 21.333333c0 0.682667 0.341333 1.28 0.426667 1.92-0.085333 0.682667-0.426667 1.28-0.426667 1.962667v77.269333a21.333333 21.333333 0 1 0 42.666667 0v-61.994667a115.541333 115.541333 0 0 0 94.08-113.28M513.194667 679.04a21.333333 21.333333 0 0 0-21.333334 21.333333v24.490667a21.333333 21.333333 0 1 0 42.666667 0v-24.490667a21.333333 21.333333 0 0 0-21.333333-21.333333M703.573333 639.573333a64 64 0 1 0 0 128 64 64 0 0 0 0-128M703.573333 810.24a106.752 106.752 0 0 1-106.666666-106.666667c0-58.88 47.786667-106.666667 106.666666-106.666666 58.794667 0 106.666667 47.786667 106.666667 106.666666 0 58.794667-47.872 106.666667-106.666667 106.666667m0-256c-82.346667 0-149.333333 66.986667-149.333333 149.333333s66.986667 149.333333 149.333333 149.333334 149.333333-66.986667 149.333334-149.333334-66.986667-149.333333-149.333334-149.333333" /></svg>