<?xml version="1.0" standalone="no"?><!DOCTYPE svg PUBLIC "-//W3C//DTD SVG 1.1//EN" "http://www.w3.org/Graphics/SVG/1.1/DTD/svg11.dtd"><svg class="icon" width="200px" height="200.00px" viewBox="0 0 1024 1024" version="1.1" xmlns="http://www.w3.org/2000/svg"><path fill="#333333" d="M489.728 839.424A310.357333 310.357333 0 0 1 215.253333 615.68 20.949333 20.949333 0 0 0 194.688 600.576C193.749333 600.448 192.938667 599.978667 192 599.978667a21.333333 21.333333 0 0 0-21.333333 21.333333V861.610667a21.333333 21.333333 0 0 0 42.666666 0V714.410667C271.573333 809.130667 372.394667 873.557333 486.570667 882.048a21.333333 21.333333 0 0 0 3.157333-42.581333M808.448 438.229333c2.005333 6.4 6.826667 10.922667 12.629333 13.226667 1.066667 0.512 2.218667 0.682667 3.328 1.024 1.024 0.213333 2.005333 0.512 3.029334 0.597333 0.896 0.128 1.706667 0.512 2.645333 0.512a21.333333 21.333333 0 0 0 21.333333-21.333333v-240.213333a21.333333 21.333333 0 1 0-42.666666 0v148.778666a349.952 349.952 0 0 0-295.765334-162.261333A350.677333 350.677333 0 0 0 176.64 425.898667a21.333333 21.333333 0 0 0 40.746667 12.672 308.181333 308.181333 0 0 1 295.594666-217.344 308.138667 308.138667 0 0 1 295.466667 217.002666M705.024 656.981333a64 64 0 1 0 0.042667 128.042667 64 64 0 0 0 0-128M705.024 827.648a106.752 106.752 0 0 1-106.666667-106.666667c0-58.837333 47.829333-106.666667 106.666667-106.666666 58.88 0 106.666667 47.829333 106.666667 106.666666 0 58.88-47.786667 106.666667-106.666667 106.666667m0-256c-82.346667 0-149.333333 66.986667-149.333333 149.333333s66.986667 149.333333 149.333333 149.333334 149.333333-66.986667 149.333333-149.333334-66.986667-149.333333-149.333333-149.333333" /></svg>