<?xml version="1.0" standalone="no"?><!DOCTYPE svg PUBLIC "-//W3C//DTD SVG 1.1//EN" "http://www.w3.org/Graphics/SVG/1.1/DTD/svg11.dtd"><svg class="icon" width="200px" height="200.00px" viewBox="0 0 1024 1024" version="1.1" xmlns="http://www.w3.org/2000/svg"><path fill="#333333" d="M626.572373 406.272l-86.016 86.016H343.137707a21.333333 21.333333 0 0 0 0 42.666667h202.666666a20.778667 20.778667 0 0 0 9.728-2.602667 20.906667 20.906667 0 0 0 10.666667-5.418667l90.538667-90.496a21.333333 21.333333 0 0 0-30.165334-30.165333M705.804373 641.621333a64 64 0 1 0 0.042667 128.042667 64 64 0 0 0 0-128.042667M705.804373 812.288a106.794667 106.794667 0 0 1-106.666666-106.666667c0-58.794667 47.829333-106.666667 106.666666-106.666666 58.88 0 106.666667 47.872 106.666667 106.666666S764.684373 812.288 705.804373 812.288m0-256a148.309333 148.309333 0 0 0-113.877333 53.930667l-26.026667-24.789334a20.736 20.736 0 0 0-10.410666-5.034666 20.778667 20.778667 0 0 0-9.685334-2.602667h-202.666666a21.333333 21.333333 0 0 0 0 42.666667h197.589333l27.861333 26.453333A148.053333 148.053333 0 0 0 556.47104 705.621333c0 82.346667 66.986667 149.333333 149.333333 149.333334s149.333333-66.986667 149.333334-149.333334-66.986667-149.333333-149.333334-149.333333M492.47104 811.306667H273.761707a57.472 57.472 0 0 1-57.557334-57.173334V434.176L490.67904 176.64l326.741333 306.688a21.290667 21.290667 0 0 0 30.122667-0.981333 21.290667 21.290667 0 0 0-0.938667-30.165334L507.19104 133.589333a21.077333 21.077333 0 0 0-16.469333-5.504 21.205333 21.205333 0 0 0-16.512 5.546667L134.753707 452.181333a21.290667 21.290667 0 0 0 14.592 36.906667 21.290667 21.290667 0 0 0 14.592-5.76l9.6-9.045333v279.808a100.181333 100.181333 0 0 0 100.266666 99.882666h218.666667a21.333333 21.333333 0 0 0 0-42.666666" /></svg>