<?xml version="1.0" standalone="no"?><!DOCTYPE svg PUBLIC "-//W3C//DTD SVG 1.1//EN" "http://www.w3.org/Graphics/SVG/1.1/DTD/svg11.dtd"><svg class="icon" width="200px" height="200.00px" viewBox="0 0 1024 1024" version="1.1" xmlns="http://www.w3.org/2000/svg"><path fill="#333333" d="M405.333333 213.333333h426.666667a21.333333 21.333333 0 0 0 0-42.666666h-426.666667a21.333333 21.333333 0 0 0 0 42.666666M277.333333 170.666667h-85.333333a21.333333 21.333333 0 0 0 0 42.666666h85.333333a21.333333 21.333333 0 0 0 0-42.666666M832 490.666667h-426.666667a21.333333 21.333333 0 0 0 0 42.666666h426.666667a21.333333 21.333333 0 0 0 0-42.666666M277.333333 490.666667h-85.333333a21.333333 21.333333 0 0 0 0 42.666666h85.333333a21.333333 21.333333 0 0 0 0-42.666666M488.874667 810.666667H405.333333a21.333333 21.333333 0 0 0 0 42.666666h83.541334a21.333333 21.333333 0 0 0 0-42.666666M277.333333 810.666667h-85.333333a21.333333 21.333333 0 0 0 0 42.666666h85.333333a21.333333 21.333333 0 0 0 0-42.666666M704 640a64 64 0 1 0 0 128.042667 64 64 0 0 0 0-128.042667M704 810.666667a106.752 106.752 0 0 1-106.666667-106.666667c0-58.837333 47.829333-106.666667 106.666667-106.666667s106.666667 47.829333 106.666667 106.666667-47.829333 106.666667-106.666667 106.666667m0-256c-82.346667 0-149.333333 66.986667-149.333333 149.333333s66.986667 149.333333 149.333333 149.333333 149.333333-66.986667 149.333333-149.333333-66.986667-149.333333-149.333333-149.333333" /></svg>