<?xml version="1.0" standalone="no"?><!DOCTYPE svg PUBLIC "-//W3C//DTD SVG 1.1//EN" "http://www.w3.org/Graphics/SVG/1.1/DTD/svg11.dtd"><svg class="icon" width="200px" height="200.00px" viewBox="0 0 1024 1024" version="1.1" xmlns="http://www.w3.org/2000/svg"><path fill="#333333" d="M417.24032 673.194667h225.962667c34.432 0 62.421333-27.904 62.421333-62.250667v-30.634667a21.333333 21.333333 0 0 0-42.666667 0v30.634667a19.712 19.712 0 0 1-19.754666 19.584H417.24032a19.712 19.712 0 0 1-19.754667-19.584v-162.176l132.736-124.544 163.2 153.130667a21.290667 21.290667 0 0 0 29.141334-31.061334l-176.768-165.930666a21.248 21.248 0 0 0-15.573334-5.717334 21.12 21.12 0 0 0-15.573333 5.717334L337.88032 446.293333a21.248 21.248 0 0 0 14.549333 36.864c0.853333 0 1.578667-0.341333 2.389334-0.426666v128.213333c0 34.346667 27.989333 62.250667 62.421333 62.250667M623.789653 139.818667C430.893653 89.344 233.090987 205.098667 182.573653 397.909333a359.424 359.424 0 0 0 8.533334 210.986667A361.216 361.216 0 0 0 532.269653 850.858667a361.429333 361.429333 0 0 0 229.504-82.645334l-12.117333 46.165334a20.224 20.224 0 0 0 19.498667 25.258666c8.96 0 17.152-5.973333 19.498666-15.018666l30.08-114.901334a19.626667 19.626667 0 0 0-0.298666-10.197333 20.010667 20.010667 0 0 0-35.456-9.429333 321.408 321.408 0 0 1-332.117334 109.994666 320.896 320.896 0 0 1-229.290666-391.978666C266.45632 236.8 442.285653 133.845333 613.549653 178.816a320.298667 320.298667 0 0 1 239.36 320.938667H508.930987a21.290667 21.290667 0 1 0 0 42.666666h359.978666a21.077333 21.077333 0 0 0 20.010667-14.848 20.565333 20.565333 0 0 0 3.626667-9.685333 360.789333 360.789333 0 0 0-268.8-378.069333" /></svg>