<?xml version="1.0" standalone="no"?><!DOCTYPE svg PUBLIC "-//W3C//DTD SVG 1.1//EN" "http://www.w3.org/Graphics/SVG/1.1/DTD/svg11.dtd"><svg class="icon" width="200px" height="200.00px" viewBox="0 0 1024 1024" version="1.1" xmlns="http://www.w3.org/2000/svg"><path fill="#333333" d="M827.997013 713.642667H247.17568c-43.050667 0-78.08-36.949333-78.08-82.389334s35.029333-82.432 78.08-82.432H737.92768c65.322667 0 118.485333-56.106667 118.485333-125.056C856.413013 354.773333 803.250347 298.666667 737.885013 298.666667H148.23168A20.778667 20.778667 0 0 0 128.00768 320c0 11.818667 9.045333 21.333333 20.224 21.333333h589.653333c43.093333 0 78.08 36.992 78.08 82.432s-34.986667 82.346667-78.08 82.346667H247.17568c-65.28 0-118.485333 56.149333-118.485333 125.141333 0 68.949333 53.162667 125.013333 118.485333 125.013334h580.821333a20.821333 20.821333 0 0 0 20.224-21.333334c0-11.733333-9.088-21.333333-20.224-21.333333" /></svg>