<?xml version="1.0" standalone="no"?><!DOCTYPE svg PUBLIC "-//W3C//DTD SVG 1.1//EN" "http://www.w3.org/Graphics/SVG/1.1/DTD/svg11.dtd"><svg class="icon" width="200px" height="200.00px" viewBox="0 0 1024 1024" version="1.1" xmlns="http://www.w3.org/2000/svg"><path fill="#333333" d="M373.344888 789.352887a31.997334 31.997334 0 1 0 0 63.994667 31.997334 31.997334 0 0 0 0-63.994667M362.67911 448.047996a21.331556 21.331556 0 0 0 0 42.663111h42.663111a21.331556 21.331556 0 0 0 0-42.663111h-42.663111zM535.123406 448.047996h-42.663111a21.331556 21.331556 0 0 0 0 42.663111h42.663111a21.331556 21.331556 0 0 0 0-42.663111M620.449629 448.047996a21.331556 21.331556 0 0 0 0 42.663111h42.663112a21.331556 21.331556 0 0 0 0-42.663111h-42.663112zM705.775852 640.031997a63.994667 63.994667 0 1 0 0.042663 128.031998A63.994667 63.994667 0 0 0 705.775852 640.031997M705.775852 810.684443a106.785768 106.785768 0 0 1-106.657779-106.657779c0-58.789768 47.825348-106.657779 106.657779-106.657778s106.657779 47.868011 106.657779 106.657778-47.825348 106.657779-106.657779 106.657779m0-255.978668c-82.339805 0-149.32089 66.981085-149.32089 149.320889s66.981085 149.32089 149.32089 149.32089 149.32089-66.981085 149.32089-149.32089-66.981085-149.32089-149.32089-149.320889M493.782851 684.444296a21.331556 21.331556 0 0 0 0-42.663111h-203.07641L264.212649 298.727106h377.056579a171.719023 171.719023 0 0 1 167.324723 209.603866 21.331556 21.331556 0 1 0 41.639196 9.300559 211.523706 211.523706 0 0 0 5.247563-47.356054A214.467461 214.467461 0 0 0 641.354554 256.063995H260.927589L255.936005 190.448129C255.850679 189.509541 255.338722 188.741605 255.168069 187.888343A21.374219 21.374219 0 0 0 253.589534 182.683443C253.290892 182.086159 252.864261 181.616865 252.522956 181.062245a19.795684 19.795684 0 0 0-4.138321-4.991584c-0.426631-0.426631-0.981252-0.639947-1.450546-0.981252a21.715524 21.715524 0 0 0-5.119574-2.901091C240.36397 171.591034 238.956087 171.505708 237.548204 171.335055 236.481627 171.164403 235.628364 170.652446 234.689776 170.652446h-42.663112a21.331556 21.331556 0 1 0 0 42.663111h22.910091l41.169903 534.995417c0.085326 1.279893 0.639947 2.389134 0.938588 3.583701 0.341305 1.23723 0.469294 2.47446 0.981252 3.626365 0.68261 1.450546 1.706524 2.645113 2.687776 3.882343 0.639947 0.853262 1.109241 1.834514 1.877177 2.559787 1.279893 1.279893 2.858428 2.133156 4.436963 2.986418 0.767936 0.426631 1.407883 1.023915 2.218482 1.365219A21.075577 21.075577 0 0 0 277.352887 768.021332h215.107408a21.331556 21.331556 0 1 0 0-42.663112h-195.39705l-3.114407-40.871261h199.834013z" /></svg>