<?xml version="1.0" standalone="no"?><!DOCTYPE svg PUBLIC "-//W3C//DTD SVG 1.1//EN" "http://www.w3.org/Graphics/SVG/1.1/DTD/svg11.dtd"><svg class="icon" width="200px" height="200.00px" viewBox="0 0 1024 1024" version="1.1" xmlns="http://www.w3.org/2000/svg"><path fill="#333333" d="M760.832 170.666667C811.818667 170.666667 853.333333 212.181333 853.333333 263.168v225.237333a21.333333 21.333333 0 1 1-42.666666 0V263.168A49.92 49.92 0 0 0 760.832 213.333333H682.24v63.530667c0 11.818667-9.514667 21.333333-21.333333 21.333333h-298.666667a21.333333 21.333333 0 0 1-21.333333-21.333333V213.333333H263.210667A49.92 49.92 0 0 0 213.333333 263.168v497.621333A49.92 49.92 0 0 0 263.210667 810.666667h227.029333a21.333333 21.333333 0 1 1 0 42.666666H263.210667A92.629333 92.629333 0 0 1 170.666667 760.789333V263.168C170.666667 212.181333 212.181333 170.666667 263.210667 170.666667h497.621333zM383.573333 255.530667h256V213.333333h-256v42.197334zM703.573333 639.573333a64 64 0 1 0 0.042667 128 64 64 0 0 0-0.042667-128M703.573333 810.24a106.752 106.752 0 0 1-106.666666-106.666667c0-58.88 47.829333-106.666667 106.666666-106.666666 58.88 0 106.666667 47.786667 106.666667 106.666666 0 58.794667-47.786667 106.666667-106.666667 106.666667m0-256c-9.344 0-18.346667 1.066667-27.221333 2.730667 0.128-0.981333 0.554667-1.792 0.554667-2.773334a21.333333 21.333333 0 0 0-21.333334-21.333333H406.613333l56.064-56.021333a21.418667 21.418667 0 0 0-30.208-30.208l-87.978666 88.021333a21.333333 21.333333 0 0 0-4.650667 23.168 21.077333 21.077333 0 0 0 20.608 17.706667h267.434667a148.821333 148.821333 0 0 0-73.642667 128c0 82.346667 66.986667 149.333333 149.333333 149.333333s149.333333-66.986667 149.333334-149.333333-66.986667-149.333333-149.333334-149.333334" /></svg>