<?xml version="1.0" standalone="no"?><!DOCTYPE svg PUBLIC "-//W3C//DTD SVG 1.1//EN" "http://www.w3.org/Graphics/SVG/1.1/DTD/svg11.dtd"><svg class="icon" width="200px" height="200.00px" viewBox="0 0 1024 1024" version="1.1" xmlns="http://www.w3.org/2000/svg"><path fill="#333333" d="M491.329707 668.544c-45.824-7.68-91.306667-43.52-91.306667-98.816V476.16l90.325333-20.224 92.16 20.309333v103.808c-0.170667 0.810667-0.682667 1.493333-0.768 2.304-6.4 50.218667-50.773333 79.488-90.410666 86.186667m115.242666-230.698667l-110.72-24.405333c-0.768-0.170667-1.536 0-2.304 0-1.237333-0.256-2.56-0.042667-3.84-0.042667-0.810667 0-1.706667-0.128-2.517333 0-0.853333 0.128-1.621333-0.085333-2.474667 0.085334l-108.8 24.405333c-1.024 0.213333-1.792 0.853333-2.730666 1.194667a21.077333 21.077333 0 0 0-15.786667 20.224v114.474666c0 1.493333 0.512 2.773333 0.853333 4.181334 4.394667 75.861333 67.157333 124.501333 129.877334 133.461333a23.552 23.552 0 0 0 3.029333 0.213333l0.128-0.042666h0.128a24.106667 24.106667 0 0 0 3.029333-0.170667c53.930667-7.722667 115.285333-47.488 128-116.394667a20.949333 20.949333 0 0 0 2.730667-9.984v-125.738666a21.034667 21.034667 0 0 0-15.786667-20.224c-0.981333-0.426667-1.792-1.024-2.816-1.28M846.913707 452.181333L507.457707 133.589333a20.864 20.864 0 0 0-16.384-5.461333 20.992 20.992 0 0 0-16.64 5.461333L135.105707 452.181333a21.290667 21.290667 0 1 0 29.184 31.104l9.6-8.96v279.765334A100.138667 100.138667 0 0 0 274.028373 853.973333h433.877334a100.181333 100.181333 0 0 0 100.224-99.882666v-71.552a21.333333 21.333333 0 0 0-42.666667 0v71.552c0 31.530667-25.856 57.216-57.6 57.216H274.07104a57.429333 57.429333 0 0 1-57.514667-57.216V434.261333L490.988373 176.64l274.474667 257.578667v120.32a21.333333 21.333333 0 1 0 42.666667 0V474.282667l9.6 9.002666a21.12 21.12 0 0 0 30.122666-0.938666 21.290667 21.290667 0 0 0-0.938666-30.165334" /></svg>