<?xml version="1.0" standalone="no"?><!DOCTYPE svg PUBLIC "-//W3C//DTD SVG 1.1//EN" "http://www.w3.org/Graphics/SVG/1.1/DTD/svg11.dtd"><svg class="icon" width="200px" height="200.00px" viewBox="0 0 1024 1024" version="1.1" xmlns="http://www.w3.org/2000/svg"><path fill="#333333" d="M518.4 554.666667c90.154667 0 170.368-52.266667 204.373333-133.077334a21.333333 21.333333 0 0 0-39.338666-16.512C656.128 470.058667 591.36 512 518.4 512c-98.090667 0-177.92-76.544-177.92-170.666667 0-34.090667 10.410667-66.944 30.08-95.061333C403.712 198.954667 459.008 170.666667 518.4 170.666667s114.56 28.245333 147.712 75.562666c6.912 9.856 12.8 20.394667 17.322667 31.274667a21.504 21.504 0 0 0 27.946666 11.392 21.418667 21.418667 0 0 0 11.392-27.989333 214.229333 214.229333 0 0 0-21.76-39.210667C659.84 163.029333 591.573333 128 518.4 128c-73.258667 0-141.525333 35.029333-182.741333 93.781333A207.445333 207.445333 0 0 0 297.813333 341.333333c0 117.632 98.986667 213.333333 220.586667 213.333334M823.722667 820.821333A104.234667 104.234667 0 0 1 747.946667 853.333333H276.053333C218.026667 853.333333 170.666667 805.546667 170.666667 746.666667 170.666667 687.829333 217.984 640 276.053333 640h386.133334a21.333333 21.333333 0 0 0 0-42.666667H276.053333C194.474667 597.333333 128 664.32 128 746.666667S194.432 896 276.053333 896h471.893334c40.533333 0 78.378667-16.213333 106.624-45.653333a21.376 21.376 0 0 0-0.682667-30.208 21.418667 21.418667 0 0 0-30.165333 0.682666M851.2 725.333333h-105.386667v-85.333333h2.090667c50.901333 0 93.525333 36.693333 103.296 85.333333m-103.296-128h-23.424a21.333333 21.333333 0 0 0-21.333333 21.333334c0 1.877333 0.597333 3.584 1.066666 5.333333-0.469333 1.749333-1.066667 3.456-1.066666 5.333333v115.541334c0 8.832 5.376 16.426667 13.013333 19.669333a20.736 20.736 0 0 0 10.965333 3.456h140.416c1.28 0 2.346667-0.512 3.584-0.725333 1.194667 0.213333 2.304 0.725333 3.541334 0.725333a21.333333 21.333333 0 0 0 21.333333-21.333333c0-82.346667-66.432-149.333333-148.096-149.333334M511.146667 834.944l42.666666-52.693333-41.386666-120.917334-43.946667 120.917334z" /></svg>