<?xml version="1.0" standalone="no"?><!DOCTYPE svg PUBLIC "-//W3C//DTD SVG 1.1//EN" "http://www.w3.org/Graphics/SVG/1.1/DTD/svg11.dtd"><svg class="icon" width="200px" height="200.00px" viewBox="0 0 1024 1024" version="1.1" xmlns="http://www.w3.org/2000/svg"><path fill="#333333" d="M760.789333 853.333333H263.168A92.629333 92.629333 0 0 1 170.666667 760.789333V263.168C170.666667 212.181333 212.181333 170.666667 263.168 170.666667h497.621333c51.029333 0 92.586667 41.514667 92.586667 92.501333V448.426667a21.333333 21.333333 0 1 1-42.666667 0V263.168A49.92 49.92 0 0 0 760.746667 213.333333H263.168A49.92 49.92 0 0 0 213.333333 263.168v497.621333A49.92 49.92 0 0 0 263.168 810.666667h497.621333a49.92 49.92 0 0 0 49.92-49.877334V576.426667a21.333333 21.333333 0 0 1 42.666667 0v184.362666A92.629333 92.629333 0 0 1 760.746667 853.333333M511.573333 555.989333c-82.346667 0-149.333333-66.432-149.333333-148.053333V320.426667a21.333333 21.333333 0 0 1 42.666667 0v87.466666c0 58.112 47.829333 105.386667 106.666666 105.386667 58.752 0 106.666667-47.274667 106.666667-105.386667V320.426667a21.333333 21.333333 0 0 1 42.666667 0v87.466666c0 81.621333-66.986667 148.053333-149.333334 148.053334" /></svg>