<?xml version="1.0" standalone="no"?><!DOCTYPE svg PUBLIC "-//W3C//DTD SVG 1.1//EN" "http://www.w3.org/Graphics/SVG/1.1/DTD/svg11.dtd"><svg class="icon" width="200px" height="200.00px" viewBox="0 0 1024 1024" version="1.1" xmlns="http://www.w3.org/2000/svg"><path fill="#333333" d="M886.866522 177.329017a21.37584 21.37584 0 0 0-30.122441-0.853327l-149.033549 140.628278A340.733444 340.733444 0 0 0 507.733365 252.080456a340.90411 340.90411 0 0 0-197.843849 63.359525L163.97061 177.713014a21.333173 21.333173 0 0 0-29.269114 31.018434L276.567099 342.618444A339.453454 339.453454 0 0 0 166.317259 593.539228c0 188.243922 153.172185 341.416106 341.458773 341.416107a340.90411 340.90411 0 0 0 330.962851-257.235405 21.333173 21.333173 0 1 0-41.386356-10.538587 298.323096 298.323096 0 0 1-289.576495 225.107645c-164.734764 0-298.792426-133.972329-298.792426-298.74976A298.664427 298.664427 0 0 1 507.733365 294.746803a298.792426 298.792426 0 0 1 292.563139 237.651551 21.247841 21.247841 0 1 0 41.727687-8.661269 338.429462 338.429462 0 0 0-51.199616-121.172424 342.397432 342.397432 0 0 0-50.004958-58.026232l145.065579-137.044305a21.333173 21.333173 0 0 0 0.938659-30.165107" /></svg>