<?xml version="1.0" standalone="no"?><!DOCTYPE svg PUBLIC "-//W3C//DTD SVG 1.1//EN" "http://www.w3.org/Graphics/SVG/1.1/DTD/svg11.dtd"><svg class="icon" width="200px" height="200.00px" viewBox="0 0 1024 1024" version="1.1" xmlns="http://www.w3.org/2000/svg"><path fill="#333333" d="M838.058667 596.266667a21.376 21.376 0 0 0-26.154667 15.018666A309.973333 309.973333 0 0 1 513.066667 839.381333C375.381333 839.381333 252.970667 747.178667 215.253333 615.168A20.821333 20.821333 0 0 0 194.730667 600.021333C193.792 599.893333 192.981333 599.466667 192 599.466667a21.333333 21.333333 0 0 0-21.333333 21.333333V860.714667a21.333333 21.333333 0 1 0 42.666666 0V714.496C276.394667 816.256 389.205333 882.048 513.066667 882.048c158.72 0 298.581333-106.752 340.010666-259.626667a21.333333 21.333333 0 0 0-15.018666-26.154666M190.72 452.309333a21.333333 21.333333 0 0 0 26.709333-14.037333 307.968 307.968 0 0 1 295.637334-217.045333A308.181333 308.181333 0 0 1 808.533333 437.888a21.077333 21.077333 0 0 0 12.501334 13.184c1.237333 0.554667 2.517333 0.810667 3.84 1.152 0.853333 0.170667 1.706667 0.426667 2.645333 0.512 0.853333 0.128 1.664 0.512 2.56 0.512 11.861333 0 21.333333-9.514667 21.333333-21.333333V192a21.333333 21.333333 0 1 0-42.666666 0V340.608A349.909333 349.909333 0 0 0 513.109333 178.56a350.549333 350.549333 0 0 0-336.341333 247.04 21.333333 21.333333 0 0 0 14.037333 26.709333M553.941333 464.597333a21.333333 21.333333 0 0 0-21.333333-21.333333h-170.666667a21.333333 21.333333 0 0 0 0 42.666667h170.666667a21.333333 21.333333 0 0 0 21.333333-21.333334M660.608 443.264h-42.666667a21.333333 21.333333 0 0 0 0 42.666667h42.666667a21.333333 21.333333 0 0 0 0-42.666667M489.941333 613.845333h170.666667a21.333333 21.333333 0 0 0 0-42.666666h-170.666667a21.333333 21.333333 0 0 0 0 42.666666M361.941333 571.178667a21.333333 21.333333 0 0 0 0 42.666666h42.666667a21.333333 21.333333 0 0 0 0-42.666666h-42.666667z" /></svg>