<?xml version="1.0" standalone="no"?><!DOCTYPE svg PUBLIC "-//W3C//DTD SVG 1.1//EN" "http://www.w3.org/Graphics/SVG/1.1/DTD/svg11.dtd"><svg class="icon" width="200px" height="200.00px" viewBox="0 0 1024 1024" version="1.1" xmlns="http://www.w3.org/2000/svg"><path fill="#333333" d="M810.666667 557.312v-58.154667c0-54.272-48-98.432-106.965334-98.432H357.888V308.181333C357.888 232.362667 427.52 170.666667 513.024 170.666667c85.546667 0 155.178667 61.696 155.178667 137.514666v18.005334a21.333333 21.333333 0 1 0 42.666666 0v-18.005334c0-99.370667-88.746667-180.181333-197.845333-180.181333-109.056 0-197.802667 80.810667-197.802667 180.181333v93.013334C258.645333 403.669333 213.333333 446.464 213.333333 499.157333v255.701334C213.333333 809.173333 261.290667 853.333333 320.256 853.333333h383.445333C762.666667 853.333333 810.666667 809.173333 810.666667 754.858667v-69.546667a21.333333 21.333333 0 0 0-42.666667 0v69.546667c0 30.805333-28.842667 55.808-64.298667 55.808H320.256C284.842667 810.666667 256 785.664 256 754.858667v-255.701334c0-30.762667 28.842667-55.765333 64.256-55.765333h383.445333c35.456 0 64.298667 25.002667 64.298667 55.765333v58.154667a21.333333 21.333333 0 0 0 42.666667 0z" /></svg>