<?xml version="1.0" standalone="no"?><!DOCTYPE svg PUBLIC "-//W3C//DTD SVG 1.1//EN" "http://www.w3.org/Graphics/SVG/1.1/DTD/svg11.dtd"><svg class="icon" width="200px" height="200.00px" viewBox="0 0 1024 1024" version="1.1" xmlns="http://www.w3.org/2000/svg"><path fill="#333333" d="M243.498667 330.282667v405.162666A41.258667 41.258667 0 0 1 213.333333 696.021333V255.146667c0-23.04 18.688-41.813333 41.728-41.813334h440.96c19.797333 0 35.626667 14.165333 39.893334 32.597334H327.936a84.565333 84.565333 0 0 0-84.437333 84.394666M832 473.557333a21.333333 21.333333 0 0 0 21.333333-21.333333V330.368a84.266667 84.266667 0 0 0-73.685333-83.370667 84.266667 84.266667 0 0 0-83.626667-76.288H255.061333C208.554667 170.666667 170.666667 208.554667 170.666667 255.104v440.917333c0 42.922667 32.213333 78.037333 73.642666 83.370667A84.266667 84.266667 0 0 0 327.936 855.68H768.853333A84.48 84.48 0 0 0 853.333333 771.2v-191.018667a21.333333 21.333333 0 0 0-42.666666 0v191.018667a41.813333 41.813333 0 0 1-41.813334 41.728H327.936a41.728 41.728 0 0 1-41.770667-41.728V330.282667a41.813333 41.813333 0 0 1 41.770667-41.728H768.853333a41.813333 41.813333 0 0 1 41.813334 41.728v121.984a21.333333 21.333333 0 0 0 21.333333 21.333333M434.602667 359.68a21.333333 21.333333 0 0 0-21.333334 21.333333v77.568c0 73.685333 60.458667 133.632 134.741334 133.632 74.325333 0 134.784-59.946667 134.784-133.632V381.013333a21.333333 21.333333 0 1 0-42.666667 0v77.525334c0 50.176-41.301333 90.965333-92.16 90.965333-50.773333 0-92.032-40.789333-92.032-90.965333V381.013333a21.333333 21.333333 0 0 0-21.333333-21.333333" /></svg>