<?xml version="1.0" standalone="no"?><!DOCTYPE svg PUBLIC "-//W3C//DTD SVG 1.1//EN" "http://www.w3.org/Graphics/SVG/1.1/DTD/svg11.dtd"><svg class="icon" width="200px" height="200.00px" viewBox="0 0 1024 1024" version="1.1" xmlns="http://www.w3.org/2000/svg"><path fill="#333333" d="M518.357333 554.666667c90.24 0 170.453333-52.266667 204.373334-133.077334a21.333333 21.333333 0 1 0-39.296-16.512C656.128 470.058667 591.36 512 518.314667 512c-90.453333 0-164.522667-65.365333-175.616-149.333333h211.072a21.333333 21.333333 0 0 0 0-42.666667H342.058667a165.674667 165.674667 0 0 1 28.501333-73.728C403.754667 198.912 459.008 170.666667 518.357333 170.666667c59.306667 0 114.56 28.245333 147.712 75.562666 6.912 9.813333 12.757333 20.352 17.322667 31.274667a21.376 21.376 0 0 0 39.338667-16.597333 212.352 212.352 0 0 0-21.76-39.210667C659.882667 163.029333 591.616 128 518.4 128c-73.258667 0-141.568 35.072-182.741333 93.781333A207.445333 207.445333 0 0 0 297.770667 341.333333c0 117.632 98.944 213.333333 220.586666 213.333334M660.437333 853.333333H276.096C217.941333 853.333333 170.666667 805.504 170.666667 746.666667S217.941333 640 276.096 640h343.466667a21.333333 21.333333 0 0 0 0-42.666667h-343.466667C194.432 597.333333 128 664.32 128 746.666667S194.432 896 276.096 896h384.341333a21.333333 21.333333 0 0 0 0-42.666667M873.770667 767.573333h-83.114667v-30.72h83.114667a21.333333 21.333333 0 1 0 0-42.666666h-83.114667v-8.362667l72.192-68.138667a21.333333 21.333333 0 1 0-29.269333-30.976l-65.92 62.208-65.92-62.208a21.333333 21.333333 0 1 0-29.269334 30.976l75.52 71.296v5.205334h-87.552a21.333333 21.333333 0 0 0 0 42.666666h87.552v30.72h-87.552a21.333333 21.333333 0 0 0 0 42.666667h87.552v60.885333a21.333333 21.333333 0 0 0 42.666667 0V810.24h83.114667a21.333333 21.333333 0 0 0 0-42.666667" /></svg>