<?xml version="1.0" standalone="no"?><!DOCTYPE svg PUBLIC "-//W3C//DTD SVG 1.1//EN" "http://www.w3.org/Graphics/SVG/1.1/DTD/svg11.dtd"><svg class="icon" width="200px" height="200.00px" viewBox="0 0 1024 1024" version="1.1" xmlns="http://www.w3.org/2000/svg"><path fill="#333333" d="M513.877333 551.125333a39.168 39.168 0 1 1 0.042667-78.293333 39.168 39.168 0 0 1-0.042667 78.293333M595.626667 512a81.92 81.92 0 0 0-81.792-81.792A81.92 81.92 0 0 0 432.085333 512a81.92 81.92 0 0 0 81.792 81.792A81.92 81.92 0 0 0 595.626667 512M876.672 488.661333h-74.453333a287.274667 287.274667 0 0 0-266.88-264.96V149.333333a21.333333 21.333333 0 0 0-42.666667 0v74.538667a287.402667 287.402667 0 0 0-262.869333 264.789333H149.333333a21.333333 21.333333 0 0 0 0 42.666667h80.426667a285.184 285.184 0 0 0 262.912 264.661333V874.666667a21.333333 21.333333 0 0 0 42.666667 0v-193.408a21.333333 21.333333 0 1 0-42.666667 0v71.978666a242.816 242.816 0 0 1-220.245333-221.866666h70.314666a21.333333 21.333333 0 1 0 0-42.666667H272.469333a244.906667 244.906667 0 0 1 220.16-222.165333v76.202666a21.333333 21.333333 0 0 0 42.666667 0v-76.373333a244.778667 244.778667 0 0 1 224.256 222.293333h-76.288a21.333333 21.333333 0 1 0 0 42.666667h193.408a21.333333 21.333333 0 0 0 0-42.666667M807.552 636.8l-13.824 13.824-32.682667-32.682667 13.824-13.866666a23.808 23.808 0 0 1 32.682667 0 22.997333 22.997333 0 0 1 0 32.725333z m-155.861333 155.861333l-32.682667-32.64 111.872-111.914666 32.682667 32.682666-111.872 111.872z m93.013333-218.752l-28.885333 28.928h-0.042667l-141.994667 142.08a20.949333 20.949333 0 0 0-6.186666 15.488l-8.746667 65.92a21.333333 21.333333 0 0 0 4.181333 15.744 21.333333 21.333333 0 0 0 21.674667 11.349334l66.645333-8.789334c0.938667-0.128 1.706667-0.64 2.645334-0.896a20.949333 20.949333 0 0 0 12.757333-5.802666l170.965333-170.965334c12.373333-12.416 19.285333-29.013333 19.285334-46.506666 0-17.578667-6.869333-34.133333-19.285334-46.549334-24.832-24.832-68.181333-24.832-93.013333 0z" /></svg>