<?xml version="1.0" standalone="no"?><!DOCTYPE svg PUBLIC "-//W3C//DTD SVG 1.1//EN" "http://www.w3.org/Graphics/SVG/1.1/DTD/svg11.dtd"><svg class="icon" width="200px" height="200.00px" viewBox="0 0 1024 1024" version="1.1" xmlns="http://www.w3.org/2000/svg"><path fill="#333333" d="M511.380053 635.904a21.333333 21.333333 0 0 0-21.333333 21.333333v66.773334a257.024 257.024 0 0 1-188.416-106.112 254.293333 254.293333 0 0 1-44.117333-190.890667c3.712-22.272 11.178667-43.093333 20.224-63.104l46.805333 34.133333a21.333333 21.333333 0 0 0 25.173333-34.517333l-51.2-37.376a255.189333 255.189333 0 0 1 62.805334-65.28c115.029333-81.92 275.2-55.210667 357.12 59.648 1.536 2.218667 2.688 4.608 4.181333 6.826667l-49.621333 36.181333a21.376 21.376 0 0 0 25.173333 34.56l45.098667-32.938667a257.706667 257.706667 0 0 1 1.365333 206.634667 21.290667 21.290667 0 1 0 39.082667 17.066667 300.16 300.16 0 0 0-5.333334-249.301334l64.853334-47.317333a21.376 21.376 0 0 0 4.693333-29.824 21.504 21.504 0 0 0-29.866667-4.650667L757.140053 302.208c-1.408-2.090667-2.517333-4.266667-3.968-6.4-95.573333-133.973333-282.453333-165.333333-416.597333-69.674667a298.581333 298.581333 0 0 0-72.96 74.666667L204.649387 257.749333a21.461333 21.461333 0 0 0-29.866667 4.693334 21.376 21.376 0 0 0 4.693333 29.781333l62.336 45.482667a300.373333 300.373333 0 0 0-26.368 82.218666 296.704 296.704 0 0 0 51.456 222.72 299.733333 299.733333 0 0 0 223.146667 124.074667v70.058667a21.333333 21.333333 0 0 0 42.666667 0v-179.541334a21.333333 21.333333 0 0 0-21.333334-21.333333M829.588053 643.413333h-213.333333a21.333333 21.333333 0 0 0 0 42.666667h213.333333a21.333333 21.333333 0 0 0 0-42.666667M829.588053 728.746667h-213.333333a21.333333 21.333333 0 0 0 0 42.666666h213.333333a21.333333 21.333333 0 0 0 0-42.666666M829.588053 815.914667h-218.666666a21.333333 21.333333 0 0 0 0 42.666666h218.666666a21.333333 21.333333 0 0 0 0-42.666666" /></svg>