<?xml version="1.0" standalone="no"?><!DOCTYPE svg PUBLIC "-//W3C//DTD SVG 1.1//EN" "http://www.w3.org/Graphics/SVG/1.1/DTD/svg11.dtd"><svg class="icon" width="200px" height="200.00px" viewBox="0 0 1024 1024" version="1.1" xmlns="http://www.w3.org/2000/svg"><path fill="#333333" d="M760.832 170.666667C811.818667 170.666667 853.333333 212.181333 853.333333 263.168v228.821333a21.333333 21.333333 0 1 1-42.666666 0V263.168A49.92 49.92 0 0 0 760.832 213.333333H682.24v63.530667c0 11.818667-9.514667 21.333333-21.333333 21.333333h-298.666667a21.333333 21.333333 0 0 1-21.333333-21.333333V213.333333H263.210667A49.92 49.92 0 0 0 213.333333 263.168v497.621333A49.92 49.92 0 0 0 263.210667 810.666667h227.029333a21.333333 21.333333 0 1 1 0 42.666666H263.210667A92.629333 92.629333 0 0 1 170.666667 760.789333V263.168C170.666667 212.181333 212.181333 170.666667 263.210667 170.666667h497.621333zM383.573333 255.530667h256V213.333333h-256v42.197334zM358.229333 533.717333a21.333333 21.333333 0 0 0 26.752-13.994666 132.352 132.352 0 0 1 126.976-93.44c58.453333 0 109.44 37.504 126.890667 93.269333a20.906667 20.906667 0 0 0 5.76 8.746667l0.725333 0.597333c1.706667 1.450667 3.413333 2.730667 5.418667 3.626667 1.152 0.554667 2.389333 0.768 3.584 1.109333 1.28 0.298667 2.474667 0.682667 3.84 0.725333 0.512 0.085333 1.024 0.341333 1.621333 0.341334 2.048 0 3.925333-0.597333 5.802667-1.152a20.992 20.992 0 0 0 15.530667-20.181334V401.322667a21.333333 21.333333 0 1 0-42.666667 0v36.181333A174.890667 174.890667 0 0 0 512 383.658667a175.018667 175.018667 0 0 0-167.765333 123.306666 21.376 21.376 0 0 0 13.994666 26.752M703.573333 639.573333a64 64 0 1 0 0.042667 128 64 64 0 0 0-0.042667-128M703.573333 810.24a106.752 106.752 0 0 1-106.666666-106.666667c0-58.88 47.829333-106.666667 106.666666-106.666666 58.88 0 106.666667 47.786667 106.666667 106.666666 0 58.794667-47.786667 106.666667-106.666667 106.666667m0-256c-75.690667 0-137.728 56.789333-147.370666 129.877333-14.165333 5.034667-28.928 8.106667-44.245334 8.106667a133.546667 133.546667 0 0 1-127.914666-96.384 21.205333 21.205333 0 0 0-13.482667-13.952h-0.085333a19.242667 19.242667 0 0 0-6.229334-1.28c-0.682667-0.085333-1.28-0.426667-2.005333-0.426667a21.333333 21.333333 0 0 0-21.333333 21.333334v112.042666a21.333333 21.333333 0 1 0 42.666666 0v-34.858666A176.042667 176.042667 0 0 0 512 734.890667c15.36 0 30.208-2.645333 44.8-6.528a149.248 149.248 0 0 0 146.773333 124.501333c82.346667 0 149.333333-66.986667 149.333334-149.333333s-66.986667-149.333333-149.333334-149.333334" /></svg>