<?xml version="1.0" standalone="no"?><!DOCTYPE svg PUBLIC "-//W3C//DTD SVG 1.1//EN" "http://www.w3.org/Graphics/SVG/1.1/DTD/svg11.dtd"><svg class="icon" width="200px" height="200.00px" viewBox="0 0 1024 1024" version="1.1" xmlns="http://www.w3.org/2000/svg"><path fill="#333333" d="M792.746667 298.666667H231.296A103.552 103.552 0 0 0 128 402.133333v78.848c0 9.514667 6.272 17.28 14.848 20.053334a20.778667 20.778667 0 0 0 6.016 2.986666c27.904 7.125333 46.72 33.066667 46.72 64.341334 0 32.042667-19.370667 58.112-48.213333 64.853333-1.706667 0.341333-3.072 1.28-4.565334 2.005333a21.077333 21.077333 0 0 0-14.805333 20.053334V734.08a103.552 103.552 0 0 0 103.338667 103.466667h307.328a21.333333 21.333333 0 0 0 0-42.666667H364.458667V717.44a21.333333 21.333333 0 0 0-42.666667 0v77.482667h-90.453333c-33.450667 0-60.672-27.306667-60.672-60.8V670.293333c40.874667-15.573333 67.584-54.698667 67.584-101.930666 0-46.848-26.794667-86.186667-67.584-101.802667V402.133333c0-33.493333 27.221333-60.8 60.672-60.8h90.453333V418.773333a21.333333 21.333333 0 1 0 42.666667 0V341.333333H792.746667c33.408 0 60.629333 27.306667 60.629333 60.8v65.066667c-39.765333 16.085333-65.706667 55.04-65.706667 101.162667 0 17.792 3.712 34.602667 11.136 49.92a21.248 21.248 0 0 0 28.501334 9.898666 21.333333 21.333333 0 0 0 9.898666-28.501333 71.509333 71.509333 0 0 1-6.912-31.317333c0-31.274667 18.773333-57.173333 46.677334-64.384 0.341333-0.128 0.64-0.384 0.981333-0.512A21.034667 21.034667 0 0 0 896 482.773333V402.133333A103.509333 103.509333 0 0 0 792.746667 298.666667M343.125333 482.773333a21.333333 21.333333 0 0 0-21.333333 21.333334v128a21.333333 21.333333 0 0 0 42.666667 0v-128a21.333333 21.333333 0 0 0-21.333334-21.333334M872.917333 670.250667h-174.805333v-4.352a21.333333 21.333333 0 1 0-42.666667 0v4.352h-38.528a21.333333 21.333333 0 0 0 0 42.666666h38.528v4.352a21.333333 21.333333 0 0 0 42.666667 0v-4.352h174.805333a21.333333 21.333333 0 0 0 0-42.666666M872.917333 755.072h-37.888v-5.034667a21.290667 21.290667 0 1 0-42.666666 0v5.034667h-175.445334a21.333333 21.333333 0 0 0 0 42.666667h175.445334v3.626666a21.333333 21.333333 0 0 0 42.666666 0v-3.626666h37.888a21.333333 21.333333 0 0 0 0-42.666667M872.917333 840.661333H698.112v-4.352a21.333333 21.333333 0 1 0-42.666667 0v4.352h-38.528a21.333333 21.333333 0 0 0 0 42.666667h38.528V887.68a21.333333 21.333333 0 0 0 42.666667 0v-4.352h174.805333a21.333333 21.333333 0 0 0 0-42.666667" /></svg>