<?xml version="1.0" standalone="no"?><!DOCTYPE svg PUBLIC "-//W3C//DTD SVG 1.1//EN" "http://www.w3.org/Graphics/SVG/1.1/DTD/svg11.dtd"><svg class="icon" width="200px" height="200.00px" viewBox="0 0 1024 1024" version="1.1" xmlns="http://www.w3.org/2000/svg"><path fill="#333333" d="M512.041813 596.949333H295.721813L226.815147 256.426667H715.561813l-53.162666 163.669333c-0.213333 0.64 0 1.322667-0.213334 1.962667a24.277333 24.277333 0 0 0-0.213333 8.32 24.106667 24.106667 0 0 0 3.029333 7.68c0.426667 0.554667 0.512 1.28 0.938667 1.792l85.333333 108.458666a21.333333 21.333333 0 1 0 33.536-26.410666L706.51648 422.4l58.709333-180.736c0.426667-1.109333 0.213333-2.218667 0.426667-3.328 0.128-1.109333 0.597333-2.090667 0.597333-3.242667 0-0.341333-0.128-0.597333-0.170666-0.853333 0-1.621333-0.512-2.986667-0.853334-4.522667-0.341333-1.237333-0.554667-2.474667-1.066666-3.584-0.597333-1.28-1.450667-2.261333-2.261334-3.370666-0.810667-1.109333-1.493333-2.261333-2.517333-3.2-0.853333-0.853333-2.048-1.408-3.114667-2.133334-1.28-0.810667-2.517333-1.664-3.968-2.218666-0.256-0.085333-0.426667-0.341333-0.768-0.426667-1.109333-0.341333-2.218667-0.213333-3.328-0.384-1.109333-0.170667-2.090667-0.64-3.285333-0.64H218.19648L212.94848 187.733333a21.333333 21.333333 0 1 0-41.813333 8.405334l129.749333 641.749333a21.418667 21.418667 0 0 0 25.173333 16.725333 21.333333 21.333333 0 0 0 16.682667-25.130666l-38.4-189.866667H512.041813a21.333333 21.333333 0 0 0 0-42.666667M789.375147 683.52c0 39.125333-26.709333 71.893333-62.72 81.92v-6.570667a21.333333 21.333333 0 1 0-42.666667 0v7.296A85.333333 85.333333 0 0 1 618.70848 683.52c0-6.528 0.896-12.8 2.304-18.986667l2.56 1.92a21.418667 21.418667 0 0 0 29.781333-4.778666 21.333333 21.333333 0 0 0-4.650666-29.781334l-7.594667-5.504A84.821333 84.821333 0 0 1 704.041813 598.186667c25.514667 0 48.213333 11.52 63.872 29.312l-6.058666 4.394666a21.333333 21.333333 0 0 0 25.173333 34.474667l0.512-0.341333c1.194667 5.589333 1.834667 11.434667 1.834667 17.493333m59.904-88.874667a21.333333 21.333333 0 0 0-29.781334-4.693333l-17.237333 12.458667A127.146667 127.146667 0 0 0 704.041813 555.52c-39.168 0-73.813333 18.090667-97.28 45.866667l-15.658666-11.392a21.333333 21.333333 0 0 0-25.130667 34.474666l18.773333 13.653334A126.549333 126.549333 0 0 0 576.041813 683.52a127.829333 127.829333 0 0 0 107.946667 125.952v20.778667a21.333333 21.333333 0 1 0 42.666667 0v-20.992A128 128 0 0 0 832.041813 683.52a127.146667 127.146667 0 0 0-8.234666-43.904l20.778666-15.189333a21.248 21.248 0 0 0 4.693334-29.738667" /></svg>