<?xml version="1.0" standalone="no"?><!DOCTYPE svg PUBLIC "-//W3C//DTD SVG 1.1//EN" "http://www.w3.org/Graphics/SVG/1.1/DTD/svg11.dtd"><svg class="icon" width="200px" height="200.00px" viewBox="0 0 1024 1024" version="1.1" xmlns="http://www.w3.org/2000/svg"><path fill="#333333" d="M517.632 509.482667c80.64 0 152.32-46.677333 182.741333-118.954667a21.333333 21.333333 0 0 0-39.338666-16.512c-23.637333 56.362667-79.957333 92.8-143.36 92.8-77.568 0-141.312-55.253333-152.192-126.72h183.424a21.290667 21.290667 0 1 0 0-42.666667H364.842667c3.285333-21.845333 11.52-42.666667 24.490666-61.141333C418.133333 195.2 466.133333 170.666667 517.632 170.666667c51.498667 0 99.498667 24.490667 128.298667 65.536 5.973333 8.576 11.050667 17.706667 15.018666 27.178666a21.333333 21.333333 0 0 0 39.338667-16.597333 189.44 189.44 0 0 0-19.413333-35.072C644.096 159.274667 583.082667 128 517.632 128c-65.450667 0-126.506667 31.317333-163.242667 83.797333A185.173333 185.173333 0 0 0 320.512 318.72c0 105.216 88.405333 190.762667 197.12 190.762667M537.856 767.957333H303.957333C254.037333 767.957333 213.418667 726.869333 213.418667 676.394667c0-50.474667 40.618667-91.605333 90.538666-91.605334h233.898667a21.333333 21.333333 0 0 0 0-42.666666H303.957333C230.485333 542.122667 170.666667 602.325333 170.666667 676.437333 170.752 750.378667 230.485333 810.624 304 810.624h233.898667a21.333333 21.333333 0 0 0 0-42.666667M708.522667 615.125333a64 64 0 1 0 0.042666 128 64 64 0 0 0-0.042666-128M708.522667 785.749333a106.794667 106.794667 0 0 1-106.666667-106.666666c0-58.752 47.786667-106.666667 106.666667-106.666667 58.837333 0 106.666667 47.914667 106.666666 106.666667 0 58.794667-47.829333 106.666667-106.666666 106.666666m0-256c-82.346667 0-149.333333 66.986667-149.333334 149.333334s66.986667 149.333333 149.333334 149.333333 149.333333-66.986667 149.333333-149.333333-66.986667-149.333333-149.333333-149.333334M473.429333 696.746667l38.826667 36.138666 38.058667-37.674666-38.058667-75.264z" /></svg>