<?xml version="1.0" standalone="no"?><!DOCTYPE svg PUBLIC "-//W3C//DTD SVG 1.1//EN" "http://www.w3.org/Graphics/SVG/1.1/DTD/svg11.dtd"><svg class="icon" width="200px" height="200.00px" viewBox="0 0 1024 1024" version="1.1" xmlns="http://www.w3.org/2000/svg"><path fill="#333333" d="M895.488 553.173333a20.053333 20.053333 0 0 0-24.96-13.696l-67.541333 19.584a19.797333 19.797333 0 0 0-10.922667 8.234667 20.138667 20.138667 0 0 0-4.394667 8.234667 274.133333 274.133333 0 0 1-37.504 87.850666 19.968 19.968 0 0 0 1.365334 23.424l29.013333 49.92-43.52 43.52-52.010667-30.037333a19.84 19.84 0 0 0-15.488-1.834667 19.541333 19.541333 0 0 0-9.984 2.474667 281.557333 281.557333 0 0 1-83.498666 33.365333 20.053333 20.053333 0 0 0-17.152 14.762667l-15.530667 57.898667H481.834667l-15.573334-58.453334a20.138667 20.138667 0 0 0-17.152-14.72l-0.341333-0.213333a279.296 279.296 0 0 1-86.442667-36.48c-1.194667-0.768-2.517333-0.981333-3.797333-1.493333-0.725333-0.213333-1.365333-0.597333-2.133333-0.768a18.944 18.944 0 0 0-6.912-0.469334c-0.128 0-0.256-0.085333-0.341334 0a19.413333 19.413333 0 0 0-9.813333 3.84l-49.664 28.629334-43.477333-43.52 30.336-52.309334a19.925333 19.925333 0 0 0-2.474667-23.168c-0.128-0.341333-0.128-0.597333-0.298667-0.853333a275.626667 275.626667 0 0 1-33.365333-81.365333c-0.213333-0.981333-0.853333-1.706667-1.237333-2.688a19.797333 19.797333 0 0 0-13.738667-13.909334l-57.130667-15.530666V481.792l57.173334-15.530667a20.053333 20.053333 0 0 0 14.634666-17.237333c0.128-0.426667 0.597333-0.597333 0.682667-1.109333a274.048 274.048 0 0 1 36.010667-84.48c0.853333-1.28 1.109333-2.730667 1.621333-4.181334 0.426667-1.024 0.938667-1.92 1.152-2.986666 0.085333-0.426667 0.042667-0.853333 0.085333-1.28a19.712 19.712 0 0 0-2.133333-13.269334l-29.994667-52.053333 43.52-43.434667 52.352 30.378667a19.541333 19.541333 0 0 0 10.069334 2.730667 20.096 20.096 0 0 0 10.794666-3.498667c1.066667-0.426667 2.218667-0.256 3.242667-0.938667a279.381333 279.381333 0 0 1 82.944-33.706666 19.669333 19.669333 0 0 0 6.016-2.688 18.346667 18.346667 0 0 0 5.034667-4.565334 19.285333 19.285333 0 0 0 2.133333-3.157333c0.768-1.408 2.218667-2.304 2.645333-3.968l15.573334-58.496h61.525333l15.530667 57.941333c0.469333 1.706667 2.005333 2.688 2.901333 4.266667a14.848 14.848 0 0 0 1.706667 2.56c1.749333 2.133333 3.456 3.84 5.888 5.12a20.906667 20.906667 0 0 0 5.546666 2.389333c31.189333 6.826667 60.714667 18.858667 87.808 35.669334 0.597333 0.341333 1.28 0.213333 1.834667 0.554666a20.053333 20.053333 0 0 0 10.666667 3.370667 19.84 19.84 0 0 0 10.112-2.816l52.352-30.293333 43.52 43.477333L751.146667 342.528a19.669333 19.669333 0 0 0-0.341334 18.602667c0.469333 1.365333 0.725333 2.730667 1.493334 3.968 16.213333 25.642667 27.946667 53.589333 34.986666 82.816 0.213333 1.152 1.28 1.706667 1.706667 2.730666a19.968 19.968 0 0 0 13.952 15.530667l67.541333 19.584a20.181333 20.181333 0 0 0 11.221334-38.741333l-58.026667-16.768a314.112 314.112 0 0 0-32.213333-76.885334l32.341333-56.064a19.925333 19.925333 0 0 0-4.522667-25.045333c-0.426667-0.554667-0.682667-1.28-1.194666-1.792L757.76 210.133333c-0.512-0.554667-1.237333-0.768-1.834667-1.28a19.754667 19.754667 0 0 0-25.002666-4.394666l-56.448 32.725333a318.293333 318.293333 0 0 0-79.616-32.426667l-16.597334-61.781333a20.010667 20.010667 0 0 0-20.693333-14.506667c-0.768-0.085333-1.493333-0.469333-2.346667-0.469333h-85.333333c-0.810667 0-1.536 0.384-2.346667 0.426667a19.882667 19.882667 0 0 0-20.650666 14.549333l-16.64 62.549333a318.165333 318.165333 0 0 0-75.733334 30.933334l-56.704-32.853334a19.797333 19.797333 0 0 0-25.002666 4.394667c-0.597333 0.554667-1.28 0.768-1.877334 1.28L210.602667 269.568c-0.597333 0.597333-0.810667 1.365333-1.28 2.048a19.84 19.84 0 0 0-4.437334 24.832l32.298667 56.021333a313.301333 313.301333 0 0 0-32.853333 77.781334l-61.44 16.64a19.882667 19.882667 0 0 0-14.464 20.821333c-0.085333 0.768-0.426667 1.408-0.426667 2.218667v85.333333c0 0.768 0.341333 1.450667 0.426667 2.176a19.882667 19.882667 0 0 0 14.421333 20.821333l61.568 16.682667c7.168 26.581333 17.578667 51.968 31.36 75.818667L203.52 726.528a19.925333 19.925333 0 0 0 4.437333 24.96c0.512 0.597333 0.725333 1.28 1.28 1.834667l60.330667 60.330666c0.853333 0.853333 1.92 1.28 2.858667 1.962667 3.84 3.84 8.618667 6.570667 13.909333 6.570667 3.413333 0 6.869333-0.896 10.026667-2.730667l55.978666-32.256a318.549333 318.549333 0 0 0 77.909334 32.597333l16.64 62.421334A20.096 20.096 0 0 0 466.346667 897.194667c0.682667 0 1.408-0.213333 2.133333-0.256 0.469333 0 0.896 0.256 1.408 0.256h85.333333c0.512 0 0.938667-0.256 1.450667-0.256 0.725333 0.085333 1.450667 0.256 2.133333 0.256a20.181333 20.181333 0 0 0 19.456-14.933334l16.64-61.781333a321.152 321.152 0 0 0 77.354667-31.104l58.026667 33.493333a20.181333 20.181333 0 0 0 10.026666 2.730667 19.882667 19.882667 0 0 0 13.781334-6.442667c0.981333-0.725333 2.133333-1.109333 2.986666-2.005333l60.330667-60.330667c0.554667-0.597333 0.768-1.28 1.28-1.877333a19.797333 19.797333 0 0 0 4.437333-24.96l-32.768-56.533333a316.074667 316.074667 0 0 0 33.28-78.506667l58.112-16.853333a20.138667 20.138667 0 0 0 13.738667-24.96M618.368 405.930667H399.701333a21.333333 21.333333 0 0 0 0 42.666666h218.666667a21.333333 21.333333 0 0 0 0-42.666666M618.368 491.264H399.701333a21.333333 21.333333 0 0 0 0 42.666667h218.666667a21.333333 21.333333 0 0 0 0-42.666667M618.368 578.389333H399.701333a21.333333 21.333333 0 0 0 0 42.666667h218.666667a21.333333 21.333333 0 0 0 0-42.666667" /></svg>