<?xml version="1.0" standalone="no"?><!DOCTYPE svg PUBLIC "-//W3C//DTD SVG 1.1//EN" "http://www.w3.org/Graphics/SVG/1.1/DTD/svg11.dtd"><svg class="icon" width="200px" height="200.00px" viewBox="0 0 1024 1024" version="1.1" xmlns="http://www.w3.org/2000/svg"><path fill="#333333" d="M789.333333 468.48a21.333333 21.333333 0 0 0 21.333334-21.333333V233.984A106.24 106.24 0 0 0 704.554667 128.085333H319.445333A106.24 106.24 0 0 0 213.333333 234.026667v555.946666A106.24 106.24 0 0 0 319.445333 896h385.109334A106.24 106.24 0 0 0 810.666667 789.930667V575.146667a21.333333 21.333333 0 0 0-42.666667 0v214.784c0 34.986667-28.458667 63.402667-63.445333 63.402666H319.445333C284.458667 853.333333 256 824.917333 256 789.930667V234.069333C256 199.082667 284.458667 170.666667 319.445333 170.666667h385.109334C739.541333 170.666667 768 199.125333 768 234.069333v213.034667a21.333333 21.333333 0 0 0 21.333333 21.333333M451.413333 547.413333a11491.84 11491.84 0 0 1 51.498667-132.949333l9.941333-29.866667h1.706667c0 2.176 2.730667 9.941333 8.32 23.253334a28.8 28.8 0 0 1 1.706667 6.613333c1.024 2.261333 18.218667 46.549333 51.456 132.949333H451.413333z m31.573334-207.744l-136.277334 340.736H403.2l34.901333-91.392h151.253334l34.901333 91.392h56.533333l-136.32-340.736H482.986667zM655.104 312.021333a34.645333 34.645333 0 1 0-69.248 0 34.645333 34.645333 0 0 0 69.248 0" /></svg>