<?xml version="1.0" standalone="no"?><!DOCTYPE svg PUBLIC "-//W3C//DTD SVG 1.1//EN" "http://www.w3.org/Graphics/SVG/1.1/DTD/svg11.dtd"><svg class="icon" width="200px" height="200.00px" viewBox="0 0 1024 1024" version="1.1" xmlns="http://www.w3.org/2000/svg"><path fill="#333333" d="M618.666667 598.229333a21.333333 21.333333 0 0 0 0-42.666666h-83.114667v-8.362667l72.149333-68.053333a21.333333 21.333333 0 0 0-29.226666-31.061334l-65.92 62.165334-65.92-62.165334a21.333333 21.333333 0 0 0-29.269334 31.018667l75.52 71.253333v5.248H405.333333a21.333333 21.333333 0 0 0 0 42.666667h87.552v30.592H405.333333a21.333333 21.333333 0 0 0 0 42.666667h87.552v60.885333a21.333333 21.333333 0 1 0 42.666667 0V671.573333H618.666667a21.333333 21.333333 0 1 0 0-42.666666h-83.114667v-30.634667H618.666667zM213.333333 341.333333v-19.541333c0-35.328 28.714667-64 64-64h62.250667v23.082667a21.333333 21.333333 0 1 0 42.666667 0v-23.082667h259.541333v23.082667a21.333333 21.333333 0 1 0 42.666667 0v-23.082667h65.792c35.285333 0 64 28.672 64 64V341.333333H213.333333z m622.250667 128a21.333333 21.333333 0 0 0 21.333333-21.333333V321.792c0-58.837333-47.829333-106.666667-106.666666-106.666667h-65.792V192a21.333333 21.333333 0 0 0-42.666667 0v23.125333H382.250667V192a21.333333 21.333333 0 0 0-42.666667 0v23.125333H277.333333a106.752 106.752 0 0 0-106.666666 106.666667V746.666667C170.666667 805.461333 218.496 853.333333 277.333333 853.333333h472.917334c58.837333 0 106.666667-47.872 106.666666-106.666666v-170.666667a21.333333 21.333333 0 0 0-42.666666 0v170.666667c0 35.285333-28.714667 64-64 64H277.333333c-35.285333 0-64-28.714667-64-64V384h600.917334v64a21.333333 21.333333 0 0 0 21.333333 21.333333z" /></svg>