<?xml version="1.0" standalone="no"?><!DOCTYPE svg PUBLIC "-//W3C//DTD SVG 1.1//EN" "http://www.w3.org/Graphics/SVG/1.1/DTD/svg11.dtd"><svg class="icon" width="200px" height="200.00px" viewBox="0 0 1024 1024" version="1.1" xmlns="http://www.w3.org/2000/svg"><path fill="#333333" d="M149.333333 341.333333h622.421334c45.44 0 82.432 36.949333 82.432 82.389334a21.290667 21.290667 0 1 0 42.666666 0A125.226667 125.226667 0 0 0 771.754667 298.666667H149.333333a21.333333 21.333333 0 0 0 0 42.666666M253.781333 548.821333h279.978667a21.333333 21.333333 0 0 0 0-42.666666H253.781333a125.269333 125.269333 0 0 0-125.098666 125.098666 125.226667 125.226667 0 0 0 125.098666 125.013334h279.978667a21.333333 21.333333 0 0 0 0-42.666667H253.781333a82.517333 82.517333 0 0 1-82.432-82.346667c0-45.44 36.992-82.432 82.432-82.432M745.301333 559.488a64 64 0 1 0 0.042667 128 64 64 0 0 0-0.042667-128M745.301333 730.154667a106.794667 106.794667 0 0 1-106.666666-106.666667c0-58.794667 47.786667-106.666667 106.666666-106.666667 58.837333 0 106.666667 47.872 106.666667 106.666667s-47.829333 106.666667-106.666667 106.666667m0-256c-82.346667 0-149.333333 66.986667-149.333333 149.333333s66.986667 149.333333 149.333333 149.333333 149.333333-66.986667 149.333334-149.333333-66.986667-149.333333-149.333334-149.333333" /></svg>