<?xml version="1.0" standalone="no"?><!DOCTYPE svg PUBLIC "-//W3C//DTD SVG 1.1//EN" "http://www.w3.org/Graphics/SVG/1.1/DTD/svg11.dtd"><svg class="icon" width="200px" height="200.00px" viewBox="0 0 1024 1024" version="1.1" xmlns="http://www.w3.org/2000/svg"><path fill="#333333" d="M535.133867 428.288a21.333333 21.333333 0 0 0 0-42.666667H448.008533a21.333333 21.333333 0 0 0 0 42.666667h87.125334zM576.008533 641.621333a21.333333 21.333333 0 0 1-21.333333 21.333334H424.8832a21.333333 21.333333 0 0 1-21.333333-21.333334v-149.333333H576.008533v149.333333z m-151.125333 64H554.6752c35.285333 0 64-28.714667 64-64v-149.333333h19.541333a21.333333 21.333333 0 0 0 0-42.666667H341.341867a21.333333 21.333333 0 0 0 0 42.666667h19.541333v149.333333c0 35.285333 28.714667 64 64 64zM846.600533 452.181333L507.1872 133.589333A21.205333 21.205333 0 0 0 490.6752 128.085333a21.248 21.248 0 0 0-16.512 5.504L134.749867 452.181333a21.290667 21.290667 0 1 0 29.184 31.104l9.6-8.96v279.765334A100.138667 100.138667 0 0 0 273.757867 853.973333h433.834666c55.296 0 100.266667-44.8 100.266667-99.882666v-71.552a21.333333 21.333333 0 0 0-42.666667 0v71.552c0 31.530667-25.856 57.216-57.6 57.216H273.757867a57.472 57.472 0 0 1-57.6-57.216V434.261333L490.6752 176.597333l274.517333 257.664v120.277334a21.333333 21.333333 0 1 0 42.666667 0v-80.213334l9.557333 8.96a21.12 21.12 0 0 0 30.122667-0.938666 21.290667 21.290667 0 0 0-0.938667-30.165334" /></svg>