<?xml version="1.0" standalone="no"?><!DOCTYPE svg PUBLIC "-//W3C//DTD SVG 1.1//EN" "http://www.w3.org/Graphics/SVG/1.1/DTD/svg11.dtd"><svg class="icon" width="200px" height="200.00px" viewBox="0 0 1024 1024" version="1.1" xmlns="http://www.w3.org/2000/svg"><path fill="#333333" d="M760.789333 170.666667C811.818667 170.666667 853.333333 212.181333 853.333333 263.168v228.821333a21.333333 21.333333 0 1 1-42.666666 0V263.168A49.92 49.92 0 0 0 760.789333 213.333333h-78.592v63.530667c0 11.818667-9.514667 21.333333-21.333333 21.333333h-298.666667a21.333333 21.333333 0 0 1-21.333333-21.333333V213.333333H263.168A49.92 49.92 0 0 0 213.333333 263.168v497.621333A49.92 49.92 0 0 0 263.168 810.666667h228.821333a21.333333 21.333333 0 1 1 0 42.666666H263.168A92.629333 92.629333 0 0 1 170.666667 760.789333V263.168C170.666667 212.181333 212.181333 170.666667 263.168 170.666667h497.621333zM383.530667 255.530667h256V213.333333h-256v42.197334zM703.573333 639.573333a64 64 0 1 0 0 128 64 64 0 0 0 0-128M703.573333 810.24a106.752 106.752 0 0 1-106.666666-106.666667c0-58.88 47.786667-106.666667 106.666666-106.666666 58.794667 0 106.666667 47.786667 106.666667 106.666666 0 58.794667-47.872 106.666667-106.666667 106.666667m-320-278.272a107.690667 107.690667 0 0 1 107.52-107.52 107.690667 107.690667 0 0 1 107.562667 107.52 107.690667 107.690667 0 0 1-107.52 107.562667 107.690667 107.690667 0 0 1-107.605333-107.52m320 22.186666c-24.661333 0-47.616 6.570667-68.138667 17.237334 3.498667-12.672 5.973333-25.728 5.973333-39.466667a150.442667 150.442667 0 0 0-150.272-150.186667 150.4 150.4 0 0 0-150.186666 150.186667 150.357333 150.357333 0 0 0 150.186666 150.229333c24.917333 0 48.128-6.698667 68.864-17.493333a147.754667 147.754667 0 0 0-5.76 38.826667c0 82.346667 66.986667 149.333333 149.333334 149.333333s149.333333-66.986667 149.333333-149.333333-66.986667-149.333333-149.333333-149.333334" /></svg>