<?xml version="1.0" standalone="no"?><!DOCTYPE svg PUBLIC "-//W3C//DTD SVG 1.1//EN" "http://www.w3.org/Graphics/SVG/1.1/DTD/svg11.dtd"><svg class="icon" width="200px" height="200.00px" viewBox="0 0 1024 1024" version="1.1" xmlns="http://www.w3.org/2000/svg"><path fill="#333333" d="M553.770667 760.405333H288.938667a21.333333 21.333333 0 0 0 0 42.666667h264.832a21.333333 21.333333 0 0 0 0-42.666667M890.88 541.269333c-21.546667-97.706667-109.909333-168.618667-210.133333-168.618666H243.498667l165.546666-165.546667A21.333333 21.333333 0 0 0 378.88 176.938667L178.901333 376.832c-0.341333 0.384-0.426667 0.810667-0.768 1.194667A20.992 20.992 0 0 0 170.666667 393.984a21.333333 21.333333 0 0 0 21.333333 21.333333h488.746667a173.482667 173.482667 0 0 1 168.448 135.125334 21.333333 21.333333 0 0 0 41.685333-9.173334M852.437333 608h-218.666666a21.333333 21.333333 0 0 0 0 42.666667h218.666666a21.333333 21.333333 0 0 0 0-42.666667M852.437333 693.333333h-218.666666a21.333333 21.333333 0 0 0 0 42.666667h218.666666a21.333333 21.333333 0 0 0 0-42.666667M852.437333 780.458667h-218.666666a21.333333 21.333333 0 0 0 0 42.666666h218.666666a21.333333 21.333333 0 0 0 0-42.666666" /></svg>