<?xml version="1.0" standalone="no"?><!DOCTYPE svg PUBLIC "-//W3C//DTD SVG 1.1//EN" "http://www.w3.org/Graphics/SVG/1.1/DTD/svg11.dtd"><svg class="icon" width="200px" height="200.00px" viewBox="0 0 1024 1024" version="1.1" xmlns="http://www.w3.org/2000/svg"><path fill="#333333" d="M373.333333 832a32 32 0 1 0 0 64 32 32 0 0 0 0-64M650.666667 832a32 32 0 1 0 0 64 32 32 0 0 0 0-64M828.202667 555.861333a21.333333 21.333333 0 0 0-27.178667 13.098667A169.130667 169.130667 0 0 1 641.877333 682.666667H290.56l-26.282667-341.333334h377.642667a169.130667 169.130667 0 0 1 159.232 113.92 21.333333 21.333333 0 0 0 40.277333-14.08A211.882667 211.882667 0 0 0 641.877333 298.666667H260.949333L255.914667 233.002667C255.829333 232.106667 255.317333 231.296 255.146667 230.442667 254.762667 228.565333 254.421333 226.858667 253.653333 225.28c-0.384-0.682667-0.853333-1.28-1.28-1.92a20.138667 20.138667 0 0 0-3.84-4.650667C247.893333 218.197333 247.168 217.898667 246.485333 217.386667a19.413333 19.413333 0 0 0-4.565333-2.56C240.426667 214.186667 238.933333 214.058667 237.397333 213.845333 236.458667 213.76 235.690667 213.333333 234.666667 213.333333h-42.666667a21.290667 21.290667 0 1 0 0 42.666667h22.912l41.173333 534.954667c0.085333 1.28 0.64 2.389333 0.981334 3.584 0.298667 1.28 0.426667 2.474667 0.938666 3.626666 0.682667 1.450667 1.706667 2.688 2.688 3.925334 0.64 0.853333 1.109333 1.792 1.877334 2.56 1.322667 1.28 2.858667 2.133333 4.437333 2.986666 0.768 0.426667 1.408 1.024 2.218667 1.365334a20.48 20.48 0 0 0 8.106666 1.706666h469.333334a21.333333 21.333333 0 0 0 0-42.666666H297.045333l-3.285333-42.666667h348.16a211.925333 211.925333 0 0 0 199.381333-142.336 21.333333 21.333333 0 0 0-13.098666-27.178667M641.792 405.333333H423.125333a21.333333 21.333333 0 0 0 0 42.666667h218.666667a21.333333 21.333333 0 0 0 0-42.666667M641.792 490.666667H423.125333a21.333333 21.333333 0 0 0 0 42.666666h218.666667a21.333333 21.333333 0 0 0 0-42.666666M641.792 577.749333H423.125333a21.333333 21.333333 0 0 0 0 42.666667h218.666667a21.333333 21.333333 0 0 0 0-42.666667" /></svg>