<?xml version="1.0" standalone="no"?><!DOCTYPE svg PUBLIC "-//W3C//DTD SVG 1.1//EN" "http://www.w3.org/Graphics/SVG/1.1/DTD/svg11.dtd"><svg class="icon" width="200px" height="200.00px" viewBox="0 0 1024 1024" version="1.1" xmlns="http://www.w3.org/2000/svg"><path fill="#333333" d="M220.75776 469.802667A169.642667 169.642667 0 0 1 170.667093 348.928a169.813333 169.813333 0 0 1 50.090667-120.874667c64.597333-64.597333 177.194667-64.597333 241.706667 0l283.093333 283.093334a21.333333 21.333333 0 0 0 30.165333-30.165334L547.41376 252.714667l32-32.085334a171.093333 171.093333 0 0 1 241.749333 0c66.688 66.688 66.688 175.104 0.64 241.194667l-0.554666 0.426667 30.08 30.293333a213.845333 213.845333 0 0 0 0-302.08 213.888 213.888 0 0 0-302.08 0l-32 32.085333-24.618667-24.618666a212.224 212.224 0 0 0-151.04-62.592 212.309333 212.309333 0 0 0-151.04 62.592A212.309333 212.309333 0 0 0 128.000427 348.928C128.000427 406.016 150.272427 459.648 190.592427 499.968l308.053333 308.053333a21.248 21.248 0 0 0 30.165333 0 21.333333 21.333333 0 0 0 0-30.122666l-308.053333-308.096zM458.624427 569.045333a21.333333 21.333333 0 0 0-30.165334 30.165334l90.496 90.496a21.333333 21.333333 0 1 0 30.165334-30.165334l-90.496-90.453333zM711.25376 602.368a64 64 0 1 0 0 128 64 64 0 0 0 0-128M711.25376 773.034667a106.752 106.752 0 0 1-106.666667-106.666667c0-58.88 47.786667-106.666667 106.666667-106.666667 58.837333 0 106.666667 47.786667 106.666667 106.666667 0 58.837333-47.829333 106.666667-106.666667 106.666667m0-256c-9.984 0-19.712 1.066667-29.141333 2.944l-87.210667-87.210667a21.333333 21.333333 0 0 0-30.165333 30.165333l73.813333 73.813334a149.546667 149.546667 0 0 0-40.234667 33.024l-70.186666-70.186667a21.333333 21.333333 0 0 0-30.165334 30.165333l76.714667 76.714667c-8.106667 18.346667-12.8 38.570667-12.8 59.904 0 82.346667 66.986667 149.333333 149.333333 149.333333s149.333333-66.986667 149.333334-149.333333-66.986667-149.333333-149.333334-149.333333" /></svg>