<?xml version="1.0" standalone="no"?><!DOCTYPE svg PUBLIC "-//W3C//DTD SVG 1.1//EN" "http://www.w3.org/Graphics/SVG/1.1/DTD/svg11.dtd"><svg class="icon" width="200px" height="200.00px" viewBox="0 0 1024 1024" version="1.1" xmlns="http://www.w3.org/2000/svg"><path fill="#333333" d="M863.445333 235.306667a20.181333 20.181333 0 0 0-40.32 0v54.698666A382.549333 382.549333 0 0 0 510.805333 127.957333 382.72 382.72 0 0 0 128 510.805333C128 721.877333 299.733333 893.653333 510.805333 893.653333a20.181333 20.181333 0 0 0 0-40.362666c-174.677333 0-318.976-131.498667-339.626666-300.714667H348.16c9.301333 0 17.493333-5.973333 20.309333-14.805333l30.122667-94.293334 48.725333 221.226667a21.333333 21.333333 0 0 0 20.181334 16.768h0.64a21.333333 21.333333 0 0 0 20.522666-15.445333l45.866667-160.426667 18.773333 35.626667a21.333333 21.333333 0 0 0 18.858667 11.349333h85.333333a21.333333 21.333333 0 1 0 0-42.666667h-72.448l-37.546666-71.253333a21.034667 21.034667 0 0 0-21.077334-11.264 21.205333 21.205333 0 0 0-18.304 15.36l-37.290666 130.346667L423.253333 356.906667a21.333333 21.333333 0 0 0-19.84-16.725334c-10.069333-1.28-18.432 5.589333-21.333333 14.805334l-49.493333 154.922666H168.405333A342.229333 342.229333 0 0 1 510.805333 168.32a342.442667 342.442667 0 0 1 313.045334 203.136c4.522667 10.24 16.426667 14.805333 26.581333 10.24a19.797333 19.797333 0 0 0 9.941333-10.154667 19.541333 19.541333 0 0 0 3.072-10.069333V235.306667zM701.056 638.848a64 64 0 1 0 0.042667 128 64 64 0 0 0 0-128M701.098667 809.514667a106.752 106.752 0 0 1-106.666667-106.666667c0-58.88 47.786667-106.666667 106.666667-106.666667 58.837333 0 106.666667 47.786667 106.666666 106.666667 0 58.837333-47.829333 106.666667-106.666666 106.666667m0-256c-82.346667 0-149.333333 66.986667-149.333334 149.333333s66.986667 149.333333 149.333334 149.333333 149.333333-66.986667 149.333333-149.333333-66.986667-149.333333-149.333333-149.333333" /></svg>