<?xml version="1.0" standalone="no"?><!DOCTYPE svg PUBLIC "-//W3C//DTD SVG 1.1//EN" "http://www.w3.org/Graphics/SVG/1.1/DTD/svg11.dtd"><svg class="icon" width="200px" height="200.00px" viewBox="0 0 1024 1024" version="1.1" xmlns="http://www.w3.org/2000/svg"><path fill="#333333" d="M760.789333 170.666667C811.818667 170.666667 853.333333 212.181333 853.333333 263.168v314.154667a21.333333 21.333333 0 1 1-42.666666 0V263.168A49.92 49.92 0 0 0 760.789333 213.333333h-78.592v63.530667c0 11.818667-9.514667 21.333333-21.333333 21.333333h-298.666667a21.333333 21.333333 0 0 1-21.333333-21.333333V213.333333H263.168A49.92 49.92 0 0 0 213.333333 263.168v497.621333A49.92 49.92 0 0 0 263.168 810.666667h269.696a21.333333 21.333333 0 1 1 0 42.666666H263.168A92.629333 92.629333 0 0 1 170.666667 760.789333V263.168C170.666667 212.181333 212.181333 170.666667 263.168 170.666667h497.621333zM383.530667 255.530667h256V213.333333h-256v42.197334zM831.573333 637.738667h-218.709333a21.333333 21.333333 0 0 0 0 42.666666h218.666667a21.333333 21.333333 0 0 0 0-42.666666M831.573333 723.072h-218.709333a21.333333 21.333333 0 0 0 0 42.666667h218.666667a21.333333 21.333333 0 0 0 0-42.666667M831.573333 810.24h-218.709333a21.333333 21.333333 0 0 0 0 42.666667h218.666667a21.333333 21.333333 0 0 0 0-42.666667M467.072 446.677333a21.333333 21.333333 0 0 0-30.165333 0l-88.021334 88.021334a21.205333 21.205333 0 0 0-4.608 23.168 20.992 20.992 0 0 0 20.565334 17.706666h295.125333a21.333333 21.333333 0 1 0 0-42.666666H411.050667l56.021333-56.064a21.333333 21.333333 0 0 0 0-30.165334" /></svg>