<?xml version="1.0" standalone="no"?><!DOCTYPE svg PUBLIC "-//W3C//DTD SVG 1.1//EN" "http://www.w3.org/Graphics/SVG/1.1/DTD/svg11.dtd"><svg class="icon" width="200px" height="200.00px" viewBox="0 0 1024 1024" version="1.1" xmlns="http://www.w3.org/2000/svg"><path fill="#333333" d="M656 810.666667H348.416a49.92 49.92 0 0 1-49.834667-49.877334V263.210667A49.92 49.92 0 0 1 348.416 213.333333H759.466667a49.92 49.92 0 0 1 49.877333 49.877334v185.258666a21.333333 21.333333 0 1 0 42.666667 0V263.210667A92.629333 92.629333 0 0 0 759.466667 170.666667H348.416a92.629333 92.629333 0 0 0-92.501333 92.544v497.578666c0 51.029333 41.514667 92.544 92.501333 92.544h307.584a21.333333 21.333333 0 0 0 0-42.666666M426.666667 299.093333a21.333333 21.333333 0 0 0-21.333334 21.333334v87.466666c0 81.706667 66.986667 148.138667 149.333334 148.138667s149.333333-66.432 149.333333-148.096V320.426667a21.333333 21.333333 0 0 0-42.666667 0v87.466666c0 58.112-47.829333 105.386667-106.666666 105.386667s-106.666667-47.274667-106.666667-105.386667V320.426667a21.333333 21.333333 0 0 0-21.333333-21.333334M831.445333 739.968H760.661333v-22.058667h70.826667a21.333333 21.333333 0 1 0 0-42.666666h-70.826667v-3.754667l62.890667-59.392a21.333333 21.333333 0 0 0-29.312-31.018667L737.834667 634.368 681.386667 581.034667a21.333333 21.333333 0 1 0-29.226667 31.018666L717.994667 674.261333v0.981334H643.242667a21.333333 21.333333 0 0 0 0 42.666666h74.752V739.968H643.242667a21.333333 21.333333 0 0 0 0 42.666667h74.752v51.2a21.290667 21.290667 0 1 0 42.666666 0V782.634667h70.826667a21.333333 21.333333 0 0 0 0-42.666667M192 259.114667a21.333333 21.333333 0 0 0-21.333333 21.333333v467.541333a21.333333 21.333333 0 0 0 42.666666 0V280.448a21.333333 21.333333 0 0 0-21.333333-21.333333" /></svg>