<?xml version="1.0" standalone="no"?><!DOCTYPE svg PUBLIC "-//W3C//DTD SVG 1.1//EN" "http://www.w3.org/Graphics/SVG/1.1/DTD/svg11.dtd"><svg class="icon" width="200px" height="200.00px" viewBox="0 0 1024 1024" version="1.1" xmlns="http://www.w3.org/2000/svg"><path fill="#333333" d="M668.376747 436.138667a21.333333 21.333333 0 0 0 29.866666 4.650666l145.066667-105.728a21.333333 21.333333 0 0 0-25.130667-34.56L756.995413 345.173333c-55.210667-81.493333-148.053333-131.84-246.912-131.84a298.666667 298.666667 0 0 0-246.442666 130.261334L204.632747 300.544a21.376 21.376 0 0 0-25.130667 34.517333l62.72 45.653334A296.192 296.192 0 0 0 211.416747 512c0 157.866667 123.306667 287.274667 278.656 297.685333v69.888a21.333333 21.333333 0 1 0 42.666666 0v-70.058666c152.192-11.605333 274.005333-138.752 275.968-293.717334a21.376 21.376 0 0 0-21.077333-21.589333h-0.256a21.333333 21.333333 0 0 0-21.333333 21.077333c-1.664 131.712-104.362667 240.085333-233.301334 251.562667v-66.816a21.333333 21.333333 0 1 0-42.666666 0v66.986667c-131.84-10.282667-235.946667-120.576-235.946667-255.018667 0-37.717333 8.362667-73.472 23.082667-105.728l47.402666 34.517333a21.461333 21.461333 0 0 0 29.824-4.650666 21.376 21.376 0 0 0-4.693333-29.866667l-51.626667-37.632A256 256 0 0 1 510.040747 256c86.613333 0 164.864 42.666667 212.565333 114.176l-49.578667 36.138667a21.333333 21.333333 0 0 0-4.693333 29.824" /></svg>