<?xml version="1.0" standalone="no"?><!DOCTYPE svg PUBLIC "-//W3C//DTD SVG 1.1//EN" "http://www.w3.org/Graphics/SVG/1.1/DTD/svg11.dtd"><svg class="icon" width="200px" height="200.00px" viewBox="0 0 1024 1024" version="1.1" xmlns="http://www.w3.org/2000/svg"><path fill="#333333" d="M871.722667 572.501333a19.968 19.968 0 0 0-23.381334 16.298667 320.64 320.64 0 0 1-316.16 264.533333C354.986667 853.333333 210.901333 709.290667 210.901333 532.138667A321.152 321.152 0 0 1 532.138667 210.944a321.066667 321.066667 0 0 1 316.202666 264.448 20.181333 20.181333 0 0 0 39.68-7.082667 357.504 357.504 0 0 0-56.192-138.368A361.301333 361.301333 0 0 0 532.138667 170.666667 361.386667 361.386667 0 0 0 170.666667 532.138667C170.666667 731.477333 332.842667 893.610667 532.138667 893.610667a360.917333 360.917333 0 0 0 355.882666-297.728 20.181333 20.181333 0 0 0-16.298666-23.381334M531.712 784.341333a21.333333 21.333333 0 0 0 21.333333-21.333333v-209.493333h209.536a21.333333 21.333333 0 0 0 0-42.666667h-209.493333V301.226667a21.333333 21.333333 0 0 0-42.666667 0v209.578666H300.8a21.333333 21.333333 0 0 0 0 42.666667h209.578667v209.536a21.333333 21.333333 0 0 0 21.333333 21.333333" /></svg>