<?xml version="1.0" standalone="no"?><!DOCTYPE svg PUBLIC "-//W3C//DTD SVG 1.1//EN" "http://www.w3.org/Graphics/SVG/1.1/DTD/svg11.dtd"><svg class="icon" width="200px" height="200.00px" viewBox="0 0 1024 1024" version="1.1" xmlns="http://www.w3.org/2000/svg"><path fill="#333333" d="M789.333333 512a21.333333 21.333333 0 0 0 21.333334-21.333333V299.008C810.666667 251.776 773.418667 213.333333 727.637333 213.333333H630.613333a128.298667 128.298667 0 0 0-120.405333-85.333333 128.682667 128.682667 0 0 0-120.277333 85.333333H296.32C250.581333 213.333333 213.333333 251.776 213.333333 299.008v511.317333C213.333333 857.557333 250.581333 896 296.32 896h431.317333C773.418667 896 810.666667 857.557333 810.666667 810.325333V618.666667a21.333333 21.333333 0 0 0-42.666667 0v191.658666c0 23.722667-18.133333 43.008-40.362667 43.008H296.32C274.090667 853.333333 256 834.048 256 810.325333V299.008C256 275.285333 274.090667 256 296.32 256h107.178667c4.693333 0 8.832-1.834667 12.330666-4.394667a20.992 20.992 0 0 0 11.050667-14.122666A85.845333 85.845333 0 0 1 510.208 170.666667c40.448 0 75.605333 28.714667 83.626667 68.266666a21.333333 21.333333 0 0 0 20.864 17.066667c0.896 0 1.792-0.170667 2.688-0.256 0.426667 0.042667 0.810667 0.256 1.28 0.256h108.970666c22.229333 0 40.362667 19.285333 40.362667 43.008V490.666667a21.333333 21.333333 0 0 0 21.333333 21.333333M597.333333 428.458667a85.333333 85.333333 0 1 0-170.666666 0c0 39.68 27.264 72.789333 64 82.304v178.432A42.154667 42.154667 0 0 0 469.333333 725.333333a42.666667 42.666667 0 1 0 85.333334 0 41.941333 41.941333 0 0 0-21.333334-36.096V510.72a85.12 85.12 0 0 0 64-82.346667" /></svg>