<?xml version="1.0" standalone="no"?><!DOCTYPE svg PUBLIC "-//W3C//DTD SVG 1.1//EN" "http://www.w3.org/Graphics/SVG/1.1/DTD/svg11.dtd"><svg class="icon" width="200px" height="200.00px" viewBox="0 0 1024 1024" version="1.1" xmlns="http://www.w3.org/2000/svg"><path fill="#333333" d="M832 470.912a21.333333 21.333333 0 0 0 21.333333-21.333333V220.16a21.034667 21.034667 0 0 0-17.322666-20.48c-1.578667-0.810667-2.986667-1.706667-4.778667-2.133333L516.565333 128.298667c-2.048-0.426667-4.010667-0.256-5.973333-0.128h-0.042667c-0.896 0.085333-1.834667-0.128-2.688 0.042666-1.92-0.128-3.84-0.341333-5.845333 0.085334L192.682667 197.589333c-1.792 0.426667-3.2 1.322667-4.736 2.133334a21.034667 21.034667 0 0 0-17.28 20.48v325.333333c0 1.408 0.554667 2.645333 0.810666 3.968 8.32 198.101333 173.482667 324.906667 337.109334 348.288a24.106667 24.106667 0 0 0 3.029333 0.213333L512 897.92l0.426667 0.085333a24.106667 24.106667 0 0 0 3.029333-0.213333c144.469333-20.693333 310.912-128.853333 335.018667-317.568a21.333333 21.333333 0 0 0-42.368-5.376c-21.077333 165.461333-167.722667 260.906667-296.064 280.234667C363.178667 832.725333 213.333333 715.818667 213.333333 533.973333V236.714667l296.064-66.389334L810.666667 236.714667V449.578667a21.333333 21.333333 0 0 0 21.333333 21.333333M523.093333 428.117333l60.330667-60.245333a45.397333 45.397333 0 0 1 64.554667 0c8.618667 8.618667 13.354667 20.053333 13.354666 32.256 0 12.202667-4.736 23.637333-13.354666 32.298667l-60.245334 60.288a46.805333 46.805333 0 0 1-64.597333 0 45.824 45.824 0 0 1 0-64.597334m32.298667 120.618667a87.893333 87.893333 0 0 0 62.464-25.856l60.245333-60.288c16.64-16.682667 25.856-38.912 25.856-62.464 0-23.594667-9.216-45.781333-25.856-62.421333-33.322667-33.322667-91.562667-33.322667-124.885333 0l-60.288 60.245333a88.405333 88.405333 0 0 0-13.013334 107.776L329.813333 655.786667a21.290667 21.290667 0 0 0 15.061334 36.394666 21.248 21.248 0 0 0 15.104-6.229333l28.032-28.074667 26.154666 26.154667a21.333333 21.333333 0 1 0 30.165334-30.165333l-26.112-26.154667 91.861333-91.861333a87.466667 87.466667 0 0 0 45.312 12.8" /></svg>