<?xml version="1.0" standalone="no"?><!DOCTYPE svg PUBLIC "-//W3C//DTD SVG 1.1//EN" "http://www.w3.org/Graphics/SVG/1.1/DTD/svg11.dtd"><svg class="icon" width="200px" height="200.00px" viewBox="0 0 1024 1024" version="1.1" xmlns="http://www.w3.org/2000/svg"><path fill="#333333" d="M771.882667 348.074667H201.728L257.365333 292.437333a21.333333 21.333333 0 0 0-30.165333-30.165333L139.178667 350.250667c-0.426667 0.426667-0.554667 0.981333-0.938667 1.408a20.992 20.992 0 0 0-10.24 17.749333 21.333333 21.333333 0 0 0 21.333333 21.333333h622.506667c45.397333 0 82.346667 36.949333 82.346667 82.389334a21.290667 21.290667 0 1 0 42.666666 0 125.226667 125.226667 0 0 0-125.013333-125.013334M253.866667 598.229333H523.178667a21.333333 21.333333 0 0 0 0-42.666666H253.866667A125.269333 125.269333 0 0 0 128.768 680.704 125.226667 125.226667 0 0 0 253.866667 805.717333H523.178667a21.333333 21.333333 0 0 0 0-42.666666H253.866667a82.517333 82.517333 0 0 1-82.432-82.346667c0-45.482667 36.992-82.474667 82.432-82.474667M834.304 754.645333a7.168 7.168 0 0 1-7.168 7.125334h-199.04a7.125333 7.125333 0 0 1-7.125333-7.125334v-199.04c0-3.925333 3.2-7.168 7.125333-7.168h199.04c3.968 0 7.168 3.242667 7.168 7.168v199.04z m-7.168-248.874666h-199.04c-27.477333 0-49.792 22.357333-49.792 49.834666v199.04c0 27.477333 22.314667 49.792 49.792 49.792h199.04c27.477333 0 49.834667-22.314667 49.834667-49.792v-199.04a49.92 49.92 0 0 0-49.834667-49.834666zM770.304 569.770667h-85.333333a21.333333 21.333333 0 0 0 0 42.666666h85.333333a21.333333 21.333333 0 0 0 0-42.666666" /></svg>