<?xml version="1.0" standalone="no"?><!DOCTYPE svg PUBLIC "-//W3C//DTD SVG 1.1//EN" "http://www.w3.org/Graphics/SVG/1.1/DTD/svg11.dtd"><svg class="icon" width="200px" height="200.00px" viewBox="0 0 1024 1024" version="1.1" xmlns="http://www.w3.org/2000/svg"><path fill="#333333" d="M253.312 512l0.810667-4.821333L512 345.216l257.877333 161.962667 0.810667 4.821333H253.312z m596.010667 209.749333a21.376 21.376 0 0 0-42.069334 7.168l3.413334 18.261334c0 34.986667-28.714667 63.488-64 63.488h-128v-46.208c0-58.837333-47.829333-106.666667-106.666667-106.666667a106.752 106.752 0 0 0-106.666667 106.666667V810.666667h-128c-35.285333 0-64-28.501333-64.298666-59.946667L246.101333 554.666667h531.797334l7.765333 46.208a21.333333 21.333333 0 0 0 42.112-7.082667L810.368 490.666667c0-0.213333-0.170667-0.341333-0.213333-0.554667-0.298667-1.664-1.066667-3.114667-1.792-4.650667-0.469333-1.024-0.725333-2.090667-1.322667-2.986666-0.853333-1.237333-1.962667-2.133333-3.029333-3.2-0.938667-0.896-1.706667-1.92-2.773334-2.645334-0.213333-0.128-0.341333-0.384-0.554666-0.512L533.333333 308.181333V256h87.04a21.333333 21.333333 0 1 0 0-42.666667H533.333333V192a21.333333 21.333333 0 1 0-42.666666 0v116.181333L223.36 476.117333c-0.256 0.170667-0.426667 0.469333-0.682667 0.64-0.725333 0.512-1.28 1.237333-1.962666 1.877334-1.365333 1.237333-2.773333 2.389333-3.754667 3.882666-0.554667 0.810667-0.768 1.792-1.194667 2.688-0.768 1.578667-1.578667 3.157333-1.92 4.906667l-0.213333 0.554667L170.666667 747.178667A106.496 106.496 0 0 0 277.333333 853.333333h144a20.906667 20.906667 0 0 0 13.525334-5.205333 21.290667 21.290667 0 0 0 13.141333-19.669333v-64c0-35.285333 28.714667-64 64-64s64 28.714667 64 64v64c0 3.882667 1.28 7.338667 3.157333 10.496a21.162667 21.162667 0 0 0 19.925334 14.378666H746.666667c58.837333 0 106.666667-47.616 106.368-109.738666l-3.712-21.845334z" /></svg>