<?xml version="1.0" standalone="no"?><!DOCTYPE svg PUBLIC "-//W3C//DTD SVG 1.1//EN" "http://www.w3.org/Graphics/SVG/1.1/DTD/svg11.dtd"><svg class="icon" width="200px" height="200.00px" viewBox="0 0 1024 1024" version="1.1" xmlns="http://www.w3.org/2000/svg"><path fill="#333333" d="M488.917333 853.333333H296.362667C274.133333 853.333333 256 834.048 256 810.325333V299.008C256 275.285333 274.133333 256 296.362667 256h107.178666c4.778667 0 8.96-1.877333 12.501334-4.522667a21.077333 21.077333 0 0 0 10.88-13.994666A85.76 85.76 0 0 1 510.250667 170.666667c40.405333 0 75.562667 28.714667 83.584 68.266666a21.333333 21.333333 0 0 0 20.864 17.066667c0.896 0 1.792-0.170667 2.688-0.256 0.426667 0.042667 0.810667 0.256 1.28 0.256h109.013333c22.229333 0 40.32 19.285333 40.32 43.008v236.117333a21.333333 21.333333 0 0 0 42.666667 0V299.008C810.666667 251.776 773.418667 213.333333 727.68 213.333333H630.613333a128.298667 128.298667 0 0 0-120.362666-85.333333c-54.314667 0-102.4 35.157333-120.277334 85.333333H296.362667C250.581333 213.333333 213.333333 251.776 213.333333 299.008v511.317333C213.333333 857.557333 250.581333 896 296.362667 896h192.554666a21.333333 21.333333 0 0 0 0-42.666667M341.333333 554.666667a21.333333 21.333333 0 0 0 21.333334 21.333333h295.125333a21.333333 21.333333 0 0 0 21.333333-21.333333 20.906667 20.906667 0 0 0-7.381333-15.829334c-0.256-0.341333-0.384-0.725333-0.64-1.024l-88.021333-88.021333a21.333333 21.333333 0 0 0-30.165334 30.208l53.333334 53.333333H362.666667a21.333333 21.333333 0 0 0-21.333334 21.333334M702.250667 682.666667a64 64 0 1 0 0 128.042666 64 64 0 0 0 0-128.042666M702.250667 853.333333a106.794667 106.794667 0 0 1-106.666667-106.666666c0-58.794667 47.829333-106.666667 106.666667-106.666667s106.666667 47.872 106.666666 106.666667-47.829333 106.666667-106.666666 106.666666m0-256c-82.346667 0-149.333333 66.986667-149.333334 149.333334s66.986667 149.333333 149.333334 149.333333 149.333333-66.986667 149.333333-149.333333-66.986667-149.333333-149.333333-149.333334" /></svg>