<?xml version="1.0" standalone="no"?><!DOCTYPE svg PUBLIC "-//W3C//DTD SVG 1.1//EN" "http://www.w3.org/Graphics/SVG/1.1/DTD/svg11.dtd"><svg class="icon" width="200px" height="200.00px" viewBox="0 0 1024 1024" version="1.1" xmlns="http://www.w3.org/2000/svg"><path fill="#333333" d="M906.817707 820.522667l-123.136-213.248a21.162667 21.162667 0 0 0-29.098667-7.808 21.248 21.248 0 0 0-7.808 29.141333L851.393707 809.856H186.305707L518.849707 233.856l154.026666 266.666667c0.426667 0.896 1.28 1.408 1.877334 2.176 1.024 1.28 1.92 2.602667 3.242666 3.669333 1.194667 0.981333 2.56 1.578667 4.010667 2.261333 0.981333 0.469333 1.706667 1.237333 2.816 1.578667 0.213333 0.042667 0.384 0 0.597333 0.085333 0.554667 0.128 1.109333 0.128 1.706667 0.256 1.408 0.256 2.773333 0.64 4.181333 0.64 0.341333 0 0.597333-0.298667 0.938667-0.298666a20.949333 20.949333 0 0 0 9.728-2.56c0.426667-0.256 0.64-0.64 1.024-0.896 0.64-0.426667 1.066667-0.981333 1.664-1.493334a20.266667 20.266667 0 0 0 6.357333-8.746666c0.128-0.341333 0.512-0.469333 0.64-0.853334l37.973334-118.485333a21.333333 21.333333 0 1 0-40.661334-13.013333l-23.296 72.661333L537.324373 180.522667c-7.594667-13.184-29.354667-13.184-36.906666 0l-369.536 640A21.418667 21.418667 0 0 0 149.356373 852.522667h738.986667a21.333333 21.333333 0 0 0 18.474667-32M612.844373 621.866667a21.333333 21.333333 0 0 0 0-42.666667h-70.784v-3.84l62.848-59.306667a21.333333 21.333333 0 1 0-29.226666-31.018666l-56.448 53.248-56.490667-53.248a21.248 21.248 0 1 0-29.226667 31.018666l65.877334 62.122667v1.024H424.641707a21.333333 21.333333 0 0 0 0 42.666667h74.752v22.058666H424.641707a21.333333 21.333333 0 1 0 0 42.666667h74.752v51.2a21.333333 21.333333 0 1 0 42.666666 0v-51.2h70.826667a21.333333 21.333333 0 0 0 0-42.666667h-70.826667v-22.058666h70.826667z" /></svg>