<?xml version="1.0" standalone="no"?><!DOCTYPE svg PUBLIC "-//W3C//DTD SVG 1.1//EN" "http://www.w3.org/Graphics/SVG/1.1/DTD/svg11.dtd"><svg class="icon" width="200px" height="200.00px" viewBox="0 0 1024 1024" version="1.1" xmlns="http://www.w3.org/2000/svg"><path fill="#333333" d="M760.832 170.666667H263.210667A92.629333 92.629333 0 0 0 170.666667 263.168V760.746667c0 51.029333 41.514667 92.544 92.544 92.544h225.237333a21.333333 21.333333 0 1 0 0-42.666667H263.210667A49.92 49.92 0 0 1 213.333333 760.746667V263.210667A49.92 49.92 0 0 1 263.210667 213.333333h497.621333A49.92 49.92 0 0 1 810.666667 263.168V576.426667a21.333333 21.333333 0 1 0 42.666666 0V263.168A92.629333 92.629333 0 0 0 760.832 170.666667M383.573333 299.093333a21.333333 21.333333 0 0 0-21.333333 21.333334v87.466666c0 81.664 66.986667 148.096 149.333333 148.096s149.333333-66.432 149.333334-148.053333V320.426667a21.333333 21.333333 0 0 0-42.666667 0v87.466666c0 58.112-47.786667 105.386667-106.666667 105.386667-58.837333 0-106.666667-47.274667-106.666666-105.386667V320.426667a21.333333 21.333333 0 0 0-21.333334-21.333334M814.933333 644.906667L651.946667 802.261333 589.141333 737.194667a21.333333 21.333333 0 0 0-30.72 29.653333l77.653334 80.426667a21.248 21.248 0 0 0 30.208 0.469333l178.346666-172.16a21.333333 21.333333 0 1 0-29.653333-30.72" /></svg>