<?xml version="1.0" standalone="no"?><!DOCTYPE svg PUBLIC "-//W3C//DTD SVG 1.1//EN" "http://www.w3.org/Graphics/SVG/1.1/DTD/svg11.dtd"><svg class="icon" width="200px" height="200.00px" viewBox="0 0 1024 1024" version="1.1" xmlns="http://www.w3.org/2000/svg"><path fill="#333333" d="M513.749333 231.210667l135.082667 210.261333-135.082667 95.573333-135.082666-95.573333 135.082666-210.261333zM232.32 711.594667c0.341333 1.152 0.64 2.261333 1.152 3.285333 0.682667 1.408 1.578667 2.56 2.56 3.754667 0.64 0.853333 1.28 1.706667 2.048 2.474666a20.48 20.48 0 0 0 4.053333 2.730667c0.853333 0.426667 1.536 1.066667 2.474667 1.408a20.736 20.736 0 0 0 7.808 1.578667h328.874667a21.290667 21.290667 0 1 0 0-42.666667H270.506667L220.629333 381.909333l280.789334 198.741334c0.426667 0.298667 0.896 0.170667 1.28 0.426666a20.778667 20.778667 0 0 0 10.922666 3.413334l0.128 0.085333 0.128-0.042667a20.778667 20.778667 0 0 0 10.922667-3.456c0.426667-0.256 0.896-0.128 1.28-0.426666l278.784-197.290667-16.810667 101.76a21.290667 21.290667 0 0 0 21.077334 24.746667c10.24 0 19.285333-7.381333 21.034666-17.834667l24.618667-149.333333a21.333333 21.333333 0 0 0-17.493333-24.490667c-1.194667-0.213333-2.261333 0.085333-3.370667 0.085333a21.418667 21.418667 0 0 0-16.042667 3.541334l-134.144 94.976L531.712 180.181333 531.456 179.925333C530.773333 178.858667 529.664 178.048 528.725333 177.109333 527.658667 176 526.72 174.805333 525.482667 173.952L525.269333 173.738667C524.373333 173.141333 523.306667 173.013333 522.325333 172.586667 520.832 171.946667 519.424 171.136 517.845333 170.794667 516.48 170.581333 515.114667 170.752 513.749333 170.752c-1.408 0-2.730667-0.170667-4.096 0.085333-1.664 0.341333-3.114667 1.109333-4.650666 1.834667-0.853333 0.426667-1.92 0.512-2.773334 1.066667l-0.213333 0.213333c-1.28 0.853333-2.304 2.133333-3.413333 3.328-0.853333 0.853333-1.877333 1.621333-2.56 2.645333L495.786667 180.181333 343.808 416.810667 209.664 321.834667a21.546667 21.546667 0 0 0-16.170667-3.498667c-1.664-0.085333-3.285333-0.426667-4.992-0.128a21.333333 21.333333 0 0 0-17.578666 24.490667l60.458666 366.250666c0.128 0.981333 0.64 1.706667 0.938667 2.645334zM494.208 810.368H236.416a21.333333 21.333333 0 0 0 0 42.666667h257.792a21.333333 21.333333 0 0 0 0-42.666667M810.453333 612.650667L738.474667 684.672l-22.144-22.144 71.978666-72.021333c5.504-5.418667 14.592-5.504 22.144 2.133333 5.504 5.546667 5.504 14.506667 0 20.053333m28.074667-52.352a56.917333 56.917333 0 0 0-80.384 0L686.165333 632.362667l-12.842666-12.8a21.333333 21.333333 0 0 0-30.165334 30.122666l27.861334 27.861334 0.042666 0.042666 0.042667 0.042667 11.477333 11.52-90.24 90.24a20.522667 20.522667 0 0 0-12.288 1.365333l-0.170666 0.085334a20.608 20.608 0 0 0-6.229334 4.138666c-0.213333 0.170667-0.469333 0.256-0.682666 0.469334-0.469333 0.426667-0.597333 0.981333-0.981334 1.450666-0.725333 0.896-1.706667 1.578667-2.304 2.645334L552.106667 820.608c-0.469333 0.853333-0.512 1.792-0.896 2.645333-0.512 1.365333-1.024 2.645333-1.322667 4.053334-0.213333 1.365333-0.256 2.688-0.213333 4.053333 0 1.365333 0.042667 2.645333 0.298666 4.010667 0.298667 1.450667 0.853333 2.730667 1.450667 4.096 0.341333 0.853333 0.384 1.749333 0.896 2.56 0.170667 0.298667 0.512 0.426667 0.725333 0.725333a21.248 21.248 0 0 0 7.082667 6.954667h0.085333c2.56 1.450667 5.504 1.962667 8.448 2.261333 0.682667 0.042667 1.322667 0.512 1.962667 0.512h0.042667c0.341333 0 0.597333-0.213333 0.938666-0.256a21.930667 21.930667 0 0 0 9.813334-2.688h0.128l30.549333-18.176a21.162667 21.162667 0 0 0 10.154667-21.504l90.496-90.453333 37.845333 37.76a21.248 21.248 0 0 0 30.165333 0 21.333333 21.333333 0 0 0 0-30.165334l-12.117333-12.117333 71.978667-72.021333c22.186667-22.186667 22.186667-58.197333-2.090667-82.474667" /></svg>