<?xml version="1.0" standalone="no"?><!DOCTYPE svg PUBLIC "-//W3C//DTD SVG 1.1//EN" "http://www.w3.org/Graphics/SVG/1.1/DTD/svg11.dtd"><svg class="icon" width="200px" height="200.00px" viewBox="0 0 1024 1024" version="1.1" xmlns="http://www.w3.org/2000/svg"><path fill="#333333" d="M570.752 810.666667H263.168A49.92 49.92 0 0 1 213.333333 760.789333V263.210667A49.92 49.92 0 0 1 263.168 213.333333h411.050667a49.92 49.92 0 0 1 49.877333 49.877334v185.258666a21.333333 21.333333 0 1 0 42.666667 0V263.210667A92.629333 92.629333 0 0 0 674.218667 170.666667H263.168A92.629333 92.629333 0 0 0 170.666667 263.210667v497.578666C170.666667 811.818667 212.181333 853.333333 263.168 853.333333h307.584a21.333333 21.333333 0 0 0 0-42.666666M341.418667 299.093333a21.333333 21.333333 0 0 0-21.333334 21.333334v87.466666c0 81.706667 66.986667 148.138667 149.333334 148.138667s149.333333-66.432 149.333333-148.096V320.426667a21.333333 21.333333 0 0 0-42.666667 0v87.466666c0 58.112-47.829333 105.386667-106.666666 105.386667s-106.666667-47.274667-106.666667-105.386667V320.426667a21.333333 21.333333 0 0 0-21.333333-21.333334M746.24 717.909333a21.333333 21.333333 0 0 0 0-42.666666H675.413333v-3.754667l62.890667-59.392a21.333333 21.333333 0 0 0-29.312-31.018667l-56.405333 53.333334L596.096 581.034667a21.333333 21.333333 0 0 0-29.226667 31.018666L632.746667 674.261333v0.981334H557.994667a21.333333 21.333333 0 0 0 0 42.666666H632.746667V739.968H557.994667a21.333333 21.333333 0 1 0 0 42.666667H632.746667v51.2a21.333333 21.333333 0 1 0 42.666666 0V782.634667h70.826667a21.333333 21.333333 0 0 0 0-42.666667H675.413333v-22.058667h70.826667zM832.085333 259.114667a21.333333 21.333333 0 0 0-21.333333 21.333333v467.541333a21.333333 21.333333 0 0 0 42.666667 0V280.448a21.333333 21.333333 0 0 0-21.333334-21.333333" /></svg>