<?xml version="1.0" standalone="no"?><!DOCTYPE svg PUBLIC "-//W3C//DTD SVG 1.1//EN" "http://www.w3.org/Graphics/SVG/1.1/DTD/svg11.dtd"><svg class="icon" width="200px" height="200.00px" viewBox="0 0 1024 1024" version="1.1" xmlns="http://www.w3.org/2000/svg"><path fill="#333333" d="M832 469.76a21.333333 21.333333 0 0 1-21.333333-21.333333V263.168A49.92 49.92 0 0 0 760.789333 213.333333h-78.592v63.530667c0 11.818667-9.514667 21.333333-21.333333 21.333333h-298.666667a21.333333 21.333333 0 0 1-21.333333-21.333333V213.333333H263.168A49.92 49.92 0 0 0 213.333333 263.168v497.621333A49.92 49.92 0 0 0 263.168 810.666667h497.621333A49.92 49.92 0 0 0 810.666667 760.789333V576.426667a21.333333 21.333333 0 1 1 42.666666 0v184.362666A92.629333 92.629333 0 0 1 760.789333 853.333333H263.168A92.629333 92.629333 0 0 1 170.666667 760.789333V263.168C170.666667 212.181333 212.181333 170.666667 263.168 170.666667h497.621333C811.818667 170.666667 853.333333 212.181333 853.333333 263.168v185.258667a21.333333 21.333333 0 0 1-21.333333 21.333333zM383.530667 255.530667h256V213.333333h-256v42.197334zM383.573333 532.010667a107.648 107.648 0 0 1 107.52-107.562667c59.306667 0 107.562667 48.213333 107.562667 107.52a107.690667 107.690667 0 0 1-107.52 107.605333 107.690667 107.690667 0 0 1-107.605333-107.562666m107.562666-150.229334a150.4 150.4 0 0 0-150.186666 150.186667 150.4 150.4 0 0 0 150.186666 150.272c35.669333 0 68.053333-13.056 93.866667-33.92l61.952 67.797333a21.077333 21.077333 0 0 0 30.122667 1.408 21.290667 21.290667 0 0 0 1.365333-30.122666l-63.957333-70.058667a148.906667 148.906667 0 0 0 26.88-85.333333 150.442667 150.442667 0 0 0-150.186667-150.229334" /></svg>