<?xml version="1.0" standalone="no"?><!DOCTYPE svg PUBLIC "-//W3C//DTD SVG 1.1//EN" "http://www.w3.org/Graphics/SVG/1.1/DTD/svg11.dtd"><svg class="icon" width="200px" height="200.00px" viewBox="0 0 1024 1024" version="1.1" xmlns="http://www.w3.org/2000/svg"><path fill="#333333" d="M393.6 341.333333l-40.32 321.237334-60.544-321.28h-53.76l-59.477333 321.28-40.917334-321.28H85.333333l68.906667 399.189333h49.92l61.653333-321.28 62.293334 321.28h49.834666L446.293333 341.333333zM567.210667 553.813333h-34.730667v143.445334h34.730667c36.437333 0 53.76-16.768 53.76-71.68 0-51.072-17.92-71.808-53.76-71.808m-0.554667-169.301334h-34.176v127.829334h34.133333c34.773333 0 51.626667-18.474667 51.626667-63.914667 0-48.768-16.853333-63.914667-51.626667-63.914667m77.397334 331.946667c-16.256 16.725333-38.656 24.021333-73.984 24.021333h-85.76V341.333333h86.314666c34.773333 0 56.618667 7.253333 72.874667 24.106667 17.365333 18.517333 22.997333 41.472 22.997333 81.834667 0 27.434667-2.816 50.986667-21.888 70.058666-6.741333 6.741333-14.549333 12.373333-23.04 15.146667 9.6 2.773333 18.005333 7.850667 24.746667 15.104 20.693333 21.888 22.954667 51.029333 22.954667 77.952 0 47.061333-7.296 72.32-25.216 90.88M823.808 384.469333H781.226667v141.824h42.666666c36.949333 0 45.354667-28.586667 45.354667-71.210666 0-42.026667-8.405333-70.613333-45.397333-70.613334zM879.829333 740.437333L824.917333 568.917333H781.226667V740.437333H733.013333V341.290667h90.24c60.586667 0 94.165333 26.368 94.165334 113.792 0 55.509333-13.482667 88.021333-48.213334 104.32L930.304 740.437333H879.829333z" /></svg>