<?xml version="1.0" standalone="no"?><!DOCTYPE svg PUBLIC "-//W3C//DTD SVG 1.1//EN" "http://www.w3.org/Graphics/SVG/1.1/DTD/svg11.dtd"><svg class="icon" width="200px" height="200.00px" viewBox="0 0 1024 1024" version="1.1" xmlns="http://www.w3.org/2000/svg"><path fill="#333333" d="M595.553707 406.954667h-213.333334a21.333333 21.333333 0 0 0 0 42.666666h213.333334a21.333333 21.333333 0 0 0 0-42.666666M595.553707 534.954667h-213.333334a21.333333 21.333333 0 0 0 0 42.666666h213.333334a21.333333 21.333333 0 0 0 0-42.666666M704.012373 641.621333a64 64 0 1 0 0.042667 128.042667 64 64 0 0 0 0-128.042667M704.012373 812.288A106.794667 106.794667 0 0 1 597.345707 705.621333C597.345707 646.826667 645.17504 598.954667 704.012373 598.954667 762.892373 598.954667 810.67904 646.826667 810.67904 705.621333S762.892373 812.288 704.012373 812.288m0-256C635.31904 556.288 577.804373 603.221333 560.524373 666.581333a20.736 20.736 0 0 0-11.178666-3.626666H384.012373a21.333333 21.333333 0 0 0 0 42.666666h165.333334c1.92 0 3.669333-0.597333 5.461333-1.109333 0 0.384-0.128 0.725333-0.128 1.109333C554.67904 787.968 621.665707 854.954667 704.012373 854.954667S853.345707 787.968 853.345707 705.621333 786.35904 556.288 704.012373 556.288M490.67904 811.306667H273.761707c-31.744 0-57.6-25.685333-57.6-57.173334V434.261333L490.67904 176.597333l326.741333 306.773334a21.290667 21.290667 0 0 0 30.122667-1.024 21.290667 21.290667 0 0 0-0.938667-30.165334L507.19104 133.589333A21.248 21.248 0 0 0 490.67904 128.085333a21.162667 21.162667 0 0 0-16.512 5.546667L134.753707 452.181333a21.290667 21.290667 0 0 0 14.592 36.906667 21.290667 21.290667 0 0 0 14.592-5.76l9.557333-8.96v279.722667a100.181333 100.181333 0 0 0 100.266667 99.882666H490.67904a21.333333 21.333333 0 0 0 0-42.666666" /></svg>