<?xml version="1.0" standalone="no"?><!DOCTYPE svg PUBLIC "-//W3C//DTD SVG 1.1//EN" "http://www.w3.org/Graphics/SVG/1.1/DTD/svg11.dtd"><svg class="icon" width="200px" height="200.00px" viewBox="0 0 1024 1024" version="1.1" xmlns="http://www.w3.org/2000/svg"><path fill="#333333" d="M836.053333 199.68c-1.536-0.768-2.986667-1.706667-4.736-2.090667L516.650667 128.298667C514.602667 127.872 512.554667 128 510.549333 128.170667h-0.256c-0.725333 0.042667-1.493333-0.128-2.218666 0C506.069333 128.042667 504.106667 127.872 502.058667 128.298667L192.725333 197.589333c-1.749333 0.426667-3.2 1.322667-4.736 2.133334a21.077333 21.077333 0 0 0-17.28 20.48v325.333333c0 1.408 0.554667 2.645333 0.810667 3.968 8.32 198.101333 173.482667 324.906667 337.066667 348.288A24.746667 24.746667 0 0 0 511.616 898.005333l0.426667-0.085333 0.426666 0.085333a25.984 25.984 0 0 0 3.072-0.213333c6.656-0.938667 13.397333-2.133333 20.138667-3.413333a21.333333 21.333333 0 0 0-8.192-41.898667 339.754667 339.754667 0 0 1-15.36 2.602667C363.264 832.768 213.376 715.818667 213.376 534.058667V236.714667l296.064-66.346667 301.226667 66.346667V481.578667a21.333333 21.333333 0 1 0 42.666666 0V220.202667a20.992 20.992 0 0 0-17.28-20.48M704.042667 630.912a64 64 0 1 0 0.042666 128 64 64 0 0 0 0-128M704.042667 801.578667a106.794667 106.794667 0 0 1-106.666667-106.666667c0-58.88 47.872-106.666667 106.666667-106.666667s106.666667 47.786667 106.666666 106.666667c0 58.837333-47.872 106.666667-106.666666 106.666667z m-278.229334-310.4V374.784h94.72c52.096 0 78.122667 19.413333 78.122667 58.197333 1.109333 38.826667-24.917333 58.197333-78.122667 58.197334h-94.72z m278.229334 54.4c-38.784 0-73.813333 15.232-100.394667 39.552l-44.885333-55.765334c63.146667-7.765333 94.762667-40.405333 94.762666-98.048-4.437333-63.146667-44.885333-95.829333-121.344-98.133333H374.272v340.821333h51.541333v-141.312h78.122667l68.736 92.757334A147.2 147.2 0 0 0 554.709333 694.912c0 82.346667 66.986667 149.333333 149.333334 149.333333s149.333333-66.986667 149.333333-149.333333-66.986667-149.333333-149.333333-149.333333z" /></svg>