<?xml version="1.0" standalone="no"?><!DOCTYPE svg PUBLIC "-//W3C//DTD SVG 1.1//EN" "http://www.w3.org/Graphics/SVG/1.1/DTD/svg11.dtd"><svg class="icon" width="200px" height="200.00px" viewBox="0 0 1024 1024" version="1.1" xmlns="http://www.w3.org/2000/svg"><path fill="#333333" d="M552.96 512a39.168 39.168 0 1 1-78.250667-0.042667 39.168 39.168 0 0 1 78.293334 0.042667m-120.917334 0a81.92 81.92 0 0 0 81.792 81.792A81.92 81.92 0 0 0 595.626667 512a81.92 81.92 0 0 0-81.792-81.792A81.92 81.92 0 0 0 432.085333 512M793.173333 810.837333h-119.466666a21.333333 21.333333 0 0 0 0 42.666667h119.466666a21.333333 21.333333 0 0 0 0-42.666667M731.648 627.370667a34.133333 34.133333 0 1 0 0 68.266666 34.133333 34.133333 0 0 0 0-68.266666M731.648 759.637333c-44.714667 0-81.066667-36.394667-81.066667-81.066666s36.352-81.066667 81.066667-81.066667a81.066667 81.066667 0 1 1 0 162.133333m0-204.8c-68.266667 0-123.733333 55.466667-123.733333 123.733334 0 68.224 55.466667 123.733333 123.733333 123.733333a123.818667 123.818667 0 0 0 119.893333-154.666667 123.733333 123.733333 0 0 0-119.893333-92.8M876.672 488.661333h-74.453333a287.274667 287.274667 0 0 0-266.88-264.96V149.333333a21.333333 21.333333 0 0 0-42.666667 0v74.538667a287.402667 287.402667 0 0 0-262.869333 264.789333H149.333333a21.333333 21.333333 0 0 0 0 42.666667h80.426667a285.184 285.184 0 0 0 262.912 264.661333V874.666667a21.333333 21.333333 0 0 0 42.666667 0v-76.202667c13.098667-0.853333 26.112-2.389333 38.954666-5.034667a21.333333 21.333333 0 1 0-8.661333-41.770666 241.536 241.536 0 0 1-30.293333 4.138666v-74.538666a21.333333 21.333333 0 1 0-42.666667 0v71.978666a242.858667 242.858667 0 0 1-220.245333-221.866666h70.314666a21.333333 21.333333 0 1 0 0-42.666667H272.469333a244.906667 244.906667 0 0 1 220.16-222.165333v76.202666a21.333333 21.333333 0 0 0 42.666667 0v-76.373333a244.778667 244.778667 0 0 1 224.256 222.293333h-76.288a21.333333 21.333333 0 1 0 0 42.666667h193.408a21.333333 21.333333 0 0 0 0-42.666667" /></svg>