<?xml version="1.0" standalone="no"?><!DOCTYPE svg PUBLIC "-//W3C//DTD SVG 1.1//EN" "http://www.w3.org/Graphics/SVG/1.1/DTD/svg11.dtd"><svg class="icon" width="200px" height="200.00px" viewBox="0 0 1024 1024" version="1.1" xmlns="http://www.w3.org/2000/svg"><path fill="#333333" d="M832 508.416a21.333333 21.333333 0 0 0 21.333333-21.333333v-128a106.24 106.24 0 0 0-106.197333-106.069334H276.864A106.24 106.24 0 0 0 170.666667 359.082667v386.389333a106.24 106.24 0 0 0 106.197333 106.069333h470.272A106.24 106.24 0 0 0 853.333333 745.472v-128.597333a21.333333 21.333333 0 0 0-42.666666 0v128.597333a63.573333 63.573333 0 0 1-63.530667 63.402667H276.864A63.573333 63.573333 0 0 1 213.333333 745.472V359.082667A63.573333 63.573333 0 0 1 276.864 295.68h470.272A63.573333 63.573333 0 0 1 810.666667 359.082667v128a21.333333 21.333333 0 0 0 21.333333 21.333333M318.208 213.333333h389.376a21.333333 21.333333 0 0 0 0-42.666666H318.250667a21.333333 21.333333 0 0 0 0 42.666666M702.250667 533.333333H448a21.333333 21.333333 0 1 0 0 42.666667h254.208a21.333333 21.333333 0 0 0 0-42.666667M363.733333 533.333333h-41.941333a21.333333 21.333333 0 1 0 0 42.666667h41.941333a21.333333 21.333333 0 0 0 0-42.666667M702.250667 641.749333h-252.458667a21.333333 21.333333 0 0 0 0 42.666667h252.458667a21.333333 21.333333 0 0 0 0-42.666667M363.733333 641.749333h-41.941333a21.333333 21.333333 0 1 0 0 42.666667h41.941333a21.333333 21.333333 0 0 0 0-42.666667M702.250667 426.666667H448a21.333333 21.333333 0 1 0 0 42.666666h254.208a21.333333 21.333333 0 0 0 0-42.666666M363.733333 426.666667h-41.941333a21.333333 21.333333 0 1 0 0 42.666666h41.941333a21.333333 21.333333 0 0 0 0-42.666666" /></svg>