<?xml version="1.0" standalone="no"?><!DOCTYPE svg PUBLIC "-//W3C//DTD SVG 1.1//EN" "http://www.w3.org/Graphics/SVG/1.1/DTD/svg11.dtd"><svg class="icon" width="200px" height="200.00px" viewBox="0 0 1024 1024" version="1.1" xmlns="http://www.w3.org/2000/svg"><path fill="#333333" d="M512 224.128L650.666667 381.994667h-277.333334L512 224.128zM748.458667 381.994667h-41.002667L528.042667 177.706667C527.701333 177.322667 527.274667 177.194667 526.933333 176.853333S526.464 176.042667 526.08 175.744C525.312 175.061333 524.330667 174.805333 523.52 174.250667 522.325333 173.482667 521.216 172.714667 519.936 172.202667A20.864 20.864 0 0 0 515.968 171.221333C514.645333 170.922667 513.365333 170.666667 512 170.666667s-2.645333 0.256-3.968 0.512a20.864 20.864 0 0 0-3.968 1.024c-1.28 0.512-2.389333 1.28-3.584 2.048-0.810667 0.554667-1.792 0.853333-2.56 1.493333-0.384 0.298667-0.512 0.768-0.853333 1.109333s-0.768 0.469333-1.109334 0.853334L316.544 381.994667H277.333333A106.752 106.752 0 0 0 170.666667 488.661333v256C170.666667 803.541333 218.496 851.328 277.333333 851.328h215.125334a21.333333 21.333333 0 0 0 0-42.666667H277.333333c-35.285333 0-64-28.714667-64-64v-256C213.333333 453.376 242.048 424.661333 277.333333 424.661333h471.125334c35.285333 0 64 28.714667 64 64V552.661333a21.333333 21.333333 0 0 0 42.666666 0V488.661333c0-58.837333-47.829333-106.666667-106.666666-106.666666zM320 552.661333h384a21.333333 21.333333 0 0 0 0-42.666666h-384a21.333333 21.333333 0 0 0 0 42.666666M320 680.661333a21.333333 21.333333 0 0 0 0 42.666667h170.666667a21.333333 21.333333 0 0 0 0-42.666667h-170.666667zM705.792 637.994667a64 64 0 1 0 0 128 64 64 0 0 0 0-128M705.792 808.661333a106.752 106.752 0 0 1-106.666667-106.666666c0-58.88 47.829333-106.666667 106.666667-106.666667s106.666667 47.786667 106.666667 106.666667c0 58.837333-47.829333 106.666667-106.666667 106.666666m0-256c-40.533333 0-77.226667 16.341333-104.192 42.666667H320a21.333333 21.333333 0 0 0 0 42.666667h251.434667a147.797333 147.797333 0 0 0-14.976 64c0 82.346667 66.986667 149.333333 149.333333 149.333333s149.333333-66.986667 149.333333-149.333333-66.986667-149.333333-149.333333-149.333334" /></svg>