<?xml version="1.0" standalone="no"?><!DOCTYPE svg PUBLIC "-//W3C//DTD SVG 1.1//EN" "http://www.w3.org/Graphics/SVG/1.1/DTD/svg11.dtd"><svg class="icon" width="200px" height="200.00px" viewBox="0 0 1024 1024" version="1.1" xmlns="http://www.w3.org/2000/svg"><path fill="#333333" d="M554.666667 405.333333c0 35.285333-28.714667 64-64 64S426.666667 440.618667 426.666667 405.333333 455.381333 341.333333 490.666667 341.333333s64 28.714667 64 64m-170.666667 0c0 58.837333 47.872 106.666667 106.666667 106.666667S597.333333 464.170667 597.333333 405.333333 549.461333 298.666667 490.666667 298.666667A106.794667 106.794667 0 0 0 384 405.333333M717.952 389.248c1.664 6.4 2.986667 12.970667 4.138667 19.584a21.333333 21.333333 0 1 0 42.069333-7.082667A277.162667 277.162667 0 0 0 490.666667 170.666667 277.674667 277.674667 0 0 0 213.333333 448c0 146.005333 113.493333 265.770667 256.853334 276.309333V810.666667H345.856a21.333333 21.333333 0 1 0 0 42.666666h298.666667a21.333333 21.333333 0 0 0 0-42.666666H512.853333v-87.082667c108.16-8.789333 202.752-79.616 239.317334-183.125333a21.333333 21.333333 0 1 0-40.192-14.250667A235.221333 235.221333 0 0 1 490.666667 682.666667 234.965333 234.965333 0 0 1 256 448C256 318.634667 361.301333 213.333333 490.666667 213.333333a234.496 234.496 0 0 1 227.285333 175.914667" /></svg>