<?xml version="1.0" standalone="no"?><!DOCTYPE svg PUBLIC "-//W3C//DTD SVG 1.1//EN" "http://www.w3.org/Graphics/SVG/1.1/DTD/svg11.dtd"><svg class="icon" width="200px" height="200.00px" viewBox="0 0 1024 1024" version="1.1" xmlns="http://www.w3.org/2000/svg"><path fill="#333333" d="M382.738347 603.733333a21.333333 21.333333 0 0 0 0 42.666667h131.114666v93.824a21.333333 21.333333 0 0 0 42.666667 0V646.4h124.885333a21.333333 21.333333 0 0 0 0-42.666667h-124.928v-59.989333h124.885334a21.333333 21.333333 0 0 0 0-42.666667h-124.885334v-23.936l103.765334-97.877333a21.333333 21.333333 0 0 0-29.269334-31.061333l-98.133333 92.586666-98.133333-92.586666a21.333333 21.333333 0 1 0-29.312 31.061333l108.416 102.272v19.541333H382.69568a21.333333 21.333333 0 1 0 0 42.666667h131.114667v59.989333H382.69568zM827.026347 330.112a360.874667 360.874667 0 0 0-592.554667-9.216V272.810667a20.138667 20.138667 0 0 0-40.32 0v118.784c0 3.626667 1.194667 6.826667 2.858667 9.770666a20.053333 20.053333 0 0 0 10.026666 10.325334c10.24 4.437333 22.058667 0 26.624-10.24A321.109333 321.109333 0 0 1 527.20768 210.944a321.109333 321.109333 0 0 1 321.152 321.152c0 177.152-144.085333 321.194667-321.152 321.194667A320.597333 320.597333 0 0 1 211.005013 588.842667a20.138667 20.138667 0 1 0-39.68 7.082666A360.874667 360.874667 0 0 0 527.165013 893.610667c199.381333 0 361.514667-162.133333 361.514667-361.514667 0-72.32-21.333333-142.165333-61.653333-201.941333" /></svg>