<?xml version="1.0" standalone="no"?><!DOCTYPE svg PUBLIC "-//W3C//DTD SVG 1.1//EN" "http://www.w3.org/Graphics/SVG/1.1/DTD/svg11.dtd"><svg class="icon" width="200px" height="200.00px" viewBox="0 0 1024 1024" version="1.1" xmlns="http://www.w3.org/2000/svg"><path fill="#333333" d="M832 469.76a21.333333 21.333333 0 0 1-21.333333-21.333333V263.168A49.92 49.92 0 0 0 760.789333 213.333333h-78.592v63.530667c0 11.818667-9.514667 21.333333-21.333333 21.333333h-298.666667a21.333333 21.333333 0 0 1-21.333333-21.333333V213.333333H263.168A49.92 49.92 0 0 0 213.333333 263.168v497.621333A49.92 49.92 0 0 0 263.168 810.666667h497.621333A49.92 49.92 0 0 0 810.666667 760.789333V576.426667a21.333333 21.333333 0 1 1 42.666666 0v184.362666A92.629333 92.629333 0 0 1 760.789333 853.333333H263.168A92.629333 92.629333 0 0 1 170.666667 760.789333V263.168C170.666667 212.181333 212.181333 170.666667 263.168 170.666667h497.621333C811.818667 170.666667 853.333333 212.181333 853.333333 263.168v185.258667a21.333333 21.333333 0 0 1-21.333333 21.333333zM383.530667 255.530667h256V213.333333h-256v42.197334zM534.528 590.677333a115.541333 115.541333 0 0 0 94.08-113.322666 115.584 115.584 0 0 0-115.413333-115.413334 115.584 115.584 0 0 0-115.456 115.413334 21.333333 21.333333 0 1 0 42.666666 0c0-40.106667 32.682667-72.746667 72.789334-72.746667a72.832 72.832 0 0 1 0 145.578667 21.333333 21.333333 0 0 0-21.333334 21.333333c0 0.682667 0.341333 1.237333 0.426667 1.92-0.085333 0.682667-0.426667 1.237333-0.426667 1.92v77.354667a21.333333 21.333333 0 0 0 42.666667 0v-62.037334zM513.194667 679.04a21.333333 21.333333 0 0 0-21.333334 21.333333v24.490667a21.333333 21.333333 0 1 0 42.666667 0v-24.490667a21.333333 21.333333 0 0 0-21.333333-21.333333" /></svg>