<?xml version="1.0" standalone="no"?><!DOCTYPE svg PUBLIC "-//W3C//DTD SVG 1.1//EN" "http://www.w3.org/Graphics/SVG/1.1/DTD/svg11.dtd"><svg class="icon" width="200px" height="200.00px" viewBox="0 0 1024 1024" version="1.1" xmlns="http://www.w3.org/2000/svg"><path fill="#333333" d="M853.718752 623.832668c0.383997-1.450655 0.767994-2.815977 0.853327-4.266631 0-0.426663 0.255998-0.853326 0.255998-1.279989 0-0.895993-0.426663-1.706652-0.511996-2.602645-0.213332-1.450655-0.426663-2.858643-0.853326-4.266631a22.101149 22.101149 0 0 0-1.962651-3.882635c-0.469329-0.81066-0.639995-1.706652-1.279989-2.43198L706.562645 422.405013l58.708844-180.734494c0.34133-1.109324 0.170665-2.218648 0.383997-3.327972 0.170665-1.066658 0.639995-2.047983 0.639995-3.199973 0-0.34133-0.170665-0.597328-0.170665-0.938659-0.085333-1.535987-0.511996-2.986642-0.895993-4.479963-0.34133-1.194657-0.511996-2.474646-1.066658-3.541304-0.554662-1.279989-1.450655-2.303981-2.261314-3.413304-0.853326-1.109324-1.493321-2.218648-2.474646-3.199974-0.938659-0.853326-2.047983-1.365322-3.157307-2.047983-1.279989-0.853326-2.474646-1.706652-3.925301-2.218648-0.298664-0.127999-0.511996-0.426663-0.853326-0.469329-1.023991-0.34133-2.133316-0.255998-3.157307-0.341331-1.15199-0.255998-2.175982-0.682661-3.413305-0.682661H218.246715L212.913426 187.740302A21.333156 21.333156 0 1 0 171.100441 196.230898l129.790918 641.829318a21.418488 21.418488 0 0 0 25.173124 16.639861 21.333156 21.333156 0 0 0 16.639861-25.08779L226.86531 256.433063H715.522571l-53.162224 163.667969c-0.213332 0.597328-0.085333 1.279989-0.213331 1.919984a18.346514 18.346514 0 0 0-0.511996 4.309298 17.962517 17.962517 0 0 0 1.365322 7.850601 22.101149 22.101149 0 0 0 1.96265 3.839968c0.383997 0.554662 0.426663 1.279989 0.853326 1.834652l123.689636 157.140023H405.338489a21.333156 21.333156 0 1 0 0 42.666311h428.113766c4.607962 0 8.533262-1.791985 12.031899-4.223964 0.34133-0.255998 0.81066-0.127999 1.151991-0.383997 0.34133-0.213332 0.426663-0.597328 0.767993-0.853326a20.693161 20.693161 0 0 0 2.943976-3.498638c0.767994-1.023991 1.578654-1.96265 2.133315-3.114641 0.554662-1.194657 0.853326-2.43198 1.194657-3.754635" /></svg>