<?xml version="1.0" standalone="no"?><!DOCTYPE svg PUBLIC "-//W3C//DTD SVG 1.1//EN" "http://www.w3.org/Graphics/SVG/1.1/DTD/svg11.dtd"><svg class="icon" width="200px" height="200.00px" viewBox="0 0 1024 1024" version="1.1" xmlns="http://www.w3.org/2000/svg"><path fill="#333333" d="M789.333333 425.813333a21.333333 21.333333 0 0 0 21.333334-21.333333V191.317333A106.24 106.24 0 0 0 704.554667 85.418667H319.445333A106.24 106.24 0 0 0 213.333333 191.36v555.946667A106.24 106.24 0 0 0 319.445333 853.333333h385.109334A106.24 106.24 0 0 0 810.666667 747.264V532.48a21.333333 21.333333 0 0 0-42.666667 0v214.784c0 34.986667-28.458667 63.402667-63.445333 63.402667H319.445333C284.458667 810.666667 256 782.250667 256 747.264V191.402667C256 156.416 284.458667 128 319.445333 128h385.109334C739.541333 128 768 156.458667 768 191.402667v213.034666a21.333333 21.333333 0 0 0 21.333333 21.333334M576.469333 493.568a21.461333 21.461333 0 0 0-6.144 18.901333l11.264 65.450667-58.794666-30.890667a21.461333 21.461333 0 0 0-19.84 0l-58.837334 30.890667 11.264-65.450667a21.418667 21.418667 0 0 0-6.144-18.901333l-47.573333-46.336 65.749333-9.557333a21.333333 21.333333 0 0 0 16.042667-11.648l29.44-59.562667 29.354667 59.52a21.333333 21.333333 0 0 0 16.042666 11.690667l65.749334 9.557333-47.573334 46.336z m113.706667-67.84a21.504 21.504 0 0 0-17.237333-14.506667l-97.408-14.165333-43.52-88.234667a21.333333 21.333333 0 0 0-38.272 0l-43.52 88.234667-97.450667 14.122667a21.418667 21.418667 0 0 0-11.861333 36.437333l70.528 68.693333-16.64 96.981334a21.333333 21.333333 0 0 0 30.933333 22.485333l87.125333-45.781333 87.125334 45.781333a21.034667 21.034667 0 0 0 9.941333 2.474667h0.426667c10.666667-0.426667 21.76-9.386667 21.76-21.333334a20.906667 20.906667 0 0 0-2.133334-9.344l-15.701333-91.264 70.485333-68.693333a21.461333 21.461333 0 0 0 5.418667-21.888z" /></svg>