<?xml version="1.0" standalone="no"?><!DOCTYPE svg PUBLIC "-//W3C//DTD SVG 1.1//EN" "http://www.w3.org/Graphics/SVG/1.1/DTD/svg11.dtd"><svg class="icon" width="200px" height="200.00px" viewBox="0 0 1024 1024" version="1.1" xmlns="http://www.w3.org/2000/svg"><path fill="#333333" d="M786.56 682.794667c0 39.168-26.709333 71.936-62.762667 81.92v-6.528a21.290667 21.290667 0 1 0-42.666666 0v7.296a85.333333 85.333333 0 0 1-65.28-82.688c0-6.570667 0.938667-12.885333 2.346666-18.986667l2.56 1.877333a21.418667 21.418667 0 0 0 29.781334-4.693333 21.290667 21.290667 0 0 0-4.693334-29.824l-7.552-5.504a84.821333 84.821333 0 0 1 62.933334-28.16c25.514667 0 48.213333 11.52 63.872 29.269333l-6.058667 4.394667a21.333333 21.333333 0 1 0 25.173333 34.517333l0.512-0.384c1.194667 5.674667 1.834667 11.52 1.834667 17.493334m59.904-88.917334a21.418667 21.418667 0 0 0-29.866667-4.650666l-17.152 12.501333a127.146667 127.146667 0 0 0-98.218666-46.933333c-39.168 0-73.813333 18.048-97.322667 45.824l-15.658667-11.392a21.333333 21.333333 0 0 0-25.088 34.474666l18.773334 13.696a126.549333 126.549333 0 0 0-8.704 45.397334 127.829333 127.829333 0 0 0 107.904 125.952v20.736a21.333333 21.333333 0 0 0 42.666666 0v-20.906667a128 128 0 0 0 105.386667-125.781333 127.146667 127.146667 0 0 0-8.192-43.904l20.821333-15.189334a21.376 21.376 0 0 0 4.650667-29.824M521.386667 633.856a21.205333 21.205333 0 0 0-0.512-4.565333 47.957333 47.957333 0 0 0-41.002667-37.888 47.573333 47.573333 0 0 0-48.512 29.738666c-28.501333 73.344-24.661333 133.376-11.008 178.048C323.072 765.952 256 679.594667 256 581.333333c0-65.706667 30.037333-128.085333 82.858667-171.690666 8.32-7.168 16.725333-14.378667 26.282666-21.546667C405.930667 357.461333 460.8 316.330667 512.426667 221.525333c35.2 22.272 61.653333 52.309333 73.984 84.394667 15.786667 41.642667 11.392 88.661333-13.738667 141.44-6.656 17.792-2.304 37.973333 13.781333 53.674667 15.36 10.922667 35.242667 12.629333 53.632 3.285333a347.093333 347.093333 0 0 0 74.410667-61.013333c21.888 26.88 37.12 58.282667 44.586667 92.074666l21.162666-2.986666-20.949333 3.968 20.992-3.712 20.394667-6.698667a263.594667 263.594667 0 0 0-71.552-130.005333 19.797333 19.797333 0 0 0-16.341334-6.229334 21.248 21.248 0 0 0-15.488 8.106667 301.909333 301.909333 0 0 1-77.909333 69.248 9.984 9.984 0 0 1-4.48 0.938667c-1.194667-0.042667-1.536-0.085333-0.938667 0.554666a7.936 7.936 0 0 1-2.133333-4.522666c29.696-61.994667 34.56-120.32 14.464-173.312C608.213333 243.584 567.04 200.618667 513.578667 173.013333a21.248 21.248 0 0 0-28.842667 9.472C434.688 282.624 381.866667 322.133333 339.541333 353.92c-10.325333 7.765333-19.456 15.573333-28.330666 23.168C249.002667 428.458667 213.333333 502.912 213.333333 581.333333c0 131.797333 100.608 245.418667 239.146667 270.08a21.418667 21.418667 0 0 0 20.992-8.448 21.376 21.376 0 0 0 1.621333-22.528c-19.84-37.546667-36.608-99.84-3.882666-184.064 0.426667-1.152 3.370667-2.645333 3.925333-2.56 1.834667 0.213333 3.498667 2.133333 4.096 4.693334L479.488 638.378667c4.394667 23.466667 30.037333 131.754667 125.013333 195.84a21.205333 21.205333 0 0 0 29.653334-5.717334 21.248 21.248 0 0 0-5.76-29.568c-87.466667-59.050667-106.709333-165.12-107.008-165.12" /></svg>