<?xml version="1.0" standalone="no"?><!DOCTYPE svg PUBLIC "-//W3C//DTD SVG 1.1//EN" "http://www.w3.org/Graphics/SVG/1.1/DTD/svg11.dtd"><svg class="icon" width="200px" height="200.00px" viewBox="0 0 1024 1024" version="1.1" xmlns="http://www.w3.org/2000/svg"><path fill="#333333" d="M702.220373 684.288a64 64 0 1 0 0.042667 128 64 64 0 0 0 0-128M702.220373 854.954667a106.794667 106.794667 0 0 1-106.666666-106.666667c0-58.794667 47.829333-106.666667 106.666666-106.666667 58.88 0 106.666667 47.872 106.666667 106.666667s-47.786667 106.666667-106.666667 106.666667m0-256c-30.506667 0-58.88 9.301333-82.56 25.045333 0.256-1.28 0.768-2.389333 0.768-3.712a21.333333 21.333333 0 0 0-21.333333-21.333333H388.40704l56.021333-56.021334a21.333333 21.333333 0 0 0-30.165333-30.165333L326.241707 600.746667a21.461333 21.461333 0 0 0-4.608 23.210666 21.034667 21.034667 0 0 0 20.565333 17.664h255.829333a148.693333 148.693333 0 0 0-45.141333 106.666667c0 82.346667 66.986667 149.333333 149.333333 149.333333s149.333333-66.986667 149.333334-149.333333-66.986667-149.333333-149.333334-149.333333M488.88704 853.973333H273.71904a57.472 57.472 0 0 1-57.557333-57.173333V476.928L490.67904 219.306667l326.741333 306.688a21.290667 21.290667 0 0 0 30.122667-0.981334 21.290667 21.290667 0 0 0-0.938667-30.165333L507.148373 176.256a20.992 20.992 0 0 0-16.426666-5.461333 20.949333 20.949333 0 0 0-16.554667 5.461333L134.753707 494.848a21.290667 21.290667 0 0 0 14.592 36.906667 21.290667 21.290667 0 0 0 14.592-5.76l9.557333-8.96v279.722666a100.181333 100.181333 0 0 0 100.266667 99.882667h215.125333a21.333333 21.333333 0 0 0 0-42.666667" /></svg>