<?xml version="1.0" standalone="no"?><!DOCTYPE svg PUBLIC "-//W3C//DTD SVG 1.1//EN" "http://www.w3.org/Graphics/SVG/1.1/DTD/svg11.dtd"><svg class="icon" width="200px" height="200.00px" viewBox="0 0 1024 1024" version="1.1" xmlns="http://www.w3.org/2000/svg"><path fill="#333333" d="M574.458795 596.643613c39.975335 0 72.527289-32.551954 72.527289-72.527289 0-39.975335-32.551954-72.527289-72.527289-72.52729h-91.085743a29.864178 29.864178 0 0 1 0-59.728356h91.085743a29.864178 29.864178 0 0 1 29.864178 29.864178 21.331556 21.331556 0 0 0 42.663111 0c0-40.017999-32.551954-72.527289-72.527289-72.527289h-23.976669v-4.266311a21.331556 21.331556 0 1 0-42.663111 0v4.266311h-24.445963c-39.975335 0-72.527289 32.509291-72.527289 72.527289 0 39.975335 32.551954 72.527289 72.527289 72.52729h91.085743a29.864178 29.864178 0 0 1 0 59.728356h-91.085743a29.864178 29.864178 0 0 1-29.864178-29.864178 21.331556 21.331556 0 1 0-42.663111 0c0 39.975335 32.551954 72.527289 72.527289 72.527289h24.445963v4.266311a21.331556 21.331556 0 0 0 42.663111 0v-4.266311h23.976669zM373.344888 789.352887a31.997334 31.997334 0 1 0 0 63.994667 31.997334 31.997334 0 0 0 0-63.994667M703.984001 640.031997a63.994667 63.994667 0 1 0 0.042663 128.031998A63.994667 63.994667 0 0 0 703.984001 640.031997M703.984001 810.684443a106.785768 106.785768 0 0 1-106.657778-106.657779c0-58.789768 47.825348-106.657779 106.657778-106.657778s106.657779 47.868011 106.657779 106.657778-47.825348 106.657779-106.657779 106.657779m0-255.978668c-82.339805 0-149.32089 66.981085-149.32089 149.320889s66.981085 149.32089 149.32089 149.32089 149.32089-66.981085 149.32089-149.32089-66.981085-149.32089-149.32089-149.320889M491.521707 684.444296a21.331556 21.331556 0 0 0 0-42.663111H290.706441L264.255312 298.727106h374.88076A171.719023 171.719023 0 0 1 806.375469 508.202983a21.331556 21.331556 0 1 0 41.596533 9.556537A209.945171 209.945171 0 0 0 853.304891 470.232814 214.424798 214.424798 0 0 0 639.136072 256.063995H260.927589L255.978668 190.448129C255.850679 189.466878 255.338722 188.741605 255.168069 187.803016a19.966336 19.966336 0 0 0-1.535872-5.119573c-0.298642-0.68261-0.853262-1.23723-1.279893-1.877177a20.734272 20.734272 0 0 0-3.83968-4.692942c-0.597284-0.511957-1.279893-0.853262-1.877177-1.279893a18.942421 18.942421 0 0 0-4.692942-2.687776C240.449296 171.591034 238.956087 171.548371 237.462878 171.377719 236.481627 171.164403 235.628364 170.652446 234.689776 170.652446h-42.663112a21.331556 21.331556 0 0 0 0 42.663111h22.952754l41.12724 534.995417c0.127989 1.279893 0.68261 2.389134 0.981251 3.583701 0.341305 1.23723 0.426631 2.47446 0.938589 3.626365 0.68261 1.450546 1.706524 2.645113 2.687776 3.882343 0.68261 0.853262 1.109241 1.834514 1.91984 2.559787 1.279893 1.279893 2.858428 2.133156 4.436963 2.986418 0.767936 0.426631 1.36522 1.023915 2.218482 1.365219a21.075577 21.075577 0 0 0 8.020665 1.621198h213.315557a21.288893 21.288893 0 1 0 0-42.663111H297.105908l-3.15707-40.871261h197.658195z" /></svg>