<?xml version="1.0" standalone="no"?><!DOCTYPE svg PUBLIC "-//W3C//DTD SVG 1.1//EN" "http://www.w3.org/Graphics/SVG/1.1/DTD/svg11.dtd"><svg class="icon" width="200px" height="200.00px" viewBox="0 0 1024 1024" version="1.1" xmlns="http://www.w3.org/2000/svg"><path fill="#333333" d="M492.458667 853.333333H319.445333C284.458667 853.333333 256 824.917333 256 789.973333V234.026667C256 199.082667 284.458667 170.666667 319.445333 170.666667h385.109334C739.541333 170.666667 768 199.082667 768 234.026667v259.285333a21.333333 21.333333 0 1 0 42.666667 0V234.026667A106.24 106.24 0 0 0 704.554667 128H319.445333A106.24 106.24 0 0 0 213.333333 234.026667v555.946666A106.24 106.24 0 0 0 319.445333 896h173.013334a21.333333 21.333333 0 0 0 0-42.666667M704 681.813333a64 64 0 1 0 0.042667 128 64 64 0 0 0 0-128M704 852.48a106.794667 106.794667 0 0 1-106.666667-106.666667c0-26.88 10.325333-51.2 26.794667-69.973333a21.333333 21.333333 0 0 0 4.778667-5.674667 106.24 106.24 0 0 1 75.093333-31.018666c58.794667 0 106.666667 47.786667 106.666667 106.666666 0 58.837333-47.872 106.666667-106.666667 106.666667m-201.045333-262.784l-58.794667 30.848 11.221333-65.408a21.333333 21.333333 0 0 0-6.144-18.858667l-47.530666-46.378666 65.706666-9.514667a21.418667 21.418667 0 0 0 16.085334-11.690667l29.397333-59.562666 29.354667 59.562666a21.418667 21.418667 0 0 0 16.085333 11.690667l65.706667 9.514667-47.573334 46.378666a21.418667 21.418667 0 0 0-6.101333 18.858667l11.221333 65.450667-58.794666-30.848a21.461333 21.461333 0 0 0-19.84 0m201.045333 6.741333c-29.184 0-56.234667 8.704-79.274667 23.253333l-10.453333-60.757333 70.528-68.693333a21.333333 21.333333 0 0 0-11.861333-36.437334l-97.365334-14.08-43.562666-88.32c-7.168-14.506667-31.104-14.506667-38.272 0l-43.562667 88.32-97.365333 14.08a21.333333 21.333333 0 0 0-11.861334 36.437334l70.485334 68.693333-16.64 96.981333a21.333333 21.333333 0 0 0 30.933333 22.485334l87.168-45.738667 64.896 34.048A148.138667 148.138667 0 0 0 554.666667 745.813333c0 82.346667 66.986667 149.333333 149.333333 149.333334s149.333333-66.986667 149.333333-149.333334-66.986667-149.333333-149.333333-149.333333" /></svg>