<?xml version="1.0" standalone="no"?><!DOCTYPE svg PUBLIC "-//W3C//DTD SVG 1.1//EN" "http://www.w3.org/Graphics/SVG/1.1/DTD/svg11.dtd"><svg class="icon" width="200px" height="200.00px" viewBox="0 0 1024 1024" version="1.1" xmlns="http://www.w3.org/2000/svg"><path fill="#333333" d="M838.016 596.48a21.333333 21.333333 0 0 1 15.018667 26.154667 352.725333 352.725333 0 0 1-340.010667 259.84c-123.818667 0-236.629333-65.792-299.690667-167.637334v146.304a21.333333 21.333333 0 1 1-42.666666 0v-240.128a21.333333 21.333333 0 0 1 21.333333-21.333333c0.981333 0 1.834667 0.426667 2.730667 0.554667a20.906667 20.906667 0 0 1 20.565333 15.189333c37.674667 132.096 160.085333 224.384 297.728 224.384 139.52 0 262.4-93.866667 298.837333-228.309333a21.333333 21.333333 0 0 1 26.154667-15.018667z m-647.253333-144.042667a21.333333 21.333333 0 0 1-14.037334-26.709333 350.506667 350.506667 0 0 1 336.298667-247.210667 349.866667 349.866667 0 0 1 295.722667 162.090667V192a21.333333 21.333333 0 1 1 42.666666 0v240.042667c0 11.818667-9.514667 21.333333-21.333333 21.333333-0.853333 0-1.578667-0.384-2.432-0.469333-1.152-0.085333-2.133333-0.426667-3.285333-0.682667-1.109333-0.298667-2.218667-0.469333-3.242667-0.938667a21.077333 21.077333 0 0 1-12.586667-13.226666 308.224 308.224 0 0 0-295.509333-216.874667 308.010667 308.010667 0 0 0-295.552 217.216 21.333333 21.333333 0 0 1-26.709333 14.037333z" /></svg>