<?xml version="1.0" standalone="no"?><!DOCTYPE svg PUBLIC "-//W3C//DTD SVG 1.1//EN" "http://www.w3.org/Graphics/SVG/1.1/DTD/svg11.dtd"><svg class="icon" width="200px" height="200.00px" viewBox="0 0 1024 1024" version="1.1" xmlns="http://www.w3.org/2000/svg"><path fill="#333333" d="M492.458667 853.333333H296.362667C274.133333 853.333333 256 834.048 256 810.325333V299.008C256 275.285333 274.133333 256 296.362667 256h107.178666c4.778667 0 8.96-1.877333 12.501334-4.522667a21.077333 21.077333 0 0 0 10.88-13.994666A85.76 85.76 0 0 1 510.208 170.666667c40.448 0 75.605333 28.714667 83.626667 68.266666a21.333333 21.333333 0 0 0 20.864 17.066667c0.896 0 1.792-0.170667 2.688-0.256 0.426667 0.042667 0.810667 0.256 1.28 0.256h108.970666c22.229333 0 40.362667 19.285333 40.362667 43.008v237.866667a21.333333 21.333333 0 1 0 42.666667 0V299.008C810.666667 251.776 773.418667 213.333333 727.637333 213.333333H630.613333a128.298667 128.298667 0 0 0-120.405333-85.333333A128.512 128.512 0 0 0 389.973333 213.333333H296.362667C250.581333 213.333333 213.333333 251.776 213.333333 299.008v511.317333C213.333333 857.557333 250.581333 896 296.362667 896h196.096a21.333333 21.333333 0 0 0 0-42.666667M641.194667 398.506667v36.181333a174.933333 174.933333 0 0 0-126.549334-53.845333 174.805333 174.805333 0 0 0-167.68 123.392 21.333333 21.333333 0 1 0 40.746667 12.629333 132.352 132.352 0 0 1 126.933333-93.354667c58.496 0 109.525333 37.461333 126.933334 93.226667a20.906667 20.906667 0 0 0 5.802666 8.832c0.085333 0.128 0.213333 0.170667 0.341334 0.256 1.749333 1.621333 3.626667 2.986667 5.802666 3.968 1.066667 0.469333 2.176 0.64 3.328 0.981333 1.322667 0.298667 2.56 0.725333 3.968 0.768 0.597333 0.085333 1.109333 0.341333 1.706667 0.341334 2.048 0 3.925333-0.597333 5.76-1.152h0.042667a21.034667 21.034667 0 0 0 15.530666-20.181334V398.506667a21.333333 21.333333 0 0 0-42.666666 0M705.792 682.666667a64 64 0 1 0 0 128.042666 64 64 0 0 0 0-128.042666M705.792 853.333333a106.794667 106.794667 0 0 1-106.666667-106.666666c0-58.794667 47.829333-106.666667 106.666667-106.666667s106.666667 47.872 106.666667 106.666667-47.829333 106.666667-106.666667 106.666666m0-256c-56.490667 0-105.216 31.914667-130.56 78.336-1.024 0.341333-2.090667 0.341333-3.114667 0.810667a132.010667 132.010667 0 0 1-57.429333 13.013333 133.546667 133.546667 0 0 1-127.957333-96.512 20.949333 20.949333 0 0 0-19.797334-15.189333c-0.682667-0.042667-1.28-0.384-1.962666-0.384a21.333333 21.333333 0 0 0-21.333334 21.333333v112.085334a21.333333 21.333333 0 1 0 42.666667 0v-34.901334a176 176 0 0 0 128.384 56.234667c15.018667 0 29.610667-2.346667 43.861333-6.058667-0.981333 6.784-2.090667 13.525333-2.090666 20.565334 0 82.346667 66.986667 149.333333 149.333333 149.333333s149.333333-66.986667 149.333333-149.333333-66.986667-149.333333-149.333333-149.333334" /></svg>