<?xml version="1.0" standalone="no"?><!DOCTYPE svg PUBLIC "-//W3C//DTD SVG 1.1//EN" "http://www.w3.org/Graphics/SVG/1.1/DTD/svg11.dtd"><svg class="icon" width="200px" height="200.00px" viewBox="0 0 1024 1024" version="1.1" xmlns="http://www.w3.org/2000/svg"><path fill="#333333" d="M642.901333 473.728a21.333333 21.333333 0 0 0 30.165334 30.165333L819.2 357.717333a105.813333 105.813333 0 0 0 31.274667-75.392c0-28.458667-11.136-55.253333-31.232-75.392l-5.034667-5.077333a106.794667 106.794667 0 0 0-150.869333 0L469.162667 396.032 417.194667 344.064a21.333333 21.333333 0 0 0-30.165334 30.165333L453.973333 441.173333c0 0.042667 0 0.085333 0.085334 0.128l0.128 0.085334 48.810666 48.810666-252.885333 252.842667a21.973333 21.973333 0 0 0-5.589333-4.864 20.821333 20.821333 0 0 0-25.856 4.266667l-0.298667 0.213333c-0.170667 0.170667-0.256 0.426667-0.426667 0.64-0.853333 0.981333-1.877333 1.749333-2.56 2.944l-42.282666 74.666667c-0.426667 0.810667-0.469333 1.664-0.853334 2.517333-0.512 1.365333-1.066667 2.688-1.322666 4.138667-0.256 1.408-0.256 2.688-0.256 4.096 0 1.322667 0 2.602667 0.341333 3.925333 0.298667 1.493333 0.853333 2.816 1.450667 4.181333 0.341333 0.853333 0.384 1.706667 0.853333 2.517334 0.170667 0.298667 0.554667 0.384 0.725333 0.682666a20.266667 20.266667 0 0 0 7.168 6.997334c2.56 1.450667 5.546667 1.962667 8.490667 2.261333 0.64 0.042667 1.28 0.512 1.962667 0.512 0.341333 0 0.64-0.256 0.981333-0.256a21.290667 21.290667 0 0 0 9.770667-2.730667h0.128l73.386666-43.562666a21.333333 21.333333 0 0 0 7.509334-29.226667c-0.853333-1.450667-2.133333-2.432-3.285334-3.626667l253.013334-252.970666 112 112a21.248 21.248 0 0 0 30.165333 0 21.333333 21.333333 0 0 0 0-30.165334L499.328 426.197333l194.133333-194.176a64.213333 64.213333 0 0 1 90.538667-0.042666l5.034667 5.077333c12.074667 12.074667 18.773333 28.16 18.773333 45.269333 0 17.109333-6.656 33.152-18.773333 45.226667l-146.133334 146.176z" /></svg>