<?xml version="1.0" standalone="no"?><!DOCTYPE svg PUBLIC "-//W3C//DTD SVG 1.1//EN" "http://www.w3.org/Graphics/SVG/1.1/DTD/svg11.dtd"><svg class="icon" width="200px" height="200.00px" viewBox="0 0 1024 1024" version="1.1" xmlns="http://www.w3.org/2000/svg"><path fill="#333333" d="M448.012373 385.621333a21.333333 21.333333 0 0 0 0 42.666667h87.082667a21.333333 21.333333 0 0 0 0-42.666667h-87.04zM702.220373 641.621333a64 64 0 1 0 0.042667 128 64 64 0 0 0 0-128M702.220373 812.288a106.794667 106.794667 0 0 1-106.666666-106.666667c0-58.794667 47.829333-106.666667 106.666666-106.666666 58.88 0 106.666667 47.872 106.666667 106.666666s-47.786667 106.666667-106.666667 106.666667z m-277.333333-149.333333a21.333333 21.333333 0 0 1-21.333333-21.333334v-149.333333H576.012373v134.357333a147.84 147.84 0 0 0-16.170666 36.266667H424.88704z m277.333333-106.666667c-30.933333 0-59.690667 9.472-83.541333 25.6v-89.6h19.541333a21.333333 21.333333 0 0 0 0-42.666667H341.345707a21.333333 21.333333 0 0 0 0 42.666667h19.541333v149.333333c0 35.285333 28.714667 64 64 64h128c0 82.346667 66.986667 149.333333 149.333333 149.333334s149.333333-66.986667 149.333334-149.333334-66.986667-149.333333-149.333334-149.333333zM492.428373 811.306667H273.71904a57.472 57.472 0 0 1-57.557333-57.173334V434.261333L490.67904 176.64l326.826667 306.688a21.290667 21.290667 0 0 0 30.08-0.981333 21.290667 21.290667 0 0 0-0.938667-30.165334L507.148373 133.589333a20.992 20.992 0 0 0-16.426666-5.461333 20.949333 20.949333 0 0 0-16.554667 5.461333L134.753707 452.181333a21.290667 21.290667 0 0 0 14.592 36.906667 21.290667 21.290667 0 0 0 14.592-5.76l9.557333-8.96v279.722667a100.181333 100.181333 0 0 0 100.266667 99.882666H492.385707a21.333333 21.333333 0 0 0 0-42.666666" /></svg>