<?xml version="1.0" standalone="no"?><!DOCTYPE svg PUBLIC "-//W3C//DTD SVG 1.1//EN" "http://www.w3.org/Graphics/SVG/1.1/DTD/svg11.dtd"><svg class="icon" width="200px" height="192.12px" viewBox="0 0 1066 1024" version="1.1" xmlns="http://www.w3.org/2000/svg"><path fill="#333333" d="M852.650667 256H210.901333a21.333333 21.333333 0 0 0 0 42.666667h66.858667v442.624A113.493333 113.493333 0 0 0 390.954667 854.613333h284.8a113.450667 113.450667 0 0 0 113.28-113.322666V620.416a21.333333 21.333333 0 1 0-42.666667 0v120.874667c0 38.954667-31.658667 70.656-70.613333 70.656H390.954667a70.741333 70.741333 0 0 1-70.613334-70.656V298.666667h426.069334v190.208a21.333333 21.333333 0 0 0 42.666666 0V298.666667h63.573334a21.333333 21.333333 0 0 0 0-42.666667M442.88 213.333333h187.818667a21.333333 21.333333 0 1 0 0-42.666666H442.88a21.333333 21.333333 0 0 0 0 42.666666M426.922667 405.333333v298.666667a21.333333 21.333333 0 0 0 42.666666 0v-298.666667a21.333333 21.333333 0 0 0-42.666666 0M597.589333 405.333333v298.666667a21.333333 21.333333 0 0 0 42.666667 0v-298.666667a21.333333 21.333333 0 0 0-42.666667 0" /></svg>