<?xml version="1.0" standalone="no"?><!DOCTYPE svg PUBLIC "-//W3C//DTD SVG 1.1//EN" "http://www.w3.org/Graphics/SVG/1.1/DTD/svg11.dtd"><svg class="icon" width="200px" height="200.00px" viewBox="0 0 1024 1024" version="1.1" xmlns="http://www.w3.org/2000/svg"><path fill="#333333" d="M886.869333 134.698667a21.248 21.248 0 0 0-30.122666-0.853334l-149.888 141.397334A339.626667 339.626667 0 0 0 507.733333 210.645333c-71.68 0-140.202667 22.613333-196.992 63.018667L163.968 135.125333a21.248 21.248 0 1 0-29.269333 30.976L277.461333 300.672a338.432 338.432 0 0 0-109.909333 250.154667C167.552 738.474667 320.170667 891.178667 507.733333 891.178667a339.925333 339.925333 0 0 0 329.898667-256.426667 20.181333 20.181333 0 0 0-39.082667-9.898667A299.648 299.648 0 0 1 507.733333 850.858667a300.245333 300.245333 0 0 1-299.946666-299.946667A299.776 299.776 0 0 1 507.733333 250.922667a299.946667 299.946667 0 0 1 293.76 238.506666 19.925333 19.925333 0 0 0 23.808 15.658667 20.053333 20.053333 0 0 0 15.616-23.765333 336.981333 336.981333 0 0 0-50.986666-120.789334 341.248 341.248 0 0 0-49.962667-57.984L885.973333 164.864a21.248 21.248 0 0 0 0.853334-30.165333M633.6 433.066667v232.277333a11.946667 11.946667 0 0 1-11.946667 11.904H389.418667a11.904 11.904 0 0 1-11.861334-11.946667v-232.192c0-6.528 5.333333-11.861333 11.861334-11.861333h232.234666c6.570667 0 11.946667 5.333333 11.946667 11.861333zM389.376 378.624A54.613333 54.613333 0 0 0 334.933333 433.066667v232.234666a54.613333 54.613333 0 0 0 54.528 54.570667h232.234667a54.613333 54.613333 0 0 0 54.613333-54.613333v-232.192a54.613333 54.613333 0 0 0-54.613333-54.528H389.418667zM569.173333 463.914667h-128a21.333333 21.333333 0 0 0 0 42.666666h128a21.333333 21.333333 0 0 0 0-42.666666" /></svg>