<?xml version="1.0" standalone="no"?><!DOCTYPE svg PUBLIC "-//W3C//DTD SVG 1.1//EN" "http://www.w3.org/Graphics/SVG/1.1/DTD/svg11.dtd"><svg class="icon" width="200px" height="200.00px" viewBox="0 0 1024 1024" version="1.1" xmlns="http://www.w3.org/2000/svg"><path fill="#333333" d="M377.685333 265.258667c0-28.586667 23.296-51.925333 51.925334-51.925334h166.4c28.672 0 51.968 23.296 51.968 51.925334v29.696H377.685333V265.258667z m312.746667 569.216H227.541333A56.96 56.96 0 0 1 170.666667 777.557333v-190.549333h321.237333v24.32a21.290667 21.290667 0 1 0 42.666667 0v-24.32h85.973333a21.333333 21.333333 0 1 0 0-42.666667H534.570667v-38.997333a21.333333 21.333333 0 0 0-42.666667 0v38.997333H170.624V394.538667c0-31.36 25.557333-56.874667 56.917333-56.874667h568.874667c31.402667 0 56.917333 25.514667 56.917333 56.874667v111.104a21.333333 21.333333 0 0 0 42.666667 0V394.538667a99.669333 99.669333 0 0 0-99.584-99.541334h-105.813333V265.258667A94.72 94.72 0 0 0 596.053333 170.666667h-166.4A94.677333 94.677333 0 0 0 335.018667 265.258667v29.696h-107.52A99.669333 99.669333 0 0 0 128 394.538667v383.061333a99.669333 99.669333 0 0 0 99.541333 99.584h462.933334a21.333333 21.333333 0 0 0 0-42.666667zM875.52 753.877333H792.490667v-30.677333H875.52a21.333333 21.333333 0 1 0 0-42.666667H792.405333v-8.362666L864.597333 604.032A21.333333 21.333333 0 1 0 835.413333 573.056L769.450667 635.264 703.530667 573.056a21.248 21.248 0 1 0-29.312 30.976l75.52 71.296v5.205333H662.229333a21.333333 21.333333 0 0 0 0 42.666667h87.509334v30.72H662.229333a21.333333 21.333333 0 0 0 0 42.666667h87.509334V857.472a21.333333 21.333333 0 1 0 42.666666 0V796.544h83.157334a21.333333 21.333333 0 0 0 0-42.666667" /></svg>