<?xml version="1.0" standalone="no"?><!DOCTYPE svg PUBLIC "-//W3C//DTD SVG 1.1//EN" "http://www.w3.org/Graphics/SVG/1.1/DTD/svg11.dtd"><svg class="icon" width="200px" height="200.00px" viewBox="0 0 1024 1024" version="1.1" xmlns="http://www.w3.org/2000/svg"><path fill="#333333" d="M253.312 512l0.810667-4.778667L512 345.216l257.621333 161.834667 0.725334 4.949333H253.312z m549.034667 38.997333a20.949333 20.949333 0 0 0 13.44-22.442666l-5.333334-37.333334c-0.042667-0.298667-0.213333-0.554667-0.298666-0.853333-0.256-1.536-0.938667-2.944-1.578667-4.394667-0.469333-1.109333-0.768-2.261333-1.408-3.242666-0.853333-1.28-1.962667-2.261333-3.072-3.370667-0.853333-0.853333-1.578667-1.749333-2.56-2.432-0.341333-0.256-0.512-0.597333-0.853333-0.810667L533.333333 308.181333V256h87.125334a21.333333 21.333333 0 0 0 0-42.666667H533.333333V192a21.333333 21.333333 0 1 0-42.666666 0v116.181333L223.317333 476.117333c-0.170667 0.085333-0.213333 0.256-0.426666 0.384-1.322667 0.896-2.346667 2.133333-3.456 3.328-0.853333 0.853333-1.792 1.621333-2.474667 2.602667-0.597333 0.938667-0.896 2.048-1.365333 3.114667-0.682667 1.493333-1.408 2.944-1.749334 4.565333l-0.213333 0.554667L170.666667 747.178667A106.538667 106.538667 0 0 0 277.333333 853.333333h144c5.205333 0 9.813333-2.090667 13.525334-5.205333a21.290667 21.290667 0 0 0 13.141333-19.669333v-64a64.085333 64.085333 0 0 1 64-64 21.333333 21.333333 0 1 0 0-42.666667 106.965333 106.965333 0 0 0-106.666667 106.666667V810.666667h-128c-35.285333 0-64-28.501333-64.298666-59.946667L246.101333 554.666667h545.024a20.48 20.48 0 0 0 11.221334-3.669334zM704 640a64 64 0 1 0 0.042667 128.042667A64 64 0 0 0 704 640M704 810.666667a106.794667 106.794667 0 0 1-106.666667-106.666667c0-58.837333 47.872-106.666667 106.666667-106.666667s106.666667 47.829333 106.666667 106.666667-47.872 106.666667-106.666667 106.666667m0-256c-82.346667 0-149.333333 66.986667-149.333333 149.333333s66.986667 149.333333 149.333333 149.333333 149.333333-66.986667 149.333333-149.333333-66.986667-149.333333-149.333333-149.333333" /></svg>