<?xml version="1.0" standalone="no"?><!DOCTYPE svg PUBLIC "-//W3C//DTD SVG 1.1//EN" "http://www.w3.org/Graphics/SVG/1.1/DTD/svg11.dtd"><svg class="icon" width="200px" height="200.00px" viewBox="0 0 1024 1024" version="1.1" xmlns="http://www.w3.org/2000/svg"><path fill="#333333" d="M840.62848 467.968a21.674667 21.674667 0 0 0-26.112 15.104A311.210667 311.210667 0 0 1 615.47648 696.576c-0.298667 0.128-0.426667 0.341333-0.768 0.469333a21.034667 21.034667 0 0 0-15.36 20.138667V862.976a21.333333 21.333333 0 1 0 42.666667 0V731.690667A353.450667 353.450667 0 0 0 855.775147 494.122667a21.418667 21.418667 0 0 0-15.146667-26.154667M421.257813 703.061333a20.906667 20.906667 0 0 0-8.746666-6.186666A311.04 311.04 0 0 1 212.66048 482.944 21.632 21.632 0 0 0 186.463147 467.882667a21.333333 21.333333 0 0 0-15.061334 26.154666A353.194667 353.194667 0 0 0 386.015147 731.989333V862.976a21.333333 21.333333 0 0 0 42.666666 0V718.976a21.034667 21.034667 0 0 0-7.424-15.914667M516.447147 231.168L606.77248 371.882667 516.447147 435.754667 426.121813 371.882667l90.325334-140.672zM306.271147 571.477333c0.341333 1.109333 0.64 2.218667 1.152 3.285334a22.186667 22.186667 0 0 0 2.56 3.754666c0.64 0.853333 1.28 1.706667 2.048 2.432a20.48 20.48 0 0 0 4.053333 2.730667c0.853333 0.469333 1.536 1.109333 2.474667 1.450667a20.693333 20.693333 0 0 0 7.765333 1.578666h378.922667a21.077333 21.077333 0 0 0 7.808-1.578666c0.896-0.341333 1.621333-0.981333 2.56-1.450667a23.168 23.168 0 0 0 3.925333-2.688c0.853333-0.768 1.408-1.664 2.133333-2.517333 0.896-1.194667 1.792-2.346667 2.474667-3.712A20.48 20.48 0 0 0 725.343147 571.434667c0.256-0.853333 0.768-1.664 0.938666-2.56l10.666667-64.725334a21.333333 21.333333 0 0 0-17.578667-24.490666 21.034667 21.034667 0 0 0-24.490666 17.578666l-7.765334 46.805334h-342.613333L311.22048 342.869333l192.853333 136.533334c0.426667 0.256 0.896 0.128 1.28 0.426666 3.413333 2.048 7.04 3.413333 10.922667 3.413334l0.128 0.042666h0.128a21.034667 21.034667 0 0 0 10.922667-3.498666c0.426667-0.256 0.896-0.128 1.28-0.426667l191.402666-135.466667-9.941333 60.288a21.333333 21.333333 0 1 0 42.069333 6.912l17.92-108.586666a21.290667 21.290667 0 0 0-17.493333-24.490667c-0.853333-0.170667-1.664 0.085333-2.474667 0.042667a21.205333 21.205333 0 0 0-15.957333 3.584L641.71648 347.136 534.367147 180.138667 534.19648 179.882667C533.513813 178.901333 532.489813 178.176 531.63648 177.322667 530.527147 176.042667 529.503147 174.762667 528.137813 173.909333c0-0.085333-0.085333-0.170667-0.170666-0.213333-0.768-0.426667-1.621333-0.554667-2.389334-0.938667C523.95648 171.989333 522.29248 171.136 520.543147 170.794667 519.135147 170.496 517.81248 170.709333 516.447147 170.709333S513.759147 170.496 512.43648 170.794667c-1.834667 0.341333-3.498667 1.194667-5.12 2.005333-0.810667 0.426667-1.621333 0.426667-2.346667 0.896L504.75648 173.909333c-1.365333 0.896-2.432 2.261333-3.584 3.498667-0.810667 0.853333-1.792 1.536-2.432 2.56-0.085333 0.042667-0.170667 0.085333-0.256 0.213333L391.263147 347.136 298.67648 281.6a21.333333 21.333333 0 0 0-16.085333-3.541333c-1.194667 0-2.389333-0.341333-3.626667-0.085334a21.290667 21.290667 0 0 0-17.493333 24.490667l43.946666 266.368c0.085333 0.938667 0.597333 1.749333 0.896 2.645333z" /></svg>