<?xml version="1.0" standalone="no"?><!DOCTYPE svg PUBLIC "-//W3C//DTD SVG 1.1//EN" "http://www.w3.org/Graphics/SVG/1.1/DTD/svg11.dtd"><svg class="icon" width="200px" height="200.00px" viewBox="0 0 1024 1024" version="1.1" xmlns="http://www.w3.org/2000/svg"><path fill="#333333" d="M789.333333 512a21.333333 21.333333 0 0 0 21.333334-21.333333V299.008C810.666667 251.776 773.418667 213.333333 727.637333 213.333333H630.613333a128.298667 128.298667 0 0 0-120.362666-85.333333c-54.314667 0-102.4 35.157333-120.277334 85.333333H296.362667C250.581333 213.333333 213.333333 251.776 213.333333 299.008v511.317333C213.333333 857.557333 250.581333 896 296.362667 896h431.274666C773.418667 896 810.666667 857.557333 810.666667 810.325333V618.666667a21.333333 21.333333 0 0 0-42.666667 0v191.658666c0 23.722667-18.133333 43.008-40.362667 43.008H296.362667C274.133333 853.333333 256 834.048 256 810.325333V299.008C256 275.285333 274.133333 256 296.362667 256h107.178666a20.736 20.736 0 0 0 12.458667-4.48 20.992 20.992 0 0 0 10.922667-14.037333A85.76 85.76 0 0 1 510.250667 170.666667c40.405333 0 75.562667 28.714667 83.584 68.266666a21.333333 21.333333 0 0 0 20.864 17.066667c0.896 0 1.792-0.170667 2.688-0.256 0.426667 0.042667 0.810667 0.256 1.28 0.256h108.970666c22.229333 0 40.362667 19.285333 40.362667 43.008V490.666667a21.333333 21.333333 0 0 0 21.333333 21.333333M659.584 544.853333a21.333333 21.333333 0 0 0 0-42.666666h-124.928v-23.893334l103.765333-97.92a21.333333 21.333333 0 0 0-29.269333-31.018666l-98.133333 92.586666-98.133334-92.586666a21.376 21.376 0 0 0-29.269333 31.061333l108.373333 102.314667v19.498666H360.917333a21.333333 21.333333 0 0 0 0 42.666667h131.072v59.989333H360.917333a21.333333 21.333333 0 0 0 0 42.666667h131.072v93.781333a21.333333 21.333333 0 1 0 42.666667 0v-93.781333h124.928a21.333333 21.333333 0 1 0 0-42.666667h-124.928V544.853333h124.928z" /></svg>