<?xml version="1.0" standalone="no"?><!DOCTYPE svg PUBLIC "-//W3C//DTD SVG 1.1//EN" "http://www.w3.org/Graphics/SVG/1.1/DTD/svg11.dtd"><svg class="icon" width="200px" height="200.00px" viewBox="0 0 1024 1024" version="1.1" xmlns="http://www.w3.org/2000/svg"><path fill="#333333" d="M853.333333 627.029333v64.426667C853.333333 724.906667 826.112 752.213333 792.704 752.213333H364.458667v-77.44a21.333333 21.333333 0 0 0-42.666667 0V752.213333H231.296A60.8 60.8 0 0 1 170.666667 691.456V627.584c40.832-15.573333 67.541333-54.698667 67.541333-101.888 0-46.933333-26.794667-86.186667-67.541333-101.845333v-64.426667c0-33.493333 27.221333-60.8 60.629333-60.8h90.496v77.482667a21.333333 21.333333 0 0 0 42.666667 0V298.624h428.245333c33.408 0 60.629333 27.306667 60.629333 60.8v65.066667c-39.765333 16.085333-65.792 55.04-65.792 101.205333 0 46.506667 25.898667 85.333333 65.792 101.333333m23.594667-165.76c0.384-0.085333 0.64-0.426667 0.981333-0.469333A21.077333 21.077333 0 0 0 896 440.106667V359.424A103.509333 103.509333 0 0 0 792.704 255.957333H231.296A103.509333 103.509333 0 0 0 128 359.424v78.890667c0 9.472 6.272 17.237333 14.848 20.010666a21.333333 21.333333 0 0 0 6.016 2.944c27.946667 7.210667 46.677333 33.109333 46.677333 64.426667 0 32-19.370667 58.026667-48.256 64.768-1.706667 0.426667-3.072 1.28-4.565333 2.090667A21.077333 21.077333 0 0 0 128 612.565333v78.890667A103.509333 103.509333 0 0 0 231.296 794.88h561.408A103.509333 103.509333 0 0 0 896 691.456v-80.213333a20.992 20.992 0 0 0-16.682667-20.352c-0.298667-0.085333-0.554667-0.341333-0.853333-0.426667-28.885333-6.698667-48.256-32.725333-48.256-64.768 0-31.317333 18.773333-57.216 46.72-64.426667M343.125333 440.149333a21.333333 21.333333 0 0 0-21.333333 21.333334v128a21.333333 21.333333 0 0 0 42.666667 0v-128a21.333333 21.333333 0 0 0-21.333334-21.333334" /></svg>