<?xml version="1.0" standalone="no"?><!DOCTYPE svg PUBLIC "-//W3C//DTD SVG 1.1//EN" "http://www.w3.org/Graphics/SVG/1.1/DTD/svg11.dtd"><svg class="icon" width="200px" height="200.00px" viewBox="0 0 1024 1024" version="1.1" xmlns="http://www.w3.org/2000/svg"><path fill="#333333" d="M850.519893 491.946667h-298.154666V211.925333c153.130667 9.642667 279.04 127.701333 298.154666 279.936m-318.336 40.32h338.005334c7.082667 0 13.013333-3.84 16.597333-9.386666a19.882667 19.882667 0 0 0 5.973333-15.488c-12.714667-188.757333-171.136-336.64-360.576-336.64a20.181333 20.181333 0 0 0-20.181333 20.096c0 0.298667 0.170667 0.554667 0.170667 0.853333 0 0.298667-0.170667 0.554667-0.170667 0.853333v317.909334c0 0.256 0.170667 0.512 0.170667 0.853333 0 0.256-0.170667 0.512-0.170667 0.853333 0 11.093333 9.045333 20.096 20.181333 20.096M588.93056 848.426667a328.832 328.832 0 0 1-56.746667 4.906666c-177.066667 0-321.152-144.085333-321.152-321.152a319.445333 319.445333 0 0 1 226.688-307.072 20.181333 20.181333 0 0 0-11.818666-38.528A359.68 359.68 0 0 0 170.669227 532.181333c0 199.338667 162.133333 361.514667 361.514666 361.514667 21.290667 0 42.752-1.92 63.744-5.632a20.096 20.096 0 1 0-6.997333-39.68M765.101227 704.597333a64 64 0 1 0 0.042666 128.042667 64 64 0 0 0-0.042666-128M765.101227 875.306667a106.752 106.752 0 0 1-106.666667-106.666667c0-58.88 47.786667-106.666667 106.666667-106.666667 58.837333 0 106.666667 47.786667 106.666666 106.666667 0 58.837333-47.829333 106.666667-106.666666 106.666667m0-256c-82.346667 0-149.333333 66.986667-149.333334 149.333333s66.986667 149.333333 149.333334 149.333333 149.333333-66.986667 149.333333-149.333333-66.986667-149.333333-149.333333-149.333333" /></svg>