<?xml version="1.0" standalone="no"?><!DOCTYPE svg PUBLIC "-//W3C//DTD SVG 1.1//EN" "http://www.w3.org/Graphics/SVG/1.1/DTD/svg11.dtd"><svg class="icon" width="200px" height="200.00px" viewBox="0 0 1024 1024" version="1.1" xmlns="http://www.w3.org/2000/svg"><path fill="#333333" d="M876.672 531.328h-74.453333a287.274667 287.274667 0 0 0-266.88-264.96V192a21.333333 21.333333 0 0 0-42.666667 0v74.538667a287.402667 287.402667 0 0 0-262.826667 264.789333H149.333333a21.333333 21.333333 0 1 0 0 42.666667h80.426667a285.184 285.184 0 0 0 262.912 264.661333V917.333333a21.333333 21.333333 0 0 0 42.666667 0v-193.408a21.333333 21.333333 0 1 0-42.666667 0v71.978667a242.858667 242.858667 0 0 1-220.245333-221.866667h70.314666a21.333333 21.333333 0 0 0 0-42.666666H272.469333a244.906667 244.906667 0 0 1 220.202667-222.165334v76.202667a21.333333 21.333333 0 0 0 42.666667 0v-76.373333a244.778667 244.778667 0 0 1 224.213333 222.293333h-76.330667a21.333333 21.333333 0 0 0 0 42.666667h193.450667a21.333333 21.333333 0 0 0 0-42.666667M513.877333 593.792a39.168 39.168 0 0 1 0-78.250667 39.168 39.168 0 0 1 0 78.250667m0-120.917333A81.92 81.92 0 0 0 432.085333 554.666667a81.92 81.92 0 0 0 81.792 81.792A81.92 81.92 0 0 0 595.669333 554.666667a81.92 81.92 0 0 0-81.792-81.792M707.669333 682.666667a64 64 0 1 0 0.042667 128.042666 64 64 0 0 0 0-128.042666M707.669333 853.333333a106.794667 106.794667 0 0 1-106.666666-106.666666c0-58.837333 47.872-106.666667 106.666666-106.666667s106.666667 47.829333 106.666667 106.666667-47.872 106.666667-106.666667 106.666666m0-256c-82.346667 0-149.333333 66.986667-149.333333 149.333334s66.986667 149.333333 149.333333 149.333333 149.333333-66.986667 149.333334-149.333333-66.986667-149.333333-149.333334-149.333334" /></svg>