<?xml version="1.0" standalone="no"?><!DOCTYPE svg PUBLIC "-//W3C//DTD SVG 1.1//EN" "http://www.w3.org/Graphics/SVG/1.1/DTD/svg11.dtd"><svg class="icon" width="200px" height="200.00px" viewBox="0 0 1024 1024" version="1.1" xmlns="http://www.w3.org/2000/svg"><path fill="#333333" d="M831.70304 637.909333h-218.666667a21.333333 21.333333 0 0 0 0 42.666667h218.666667a21.333333 21.333333 0 0 0 0-42.666667M831.70304 723.242667h-218.666667a21.333333 21.333333 0 0 0 0 42.666666h218.666667a21.333333 21.333333 0 0 0 0-42.666666M831.70304 810.368h-218.666667a21.333333 21.333333 0 0 0 0 42.666667h218.666667a21.333333 21.333333 0 0 0 0-42.666667M211.116373 455.808L459.820373 205.866667a354.176 354.176 0 0 1-248.704 249.941333M510.849707 128c-7.253333 0-14.421333 0.170667-21.546667 0.554667L488.91904 128.64a20.352 20.352 0 0 0-14.933333 5.845333l-332.8 334.506667a19.754667 19.754667 0 0 0-11.690667 15.274667c-0.256 1.024-0.725333 1.962667-0.810667 3.029333a392.106667 392.106667 0 0 0-0.64 23.509333C128.001707 721.92 299.777707 893.653333 510.80704 893.653333a413.866667 413.866667 0 0 0 25.301333-0.853333 20.138667 20.138667 0 0 0 18.858667-21.333333c-0.64-11.093333-9.941333-18.432-21.418667-18.901334a334.506667 334.506667 0 0 1-22.741333 0.768c-188.842667 0-342.485333-153.6-342.485333-342.528 0-1.92 0.170667-3.84 0.213333-5.802666a393.813333 393.813333 0 0 0 339.541333-336.597334L510.849707 168.32C699.692373 168.32 853.33504 321.92 853.33504 510.805333c0 20.053333-1.706667 40.106667-5.205333 59.605334a20.138667 20.138667 0 1 0 39.68 6.997333 380.842667 380.842667 0 0 0 5.845333-66.56c0-211.114667-171.776-382.848-382.848-382.848" /></svg>