<?xml version="1.0" standalone="no"?><!DOCTYPE svg PUBLIC "-//W3C//DTD SVG 1.1//EN" "http://www.w3.org/Graphics/SVG/1.1/DTD/svg11.dtd"><svg class="icon" width="200px" height="200.00px" viewBox="0 0 1024 1024" version="1.1" xmlns="http://www.w3.org/2000/svg"><path fill="#333333" d="M405.333333 366.208a42.666667 42.666667 0 1 1-85.333333 0 42.666667 42.666667 0 0 1 85.333333 0m-128 0c0 47.061333 38.272 85.333333 85.333334 85.333333s85.333333-38.272 85.333333-85.333333-38.272-85.333333-85.333333-85.333333-85.333333 38.272-85.333334 85.333333M833.792 640h-218.666667a21.333333 21.333333 0 0 0 0 42.666667h218.666667a21.333333 21.333333 0 0 0 0-42.666667M833.792 725.333333h-218.666667a21.333333 21.333333 0 0 0 0 42.666667h218.666667a21.333333 21.333333 0 0 0 0-42.666667M833.792 812.458667h-218.666667a21.333333 21.333333 0 0 0 0 42.666666h218.666667a21.333333 21.333333 0 0 0 0-42.666666M543.872 793.813333a190.72 190.72 0 0 1-55.808-38.784L213.333333 480.256V213.333333h274.218667l271.104 271.104a190.592 190.592 0 0 1 51.669333 94.336 21.333333 21.333333 0 1 0 41.685334-9.088 233.258667 233.258667 0 0 0-63.146667-115.413333l-274.048-274.005333c-1.109333-1.152-2.56-1.706667-3.84-2.56A21.162667 21.162667 0 0 0 495.36 170.666667H192a21.333333 21.333333 0 0 0-21.333333 21.333333v292.266667c0 1.706667 0.597333 3.157333 0.981333 4.736a20.992 20.992 0 0 0 6.058667 15.957333l280.192 280.234667a232.96 232.96 0 0 0 68.266666 47.445333 21.333333 21.333333 0 0 0 17.749334-38.826667" /></svg>