<?xml version="1.0" standalone="no"?><!DOCTYPE svg PUBLIC "-//W3C//DTD SVG 1.1//EN" "http://www.w3.org/Graphics/SVG/1.1/DTD/svg11.dtd"><svg class="icon" width="200px" height="200.00px" viewBox="0 0 1024 1024" version="1.1" xmlns="http://www.w3.org/2000/svg"><path fill="#333333" d="M760.793852 170.797491H263.248809A92.615132 92.615132 0 0 0 170.718996 263.284643v497.545043C170.718996 811.851196 212.227298 853.359498 263.248809 853.359498h269.654652a21.330063 21.330063 0 1 0 0-42.660125H263.248809A49.912347 49.912347 0 0 1 213.379122 760.829686V263.284643A49.912347 49.912347 0 0 1 263.248809 213.457616h497.545043A49.912347 49.912347 0 0 1 810.620878 263.284643v313.210641a21.330063 21.330063 0 1 0 42.660126 0V263.284643A92.615132 92.615132 0 0 0 760.793852 170.797491M383.593022 299.204469a21.330063 21.330063 0 0 0-21.330062 21.330062v87.453258c0 81.65148 66.976397 148.073295 149.310439 148.073295s149.310439-66.421815 149.310439-148.030635V320.534531a21.330063 21.330063 0 0 0-42.660126 0v87.453258c0 58.103091-47.779341 105.37051-106.650313 105.370509-58.828313 0-106.650314-47.267419-106.650314-105.370509V320.534531a21.330063 21.330063 0 0 0-21.330063-21.330062M766.638289 802.082027c-22.012625-20.30622-27.899722-48.632543-28.198343-48.632543a19.410357 19.410357 0 0 0-0.511922-4.393993c-2.986209-13.56592-14.077841-23.633709-30.84327-25.297454a31.995094 31.995094 0 0 0-29.435487 20.178239 127.895056 127.895056 0 0 0-9.385227 53.581118c-22.183265-14.803064-36.261107-38.650074-36.261107-64.928711 0-22.481886 10.36641-43.939929 29.862088-60.150777 2.815568-2.346307 5.673797-4.735274 8.787986-7.124241 14.504443-10.835672 35.237264-26.363958 55.202202-58.145751 6.399019 5.929757 11.304933 12.627397 13.949861 19.538338 5.033895 13.224639 3.41281 28.752925-5.588477 47.73668-4.393993 11.816855-1.450444 25.169474 10.15311 36.346427 9.811829 6.996261 20.818141 9.385228 35.578545 1.834385 7.550842-4.692614 14.632423-9.854489 21.159422-15.570945 5.929757 10.835672 9.086607 22.993808 9.086607 35.535884 0 28.582284-16.722769 54.818261-43.555988 69.493344m34.981303-159.122267a21.628684 21.628684 0 0 0-15.442966 8.105423l-1.279804 1.663745a88.989022 88.989022 0 0 0-5.204535-41.252341C768.174053 581.614499 742.577978 564.84907 728.372156 557.554188a21.202082 21.202082 0 0 0-28.838245 9.385228c-18.770455 37.49825-38.564753 52.343974-54.60496 64.288809-3.754091 2.900889-7.252221 5.844437-11.688874 9.641188a118.97909 118.97909 0 0 0-43.854609 91.71927c0 58.998953 44.750472 109.849823 106.394352 120.856135A21.927304 21.927304 0 0 0 699.533911 853.786099h0.426602a21.500703 21.500703 0 0 0 21.714004-21.330062 21.458043 21.458043 0 0 0-5.289856-14.120502 65.142012 65.142012 0 0 1-5.119215-19.495677c8.617345 15.912227 21.586023 32.933617 40.527119 45.774314a21.330063 21.330063 0 0 0 19.794298 2.133007C820.944628 827.251501 852.854402 782.45837 852.854402 732.588683a117.315345 117.315345 0 0 0-34.853322-83.357885 21.841984 21.841984 0 0 0-16.338828-6.228378" /></svg>