<?xml version="1.0" standalone="no"?><!DOCTYPE svg PUBLIC "-//W3C//DTD SVG 1.1//EN" "http://www.w3.org/Graphics/SVG/1.1/DTD/svg11.dtd"><svg class="icon" width="200px" height="200.00px" viewBox="0 0 1024 1024" version="1.1" xmlns="http://www.w3.org/2000/svg"><path fill="#333333" d="M469.504 724.181333a21.333333 21.333333 0 0 0 21.333333-21.333333v-93.738667h124.885334a21.333333 21.333333 0 0 0 0-42.666666h-124.885334v-60.032h124.885334a21.333333 21.333333 0 1 0 0-42.666667h-124.885334v-23.936l103.68-97.877333a21.248 21.248 0 0 0 0.853334-30.122667 21.248 21.248 0 0 0-30.08-0.896l-98.133334 92.586667-98.133333-92.586667a21.290667 21.290667 0 1 0-29.269333 31.018667l108.373333 102.272v19.541333H317.098667a21.333333 21.333333 0 1 0 0 42.666667h131.114666v60.032H317.013333a21.290667 21.290667 0 1 0 0 42.666666h131.114667v93.738667a21.333333 21.333333 0 0 0 21.333333 21.333333M745.258667 170.666667H276.352A105.856 105.856 0 0 0 170.666667 276.437333v468.864a105.813333 105.813333 0 0 0 105.728 105.685334h298.453333a20.181333 20.181333 0 0 0 0-40.32H276.394667a65.408 65.408 0 0 1-65.365334-65.365334V276.394667c0-36.053333 29.312-65.408 65.365334-65.408h468.864c36.096 0 65.408 29.354667 65.408 65.450666v295.253334a20.181333 20.181333 0 0 0 40.362666 0v-295.253334a105.898667 105.898667 0 0 0-105.813333-105.813333M650.069333 719.872a64.64 64.64 0 1 1 64.597334 64.597333 64.64 64.64 0 0 1-64.597334-64.597333z m155.605334 56.021333a106.24 106.24 0 0 0 16.213333-56.021333 107.392 107.392 0 0 0-107.221333-107.264 107.392 107.392 0 0 0-107.264 107.264 107.392 107.392 0 0 0 107.264 107.264 106.24 106.24 0 0 0 61.866666-19.968l36.736 40.277333a21.162667 21.162667 0 0 0 30.122667 1.365334 21.290667 21.290667 0 0 0 1.365333-30.122667l-39.082666-42.794667z" /></svg>