<?xml version="1.0" standalone="no"?><!DOCTYPE svg PUBLIC "-//W3C//DTD SVG 1.1//EN" "http://www.w3.org/Graphics/SVG/1.1/DTD/svg11.dtd"><svg class="icon" width="200px" height="200.00px" viewBox="0 0 1024 1024" version="1.1" xmlns="http://www.w3.org/2000/svg"><path fill="#333333" d="M534.656 810.666667H263.168A49.92 49.92 0 0 1 213.333333 760.832V263.210667A49.92 49.92 0 0 1 263.168 213.333333h497.621333a49.92 49.92 0 0 1 49.92 49.877334v273.237333a21.290667 21.290667 0 1 0 42.666667 0V263.210667A92.629333 92.629333 0 0 0 760.746667 170.666667H263.168A92.586667 92.586667 0 0 0 170.666667 263.210667v497.621333A92.586667 92.586667 0 0 0 263.168 853.333333h271.488a21.333333 21.333333 0 0 0 0-42.666666M383.573333 299.093333a21.333333 21.333333 0 0 0-21.333333 21.333334v87.466666c0 81.664 66.986667 148.138667 149.333333 148.138667s149.333333-66.474667 149.333334-148.096V320.426667a21.333333 21.333333 0 0 0-42.666667 0v87.466666c0 58.112-47.872 105.386667-106.666667 105.386667-58.88 0-106.666667-47.274667-106.666666-105.386667V320.426667a21.333333 21.333333 0 0 0-21.333334-21.333334M706.858667 639.786667a64 64 0 1 0 0.042666 128.042666 64 64 0 0 0 0-128.042666M706.858667 810.453333a106.794667 106.794667 0 0 1-106.666667-106.666666c0-58.794667 47.829333-106.666667 106.666667-106.666667 58.88 0 106.666667 47.872 106.666666 106.666667s-47.786667 106.666667-106.666666 106.666666m0-256c-82.346667 0-149.333333 66.986667-149.333334 149.333334s66.986667 149.333333 149.333334 149.333333 149.333333-66.986667 149.333333-149.333333-66.986667-149.333333-149.333333-149.333334" /></svg>