<?xml version="1.0" standalone="no"?><!DOCTYPE svg PUBLIC "-//W3C//DTD SVG 1.1//EN" "http://www.w3.org/Graphics/SVG/1.1/DTD/svg11.dtd"><svg class="icon" width="200px" height="200.00px" viewBox="0 0 1024 1024" version="1.1" xmlns="http://www.w3.org/2000/svg"><path fill="#333333" d="M832 512.469333a21.333333 21.333333 0 0 1-21.333333-21.333333V305.877333A49.92 49.92 0 0 0 760.789333 256h-78.592v63.530667c0 11.818667-9.514667 21.333333-21.333333 21.333333h-298.666667a21.333333 21.333333 0 0 1-21.333333-21.333333V256H263.168A49.92 49.92 0 0 0 213.333333 305.877333v497.578667A49.92 49.92 0 0 0 263.168 853.333333h497.621333A49.92 49.92 0 0 0 810.666667 803.456v-184.32a21.333333 21.333333 0 1 1 42.666666 0v184.32A92.629333 92.629333 0 0 1 760.789333 896H263.168A92.629333 92.629333 0 0 1 170.666667 803.456V305.877333C170.666667 254.848 212.181333 213.333333 263.168 213.333333h497.621333C811.818667 213.333333 853.333333 254.848 853.333333 305.877333v185.258667a21.333333 21.333333 0 0 1-21.333333 21.333333zM383.530667 298.197333h256V256h-256v42.197333zM328.704 499.968h-27.434667v195.157333h30.762667v-115.968l45.994667 115.968h27.178666v-195.157333h-30.72v115.968zM520.021333 527.658667v-27.690667h-82.005333v195.157333h82.048v-27.690666h-51.242667v-56.746667h44.074667v-27.648h-44.074667v-55.381333zM644.949333 499.968h-33.962666l-26.88 148.053333-19.157334-148.053333h-33.706666l36.992 195.157333h32.042666l27.733334-148.266666 27.946666 148.266666h32.085334l36.693333-195.157333h-33.706667l-18.901333 148.053333z" /></svg>