<?xml version="1.0" standalone="no"?><!DOCTYPE svg PUBLIC "-//W3C//DTD SVG 1.1//EN" "http://www.w3.org/Graphics/SVG/1.1/DTD/svg11.dtd"><svg class="icon" width="200px" height="200.00px" viewBox="0 0 1024 1024" version="1.1" xmlns="http://www.w3.org/2000/svg"><path fill="#333333" d="M870.272 351.317333L777.813333 183.850667c-3.797333-6.613333-13.909333-13.141333-21.546666-13.141334H245.802667c-7.68 0-18.005333 6.656-21.76 13.44L131.712 351.36a30.293333 30.293333 0 0 0 2.176 32.512L481.408 845.226667a24.32 24.32 0 0 0 19.669333 10.197333 28.373333 28.373333 0 0 0 19.626667-10.154667l158.037333-209.92a21.333333 21.333333 0 1 0-34.090666-25.6L501.077333 800.426667 172.970667 364.8l83.712-151.466667h488.618666l83.754667 151.594667L741.12 481.706667a21.333333 21.333333 0 1 0 34.133333 25.6l93.013334-123.477334a29.994667 29.994667 0 0 0 2.048-32.554666M755.968 364.8a21.333333 21.333333 0 0 0-21.333333-21.333333H267.008a21.333333 21.333333 0 0 0 0 42.666666h467.626667a21.333333 21.333333 0 0 0 21.333333-21.333333" /></svg>