<?xml version="1.0" standalone="no"?><!DOCTYPE svg PUBLIC "-//W3C//DTD SVG 1.1//EN" "http://www.w3.org/Graphics/SVG/1.1/DTD/svg11.dtd"><svg class="icon" width="200px" height="200.00px" viewBox="0 0 1024 1024" version="1.1" xmlns="http://www.w3.org/2000/svg"><path fill="#333333" d="M517.632 552.149333c80.64 0 152.277333-46.677333 182.613333-118.954666a21.333333 21.333333 0 0 0-39.338666-16.512c-23.594667 56.362667-79.914667 92.8-143.274667 92.8-77.568 0-141.354667-55.253333-152.234667-126.72h183.466667a21.290667 21.290667 0 1 0 0-42.666667H364.757333c3.285333-21.845333 11.52-42.666667 24.490667-61.141333C418.048 237.866667 466.048 213.333333 517.632 213.333333c51.541333 0 99.498667 24.490667 128.256 65.536 5.973333 8.576 11.050667 17.706667 15.018667 27.178667a21.333333 21.333333 0 0 0 39.338666-16.597333 189.44 189.44 0 0 0-19.413333-35.072C644.096 201.941333 583.04 170.666667 517.632 170.666667c-65.493333 0-126.549333 31.317333-163.285333 83.84A185.258667 185.258667 0 0 0 320.426667 361.386667c0 105.216 88.448 190.762667 197.12 190.762666M720.170667 810.666667H303.786667C253.866667 810.666667 213.333333 769.578667 213.333333 719.061333c0-50.517333 40.533333-91.605333 90.453334-91.605333h416.384c49.92 0 90.453333 41.088 90.453333 91.605333C810.666667 769.578667 770.133333 810.666667 720.213333 810.666667m0-225.877334H303.786667C230.4 584.789333 170.666667 645.034667 170.666667 719.061333 170.666667 793.088 230.4 853.333333 303.786667 853.333333h416.384c73.386667 0 133.12-60.245333 133.12-134.272C853.333333 645.034667 793.6 584.789333 720.213333 584.789333" /></svg>