<?xml version="1.0" standalone="no"?><!DOCTYPE svg PUBLIC "-//W3C//DTD SVG 1.1//EN" "http://www.w3.org/Graphics/SVG/1.1/DTD/svg11.dtd"><svg class="icon" width="200px" height="200.00px" viewBox="0 0 1024 1024" version="1.1" xmlns="http://www.w3.org/2000/svg"><path fill="#333333" d="M846.635947 452.181333L507.179947 133.589333a21.205333 21.205333 0 0 0-16.554667-5.504 21.333333 21.333333 0 0 0-16.426667 5.504L134.742613 452.181333a21.333333 21.333333 0 0 0 29.226667 31.104l9.6-8.96v279.765334A100.138667 100.138667 0 0 0 273.750613 853.973333h433.92a100.181333 100.181333 0 0 0 100.181334-99.882666v-69.802667a21.333333 21.333333 0 0 0-42.666667 0v69.802667c0 31.530667-25.813333 57.216-57.557333 57.216H273.750613a57.429333 57.429333 0 0 1-57.514666-57.216V434.261333L490.710613 176.64l274.474667 257.621333v124.501334a21.333333 21.333333 0 1 0 42.666667 0V474.325333l9.557333 8.96a21.333333 21.333333 0 1 0 29.226667-31.104M448.043947 446.976a21.333333 21.333333 0 0 0-30.165334 0L329.85728 535.04a21.333333 21.333333 0 0 0-4.608 23.168 21.034667 21.034667 0 0 0 20.565333 17.664h295.125334a21.333333 21.333333 0 1 0 0-42.666667H392.022613l56.021334-56.021333a21.333333 21.333333 0 0 0 0-30.165333" /></svg>