<?xml version="1.0" standalone="no"?><!DOCTYPE svg PUBLIC "-//W3C//DTD SVG 1.1//EN" "http://www.w3.org/Graphics/SVG/1.1/DTD/svg11.dtd"><svg class="icon" width="200px" height="200.00px" viewBox="0 0 1024 1024" version="1.1" xmlns="http://www.w3.org/2000/svg"><path fill="#333333" d="M833.792 449.749333a21.333333 21.333333 0 0 0 21.333333-21.333333V364.458667c0-58.837333-47.829333-106.666667-106.666666-106.666667H533.333333V234.666667a21.333333 21.333333 0 0 0-42.666666 0v23.125333h-213.333334a106.752 106.752 0 0 0-106.666666 106.666667v256c0 58.837333 47.829333 106.666667 106.666666 106.666666h213.333334v49.792l-138.581334 79.189334a21.418667 21.418667 0 0 0-7.978666 29.141333 21.461333 21.461333 0 0 0 29.141333 7.978667L512 813.909333l138.752 79.317334a21.418667 21.418667 0 0 0 29.141333-7.978667 21.418667 21.418667 0 0 0-7.978666-29.141333L533.333333 776.917333v-49.792h215.125334c58.837333 0 106.666667-47.829333 106.666666-106.666666v-64a21.333333 21.333333 0 0 0-42.666666 0v64c0 35.285333-28.714667 64-64 64H277.333333c-35.285333 0-64-28.714667-64-64v-256c0-35.285333 28.714667-64 64-64h471.125334c35.285333 0 64 28.714667 64 64v63.957333a21.333333 21.333333 0 0 0 21.333333 21.333333M342.784 383.786667a37.546667 37.546667 0 0 1 35.2 24.405333h17.92a54.698667 54.698667 0 0 0-107.904 13.141333v8.192a54.741333 54.741333 0 0 0 107.946667 12.928h-17.92a37.546667 37.546667 0 0 1-72.832-13.098666v-8.021334a37.546667 37.546667 0 0 1 37.546666-37.546666M724.693333 555.989333v8.021334a37.546667 37.546667 0 1 1-75.178666 0v-8.021334a37.589333 37.589333 0 0 1 75.136 0m-92.330667 0v8.192a54.741333 54.741333 0 0 0 109.482667-0.170666v-8.021334a54.698667 54.698667 0 1 0-109.482667 0M551.893333 484.096h17.152V366.592h-17.152zM596.778667 618.752h18.389333l-45.226667-117.504h-19.029333l-45.226667 117.504h72.704L571.776 601.6H530.773333l29.738667-77.226667zM460.8 584.448h17.152V466.944H460.8zM453.290667 618.752h32.213333L478.933333 601.6h-19.072zM480.725333 432.64h-41.088L465.066667 366.592h-18.432l-32 83.2h72.704zM524.117333 449.834667l-32-83.2h-18.432l32.042667 83.2zM288 618.752h17.152V528.085333l75.178667 90.709334h17.152V501.248h-17.152v90.666667l-75.093334-90.624H288z" /></svg>