<?xml version="1.0" standalone="no"?><!DOCTYPE svg PUBLIC "-//W3C//DTD SVG 1.1//EN" "http://www.w3.org/Graphics/SVG/1.1/DTD/svg11.dtd"><svg class="icon" width="200px" height="200.00px" viewBox="0 0 1024 1024" version="1.1" xmlns="http://www.w3.org/2000/svg"><path fill="#333333" d="M439.125333 319.232h220.8v-32.213333h-220.8v32.213333z m393.045334 189.184a21.333333 21.333333 0 0 1-21.333334-21.333333V328.490667a41.472 41.472 0 0 0-41.472-41.429334h-66.773333v53.504a21.333333 21.333333 0 0 1-21.333333 21.333334H417.792a21.333333 21.333333 0 0 1-21.333333-21.333334V287.061333H330.453333a41.472 41.472 0 0 0-41.472 41.429334v438.912c0 22.869333 18.602667 41.472 41.472 41.472h438.912a41.514667 41.514667 0 0 0 41.472-41.472v-150.528a21.333333 21.333333 0 0 1 42.666667 0v150.528a84.224 84.224 0 0 1-84.138667 84.138666H330.453333a83.968 83.968 0 0 1-83.157333-74.453333A83.968 83.968 0 0 1 170.666667 693.717333V254.805333C170.666667 208.426667 208.384 170.666667 254.805333 170.666667h438.912c43.093333 0 78.293333 32.682667 83.157334 74.453333a83.968 83.968 0 0 1 76.629333 83.370667v158.592a21.333333 21.333333 0 0 1-21.333333 21.333333zM363.477333 244.394667h220.757334V213.333333H363.477333v31.061334zM246.314667 328.490667c0-43.050667 32.682667-78.293333 74.496-83.157334V213.333333H254.805333A41.514667 41.514667 0 0 0 213.333333 254.805333v438.912c0 19.84 14.336 35.712 32.981334 39.722667V328.490667z m486.784-84.096A40.96 40.96 0 0 0 693.717333 213.333333h-66.816v31.061334h106.197334z" /></svg>