<?xml version="1.0" standalone="no"?><!DOCTYPE svg PUBLIC "-//W3C//DTD SVG 1.1//EN" "http://www.w3.org/Graphics/SVG/1.1/DTD/svg11.dtd"><svg class="icon" width="200px" height="200.00px" viewBox="0 0 1024 1024" version="1.1" xmlns="http://www.w3.org/2000/svg"><path fill="#333333" d="M730.666667 682.666667a42.709333 42.709333 0 0 1 0 85.333333 42.709333 42.709333 0 0 1 0-85.333333m-412.458667 85.333333a42.709333 42.709333 0 0 1 0-85.333333 42.666667 42.666667 0 0 1 0 85.333333M170.666667 629.333333v-119.893333L227.114667 384H384v244.949333c0 24.277333 8.405333 46.421333 22.058667 64.384H397.226667A85.461333 85.461333 0 0 0 318.208 640c-35.712 0-66.261333 22.144-78.976 53.333333h-6.357333c-0.341333 0-0.64 0.170667-0.981334 0.213334-0.426667-0.042667-0.768-0.298667-1.237333-0.341334A64.128 64.128 0 0 1 170.666667 629.333333M874.666667 426.666667a21.333333 21.333333 0 0 0 21.333333-21.333334V320.384A107.093333 107.093333 0 0 0 788.992 213.333333h-297.984A107.093333 107.093333 0 0 0 384 320.384V341.333333H213.333333c-0.810667 0-1.493333 0.384-2.261333 0.469334a22.698667 22.698667 0 0 0-5.674667 1.109333c-1.237333 0.512-2.261333 1.408-3.370666 2.133333-1.194667 0.725333-2.432 1.322667-3.456 2.304-1.237333 1.237333-2.133333 2.773333-3.029334 4.266667-0.512 0.810667-1.28 1.365333-1.664 2.304l-0.170666 0.426667-0.042667 0.042666-63.786667 141.738667-0.042666 0.213333c-0.554667 1.28-0.64 2.730667-0.938667 4.096-0.298667 1.450667-0.853333 2.816-0.853333 4.224L128 504.874667v124.458666a106.837333 106.837333 0 0 0 101.333333 106.496c0.512 0 0.896-0.256 1.408-0.256 0.725333 0.085333 1.365333 0.426667 2.133334 0.426667h1.109333c5.290667 41.941333 40.832 74.666667 84.224 74.666667a85.162667 85.162667 0 0 0 84.266667-74.666667H646.4c5.333333 41.941333 40.832 74.666667 84.266667 74.666667a85.162667 85.162667 0 0 0 84.608-78.293334A106.581333 106.581333 0 0 0 896 628.949333V533.333333a21.333333 21.333333 0 0 0-42.666667 0v95.616c0 28.629333-19.157333 52.181333-45.568 60.416A85.290667 85.290667 0 0 0 730.666667 640c-35.712 0-66.304 22.144-78.976 53.333333h-160.682667A64.426667 64.426667 0 0 1 426.666667 628.949333V320.384A64.426667 64.426667 0 0 1 491.008 256h297.984A64.426667 64.426667 0 0 1 853.333333 320.384V405.333333a21.333333 21.333333 0 0 0 21.333334 21.333334M316.458667 522.666667a21.333333 21.333333 0 0 0 0-42.666667H236.458667a21.333333 21.333333 0 0 0 0 42.666667h80z" /></svg>