<?xml version="1.0" standalone="no"?><!DOCTYPE svg PUBLIC "-//W3C//DTD SVG 1.1//EN" "http://www.w3.org/Graphics/SVG/1.1/DTD/svg11.dtd"><svg class="icon" width="200px" height="200.00px" viewBox="0 0 1024 1024" version="1.1" xmlns="http://www.w3.org/2000/svg"><path fill="#333333" d="M826.709333 330.112a360.874667 360.874667 0 0 0-592.554666-9.216V272.810667a20.138667 20.138667 0 0 0-40.32 0v118.784c0 3.84 1.28 7.168 3.2 10.24a19.797333 19.797333 0 0 0 9.770666 9.813333c10.154667 4.522667 22.058667 0 26.624-10.197333A321.109333 321.109333 0 0 1 526.890667 210.944a321.109333 321.109333 0 0 1 320.426666 342.954667 20.224 20.224 0 0 0 40.277334 2.688 359.893333 359.893333 0 0 0-60.885334-226.432M545.408 852.778667A320.64 320.64 0 0 1 210.645333 588.8a20.138667 20.138667 0 1 0-39.637333 7.082667 360.832 360.832 0 0 0 376.746667 297.130666 20.181333 20.181333 0 0 0 18.944-21.248 19.370667 19.370667 0 0 0-21.333334-18.986666M722.56 660.138667a64 64 0 1 0 0 128.042666 64 64 0 0 0 0-128M722.56 830.805333a106.794667 106.794667 0 0 1-106.666667-106.666666c0-58.794667 47.829333-106.666667 106.666667-106.666667 58.88 0 106.666667 47.872 106.666667 106.666667s-47.786667 106.666667-106.666667 106.666666m0-256c-32.810667 0-62.890667 10.965333-87.552 29.013334h-78.805333v-60.074667h124.885333a21.290667 21.290667 0 1 0 0-42.666667h-124.885333v-23.893333l103.722666-97.92a21.333333 21.333333 0 0 0-29.226666-31.018667l-98.133334 92.586667-98.133333-92.586667a21.333333 21.333333 0 1 0-29.269333 31.018667l108.373333 102.314667v19.498666H382.421333a21.333333 21.333333 0 0 0 0 42.666667h131.114667v60.032H382.421333a21.333333 21.333333 0 1 0 0 42.666667h131.114667v93.738666a21.290667 21.290667 0 1 0 42.666667 0v-93.738666h39.466666a147.498667 147.498667 0 0 0-22.442666 77.696c0 82.346667 66.986667 149.333333 149.333333 149.333333s149.333333-66.986667 149.333333-149.333333-66.986667-149.333333-149.333333-149.333334" /></svg>