<?xml version="1.0" standalone="no"?><!DOCTYPE svg PUBLIC "-//W3C//DTD SVG 1.1//EN" "http://www.w3.org/Graphics/SVG/1.1/DTD/svg11.dtd"><svg class="icon" width="200px" height="200.00px" viewBox="0 0 1024 1024" version="1.1" xmlns="http://www.w3.org/2000/svg"><path fill="#333333" d="M535.722667 530.986667h234.666666a20.181333 20.181333 0 0 0 0-40.32h-214.485333V299.264a20.181333 20.181333 0 0 0-40.362667 0v209.749333c0 0.341333 0.170667 0.597333 0.213334 0.896-0.042667 0.341333-0.213333 0.597333-0.213334 0.896 0 11.136 9.045333 20.181333 20.181334 20.181334M865.024 694.4c-1.536-1.28-3.328-2.005333-5.077333-2.816a20.864 20.864 0 0 0-10.624-3.242667H784.213333a21.333333 21.333333 0 0 0 0 42.666667h21.632l-70.656 83.029333-100.821333-80.469333a21.333333 21.333333 0 0 0-29.013333 2.218667l-108.458667 117.888a21.418667 21.418667 0 0 0 15.701333 35.84c5.76 0 11.52-2.346667 15.701334-6.912l95.018666-103.253334 101.418667 80.938667a21.248 21.248 0 0 0 29.525333-2.858667l76.544-89.898666v10.069333a21.333333 21.333333 0 1 0 42.666667 0V712.533333a20.565333 20.565333 0 0 0-2.816-10.026666 20.650667 20.650667 0 0 0-5.632-8.106667M532.181333 170.666667C332.8 170.666667 170.666667 332.842667 170.666667 532.181333a361.258667 361.258667 0 0 0 246.613333 342.869334 20.181333 20.181333 0 0 0 12.8-38.272A320.768 320.768 0 0 1 211.029333 532.181333c0-177.066667 144.085333-321.194667 321.152-321.194666S853.333333 355.072 853.333333 532.181333a324.608 324.608 0 0 1-5.973333 61.952 20.138667 20.138667 0 0 0 16 23.637334 20.394667 20.394667 0 0 0 23.594667-16 370.176 370.176 0 0 0 6.741333-69.589334c0-199.338667-162.176-361.514667-361.514667-361.514666" /></svg>