<?xml version="1.0" standalone="no"?><!DOCTYPE svg PUBLIC "-//W3C//DTD SVG 1.1//EN" "http://www.w3.org/Graphics/SVG/1.1/DTD/svg11.dtd"><svg class="icon" width="200px" height="200.00px" viewBox="0 0 1024 1024" version="1.1" xmlns="http://www.w3.org/2000/svg"><path fill="#333333" d="M871.76576 572.544a20.181333 20.181333 0 0 0-23.381333 16.298667 320.554667 320.554667 0 0 1-316.202667 264.490666c-177.066667 0-321.152-144.085333-321.152-321.152 0-64.341333 18.901333-126.421333 54.784-179.456A321.194667 321.194667 0 0 1 848.384427 475.52a20.266667 20.266667 0 0 0 23.381333 16.213333 20.096 20.096 0 0 0 16.298667-23.296A361.514667 361.514667 0 0 0 232.40576 330.112 359.68 359.68 0 0 0 170.667093 532.181333C170.667093 731.52 332.800427 893.653333 532.18176 893.653333a360.832 360.832 0 0 0 355.84-297.728 20.138667 20.138667 0 0 0-16.256-23.381333M327.936427 450.56a21.333333 21.333333 0 0 0 0 42.666667h58.453333v38.954666a21.333333 21.333333 0 0 0 42.666667 0v-38.954666h55.296a21.333333 21.333333 0 0 0 0-42.666667h-55.296v-11.136h55.296a21.333333 21.333333 0 1 0 0-42.666667h-53.162667l49.066667-46.250666a21.333333 21.333333 0 1 0-29.226667-30.976l-44.501333 41.941333-44.416-41.941333a21.248 21.248 0 1 0-29.269334 30.976L381.867093 396.757333H327.936427a21.333333 21.333333 0 0 0 0 42.666667h58.453333v11.093333h-58.453333zM282.624427 581.034667a251.52 251.52 0 0 0 248.064 207.616 251.648 251.648 0 0 0 248.149333-207.573334 20.138667 20.138667 0 1 0-39.68-7.082666 211.328 211.328 0 0 1-208.469333 174.336 211.285333 211.285333 0 0 1-208.384-174.378667 20.138667 20.138667 0 1 0-39.68 7.082667M574.720427 479.445333a20.138667 20.138667 0 0 0 19.84-16.64 72.789333 72.789333 0 0 1 71.850666-60.117333c35.413333 0 65.706667 25.258667 71.893334 60.074667a20.138667 20.138667 0 1 0 39.68-7.082667 113.152 113.152 0 0 0-111.573334-93.312c-55.04 0-101.888 39.296-111.530666 93.354667a20.138667 20.138667 0 0 0 19.882666 23.722666" /></svg>