<?xml version="1.0" standalone="no"?><!DOCTYPE svg PUBLIC "-//W3C//DTD SVG 1.1//EN" "http://www.w3.org/Graphics/SVG/1.1/DTD/svg11.dtd"><svg class="icon" width="200px" height="192.12px" viewBox="0 0 1066 1024" version="1.1" xmlns="http://www.w3.org/2000/svg"><path fill="#333333" d="M829.525333 512a21.333333 21.333333 0 0 0 21.333334-21.333333V299.008C850.858667 251.776 813.653333 213.333333 767.829333 213.333333h-97.024A128.298667 128.298667 0 0 0 550.4 128a128.512 128.512 0 0 0-120.234667 85.333333H336.554667c-45.781333 0-83.029333 38.442667-83.029334 85.674667v511.317333c0 47.232 37.248 85.674667 83.029334 85.674667h431.274666c45.781333 0 83.029333-38.442667 83.029334-85.674667V618.666667a21.333333 21.333333 0 0 0-42.666667 0v191.658666c0 23.722667-18.090667 43.008-40.362667 43.008H336.554667c-22.272 0-40.362667-19.285333-40.362667-43.008V299.008c0-23.722667 18.090667-43.008 40.362667-43.008H443.733333a20.992 20.992 0 0 0 12.842667-4.736 20.992 20.992 0 0 0 10.538667-13.781333A85.802667 85.802667 0 0 1 550.4 170.666667c40.448 0 75.605333 28.714667 83.669333 68.266666a21.333333 21.333333 0 0 0 20.906667 17.066667c0.853333 0 1.706667-0.170667 2.56-0.256 0.469333 0 0.853333 0.256 1.322667 0.256h108.970666c22.272 0 40.362667 19.285333 40.362667 43.008V490.666667a21.333333 21.333333 0 0 0 21.333333 21.333333M445.525333 448h213.333334a21.333333 21.333333 0 0 0 0-42.666667h-213.333334a21.333333 21.333333 0 0 0 0 42.666667M445.525333 576h213.333334a21.333333 21.333333 0 0 0 0-42.666667h-213.333334a21.333333 21.333333 0 0 0 0 42.666667M447.317333 704h213.333334a21.333333 21.333333 0 0 0 0-42.666667h-213.333334a21.333333 21.333333 0 0 0 0 42.666667" /></svg>