<?xml version="1.0" standalone="no"?><!DOCTYPE svg PUBLIC "-//W3C//DTD SVG 1.1//EN" "http://www.w3.org/Graphics/SVG/1.1/DTD/svg11.dtd"><svg class="icon" width="200px" height="200.00px" viewBox="0 0 1024 1024" version="1.1" xmlns="http://www.w3.org/2000/svg"><path fill="#333333" d="M405.333333 853.333333H296.362667C274.133333 853.333333 256 834.048 256 810.325333V299.008C256 275.285333 274.133333 256 296.362667 256h107.178666c4.778667 0 8.96-1.877333 12.501334-4.48a21.205333 21.205333 0 0 0 10.88-14.08A85.76 85.76 0 0 1 510.208 170.666667c40.448 0 75.605333 28.714667 83.626667 68.266666a21.333333 21.333333 0 0 0 20.864 17.066667c0.896 0 1.792-0.170667 2.688-0.256 0.426667 0.042667 0.810667 0.256 1.28 0.256h108.970666c22.229333 0 40.362667 19.285333 40.362667 43.008v278.741333a21.333333 21.333333 0 0 0 42.666667 0V299.008C810.666667 251.733333 773.418667 213.333333 727.637333 213.333333H630.613333a128.298667 128.298667 0 0 0-120.405333-85.333333A128.512 128.512 0 0 0 389.973333 213.333333H296.362667C250.581333 213.333333 213.333333 251.733333 213.333333 299.008v511.317333C213.333333 857.6 250.581333 896 296.362667 896H405.333333a21.333333 21.333333 0 0 0 0-42.666667M659.541333 544.853333a21.333333 21.333333 0 0 0 0-42.666666h-124.885333v-23.893334l103.765333-97.92a21.333333 21.333333 0 1 0-29.269333-30.976l-98.133333 92.586667-98.176-92.586667a21.333333 21.333333 0 1 0-29.269334 31.018667l108.416 102.272v19.541333H360.874667a21.333333 21.333333 0 0 0 0 42.666667h131.114666v59.989333H360.874667a21.333333 21.333333 0 0 0 0 42.666667h131.114666v93.781333a21.333333 21.333333 0 1 0 42.666667 0v-93.781333h124.885333a21.333333 21.333333 0 1 0 0-42.666667h-124.885333V544.853333h124.885333zM854.144 705.536a20.736 20.736 0 0 0-5.674667-8.234667c-1.621333-1.408-3.541333-2.218667-5.461333-2.986666a20.650667 20.650667 0 0 0-10.282667-2.986667h-65.066666a21.290667 21.290667 0 1 0 0 42.666667h21.632l-70.698667 82.986666-100.821333-80.469333a21.333333 21.333333 0 0 0-29.013334 2.218667l-108.458666 117.888a21.333333 21.333333 0 0 0 31.445333 28.928l94.976-103.253334 101.418667 80.938667a21.333333 21.333333 0 0 0 29.568-2.816l76.501333-89.941333v10.069333a21.333333 21.333333 0 0 0 42.666667 0v-65.109333a20.608 20.608 0 0 0-2.730667-9.898667" /></svg>