<?xml version="1.0" standalone="no"?><!DOCTYPE svg PUBLIC "-//W3C//DTD SVG 1.1//EN" "http://www.w3.org/Graphics/SVG/1.1/DTD/svg11.dtd"><svg class="icon" width="200px" height="200.00px" viewBox="0 0 1024 1024" version="1.1" xmlns="http://www.w3.org/2000/svg"><path fill="#333333" d="M517.930667 776.96a184.448 184.448 0 0 1-31.786667-25.514667L213.333333 478.677333V213.333333h275.541334l288 288a21.333333 21.333333 0 1 0 30.165333-30.165333L514.944 179.029333A21.034667 21.034667 0 0 0 506.026667 173.994667 20.736 20.736 0 0 0 495.317333 170.666667H191.957333a21.333333 21.333333 0 0 0-21.333333 21.333333v292.266667c0 1.194667 0.554667 2.218667 0.725333 3.328a21.290667 21.290667 0 0 0 6.144 15.573333l278.485334 278.442667c11.818667 11.861333 25.002667 22.4 39.04 31.36a21.248 21.248 0 0 0 29.44-6.570667 21.333333 21.333333 0 0 0-6.528-29.44M405.333333 366.208a42.666667 42.666667 0 1 1-85.333333 0 42.666667 42.666667 0 0 1 85.333333 0m-128 0c0 47.061333 38.272 85.333333 85.333334 85.333333s85.333333-38.272 85.333333-85.333333-38.272-85.333333-85.333333-85.333333-85.333333 38.272-85.333334 85.333333M705.749333 640a64 64 0 1 0 0.042667 128.042667 64 64 0 0 0 0-128.042667M705.749333 810.666667a106.752 106.752 0 0 1-106.666666-106.666667c0-58.837333 47.829333-106.666667 106.666666-106.666667s106.666667 47.829333 106.666667 106.666667-47.829333 106.666667-106.666667 106.666667m0-256c-82.346667 0-149.333333 66.986667-149.333333 149.333333s66.986667 149.333333 149.333333 149.333333 149.333333-66.986667 149.333334-149.333333-66.986667-149.333333-149.333334-149.333333" /></svg>