<?xml version="1.0" standalone="no"?><!DOCTYPE svg PUBLIC "-//W3C//DTD SVG 1.1//EN" "http://www.w3.org/Graphics/SVG/1.1/DTD/svg11.dtd"><svg class="icon" width="200px" height="200.00px" viewBox="0 0 1024 1024" version="1.1" xmlns="http://www.w3.org/2000/svg"><path fill="#333333" d="M771.754667 305.408H201.6L257.28 249.728a21.333333 21.333333 0 0 0-30.165333-30.165333L139.093333 307.626667c-0.426667 0.426667-0.597333 0.981333-0.981333 1.450666A20.949333 20.949333 0 0 0 128 326.741333a21.333333 21.333333 0 0 0 21.333333 21.333334h622.421334c45.44 0 82.389333 36.949333 82.389333 82.389333a21.333333 21.333333 0 1 0 42.666667 0 125.226667 125.226667 0 0 0-125.013334-125.013333M253.781333 555.562667H523.093333a21.333333 21.333333 0 0 0 0-42.666667H253.781333A125.226667 125.226667 0 0 0 128.682667 637.994667a125.226667 125.226667 0 0 0 125.098666 125.056h219.221334L419.541333 816.469333a21.333333 21.333333 0 0 0 30.165334 30.165334l88.021333-87.978667a20.992 20.992 0 0 0 4.992-8.618667 21.333333 21.333333 0 0 0-19.626667-29.653333H253.781333a82.517333 82.517333 0 0 1-82.432-82.346667c0-45.482667 36.992-82.474667 82.432-82.474666M834.176 711.978667a7.125333 7.125333 0 0 1-7.125333 7.125333h-199.082667a7.125333 7.125333 0 0 1-7.125333-7.125333v-199.04c0-3.925333 3.2-7.168 7.125333-7.168h199.082667c3.925333 0 7.125333 3.242667 7.125333 7.168v199.04z m-7.125333-248.874667h-199.082667a49.92 49.92 0 0 0-49.792 49.834667v199.04c0 27.477333 22.357333 49.792 49.792 49.792h199.082667c27.434667 0 49.792-22.314667 49.792-49.792v-199.04a49.92 49.92 0 0 0-49.792-49.834667zM770.176 527.104h-85.333333a21.333333 21.333333 0 0 0 0 42.666667h85.333333a21.333333 21.333333 0 0 0 0-42.666667" /></svg>