<?xml version="1.0" standalone="no"?><!DOCTYPE svg PUBLIC "-//W3C//DTD SVG 1.1//EN" "http://www.w3.org/Graphics/SVG/1.1/DTD/svg11.dtd"><svg class="icon" width="200px" height="192.12px" viewBox="0 0 1066 1024" version="1.1" xmlns="http://www.w3.org/2000/svg"><path fill="#333333" d="M829.525333 512.896a21.333333 21.333333 0 0 0 21.333334-21.333333V213.674667C850.858667 166.442667 813.653333 128 767.829333 128H422.4a21.162667 21.162667 0 0 0-15.146667 6.4c-0.298667 0.256-0.682667 0.341333-0.938666 0.597333L259.754667 281.557333a21.077333 21.077333 0 0 0-5.973334 16.085334c-0.085333 0.341333-0.256 0.64-0.256 1.024v512.554666c0 47.232 37.248 85.674667 83.029334 85.674667h431.274666c45.781333 0 83.029333-38.442667 83.029334-85.674667v-191.658666a21.333333 21.333333 0 0 0-42.666667 0v191.658666c0 23.722667-18.090667 43.008-40.362667 43.008H336.554667c-22.272 0-40.362667-19.285333-40.362667-43.008V305.450667L431.018667 170.666667h336.853333c22.229333 0 40.32 19.285333 40.32 43.008v277.888a21.333333 21.333333 0 0 0 21.333333 21.333333M445.525333 405.333333h213.333334a21.333333 21.333333 0 0 0 0-42.666666h-213.333334a21.333333 21.333333 0 0 0 0 42.666666M445.525333 533.333333h213.333334a21.333333 21.333333 0 0 0 0-42.666666h-213.333334a21.333333 21.333333 0 0 0 0 42.666666M447.317333 661.333333h213.333334a21.333333 21.333333 0 0 0 0-42.666666h-213.333334a21.333333 21.333333 0 0 0 0 42.666666" /></svg>