<?xml version="1.0" standalone="no"?><!DOCTYPE svg PUBLIC "-//W3C//DTD SVG 1.1//EN" "http://www.w3.org/Graphics/SVG/1.1/DTD/svg11.dtd"><svg t="1569220880538" class="icon" viewBox="0 0 1024 1024" version="1.1" xmlns="http://www.w3.org/2000/svg" p-id="4356" xmlns:xlink="http://www.w3.org/1999/xlink" width="200" height="200"><defs><style type="text/css"></style></defs><path d="M960 42.666667H64c-12.8 0-21.333333 8.533333-21.333333 21.333333v896c0 12.8 8.533333 21.333333 21.333333 21.333333h896c12.8 0 21.333333-8.533333 21.333333-21.333333V64c0-12.8-8.533333-21.333333-21.333333-21.333333z m-21.333333 896H85.333333V682.666667h853.333334v256z m0-298.666667H85.333333V384h853.333334v256z m0-298.666667H85.333333V85.333333h853.333334v256zM298.666667 768h-42.666667v85.333333h42.666667v-85.333333z m-85.333334 0H170.666667v85.333333h42.666666v-85.333333z m661.333334 21.333333h-170.666667v42.666667h170.666667v-42.666667zM298.666667 469.333333h-42.666667v85.333334h42.666667v-85.333334z m-85.333334 0H170.666667v85.333334h42.666666v-85.333334z m661.333334 21.333334h-170.666667v42.666666h170.666667v-42.666666zM298.666667 170.666667h-42.666667v85.333333h42.666667V170.666667z m-85.333334 0H170.666667v85.333333h42.666666V170.666667z m661.333334 21.333333h-170.666667v42.666667h170.666667V192z" p-id="4357"></path></svg>