<?xml version="1.0" standalone="no"?><!DOCTYPE svg PUBLIC "-//W3C//DTD SVG 1.1//EN" "http://www.w3.org/Graphics/SVG/1.1/DTD/svg11.dtd"><svg t="1568099817715" class="icon" viewBox="0 0 1033 1024" version="1.1" xmlns="http://www.w3.org/2000/svg" p-id="2170" xmlns:xlink="http://www.w3.org/1999/xlink" width="201.7578125" height="200"><defs><style type="text/css"></style></defs><path d="M1009.6 764.342857H24c-13.257143 0-24-10.742857-24-24V49.142857c0-13.257143 10.742857-24 24-24h858.514286c12.571429 0 22.857143 10.285714 22.857143 22.857143s-10.285714 22.857143-22.857143 22.857143H45.714286v647.771428h942.171428V49.142857c0-12.571429 10.285714-22.857143 22.857143-22.857143s22.857143 10.285714 22.857143 22.857143v691.2c0 13.257143-10.857143 24-24 24zM882.514286 999.2H150.857143c-12.571429 0-22.857143-10.285714-22.857143-22.857143s10.285714-22.857143 22.857143-22.857143h731.542857c12.571429 0 22.857143 10.285714 22.857143 22.857143s-10.171429 22.857143-22.742857 22.857143zM658.514286 891.2H374.857143c-12.571429 0-22.857143-10.285714-22.857143-22.857143s10.285714-22.857143 22.857143-22.857143h283.542857c12.571429 0 22.857143 10.285714 22.857143 22.857143s-10.171429 22.857143-22.742857 22.857143z" p-id="2171"></path><path d="M260 568c-5.257143 0-10.628571-1.828571-14.971429-5.6-9.6-8.228571-10.628571-22.742857-2.4-32.228571L483.428571 251.542857c5.028571-5.828571 12.8-8.8 20.457143-7.657143 7.657143 1.142857 14.285714 6.057143 17.6 13.142857l75.542857 164.571429 158.857143-191.885714c8-9.714286 22.4-11.085714 32.228572-3.085715 9.714286 8 11.085714 22.4 3.085714 32.228572L609.257143 478.742857c-5.028571 6.057143-12.8 9.142857-20.571429 8.114286-7.771429-1.028571-14.514286-5.942857-17.828571-13.142857l-75.885714-165.371429-217.6 251.771429c-4.571429 5.257143-10.857143 7.885714-17.371429 7.885714z" p-id="2172"></path></svg>