<?xml version="1.0" standalone="no"?><!DOCTYPE svg PUBLIC "-//W3C//DTD SVG 1.1//EN" "http://www.w3.org/Graphics/SVG/1.1/DTD/svg11.dtd"><svg t="1568099786204" class="icon" viewBox="0 0 1024 1024" version="1.1" xmlns="http://www.w3.org/2000/svg" p-id="1887" xmlns:xlink="http://www.w3.org/1999/xlink" width="200" height="200"><defs><style type="text/css"></style></defs><path d="M512 870.4c199.68 0 358.4-158.72 358.4-358.4s-158.72-358.4-358.4-358.4-358.4 158.72-358.4 358.4 158.72 358.4 358.4 358.4z m0 102.4c-256 0-460.8-204.8-460.8-460.8s204.8-460.8 460.8-460.8 460.8 204.8 460.8 460.8-204.8 460.8-460.8 460.8z m51.2-486.4h153.6c25.6 0 51.2 20.48 51.2 51.2 0 25.6-20.48 51.2-51.2 51.2h-204.8c-25.6 0-51.2-20.48-51.2-51.2V256c0-30.72 20.48-51.2 51.2-51.2s51.2 20.48 51.2 51.2v230.4z" fill="#000000" p-id="1888"></path></svg>